%TF.GenerationSoftware,KiCad,Pcbnew,(5.1.8)-1*%
%TF.CreationDate,2020-12-04T16:42:46+03:00*%
%TF.ProjectId,Antenna,416e7465-6e6e-4612-9e6b-696361645f70,rev?*%
%TF.SameCoordinates,Original*%
%TF.FileFunction,Copper,L1,Top*%
%TF.FilePolarity,Positive*%
%FSLAX46Y46*%
G04 Gerber Fmt 4.6, Leading zero omitted, Abs format (unit mm)*
G04 Created by KiCad (PCBNEW (5.1.8)-1) date 2020-12-04 16:42:46*
%MOMM*%
%LPD*%
G01*
G04 APERTURE LIST*
%TA.AperFunction,SMDPad,CuDef*%
%ADD10R,1.350000X4.200000*%
%TD*%
%TA.AperFunction,SMDPad,CuDef*%
%ADD11R,1.270000X3.600000*%
%TD*%
%TA.AperFunction,SMDPad,CuDef*%
%ADD12C,0.100000*%
%TD*%
%TA.AperFunction,Conductor*%
%ADD13C,2.000000*%
%TD*%
G04 APERTURE END LIST*
D10*
%TO.P,J101,2*%
%TO.N,N/C*%
X146081000Y-42227500D03*
X140431000Y-42227500D03*
D11*
%TO.P,J101,1*%
X143256000Y-42027500D03*
%TD*%
D10*
%TO.P,J101,2*%
%TO.N,N/C*%
X220820500Y-42418000D03*
X215170500Y-42418000D03*
D11*
%TO.P,J101,1*%
X217995500Y-42218000D03*
%TD*%
D10*
%TO.P,J101,2*%
%TO.N,N/C*%
X170973000Y-42418000D03*
X165323000Y-42418000D03*
D11*
%TO.P,J101,1*%
X168148000Y-42218000D03*
%TD*%
%TO.P,J101,1*%
%TO.N,N/C*%
X192976500Y-42281500D03*
D10*
%TO.P,J101,2*%
X190151500Y-42481500D03*
X195801500Y-42481500D03*
%TD*%
%TA.AperFunction,SMDPad,CuDef*%
D12*
%TO.P,AE101,1*%
%TO.N,N/C*%
G36*
X183978363Y-73352495D02*
G01*
X183978302Y-73352498D01*
X183978241Y-73352495D01*
X183977604Y-73352490D01*
X183973098Y-73352207D01*
X183968547Y-73351952D01*
X183968206Y-73351899D01*
X183967853Y-73351877D01*
X183963372Y-73351151D01*
X183958892Y-73350458D01*
X183958551Y-73350370D01*
X183958209Y-73350315D01*
X183953861Y-73349166D01*
X183949429Y-73348028D01*
X183949098Y-73347908D01*
X183948763Y-73347819D01*
X183944495Y-73346232D01*
X183940248Y-73344686D01*
X183939938Y-73344537D01*
X183939606Y-73344414D01*
X183935488Y-73342405D01*
X183931438Y-73340465D01*
X183931141Y-73340285D01*
X183930825Y-73340131D01*
X183926961Y-73337754D01*
X183923081Y-73335404D01*
X183922800Y-73335194D01*
X183922503Y-73335011D01*
X183918878Y-73332259D01*
X183915258Y-73329551D01*
X183915002Y-73329318D01*
X183914721Y-73329104D01*
X183911378Y-73326008D01*
X183908043Y-73322963D01*
X183907809Y-73322703D01*
X183907553Y-73322466D01*
X183904538Y-73319070D01*
X183901506Y-73315703D01*
X183901300Y-73315423D01*
X183901066Y-73315160D01*
X183898403Y-73311494D01*
X183895708Y-73307839D01*
X183895527Y-73307536D01*
X183895324Y-73307256D01*
X183893051Y-73303383D01*
X183890705Y-73299447D01*
X183890555Y-73299128D01*
X183890380Y-73298830D01*
X183888503Y-73294768D01*
X183886545Y-73290607D01*
X183886426Y-73290272D01*
X183886282Y-73289961D01*
X183884813Y-73285743D01*
X183883268Y-73281403D01*
X183883182Y-73281059D01*
X183883069Y-73280734D01*
X183882013Y-73276369D01*
X183880904Y-73271923D01*
X183880853Y-73271576D01*
X183880771Y-73271238D01*
X183880148Y-73266801D01*
X183879477Y-73262258D01*
X183879460Y-73261902D01*
X183879412Y-73261563D01*
X183879223Y-73257053D01*
X183879000Y-73252500D01*
X183879000Y-59252500D01*
X183879005Y-59251863D01*
X183879002Y-59251802D01*
X183879005Y-59251741D01*
X183879010Y-59251104D01*
X183879293Y-59246598D01*
X183879548Y-59242047D01*
X183879601Y-59241706D01*
X183879623Y-59241353D01*
X183880349Y-59236872D01*
X183881042Y-59232392D01*
X183881130Y-59232051D01*
X183881185Y-59231709D01*
X183882334Y-59227361D01*
X183883472Y-59222929D01*
X183883592Y-59222598D01*
X183883681Y-59222263D01*
X183885268Y-59217995D01*
X183886814Y-59213748D01*
X183886963Y-59213438D01*
X183887086Y-59213106D01*
X183889095Y-59208988D01*
X183891035Y-59204938D01*
X183891215Y-59204641D01*
X183891369Y-59204325D01*
X183893746Y-59200461D01*
X183896096Y-59196581D01*
X183896306Y-59196300D01*
X183896489Y-59196003D01*
X183899241Y-59192378D01*
X183901949Y-59188758D01*
X183902182Y-59188502D01*
X183902396Y-59188221D01*
X183905492Y-59184878D01*
X183908537Y-59181543D01*
X183908797Y-59181309D01*
X183909034Y-59181053D01*
X183912430Y-59178038D01*
X183915797Y-59175006D01*
X183916077Y-59174800D01*
X183916340Y-59174566D01*
X183920006Y-59171903D01*
X183923661Y-59169208D01*
X183923964Y-59169027D01*
X183924244Y-59168824D01*
X183928117Y-59166551D01*
X183932053Y-59164205D01*
X183932372Y-59164055D01*
X183932670Y-59163880D01*
X183936732Y-59162003D01*
X183940893Y-59160045D01*
X183941228Y-59159926D01*
X183941539Y-59159782D01*
X183945757Y-59158313D01*
X183950097Y-59156768D01*
X183950441Y-59156682D01*
X183950766Y-59156569D01*
X183955131Y-59155513D01*
X183959577Y-59154404D01*
X183959924Y-59154353D01*
X183960262Y-59154271D01*
X183964699Y-59153648D01*
X183969242Y-59152977D01*
X183969598Y-59152960D01*
X183969937Y-59152912D01*
X183974447Y-59152723D01*
X183979000Y-59152500D01*
X191429000Y-59152500D01*
X191429637Y-59152505D01*
X191429698Y-59152502D01*
X191429759Y-59152505D01*
X191430396Y-59152510D01*
X191434902Y-59152793D01*
X191439453Y-59153048D01*
X191439794Y-59153101D01*
X191440147Y-59153123D01*
X191444628Y-59153849D01*
X191449108Y-59154542D01*
X191449449Y-59154630D01*
X191449791Y-59154685D01*
X191454139Y-59155834D01*
X191458571Y-59156972D01*
X191458902Y-59157092D01*
X191459237Y-59157181D01*
X191463505Y-59158768D01*
X191467752Y-59160314D01*
X191468062Y-59160463D01*
X191468394Y-59160586D01*
X191472512Y-59162595D01*
X191476562Y-59164535D01*
X191476859Y-59164715D01*
X191477175Y-59164869D01*
X191481039Y-59167246D01*
X191484919Y-59169596D01*
X191485200Y-59169806D01*
X191485497Y-59169989D01*
X191489122Y-59172741D01*
X191492742Y-59175449D01*
X191492998Y-59175682D01*
X191493279Y-59175896D01*
X191496622Y-59178992D01*
X191499957Y-59182037D01*
X191500191Y-59182297D01*
X191500447Y-59182534D01*
X191503462Y-59185930D01*
X191506494Y-59189297D01*
X191506700Y-59189577D01*
X191506934Y-59189840D01*
X191509597Y-59193506D01*
X191512292Y-59197161D01*
X191512473Y-59197464D01*
X191512676Y-59197744D01*
X191514949Y-59201617D01*
X191517295Y-59205553D01*
X191517445Y-59205872D01*
X191517620Y-59206170D01*
X191519497Y-59210232D01*
X191521455Y-59214393D01*
X191521574Y-59214728D01*
X191521718Y-59215039D01*
X191523187Y-59219257D01*
X191524732Y-59223597D01*
X191524818Y-59223941D01*
X191524931Y-59224266D01*
X191525987Y-59228631D01*
X191527096Y-59233077D01*
X191527147Y-59233424D01*
X191527229Y-59233762D01*
X191527852Y-59238199D01*
X191528523Y-59242742D01*
X191528540Y-59243098D01*
X191528588Y-59243437D01*
X191528777Y-59247947D01*
X191529000Y-59252500D01*
X191529000Y-64352500D01*
X191929000Y-64352500D01*
X191929000Y-59252500D01*
X191929005Y-59251863D01*
X191929002Y-59251802D01*
X191929005Y-59251741D01*
X191929010Y-59251104D01*
X191929293Y-59246598D01*
X191929548Y-59242047D01*
X191929601Y-59241706D01*
X191929623Y-59241353D01*
X191930349Y-59236872D01*
X191931042Y-59232392D01*
X191931130Y-59232051D01*
X191931185Y-59231709D01*
X191932334Y-59227361D01*
X191933472Y-59222929D01*
X191933592Y-59222598D01*
X191933681Y-59222263D01*
X191935268Y-59217995D01*
X191936814Y-59213748D01*
X191936963Y-59213438D01*
X191937086Y-59213106D01*
X191939095Y-59208988D01*
X191941035Y-59204938D01*
X191941215Y-59204641D01*
X191941369Y-59204325D01*
X191943746Y-59200461D01*
X191946096Y-59196581D01*
X191946306Y-59196300D01*
X191946489Y-59196003D01*
X191949241Y-59192378D01*
X191951949Y-59188758D01*
X191952182Y-59188502D01*
X191952396Y-59188221D01*
X191955492Y-59184878D01*
X191958537Y-59181543D01*
X191958797Y-59181309D01*
X191959034Y-59181053D01*
X191962430Y-59178038D01*
X191965797Y-59175006D01*
X191966077Y-59174800D01*
X191966340Y-59174566D01*
X191970006Y-59171903D01*
X191973661Y-59169208D01*
X191973964Y-59169027D01*
X191974244Y-59168824D01*
X191978117Y-59166551D01*
X191982053Y-59164205D01*
X191982372Y-59164055D01*
X191982670Y-59163880D01*
X191986732Y-59162003D01*
X191990893Y-59160045D01*
X191991228Y-59159926D01*
X191991539Y-59159782D01*
X191995757Y-59158313D01*
X192000097Y-59156768D01*
X192000441Y-59156682D01*
X192000766Y-59156569D01*
X192004000Y-59155786D01*
X192004000Y-46252500D01*
X192004005Y-46251863D01*
X192004002Y-46251802D01*
X192004005Y-46251741D01*
X192004010Y-46251104D01*
X192004293Y-46246598D01*
X192004548Y-46242047D01*
X192004601Y-46241706D01*
X192004623Y-46241353D01*
X192005349Y-46236872D01*
X192006042Y-46232392D01*
X192006130Y-46232051D01*
X192006185Y-46231709D01*
X192007334Y-46227361D01*
X192008472Y-46222929D01*
X192008592Y-46222598D01*
X192008681Y-46222263D01*
X192010268Y-46217995D01*
X192011814Y-46213748D01*
X192011963Y-46213438D01*
X192012086Y-46213106D01*
X192014095Y-46208988D01*
X192016035Y-46204938D01*
X192016215Y-46204641D01*
X192016369Y-46204325D01*
X192018746Y-46200461D01*
X192021096Y-46196581D01*
X192021306Y-46196300D01*
X192021489Y-46196003D01*
X192024241Y-46192378D01*
X192026949Y-46188758D01*
X192027182Y-46188502D01*
X192027396Y-46188221D01*
X192030492Y-46184878D01*
X192033537Y-46181543D01*
X192033797Y-46181309D01*
X192034034Y-46181053D01*
X192037430Y-46178038D01*
X192040797Y-46175006D01*
X192041077Y-46174800D01*
X192041340Y-46174566D01*
X192045006Y-46171903D01*
X192048661Y-46169208D01*
X192048964Y-46169027D01*
X192049244Y-46168824D01*
X192053117Y-46166551D01*
X192057053Y-46164205D01*
X192057372Y-46164055D01*
X192057670Y-46163880D01*
X192061732Y-46162003D01*
X192065893Y-46160045D01*
X192066228Y-46159926D01*
X192066539Y-46159782D01*
X192070757Y-46158313D01*
X192075097Y-46156768D01*
X192075441Y-46156682D01*
X192075766Y-46156569D01*
X192080131Y-46155513D01*
X192084577Y-46154404D01*
X192084924Y-46154353D01*
X192085262Y-46154271D01*
X192089699Y-46153648D01*
X192094242Y-46152977D01*
X192094598Y-46152960D01*
X192094937Y-46152912D01*
X192099447Y-46152723D01*
X192104000Y-46152500D01*
X193854000Y-46152500D01*
X193854637Y-46152505D01*
X193854698Y-46152502D01*
X193854759Y-46152505D01*
X193855396Y-46152510D01*
X193859902Y-46152793D01*
X193864453Y-46153048D01*
X193864794Y-46153101D01*
X193865147Y-46153123D01*
X193869628Y-46153849D01*
X193874108Y-46154542D01*
X193874449Y-46154630D01*
X193874791Y-46154685D01*
X193879139Y-46155834D01*
X193883571Y-46156972D01*
X193883902Y-46157092D01*
X193884237Y-46157181D01*
X193888505Y-46158768D01*
X193892752Y-46160314D01*
X193893062Y-46160463D01*
X193893394Y-46160586D01*
X193897512Y-46162595D01*
X193901562Y-46164535D01*
X193901859Y-46164715D01*
X193902175Y-46164869D01*
X193906039Y-46167246D01*
X193909919Y-46169596D01*
X193910200Y-46169806D01*
X193910497Y-46169989D01*
X193914122Y-46172741D01*
X193917742Y-46175449D01*
X193917998Y-46175682D01*
X193918279Y-46175896D01*
X193921622Y-46178992D01*
X193924957Y-46182037D01*
X193925191Y-46182297D01*
X193925447Y-46182534D01*
X193928462Y-46185930D01*
X193931494Y-46189297D01*
X193931700Y-46189577D01*
X193931934Y-46189840D01*
X193934597Y-46193506D01*
X193937292Y-46197161D01*
X193937473Y-46197464D01*
X193937676Y-46197744D01*
X193939949Y-46201617D01*
X193942295Y-46205553D01*
X193942445Y-46205872D01*
X193942620Y-46206170D01*
X193944497Y-46210232D01*
X193946455Y-46214393D01*
X193946574Y-46214728D01*
X193946718Y-46215039D01*
X193948187Y-46219257D01*
X193949732Y-46223597D01*
X193949818Y-46223941D01*
X193949931Y-46224266D01*
X193950987Y-46228631D01*
X193952096Y-46233077D01*
X193952147Y-46233424D01*
X193952229Y-46233762D01*
X193952852Y-46238199D01*
X193953523Y-46242742D01*
X193953540Y-46243098D01*
X193953588Y-46243437D01*
X193953777Y-46247947D01*
X193954000Y-46252500D01*
X193954000Y-59155797D01*
X193954139Y-59155834D01*
X193958571Y-59156972D01*
X193958902Y-59157092D01*
X193959237Y-59157181D01*
X193963505Y-59158768D01*
X193967752Y-59160314D01*
X193968062Y-59160463D01*
X193968394Y-59160586D01*
X193972512Y-59162595D01*
X193976562Y-59164535D01*
X193976859Y-59164715D01*
X193977175Y-59164869D01*
X193981039Y-59167246D01*
X193984919Y-59169596D01*
X193985200Y-59169806D01*
X193985497Y-59169989D01*
X193989122Y-59172741D01*
X193992742Y-59175449D01*
X193992998Y-59175682D01*
X193993279Y-59175896D01*
X193996622Y-59178992D01*
X193999957Y-59182037D01*
X194000191Y-59182297D01*
X194000447Y-59182534D01*
X194003462Y-59185930D01*
X194006494Y-59189297D01*
X194006700Y-59189577D01*
X194006934Y-59189840D01*
X194009597Y-59193506D01*
X194012292Y-59197161D01*
X194012473Y-59197464D01*
X194012676Y-59197744D01*
X194014949Y-59201617D01*
X194017295Y-59205553D01*
X194017445Y-59205872D01*
X194017620Y-59206170D01*
X194019497Y-59210232D01*
X194021455Y-59214393D01*
X194021574Y-59214728D01*
X194021718Y-59215039D01*
X194023187Y-59219257D01*
X194024732Y-59223597D01*
X194024818Y-59223941D01*
X194024931Y-59224266D01*
X194025987Y-59228631D01*
X194027096Y-59233077D01*
X194027147Y-59233424D01*
X194027229Y-59233762D01*
X194027852Y-59238199D01*
X194028523Y-59242742D01*
X194028540Y-59243098D01*
X194028588Y-59243437D01*
X194028777Y-59247947D01*
X194029000Y-59252500D01*
X194029000Y-64352500D01*
X194429000Y-64352500D01*
X194429000Y-59252500D01*
X194429005Y-59251863D01*
X194429002Y-59251802D01*
X194429005Y-59251741D01*
X194429010Y-59251104D01*
X194429293Y-59246598D01*
X194429548Y-59242047D01*
X194429601Y-59241706D01*
X194429623Y-59241353D01*
X194430349Y-59236872D01*
X194431042Y-59232392D01*
X194431130Y-59232051D01*
X194431185Y-59231709D01*
X194432334Y-59227361D01*
X194433472Y-59222929D01*
X194433592Y-59222598D01*
X194433681Y-59222263D01*
X194435268Y-59217995D01*
X194436814Y-59213748D01*
X194436963Y-59213438D01*
X194437086Y-59213106D01*
X194439095Y-59208988D01*
X194441035Y-59204938D01*
X194441215Y-59204641D01*
X194441369Y-59204325D01*
X194443746Y-59200461D01*
X194446096Y-59196581D01*
X194446306Y-59196300D01*
X194446489Y-59196003D01*
X194449241Y-59192378D01*
X194451949Y-59188758D01*
X194452182Y-59188502D01*
X194452396Y-59188221D01*
X194455492Y-59184878D01*
X194458537Y-59181543D01*
X194458797Y-59181309D01*
X194459034Y-59181053D01*
X194462430Y-59178038D01*
X194465797Y-59175006D01*
X194466077Y-59174800D01*
X194466340Y-59174566D01*
X194470006Y-59171903D01*
X194473661Y-59169208D01*
X194473964Y-59169027D01*
X194474244Y-59168824D01*
X194478117Y-59166551D01*
X194482053Y-59164205D01*
X194482372Y-59164055D01*
X194482670Y-59163880D01*
X194486732Y-59162003D01*
X194490893Y-59160045D01*
X194491228Y-59159926D01*
X194491539Y-59159782D01*
X194495757Y-59158313D01*
X194500097Y-59156768D01*
X194500441Y-59156682D01*
X194500766Y-59156569D01*
X194505131Y-59155513D01*
X194509577Y-59154404D01*
X194509924Y-59154353D01*
X194510262Y-59154271D01*
X194514699Y-59153648D01*
X194519242Y-59152977D01*
X194519598Y-59152960D01*
X194519937Y-59152912D01*
X194524447Y-59152723D01*
X194529000Y-59152500D01*
X201979000Y-59152500D01*
X201979637Y-59152505D01*
X201979698Y-59152502D01*
X201979759Y-59152505D01*
X201980396Y-59152510D01*
X201984902Y-59152793D01*
X201989453Y-59153048D01*
X201989794Y-59153101D01*
X201990147Y-59153123D01*
X201994628Y-59153849D01*
X201999108Y-59154542D01*
X201999449Y-59154630D01*
X201999791Y-59154685D01*
X202004139Y-59155834D01*
X202008571Y-59156972D01*
X202008902Y-59157092D01*
X202009237Y-59157181D01*
X202013505Y-59158768D01*
X202017752Y-59160314D01*
X202018062Y-59160463D01*
X202018394Y-59160586D01*
X202022512Y-59162595D01*
X202026562Y-59164535D01*
X202026859Y-59164715D01*
X202027175Y-59164869D01*
X202031039Y-59167246D01*
X202034919Y-59169596D01*
X202035200Y-59169806D01*
X202035497Y-59169989D01*
X202039122Y-59172741D01*
X202042742Y-59175449D01*
X202042998Y-59175682D01*
X202043279Y-59175896D01*
X202046622Y-59178992D01*
X202049957Y-59182037D01*
X202050191Y-59182297D01*
X202050447Y-59182534D01*
X202053462Y-59185930D01*
X202056494Y-59189297D01*
X202056700Y-59189577D01*
X202056934Y-59189840D01*
X202059597Y-59193506D01*
X202062292Y-59197161D01*
X202062473Y-59197464D01*
X202062676Y-59197744D01*
X202064949Y-59201617D01*
X202067295Y-59205553D01*
X202067445Y-59205872D01*
X202067620Y-59206170D01*
X202069497Y-59210232D01*
X202071455Y-59214393D01*
X202071574Y-59214728D01*
X202071718Y-59215039D01*
X202073187Y-59219257D01*
X202074732Y-59223597D01*
X202074818Y-59223941D01*
X202074931Y-59224266D01*
X202075987Y-59228631D01*
X202077096Y-59233077D01*
X202077147Y-59233424D01*
X202077229Y-59233762D01*
X202077852Y-59238199D01*
X202078523Y-59242742D01*
X202078540Y-59243098D01*
X202078588Y-59243437D01*
X202078777Y-59247947D01*
X202079000Y-59252500D01*
X202079000Y-73252500D01*
X202078995Y-73253137D01*
X202078998Y-73253198D01*
X202078995Y-73253259D01*
X202078990Y-73253896D01*
X202078707Y-73258402D01*
X202078452Y-73262953D01*
X202078399Y-73263294D01*
X202078377Y-73263647D01*
X202077651Y-73268128D01*
X202076958Y-73272608D01*
X202076870Y-73272949D01*
X202076815Y-73273291D01*
X202075666Y-73277639D01*
X202074528Y-73282071D01*
X202074408Y-73282402D01*
X202074319Y-73282737D01*
X202072732Y-73287005D01*
X202071186Y-73291252D01*
X202071037Y-73291562D01*
X202070914Y-73291894D01*
X202068905Y-73296012D01*
X202066965Y-73300062D01*
X202066785Y-73300359D01*
X202066631Y-73300675D01*
X202064254Y-73304539D01*
X202061904Y-73308419D01*
X202061694Y-73308700D01*
X202061511Y-73308997D01*
X202058759Y-73312622D01*
X202056051Y-73316242D01*
X202055818Y-73316498D01*
X202055604Y-73316779D01*
X202052508Y-73320122D01*
X202049463Y-73323457D01*
X202049203Y-73323691D01*
X202048966Y-73323947D01*
X202045570Y-73326962D01*
X202042203Y-73329994D01*
X202041923Y-73330200D01*
X202041660Y-73330434D01*
X202037994Y-73333097D01*
X202034339Y-73335792D01*
X202034036Y-73335973D01*
X202033756Y-73336176D01*
X202029883Y-73338449D01*
X202025947Y-73340795D01*
X202025628Y-73340945D01*
X202025330Y-73341120D01*
X202021268Y-73342997D01*
X202017107Y-73344955D01*
X202016772Y-73345074D01*
X202016461Y-73345218D01*
X202012243Y-73346687D01*
X202007903Y-73348232D01*
X202007559Y-73348318D01*
X202007234Y-73348431D01*
X202002869Y-73349487D01*
X201998423Y-73350596D01*
X201998076Y-73350647D01*
X201997738Y-73350729D01*
X201993301Y-73351352D01*
X201988758Y-73352023D01*
X201988402Y-73352040D01*
X201988063Y-73352088D01*
X201983553Y-73352277D01*
X201979000Y-73352500D01*
X183979000Y-73352500D01*
X183978363Y-73352495D01*
G37*
%TD.AperFunction*%
%TD*%
%TA.AperFunction,SMDPad,CuDef*%
%TO.P,AE101,1*%
%TO.N,N/C*%
G36*
X208997363Y-73288995D02*
G01*
X208997302Y-73288998D01*
X208997241Y-73288995D01*
X208996604Y-73288990D01*
X208992098Y-73288707D01*
X208987547Y-73288452D01*
X208987206Y-73288399D01*
X208986853Y-73288377D01*
X208982372Y-73287651D01*
X208977892Y-73286958D01*
X208977551Y-73286870D01*
X208977209Y-73286815D01*
X208972861Y-73285666D01*
X208968429Y-73284528D01*
X208968098Y-73284408D01*
X208967763Y-73284319D01*
X208963495Y-73282732D01*
X208959248Y-73281186D01*
X208958938Y-73281037D01*
X208958606Y-73280914D01*
X208954488Y-73278905D01*
X208950438Y-73276965D01*
X208950141Y-73276785D01*
X208949825Y-73276631D01*
X208945961Y-73274254D01*
X208942081Y-73271904D01*
X208941800Y-73271694D01*
X208941503Y-73271511D01*
X208937878Y-73268759D01*
X208934258Y-73266051D01*
X208934002Y-73265818D01*
X208933721Y-73265604D01*
X208930378Y-73262508D01*
X208927043Y-73259463D01*
X208926809Y-73259203D01*
X208926553Y-73258966D01*
X208923538Y-73255570D01*
X208920506Y-73252203D01*
X208920300Y-73251923D01*
X208920066Y-73251660D01*
X208917403Y-73247994D01*
X208914708Y-73244339D01*
X208914527Y-73244036D01*
X208914324Y-73243756D01*
X208912051Y-73239883D01*
X208909705Y-73235947D01*
X208909555Y-73235628D01*
X208909380Y-73235330D01*
X208907503Y-73231268D01*
X208905545Y-73227107D01*
X208905426Y-73226772D01*
X208905282Y-73226461D01*
X208903813Y-73222243D01*
X208902268Y-73217903D01*
X208902182Y-73217559D01*
X208902069Y-73217234D01*
X208901013Y-73212869D01*
X208899904Y-73208423D01*
X208899853Y-73208076D01*
X208899771Y-73207738D01*
X208899148Y-73203301D01*
X208898477Y-73198758D01*
X208898460Y-73198402D01*
X208898412Y-73198063D01*
X208898223Y-73193553D01*
X208898000Y-73189000D01*
X208898000Y-59189000D01*
X208898005Y-59188363D01*
X208898002Y-59188302D01*
X208898005Y-59188241D01*
X208898010Y-59187604D01*
X208898293Y-59183098D01*
X208898548Y-59178547D01*
X208898601Y-59178206D01*
X208898623Y-59177853D01*
X208899349Y-59173372D01*
X208900042Y-59168892D01*
X208900130Y-59168551D01*
X208900185Y-59168209D01*
X208901334Y-59163861D01*
X208902472Y-59159429D01*
X208902592Y-59159098D01*
X208902681Y-59158763D01*
X208904268Y-59154495D01*
X208905814Y-59150248D01*
X208905963Y-59149938D01*
X208906086Y-59149606D01*
X208908095Y-59145488D01*
X208910035Y-59141438D01*
X208910215Y-59141141D01*
X208910369Y-59140825D01*
X208912746Y-59136961D01*
X208915096Y-59133081D01*
X208915306Y-59132800D01*
X208915489Y-59132503D01*
X208918241Y-59128878D01*
X208920949Y-59125258D01*
X208921182Y-59125002D01*
X208921396Y-59124721D01*
X208924492Y-59121378D01*
X208927537Y-59118043D01*
X208927797Y-59117809D01*
X208928034Y-59117553D01*
X208931430Y-59114538D01*
X208934797Y-59111506D01*
X208935077Y-59111300D01*
X208935340Y-59111066D01*
X208939006Y-59108403D01*
X208942661Y-59105708D01*
X208942964Y-59105527D01*
X208943244Y-59105324D01*
X208947117Y-59103051D01*
X208951053Y-59100705D01*
X208951372Y-59100555D01*
X208951670Y-59100380D01*
X208955732Y-59098503D01*
X208959893Y-59096545D01*
X208960228Y-59096426D01*
X208960539Y-59096282D01*
X208964757Y-59094813D01*
X208969097Y-59093268D01*
X208969441Y-59093182D01*
X208969766Y-59093069D01*
X208974131Y-59092013D01*
X208978577Y-59090904D01*
X208978924Y-59090853D01*
X208979262Y-59090771D01*
X208983699Y-59090148D01*
X208988242Y-59089477D01*
X208988598Y-59089460D01*
X208988937Y-59089412D01*
X208993447Y-59089223D01*
X208998000Y-59089000D01*
X216448000Y-59089000D01*
X216448637Y-59089005D01*
X216448698Y-59089002D01*
X216448759Y-59089005D01*
X216449396Y-59089010D01*
X216453902Y-59089293D01*
X216458453Y-59089548D01*
X216458794Y-59089601D01*
X216459147Y-59089623D01*
X216463628Y-59090349D01*
X216468108Y-59091042D01*
X216468449Y-59091130D01*
X216468791Y-59091185D01*
X216473139Y-59092334D01*
X216477571Y-59093472D01*
X216477902Y-59093592D01*
X216478237Y-59093681D01*
X216482505Y-59095268D01*
X216486752Y-59096814D01*
X216487062Y-59096963D01*
X216487394Y-59097086D01*
X216491512Y-59099095D01*
X216495562Y-59101035D01*
X216495859Y-59101215D01*
X216496175Y-59101369D01*
X216500039Y-59103746D01*
X216503919Y-59106096D01*
X216504200Y-59106306D01*
X216504497Y-59106489D01*
X216508122Y-59109241D01*
X216511742Y-59111949D01*
X216511998Y-59112182D01*
X216512279Y-59112396D01*
X216515622Y-59115492D01*
X216518957Y-59118537D01*
X216519191Y-59118797D01*
X216519447Y-59119034D01*
X216522462Y-59122430D01*
X216525494Y-59125797D01*
X216525700Y-59126077D01*
X216525934Y-59126340D01*
X216528597Y-59130006D01*
X216531292Y-59133661D01*
X216531473Y-59133964D01*
X216531676Y-59134244D01*
X216533949Y-59138117D01*
X216536295Y-59142053D01*
X216536445Y-59142372D01*
X216536620Y-59142670D01*
X216538497Y-59146732D01*
X216540455Y-59150893D01*
X216540574Y-59151228D01*
X216540718Y-59151539D01*
X216542187Y-59155757D01*
X216543732Y-59160097D01*
X216543818Y-59160441D01*
X216543931Y-59160766D01*
X216544987Y-59165131D01*
X216546096Y-59169577D01*
X216546147Y-59169924D01*
X216546229Y-59170262D01*
X216546852Y-59174699D01*
X216547523Y-59179242D01*
X216547540Y-59179598D01*
X216547588Y-59179937D01*
X216547777Y-59184447D01*
X216548000Y-59189000D01*
X216548000Y-64289000D01*
X216948000Y-64289000D01*
X216948000Y-59189000D01*
X216948005Y-59188363D01*
X216948002Y-59188302D01*
X216948005Y-59188241D01*
X216948010Y-59187604D01*
X216948293Y-59183098D01*
X216948548Y-59178547D01*
X216948601Y-59178206D01*
X216948623Y-59177853D01*
X216949349Y-59173372D01*
X216950042Y-59168892D01*
X216950130Y-59168551D01*
X216950185Y-59168209D01*
X216951334Y-59163861D01*
X216952472Y-59159429D01*
X216952592Y-59159098D01*
X216952681Y-59158763D01*
X216954268Y-59154495D01*
X216955814Y-59150248D01*
X216955963Y-59149938D01*
X216956086Y-59149606D01*
X216958095Y-59145488D01*
X216960035Y-59141438D01*
X216960215Y-59141141D01*
X216960369Y-59140825D01*
X216962746Y-59136961D01*
X216965096Y-59133081D01*
X216965306Y-59132800D01*
X216965489Y-59132503D01*
X216968241Y-59128878D01*
X216970949Y-59125258D01*
X216971182Y-59125002D01*
X216971396Y-59124721D01*
X216974492Y-59121378D01*
X216977537Y-59118043D01*
X216977797Y-59117809D01*
X216978034Y-59117553D01*
X216981430Y-59114538D01*
X216984797Y-59111506D01*
X216985077Y-59111300D01*
X216985340Y-59111066D01*
X216989006Y-59108403D01*
X216992661Y-59105708D01*
X216992964Y-59105527D01*
X216993244Y-59105324D01*
X216997117Y-59103051D01*
X217001053Y-59100705D01*
X217001372Y-59100555D01*
X217001670Y-59100380D01*
X217005732Y-59098503D01*
X217009893Y-59096545D01*
X217010228Y-59096426D01*
X217010539Y-59096282D01*
X217014757Y-59094813D01*
X217019097Y-59093268D01*
X217019441Y-59093182D01*
X217019766Y-59093069D01*
X217023000Y-59092286D01*
X217023000Y-46189000D01*
X217023005Y-46188363D01*
X217023002Y-46188302D01*
X217023005Y-46188241D01*
X217023010Y-46187604D01*
X217023293Y-46183098D01*
X217023548Y-46178547D01*
X217023601Y-46178206D01*
X217023623Y-46177853D01*
X217024349Y-46173372D01*
X217025042Y-46168892D01*
X217025130Y-46168551D01*
X217025185Y-46168209D01*
X217026334Y-46163861D01*
X217027472Y-46159429D01*
X217027592Y-46159098D01*
X217027681Y-46158763D01*
X217029268Y-46154495D01*
X217030814Y-46150248D01*
X217030963Y-46149938D01*
X217031086Y-46149606D01*
X217033095Y-46145488D01*
X217035035Y-46141438D01*
X217035215Y-46141141D01*
X217035369Y-46140825D01*
X217037746Y-46136961D01*
X217040096Y-46133081D01*
X217040306Y-46132800D01*
X217040489Y-46132503D01*
X217043241Y-46128878D01*
X217045949Y-46125258D01*
X217046182Y-46125002D01*
X217046396Y-46124721D01*
X217049492Y-46121378D01*
X217052537Y-46118043D01*
X217052797Y-46117809D01*
X217053034Y-46117553D01*
X217056430Y-46114538D01*
X217059797Y-46111506D01*
X217060077Y-46111300D01*
X217060340Y-46111066D01*
X217064006Y-46108403D01*
X217067661Y-46105708D01*
X217067964Y-46105527D01*
X217068244Y-46105324D01*
X217072117Y-46103051D01*
X217076053Y-46100705D01*
X217076372Y-46100555D01*
X217076670Y-46100380D01*
X217080732Y-46098503D01*
X217084893Y-46096545D01*
X217085228Y-46096426D01*
X217085539Y-46096282D01*
X217089757Y-46094813D01*
X217094097Y-46093268D01*
X217094441Y-46093182D01*
X217094766Y-46093069D01*
X217099131Y-46092013D01*
X217103577Y-46090904D01*
X217103924Y-46090853D01*
X217104262Y-46090771D01*
X217108699Y-46090148D01*
X217113242Y-46089477D01*
X217113598Y-46089460D01*
X217113937Y-46089412D01*
X217118447Y-46089223D01*
X217123000Y-46089000D01*
X218873000Y-46089000D01*
X218873637Y-46089005D01*
X218873698Y-46089002D01*
X218873759Y-46089005D01*
X218874396Y-46089010D01*
X218878902Y-46089293D01*
X218883453Y-46089548D01*
X218883794Y-46089601D01*
X218884147Y-46089623D01*
X218888628Y-46090349D01*
X218893108Y-46091042D01*
X218893449Y-46091130D01*
X218893791Y-46091185D01*
X218898139Y-46092334D01*
X218902571Y-46093472D01*
X218902902Y-46093592D01*
X218903237Y-46093681D01*
X218907505Y-46095268D01*
X218911752Y-46096814D01*
X218912062Y-46096963D01*
X218912394Y-46097086D01*
X218916512Y-46099095D01*
X218920562Y-46101035D01*
X218920859Y-46101215D01*
X218921175Y-46101369D01*
X218925039Y-46103746D01*
X218928919Y-46106096D01*
X218929200Y-46106306D01*
X218929497Y-46106489D01*
X218933122Y-46109241D01*
X218936742Y-46111949D01*
X218936998Y-46112182D01*
X218937279Y-46112396D01*
X218940622Y-46115492D01*
X218943957Y-46118537D01*
X218944191Y-46118797D01*
X218944447Y-46119034D01*
X218947462Y-46122430D01*
X218950494Y-46125797D01*
X218950700Y-46126077D01*
X218950934Y-46126340D01*
X218953597Y-46130006D01*
X218956292Y-46133661D01*
X218956473Y-46133964D01*
X218956676Y-46134244D01*
X218958949Y-46138117D01*
X218961295Y-46142053D01*
X218961445Y-46142372D01*
X218961620Y-46142670D01*
X218963497Y-46146732D01*
X218965455Y-46150893D01*
X218965574Y-46151228D01*
X218965718Y-46151539D01*
X218967187Y-46155757D01*
X218968732Y-46160097D01*
X218968818Y-46160441D01*
X218968931Y-46160766D01*
X218969987Y-46165131D01*
X218971096Y-46169577D01*
X218971147Y-46169924D01*
X218971229Y-46170262D01*
X218971852Y-46174699D01*
X218972523Y-46179242D01*
X218972540Y-46179598D01*
X218972588Y-46179937D01*
X218972777Y-46184447D01*
X218973000Y-46189000D01*
X218973000Y-59092297D01*
X218973139Y-59092334D01*
X218977571Y-59093472D01*
X218977902Y-59093592D01*
X218978237Y-59093681D01*
X218982505Y-59095268D01*
X218986752Y-59096814D01*
X218987062Y-59096963D01*
X218987394Y-59097086D01*
X218991512Y-59099095D01*
X218995562Y-59101035D01*
X218995859Y-59101215D01*
X218996175Y-59101369D01*
X219000039Y-59103746D01*
X219003919Y-59106096D01*
X219004200Y-59106306D01*
X219004497Y-59106489D01*
X219008122Y-59109241D01*
X219011742Y-59111949D01*
X219011998Y-59112182D01*
X219012279Y-59112396D01*
X219015622Y-59115492D01*
X219018957Y-59118537D01*
X219019191Y-59118797D01*
X219019447Y-59119034D01*
X219022462Y-59122430D01*
X219025494Y-59125797D01*
X219025700Y-59126077D01*
X219025934Y-59126340D01*
X219028597Y-59130006D01*
X219031292Y-59133661D01*
X219031473Y-59133964D01*
X219031676Y-59134244D01*
X219033949Y-59138117D01*
X219036295Y-59142053D01*
X219036445Y-59142372D01*
X219036620Y-59142670D01*
X219038497Y-59146732D01*
X219040455Y-59150893D01*
X219040574Y-59151228D01*
X219040718Y-59151539D01*
X219042187Y-59155757D01*
X219043732Y-59160097D01*
X219043818Y-59160441D01*
X219043931Y-59160766D01*
X219044987Y-59165131D01*
X219046096Y-59169577D01*
X219046147Y-59169924D01*
X219046229Y-59170262D01*
X219046852Y-59174699D01*
X219047523Y-59179242D01*
X219047540Y-59179598D01*
X219047588Y-59179937D01*
X219047777Y-59184447D01*
X219048000Y-59189000D01*
X219048000Y-64289000D01*
X219448000Y-64289000D01*
X219448000Y-59189000D01*
X219448005Y-59188363D01*
X219448002Y-59188302D01*
X219448005Y-59188241D01*
X219448010Y-59187604D01*
X219448293Y-59183098D01*
X219448548Y-59178547D01*
X219448601Y-59178206D01*
X219448623Y-59177853D01*
X219449349Y-59173372D01*
X219450042Y-59168892D01*
X219450130Y-59168551D01*
X219450185Y-59168209D01*
X219451334Y-59163861D01*
X219452472Y-59159429D01*
X219452592Y-59159098D01*
X219452681Y-59158763D01*
X219454268Y-59154495D01*
X219455814Y-59150248D01*
X219455963Y-59149938D01*
X219456086Y-59149606D01*
X219458095Y-59145488D01*
X219460035Y-59141438D01*
X219460215Y-59141141D01*
X219460369Y-59140825D01*
X219462746Y-59136961D01*
X219465096Y-59133081D01*
X219465306Y-59132800D01*
X219465489Y-59132503D01*
X219468241Y-59128878D01*
X219470949Y-59125258D01*
X219471182Y-59125002D01*
X219471396Y-59124721D01*
X219474492Y-59121378D01*
X219477537Y-59118043D01*
X219477797Y-59117809D01*
X219478034Y-59117553D01*
X219481430Y-59114538D01*
X219484797Y-59111506D01*
X219485077Y-59111300D01*
X219485340Y-59111066D01*
X219489006Y-59108403D01*
X219492661Y-59105708D01*
X219492964Y-59105527D01*
X219493244Y-59105324D01*
X219497117Y-59103051D01*
X219501053Y-59100705D01*
X219501372Y-59100555D01*
X219501670Y-59100380D01*
X219505732Y-59098503D01*
X219509893Y-59096545D01*
X219510228Y-59096426D01*
X219510539Y-59096282D01*
X219514757Y-59094813D01*
X219519097Y-59093268D01*
X219519441Y-59093182D01*
X219519766Y-59093069D01*
X219524131Y-59092013D01*
X219528577Y-59090904D01*
X219528924Y-59090853D01*
X219529262Y-59090771D01*
X219533699Y-59090148D01*
X219538242Y-59089477D01*
X219538598Y-59089460D01*
X219538937Y-59089412D01*
X219543447Y-59089223D01*
X219548000Y-59089000D01*
X226998000Y-59089000D01*
X226998637Y-59089005D01*
X226998698Y-59089002D01*
X226998759Y-59089005D01*
X226999396Y-59089010D01*
X227003902Y-59089293D01*
X227008453Y-59089548D01*
X227008794Y-59089601D01*
X227009147Y-59089623D01*
X227013628Y-59090349D01*
X227018108Y-59091042D01*
X227018449Y-59091130D01*
X227018791Y-59091185D01*
X227023139Y-59092334D01*
X227027571Y-59093472D01*
X227027902Y-59093592D01*
X227028237Y-59093681D01*
X227032505Y-59095268D01*
X227036752Y-59096814D01*
X227037062Y-59096963D01*
X227037394Y-59097086D01*
X227041512Y-59099095D01*
X227045562Y-59101035D01*
X227045859Y-59101215D01*
X227046175Y-59101369D01*
X227050039Y-59103746D01*
X227053919Y-59106096D01*
X227054200Y-59106306D01*
X227054497Y-59106489D01*
X227058122Y-59109241D01*
X227061742Y-59111949D01*
X227061998Y-59112182D01*
X227062279Y-59112396D01*
X227065622Y-59115492D01*
X227068957Y-59118537D01*
X227069191Y-59118797D01*
X227069447Y-59119034D01*
X227072462Y-59122430D01*
X227075494Y-59125797D01*
X227075700Y-59126077D01*
X227075934Y-59126340D01*
X227078597Y-59130006D01*
X227081292Y-59133661D01*
X227081473Y-59133964D01*
X227081676Y-59134244D01*
X227083949Y-59138117D01*
X227086295Y-59142053D01*
X227086445Y-59142372D01*
X227086620Y-59142670D01*
X227088497Y-59146732D01*
X227090455Y-59150893D01*
X227090574Y-59151228D01*
X227090718Y-59151539D01*
X227092187Y-59155757D01*
X227093732Y-59160097D01*
X227093818Y-59160441D01*
X227093931Y-59160766D01*
X227094987Y-59165131D01*
X227096096Y-59169577D01*
X227096147Y-59169924D01*
X227096229Y-59170262D01*
X227096852Y-59174699D01*
X227097523Y-59179242D01*
X227097540Y-59179598D01*
X227097588Y-59179937D01*
X227097777Y-59184447D01*
X227098000Y-59189000D01*
X227098000Y-73189000D01*
X227097995Y-73189637D01*
X227097998Y-73189698D01*
X227097995Y-73189759D01*
X227097990Y-73190396D01*
X227097707Y-73194902D01*
X227097452Y-73199453D01*
X227097399Y-73199794D01*
X227097377Y-73200147D01*
X227096651Y-73204628D01*
X227095958Y-73209108D01*
X227095870Y-73209449D01*
X227095815Y-73209791D01*
X227094666Y-73214139D01*
X227093528Y-73218571D01*
X227093408Y-73218902D01*
X227093319Y-73219237D01*
X227091732Y-73223505D01*
X227090186Y-73227752D01*
X227090037Y-73228062D01*
X227089914Y-73228394D01*
X227087905Y-73232512D01*
X227085965Y-73236562D01*
X227085785Y-73236859D01*
X227085631Y-73237175D01*
X227083254Y-73241039D01*
X227080904Y-73244919D01*
X227080694Y-73245200D01*
X227080511Y-73245497D01*
X227077759Y-73249122D01*
X227075051Y-73252742D01*
X227074818Y-73252998D01*
X227074604Y-73253279D01*
X227071508Y-73256622D01*
X227068463Y-73259957D01*
X227068203Y-73260191D01*
X227067966Y-73260447D01*
X227064570Y-73263462D01*
X227061203Y-73266494D01*
X227060923Y-73266700D01*
X227060660Y-73266934D01*
X227056994Y-73269597D01*
X227053339Y-73272292D01*
X227053036Y-73272473D01*
X227052756Y-73272676D01*
X227048883Y-73274949D01*
X227044947Y-73277295D01*
X227044628Y-73277445D01*
X227044330Y-73277620D01*
X227040268Y-73279497D01*
X227036107Y-73281455D01*
X227035772Y-73281574D01*
X227035461Y-73281718D01*
X227031243Y-73283187D01*
X227026903Y-73284732D01*
X227026559Y-73284818D01*
X227026234Y-73284931D01*
X227021869Y-73285987D01*
X227017423Y-73287096D01*
X227017076Y-73287147D01*
X227016738Y-73287229D01*
X227012301Y-73287852D01*
X227007758Y-73288523D01*
X227007402Y-73288540D01*
X227007063Y-73288588D01*
X227002553Y-73288777D01*
X226998000Y-73289000D01*
X208998000Y-73289000D01*
X208997363Y-73288995D01*
G37*
%TD.AperFunction*%
%TD*%
%TA.AperFunction,SMDPad,CuDef*%
%TO.P,AE101,1*%
%TO.N,N/C*%
G36*
X159149863Y-73288995D02*
G01*
X159149802Y-73288998D01*
X159149741Y-73288995D01*
X159149104Y-73288990D01*
X159144598Y-73288707D01*
X159140047Y-73288452D01*
X159139706Y-73288399D01*
X159139353Y-73288377D01*
X159134872Y-73287651D01*
X159130392Y-73286958D01*
X159130051Y-73286870D01*
X159129709Y-73286815D01*
X159125361Y-73285666D01*
X159120929Y-73284528D01*
X159120598Y-73284408D01*
X159120263Y-73284319D01*
X159115995Y-73282732D01*
X159111748Y-73281186D01*
X159111438Y-73281037D01*
X159111106Y-73280914D01*
X159106988Y-73278905D01*
X159102938Y-73276965D01*
X159102641Y-73276785D01*
X159102325Y-73276631D01*
X159098461Y-73274254D01*
X159094581Y-73271904D01*
X159094300Y-73271694D01*
X159094003Y-73271511D01*
X159090378Y-73268759D01*
X159086758Y-73266051D01*
X159086502Y-73265818D01*
X159086221Y-73265604D01*
X159082878Y-73262508D01*
X159079543Y-73259463D01*
X159079309Y-73259203D01*
X159079053Y-73258966D01*
X159076038Y-73255570D01*
X159073006Y-73252203D01*
X159072800Y-73251923D01*
X159072566Y-73251660D01*
X159069903Y-73247994D01*
X159067208Y-73244339D01*
X159067027Y-73244036D01*
X159066824Y-73243756D01*
X159064551Y-73239883D01*
X159062205Y-73235947D01*
X159062055Y-73235628D01*
X159061880Y-73235330D01*
X159060003Y-73231268D01*
X159058045Y-73227107D01*
X159057926Y-73226772D01*
X159057782Y-73226461D01*
X159056313Y-73222243D01*
X159054768Y-73217903D01*
X159054682Y-73217559D01*
X159054569Y-73217234D01*
X159053513Y-73212869D01*
X159052404Y-73208423D01*
X159052353Y-73208076D01*
X159052271Y-73207738D01*
X159051648Y-73203301D01*
X159050977Y-73198758D01*
X159050960Y-73198402D01*
X159050912Y-73198063D01*
X159050723Y-73193553D01*
X159050500Y-73189000D01*
X159050500Y-59189000D01*
X159050505Y-59188363D01*
X159050502Y-59188302D01*
X159050505Y-59188241D01*
X159050510Y-59187604D01*
X159050793Y-59183098D01*
X159051048Y-59178547D01*
X159051101Y-59178206D01*
X159051123Y-59177853D01*
X159051849Y-59173372D01*
X159052542Y-59168892D01*
X159052630Y-59168551D01*
X159052685Y-59168209D01*
X159053834Y-59163861D01*
X159054972Y-59159429D01*
X159055092Y-59159098D01*
X159055181Y-59158763D01*
X159056768Y-59154495D01*
X159058314Y-59150248D01*
X159058463Y-59149938D01*
X159058586Y-59149606D01*
X159060595Y-59145488D01*
X159062535Y-59141438D01*
X159062715Y-59141141D01*
X159062869Y-59140825D01*
X159065246Y-59136961D01*
X159067596Y-59133081D01*
X159067806Y-59132800D01*
X159067989Y-59132503D01*
X159070741Y-59128878D01*
X159073449Y-59125258D01*
X159073682Y-59125002D01*
X159073896Y-59124721D01*
X159076992Y-59121378D01*
X159080037Y-59118043D01*
X159080297Y-59117809D01*
X159080534Y-59117553D01*
X159083930Y-59114538D01*
X159087297Y-59111506D01*
X159087577Y-59111300D01*
X159087840Y-59111066D01*
X159091506Y-59108403D01*
X159095161Y-59105708D01*
X159095464Y-59105527D01*
X159095744Y-59105324D01*
X159099617Y-59103051D01*
X159103553Y-59100705D01*
X159103872Y-59100555D01*
X159104170Y-59100380D01*
X159108232Y-59098503D01*
X159112393Y-59096545D01*
X159112728Y-59096426D01*
X159113039Y-59096282D01*
X159117257Y-59094813D01*
X159121597Y-59093268D01*
X159121941Y-59093182D01*
X159122266Y-59093069D01*
X159126631Y-59092013D01*
X159131077Y-59090904D01*
X159131424Y-59090853D01*
X159131762Y-59090771D01*
X159136199Y-59090148D01*
X159140742Y-59089477D01*
X159141098Y-59089460D01*
X159141437Y-59089412D01*
X159145947Y-59089223D01*
X159150500Y-59089000D01*
X166600500Y-59089000D01*
X166601137Y-59089005D01*
X166601198Y-59089002D01*
X166601259Y-59089005D01*
X166601896Y-59089010D01*
X166606402Y-59089293D01*
X166610953Y-59089548D01*
X166611294Y-59089601D01*
X166611647Y-59089623D01*
X166616128Y-59090349D01*
X166620608Y-59091042D01*
X166620949Y-59091130D01*
X166621291Y-59091185D01*
X166625639Y-59092334D01*
X166630071Y-59093472D01*
X166630402Y-59093592D01*
X166630737Y-59093681D01*
X166635005Y-59095268D01*
X166639252Y-59096814D01*
X166639562Y-59096963D01*
X166639894Y-59097086D01*
X166644012Y-59099095D01*
X166648062Y-59101035D01*
X166648359Y-59101215D01*
X166648675Y-59101369D01*
X166652539Y-59103746D01*
X166656419Y-59106096D01*
X166656700Y-59106306D01*
X166656997Y-59106489D01*
X166660622Y-59109241D01*
X166664242Y-59111949D01*
X166664498Y-59112182D01*
X166664779Y-59112396D01*
X166668122Y-59115492D01*
X166671457Y-59118537D01*
X166671691Y-59118797D01*
X166671947Y-59119034D01*
X166674962Y-59122430D01*
X166677994Y-59125797D01*
X166678200Y-59126077D01*
X166678434Y-59126340D01*
X166681097Y-59130006D01*
X166683792Y-59133661D01*
X166683973Y-59133964D01*
X166684176Y-59134244D01*
X166686449Y-59138117D01*
X166688795Y-59142053D01*
X166688945Y-59142372D01*
X166689120Y-59142670D01*
X166690997Y-59146732D01*
X166692955Y-59150893D01*
X166693074Y-59151228D01*
X166693218Y-59151539D01*
X166694687Y-59155757D01*
X166696232Y-59160097D01*
X166696318Y-59160441D01*
X166696431Y-59160766D01*
X166697487Y-59165131D01*
X166698596Y-59169577D01*
X166698647Y-59169924D01*
X166698729Y-59170262D01*
X166699352Y-59174699D01*
X166700023Y-59179242D01*
X166700040Y-59179598D01*
X166700088Y-59179937D01*
X166700277Y-59184447D01*
X166700500Y-59189000D01*
X166700500Y-64289000D01*
X167100500Y-64289000D01*
X167100500Y-59189000D01*
X167100505Y-59188363D01*
X167100502Y-59188302D01*
X167100505Y-59188241D01*
X167100510Y-59187604D01*
X167100793Y-59183098D01*
X167101048Y-59178547D01*
X167101101Y-59178206D01*
X167101123Y-59177853D01*
X167101849Y-59173372D01*
X167102542Y-59168892D01*
X167102630Y-59168551D01*
X167102685Y-59168209D01*
X167103834Y-59163861D01*
X167104972Y-59159429D01*
X167105092Y-59159098D01*
X167105181Y-59158763D01*
X167106768Y-59154495D01*
X167108314Y-59150248D01*
X167108463Y-59149938D01*
X167108586Y-59149606D01*
X167110595Y-59145488D01*
X167112535Y-59141438D01*
X167112715Y-59141141D01*
X167112869Y-59140825D01*
X167115246Y-59136961D01*
X167117596Y-59133081D01*
X167117806Y-59132800D01*
X167117989Y-59132503D01*
X167120741Y-59128878D01*
X167123449Y-59125258D01*
X167123682Y-59125002D01*
X167123896Y-59124721D01*
X167126992Y-59121378D01*
X167130037Y-59118043D01*
X167130297Y-59117809D01*
X167130534Y-59117553D01*
X167133930Y-59114538D01*
X167137297Y-59111506D01*
X167137577Y-59111300D01*
X167137840Y-59111066D01*
X167141506Y-59108403D01*
X167145161Y-59105708D01*
X167145464Y-59105527D01*
X167145744Y-59105324D01*
X167149617Y-59103051D01*
X167153553Y-59100705D01*
X167153872Y-59100555D01*
X167154170Y-59100380D01*
X167158232Y-59098503D01*
X167162393Y-59096545D01*
X167162728Y-59096426D01*
X167163039Y-59096282D01*
X167167257Y-59094813D01*
X167171597Y-59093268D01*
X167171941Y-59093182D01*
X167172266Y-59093069D01*
X167175500Y-59092286D01*
X167175500Y-46189000D01*
X167175505Y-46188363D01*
X167175502Y-46188302D01*
X167175505Y-46188241D01*
X167175510Y-46187604D01*
X167175793Y-46183098D01*
X167176048Y-46178547D01*
X167176101Y-46178206D01*
X167176123Y-46177853D01*
X167176849Y-46173372D01*
X167177542Y-46168892D01*
X167177630Y-46168551D01*
X167177685Y-46168209D01*
X167178834Y-46163861D01*
X167179972Y-46159429D01*
X167180092Y-46159098D01*
X167180181Y-46158763D01*
X167181768Y-46154495D01*
X167183314Y-46150248D01*
X167183463Y-46149938D01*
X167183586Y-46149606D01*
X167185595Y-46145488D01*
X167187535Y-46141438D01*
X167187715Y-46141141D01*
X167187869Y-46140825D01*
X167190246Y-46136961D01*
X167192596Y-46133081D01*
X167192806Y-46132800D01*
X167192989Y-46132503D01*
X167195741Y-46128878D01*
X167198449Y-46125258D01*
X167198682Y-46125002D01*
X167198896Y-46124721D01*
X167201992Y-46121378D01*
X167205037Y-46118043D01*
X167205297Y-46117809D01*
X167205534Y-46117553D01*
X167208930Y-46114538D01*
X167212297Y-46111506D01*
X167212577Y-46111300D01*
X167212840Y-46111066D01*
X167216506Y-46108403D01*
X167220161Y-46105708D01*
X167220464Y-46105527D01*
X167220744Y-46105324D01*
X167224617Y-46103051D01*
X167228553Y-46100705D01*
X167228872Y-46100555D01*
X167229170Y-46100380D01*
X167233232Y-46098503D01*
X167237393Y-46096545D01*
X167237728Y-46096426D01*
X167238039Y-46096282D01*
X167242257Y-46094813D01*
X167246597Y-46093268D01*
X167246941Y-46093182D01*
X167247266Y-46093069D01*
X167251631Y-46092013D01*
X167256077Y-46090904D01*
X167256424Y-46090853D01*
X167256762Y-46090771D01*
X167261199Y-46090148D01*
X167265742Y-46089477D01*
X167266098Y-46089460D01*
X167266437Y-46089412D01*
X167270947Y-46089223D01*
X167275500Y-46089000D01*
X169025500Y-46089000D01*
X169026137Y-46089005D01*
X169026198Y-46089002D01*
X169026259Y-46089005D01*
X169026896Y-46089010D01*
X169031402Y-46089293D01*
X169035953Y-46089548D01*
X169036294Y-46089601D01*
X169036647Y-46089623D01*
X169041128Y-46090349D01*
X169045608Y-46091042D01*
X169045949Y-46091130D01*
X169046291Y-46091185D01*
X169050639Y-46092334D01*
X169055071Y-46093472D01*
X169055402Y-46093592D01*
X169055737Y-46093681D01*
X169060005Y-46095268D01*
X169064252Y-46096814D01*
X169064562Y-46096963D01*
X169064894Y-46097086D01*
X169069012Y-46099095D01*
X169073062Y-46101035D01*
X169073359Y-46101215D01*
X169073675Y-46101369D01*
X169077539Y-46103746D01*
X169081419Y-46106096D01*
X169081700Y-46106306D01*
X169081997Y-46106489D01*
X169085622Y-46109241D01*
X169089242Y-46111949D01*
X169089498Y-46112182D01*
X169089779Y-46112396D01*
X169093122Y-46115492D01*
X169096457Y-46118537D01*
X169096691Y-46118797D01*
X169096947Y-46119034D01*
X169099962Y-46122430D01*
X169102994Y-46125797D01*
X169103200Y-46126077D01*
X169103434Y-46126340D01*
X169106097Y-46130006D01*
X169108792Y-46133661D01*
X169108973Y-46133964D01*
X169109176Y-46134244D01*
X169111449Y-46138117D01*
X169113795Y-46142053D01*
X169113945Y-46142372D01*
X169114120Y-46142670D01*
X169115997Y-46146732D01*
X169117955Y-46150893D01*
X169118074Y-46151228D01*
X169118218Y-46151539D01*
X169119687Y-46155757D01*
X169121232Y-46160097D01*
X169121318Y-46160441D01*
X169121431Y-46160766D01*
X169122487Y-46165131D01*
X169123596Y-46169577D01*
X169123647Y-46169924D01*
X169123729Y-46170262D01*
X169124352Y-46174699D01*
X169125023Y-46179242D01*
X169125040Y-46179598D01*
X169125088Y-46179937D01*
X169125277Y-46184447D01*
X169125500Y-46189000D01*
X169125500Y-59092297D01*
X169125639Y-59092334D01*
X169130071Y-59093472D01*
X169130402Y-59093592D01*
X169130737Y-59093681D01*
X169135005Y-59095268D01*
X169139252Y-59096814D01*
X169139562Y-59096963D01*
X169139894Y-59097086D01*
X169144012Y-59099095D01*
X169148062Y-59101035D01*
X169148359Y-59101215D01*
X169148675Y-59101369D01*
X169152539Y-59103746D01*
X169156419Y-59106096D01*
X169156700Y-59106306D01*
X169156997Y-59106489D01*
X169160622Y-59109241D01*
X169164242Y-59111949D01*
X169164498Y-59112182D01*
X169164779Y-59112396D01*
X169168122Y-59115492D01*
X169171457Y-59118537D01*
X169171691Y-59118797D01*
X169171947Y-59119034D01*
X169174962Y-59122430D01*
X169177994Y-59125797D01*
X169178200Y-59126077D01*
X169178434Y-59126340D01*
X169181097Y-59130006D01*
X169183792Y-59133661D01*
X169183973Y-59133964D01*
X169184176Y-59134244D01*
X169186449Y-59138117D01*
X169188795Y-59142053D01*
X169188945Y-59142372D01*
X169189120Y-59142670D01*
X169190997Y-59146732D01*
X169192955Y-59150893D01*
X169193074Y-59151228D01*
X169193218Y-59151539D01*
X169194687Y-59155757D01*
X169196232Y-59160097D01*
X169196318Y-59160441D01*
X169196431Y-59160766D01*
X169197487Y-59165131D01*
X169198596Y-59169577D01*
X169198647Y-59169924D01*
X169198729Y-59170262D01*
X169199352Y-59174699D01*
X169200023Y-59179242D01*
X169200040Y-59179598D01*
X169200088Y-59179937D01*
X169200277Y-59184447D01*
X169200500Y-59189000D01*
X169200500Y-64289000D01*
X169600500Y-64289000D01*
X169600500Y-59189000D01*
X169600505Y-59188363D01*
X169600502Y-59188302D01*
X169600505Y-59188241D01*
X169600510Y-59187604D01*
X169600793Y-59183098D01*
X169601048Y-59178547D01*
X169601101Y-59178206D01*
X169601123Y-59177853D01*
X169601849Y-59173372D01*
X169602542Y-59168892D01*
X169602630Y-59168551D01*
X169602685Y-59168209D01*
X169603834Y-59163861D01*
X169604972Y-59159429D01*
X169605092Y-59159098D01*
X169605181Y-59158763D01*
X169606768Y-59154495D01*
X169608314Y-59150248D01*
X169608463Y-59149938D01*
X169608586Y-59149606D01*
X169610595Y-59145488D01*
X169612535Y-59141438D01*
X169612715Y-59141141D01*
X169612869Y-59140825D01*
X169615246Y-59136961D01*
X169617596Y-59133081D01*
X169617806Y-59132800D01*
X169617989Y-59132503D01*
X169620741Y-59128878D01*
X169623449Y-59125258D01*
X169623682Y-59125002D01*
X169623896Y-59124721D01*
X169626992Y-59121378D01*
X169630037Y-59118043D01*
X169630297Y-59117809D01*
X169630534Y-59117553D01*
X169633930Y-59114538D01*
X169637297Y-59111506D01*
X169637577Y-59111300D01*
X169637840Y-59111066D01*
X169641506Y-59108403D01*
X169645161Y-59105708D01*
X169645464Y-59105527D01*
X169645744Y-59105324D01*
X169649617Y-59103051D01*
X169653553Y-59100705D01*
X169653872Y-59100555D01*
X169654170Y-59100380D01*
X169658232Y-59098503D01*
X169662393Y-59096545D01*
X169662728Y-59096426D01*
X169663039Y-59096282D01*
X169667257Y-59094813D01*
X169671597Y-59093268D01*
X169671941Y-59093182D01*
X169672266Y-59093069D01*
X169676631Y-59092013D01*
X169681077Y-59090904D01*
X169681424Y-59090853D01*
X169681762Y-59090771D01*
X169686199Y-59090148D01*
X169690742Y-59089477D01*
X169691098Y-59089460D01*
X169691437Y-59089412D01*
X169695947Y-59089223D01*
X169700500Y-59089000D01*
X177150500Y-59089000D01*
X177151137Y-59089005D01*
X177151198Y-59089002D01*
X177151259Y-59089005D01*
X177151896Y-59089010D01*
X177156402Y-59089293D01*
X177160953Y-59089548D01*
X177161294Y-59089601D01*
X177161647Y-59089623D01*
X177166128Y-59090349D01*
X177170608Y-59091042D01*
X177170949Y-59091130D01*
X177171291Y-59091185D01*
X177175639Y-59092334D01*
X177180071Y-59093472D01*
X177180402Y-59093592D01*
X177180737Y-59093681D01*
X177185005Y-59095268D01*
X177189252Y-59096814D01*
X177189562Y-59096963D01*
X177189894Y-59097086D01*
X177194012Y-59099095D01*
X177198062Y-59101035D01*
X177198359Y-59101215D01*
X177198675Y-59101369D01*
X177202539Y-59103746D01*
X177206419Y-59106096D01*
X177206700Y-59106306D01*
X177206997Y-59106489D01*
X177210622Y-59109241D01*
X177214242Y-59111949D01*
X177214498Y-59112182D01*
X177214779Y-59112396D01*
X177218122Y-59115492D01*
X177221457Y-59118537D01*
X177221691Y-59118797D01*
X177221947Y-59119034D01*
X177224962Y-59122430D01*
X177227994Y-59125797D01*
X177228200Y-59126077D01*
X177228434Y-59126340D01*
X177231097Y-59130006D01*
X177233792Y-59133661D01*
X177233973Y-59133964D01*
X177234176Y-59134244D01*
X177236449Y-59138117D01*
X177238795Y-59142053D01*
X177238945Y-59142372D01*
X177239120Y-59142670D01*
X177240997Y-59146732D01*
X177242955Y-59150893D01*
X177243074Y-59151228D01*
X177243218Y-59151539D01*
X177244687Y-59155757D01*
X177246232Y-59160097D01*
X177246318Y-59160441D01*
X177246431Y-59160766D01*
X177247487Y-59165131D01*
X177248596Y-59169577D01*
X177248647Y-59169924D01*
X177248729Y-59170262D01*
X177249352Y-59174699D01*
X177250023Y-59179242D01*
X177250040Y-59179598D01*
X177250088Y-59179937D01*
X177250277Y-59184447D01*
X177250500Y-59189000D01*
X177250500Y-73189000D01*
X177250495Y-73189637D01*
X177250498Y-73189698D01*
X177250495Y-73189759D01*
X177250490Y-73190396D01*
X177250207Y-73194902D01*
X177249952Y-73199453D01*
X177249899Y-73199794D01*
X177249877Y-73200147D01*
X177249151Y-73204628D01*
X177248458Y-73209108D01*
X177248370Y-73209449D01*
X177248315Y-73209791D01*
X177247166Y-73214139D01*
X177246028Y-73218571D01*
X177245908Y-73218902D01*
X177245819Y-73219237D01*
X177244232Y-73223505D01*
X177242686Y-73227752D01*
X177242537Y-73228062D01*
X177242414Y-73228394D01*
X177240405Y-73232512D01*
X177238465Y-73236562D01*
X177238285Y-73236859D01*
X177238131Y-73237175D01*
X177235754Y-73241039D01*
X177233404Y-73244919D01*
X177233194Y-73245200D01*
X177233011Y-73245497D01*
X177230259Y-73249122D01*
X177227551Y-73252742D01*
X177227318Y-73252998D01*
X177227104Y-73253279D01*
X177224008Y-73256622D01*
X177220963Y-73259957D01*
X177220703Y-73260191D01*
X177220466Y-73260447D01*
X177217070Y-73263462D01*
X177213703Y-73266494D01*
X177213423Y-73266700D01*
X177213160Y-73266934D01*
X177209494Y-73269597D01*
X177205839Y-73272292D01*
X177205536Y-73272473D01*
X177205256Y-73272676D01*
X177201383Y-73274949D01*
X177197447Y-73277295D01*
X177197128Y-73277445D01*
X177196830Y-73277620D01*
X177192768Y-73279497D01*
X177188607Y-73281455D01*
X177188272Y-73281574D01*
X177187961Y-73281718D01*
X177183743Y-73283187D01*
X177179403Y-73284732D01*
X177179059Y-73284818D01*
X177178734Y-73284931D01*
X177174369Y-73285987D01*
X177169923Y-73287096D01*
X177169576Y-73287147D01*
X177169238Y-73287229D01*
X177164801Y-73287852D01*
X177160258Y-73288523D01*
X177159902Y-73288540D01*
X177159563Y-73288588D01*
X177155053Y-73288777D01*
X177150500Y-73289000D01*
X159150500Y-73289000D01*
X159149863Y-73288995D01*
G37*
%TD.AperFunction*%
%TD*%
%TA.AperFunction,SMDPad,CuDef*%
%TO.P,AE101,1*%
%TO.N,N/C*%
G36*
X134257863Y-73098495D02*
G01*
X134257802Y-73098498D01*
X134257741Y-73098495D01*
X134257104Y-73098490D01*
X134252598Y-73098207D01*
X134248047Y-73097952D01*
X134247706Y-73097899D01*
X134247353Y-73097877D01*
X134242872Y-73097151D01*
X134238392Y-73096458D01*
X134238051Y-73096370D01*
X134237709Y-73096315D01*
X134233361Y-73095166D01*
X134228929Y-73094028D01*
X134228598Y-73093908D01*
X134228263Y-73093819D01*
X134223995Y-73092232D01*
X134219748Y-73090686D01*
X134219438Y-73090537D01*
X134219106Y-73090414D01*
X134214988Y-73088405D01*
X134210938Y-73086465D01*
X134210641Y-73086285D01*
X134210325Y-73086131D01*
X134206461Y-73083754D01*
X134202581Y-73081404D01*
X134202300Y-73081194D01*
X134202003Y-73081011D01*
X134198378Y-73078259D01*
X134194758Y-73075551D01*
X134194502Y-73075318D01*
X134194221Y-73075104D01*
X134190878Y-73072008D01*
X134187543Y-73068963D01*
X134187309Y-73068703D01*
X134187053Y-73068466D01*
X134184038Y-73065070D01*
X134181006Y-73061703D01*
X134180800Y-73061423D01*
X134180566Y-73061160D01*
X134177903Y-73057494D01*
X134175208Y-73053839D01*
X134175027Y-73053536D01*
X134174824Y-73053256D01*
X134172551Y-73049383D01*
X134170205Y-73045447D01*
X134170055Y-73045128D01*
X134169880Y-73044830D01*
X134168003Y-73040768D01*
X134166045Y-73036607D01*
X134165926Y-73036272D01*
X134165782Y-73035961D01*
X134164313Y-73031743D01*
X134162768Y-73027403D01*
X134162682Y-73027059D01*
X134162569Y-73026734D01*
X134161513Y-73022369D01*
X134160404Y-73017923D01*
X134160353Y-73017576D01*
X134160271Y-73017238D01*
X134159648Y-73012801D01*
X134158977Y-73008258D01*
X134158960Y-73007902D01*
X134158912Y-73007563D01*
X134158723Y-73003053D01*
X134158500Y-72998500D01*
X134158500Y-58998500D01*
X134158505Y-58997863D01*
X134158502Y-58997802D01*
X134158505Y-58997741D01*
X134158510Y-58997104D01*
X134158793Y-58992598D01*
X134159048Y-58988047D01*
X134159101Y-58987706D01*
X134159123Y-58987353D01*
X134159849Y-58982872D01*
X134160542Y-58978392D01*
X134160630Y-58978051D01*
X134160685Y-58977709D01*
X134161834Y-58973361D01*
X134162972Y-58968929D01*
X134163092Y-58968598D01*
X134163181Y-58968263D01*
X134164768Y-58963995D01*
X134166314Y-58959748D01*
X134166463Y-58959438D01*
X134166586Y-58959106D01*
X134168595Y-58954988D01*
X134170535Y-58950938D01*
X134170715Y-58950641D01*
X134170869Y-58950325D01*
X134173246Y-58946461D01*
X134175596Y-58942581D01*
X134175806Y-58942300D01*
X134175989Y-58942003D01*
X134178741Y-58938378D01*
X134181449Y-58934758D01*
X134181682Y-58934502D01*
X134181896Y-58934221D01*
X134184992Y-58930878D01*
X134188037Y-58927543D01*
X134188297Y-58927309D01*
X134188534Y-58927053D01*
X134191930Y-58924038D01*
X134195297Y-58921006D01*
X134195577Y-58920800D01*
X134195840Y-58920566D01*
X134199506Y-58917903D01*
X134203161Y-58915208D01*
X134203464Y-58915027D01*
X134203744Y-58914824D01*
X134207617Y-58912551D01*
X134211553Y-58910205D01*
X134211872Y-58910055D01*
X134212170Y-58909880D01*
X134216232Y-58908003D01*
X134220393Y-58906045D01*
X134220728Y-58905926D01*
X134221039Y-58905782D01*
X134225257Y-58904313D01*
X134229597Y-58902768D01*
X134229941Y-58902682D01*
X134230266Y-58902569D01*
X134234631Y-58901513D01*
X134239077Y-58900404D01*
X134239424Y-58900353D01*
X134239762Y-58900271D01*
X134244199Y-58899648D01*
X134248742Y-58898977D01*
X134249098Y-58898960D01*
X134249437Y-58898912D01*
X134253947Y-58898723D01*
X134258500Y-58898500D01*
X141708500Y-58898500D01*
X141709137Y-58898505D01*
X141709198Y-58898502D01*
X141709259Y-58898505D01*
X141709896Y-58898510D01*
X141714402Y-58898793D01*
X141718953Y-58899048D01*
X141719294Y-58899101D01*
X141719647Y-58899123D01*
X141724128Y-58899849D01*
X141728608Y-58900542D01*
X141728949Y-58900630D01*
X141729291Y-58900685D01*
X141733639Y-58901834D01*
X141738071Y-58902972D01*
X141738402Y-58903092D01*
X141738737Y-58903181D01*
X141743005Y-58904768D01*
X141747252Y-58906314D01*
X141747562Y-58906463D01*
X141747894Y-58906586D01*
X141752012Y-58908595D01*
X141756062Y-58910535D01*
X141756359Y-58910715D01*
X141756675Y-58910869D01*
X141760539Y-58913246D01*
X141764419Y-58915596D01*
X141764700Y-58915806D01*
X141764997Y-58915989D01*
X141768622Y-58918741D01*
X141772242Y-58921449D01*
X141772498Y-58921682D01*
X141772779Y-58921896D01*
X141776122Y-58924992D01*
X141779457Y-58928037D01*
X141779691Y-58928297D01*
X141779947Y-58928534D01*
X141782962Y-58931930D01*
X141785994Y-58935297D01*
X141786200Y-58935577D01*
X141786434Y-58935840D01*
X141789097Y-58939506D01*
X141791792Y-58943161D01*
X141791973Y-58943464D01*
X141792176Y-58943744D01*
X141794449Y-58947617D01*
X141796795Y-58951553D01*
X141796945Y-58951872D01*
X141797120Y-58952170D01*
X141798997Y-58956232D01*
X141800955Y-58960393D01*
X141801074Y-58960728D01*
X141801218Y-58961039D01*
X141802687Y-58965257D01*
X141804232Y-58969597D01*
X141804318Y-58969941D01*
X141804431Y-58970266D01*
X141805487Y-58974631D01*
X141806596Y-58979077D01*
X141806647Y-58979424D01*
X141806729Y-58979762D01*
X141807352Y-58984199D01*
X141808023Y-58988742D01*
X141808040Y-58989098D01*
X141808088Y-58989437D01*
X141808277Y-58993947D01*
X141808500Y-58998500D01*
X141808500Y-64098500D01*
X142208500Y-64098500D01*
X142208500Y-58998500D01*
X142208505Y-58997863D01*
X142208502Y-58997802D01*
X142208505Y-58997741D01*
X142208510Y-58997104D01*
X142208793Y-58992598D01*
X142209048Y-58988047D01*
X142209101Y-58987706D01*
X142209123Y-58987353D01*
X142209849Y-58982872D01*
X142210542Y-58978392D01*
X142210630Y-58978051D01*
X142210685Y-58977709D01*
X142211834Y-58973361D01*
X142212972Y-58968929D01*
X142213092Y-58968598D01*
X142213181Y-58968263D01*
X142214768Y-58963995D01*
X142216314Y-58959748D01*
X142216463Y-58959438D01*
X142216586Y-58959106D01*
X142218595Y-58954988D01*
X142220535Y-58950938D01*
X142220715Y-58950641D01*
X142220869Y-58950325D01*
X142223246Y-58946461D01*
X142225596Y-58942581D01*
X142225806Y-58942300D01*
X142225989Y-58942003D01*
X142228741Y-58938378D01*
X142231449Y-58934758D01*
X142231682Y-58934502D01*
X142231896Y-58934221D01*
X142234992Y-58930878D01*
X142238037Y-58927543D01*
X142238297Y-58927309D01*
X142238534Y-58927053D01*
X142241930Y-58924038D01*
X142245297Y-58921006D01*
X142245577Y-58920800D01*
X142245840Y-58920566D01*
X142249506Y-58917903D01*
X142253161Y-58915208D01*
X142253464Y-58915027D01*
X142253744Y-58914824D01*
X142257617Y-58912551D01*
X142261553Y-58910205D01*
X142261872Y-58910055D01*
X142262170Y-58909880D01*
X142266232Y-58908003D01*
X142270393Y-58906045D01*
X142270728Y-58905926D01*
X142271039Y-58905782D01*
X142275257Y-58904313D01*
X142279597Y-58902768D01*
X142279941Y-58902682D01*
X142280266Y-58902569D01*
X142283500Y-58901786D01*
X142283500Y-45998500D01*
X142283505Y-45997863D01*
X142283502Y-45997802D01*
X142283505Y-45997741D01*
X142283510Y-45997104D01*
X142283793Y-45992598D01*
X142284048Y-45988047D01*
X142284101Y-45987706D01*
X142284123Y-45987353D01*
X142284849Y-45982872D01*
X142285542Y-45978392D01*
X142285630Y-45978051D01*
X142285685Y-45977709D01*
X142286834Y-45973361D01*
X142287972Y-45968929D01*
X142288092Y-45968598D01*
X142288181Y-45968263D01*
X142289768Y-45963995D01*
X142291314Y-45959748D01*
X142291463Y-45959438D01*
X142291586Y-45959106D01*
X142293595Y-45954988D01*
X142295535Y-45950938D01*
X142295715Y-45950641D01*
X142295869Y-45950325D01*
X142298246Y-45946461D01*
X142300596Y-45942581D01*
X142300806Y-45942300D01*
X142300989Y-45942003D01*
X142303741Y-45938378D01*
X142306449Y-45934758D01*
X142306682Y-45934502D01*
X142306896Y-45934221D01*
X142309992Y-45930878D01*
X142313037Y-45927543D01*
X142313297Y-45927309D01*
X142313534Y-45927053D01*
X142316930Y-45924038D01*
X142320297Y-45921006D01*
X142320577Y-45920800D01*
X142320840Y-45920566D01*
X142324506Y-45917903D01*
X142328161Y-45915208D01*
X142328464Y-45915027D01*
X142328744Y-45914824D01*
X142332617Y-45912551D01*
X142336553Y-45910205D01*
X142336872Y-45910055D01*
X142337170Y-45909880D01*
X142341232Y-45908003D01*
X142345393Y-45906045D01*
X142345728Y-45905926D01*
X142346039Y-45905782D01*
X142350257Y-45904313D01*
X142354597Y-45902768D01*
X142354941Y-45902682D01*
X142355266Y-45902569D01*
X142359631Y-45901513D01*
X142364077Y-45900404D01*
X142364424Y-45900353D01*
X142364762Y-45900271D01*
X142369199Y-45899648D01*
X142373742Y-45898977D01*
X142374098Y-45898960D01*
X142374437Y-45898912D01*
X142378947Y-45898723D01*
X142383500Y-45898500D01*
X144133500Y-45898500D01*
X144134137Y-45898505D01*
X144134198Y-45898502D01*
X144134259Y-45898505D01*
X144134896Y-45898510D01*
X144139402Y-45898793D01*
X144143953Y-45899048D01*
X144144294Y-45899101D01*
X144144647Y-45899123D01*
X144149128Y-45899849D01*
X144153608Y-45900542D01*
X144153949Y-45900630D01*
X144154291Y-45900685D01*
X144158639Y-45901834D01*
X144163071Y-45902972D01*
X144163402Y-45903092D01*
X144163737Y-45903181D01*
X144168005Y-45904768D01*
X144172252Y-45906314D01*
X144172562Y-45906463D01*
X144172894Y-45906586D01*
X144177012Y-45908595D01*
X144181062Y-45910535D01*
X144181359Y-45910715D01*
X144181675Y-45910869D01*
X144185539Y-45913246D01*
X144189419Y-45915596D01*
X144189700Y-45915806D01*
X144189997Y-45915989D01*
X144193622Y-45918741D01*
X144197242Y-45921449D01*
X144197498Y-45921682D01*
X144197779Y-45921896D01*
X144201122Y-45924992D01*
X144204457Y-45928037D01*
X144204691Y-45928297D01*
X144204947Y-45928534D01*
X144207962Y-45931930D01*
X144210994Y-45935297D01*
X144211200Y-45935577D01*
X144211434Y-45935840D01*
X144214097Y-45939506D01*
X144216792Y-45943161D01*
X144216973Y-45943464D01*
X144217176Y-45943744D01*
X144219449Y-45947617D01*
X144221795Y-45951553D01*
X144221945Y-45951872D01*
X144222120Y-45952170D01*
X144223997Y-45956232D01*
X144225955Y-45960393D01*
X144226074Y-45960728D01*
X144226218Y-45961039D01*
X144227687Y-45965257D01*
X144229232Y-45969597D01*
X144229318Y-45969941D01*
X144229431Y-45970266D01*
X144230487Y-45974631D01*
X144231596Y-45979077D01*
X144231647Y-45979424D01*
X144231729Y-45979762D01*
X144232352Y-45984199D01*
X144233023Y-45988742D01*
X144233040Y-45989098D01*
X144233088Y-45989437D01*
X144233277Y-45993947D01*
X144233500Y-45998500D01*
X144233500Y-58901797D01*
X144233639Y-58901834D01*
X144238071Y-58902972D01*
X144238402Y-58903092D01*
X144238737Y-58903181D01*
X144243005Y-58904768D01*
X144247252Y-58906314D01*
X144247562Y-58906463D01*
X144247894Y-58906586D01*
X144252012Y-58908595D01*
X144256062Y-58910535D01*
X144256359Y-58910715D01*
X144256675Y-58910869D01*
X144260539Y-58913246D01*
X144264419Y-58915596D01*
X144264700Y-58915806D01*
X144264997Y-58915989D01*
X144268622Y-58918741D01*
X144272242Y-58921449D01*
X144272498Y-58921682D01*
X144272779Y-58921896D01*
X144276122Y-58924992D01*
X144279457Y-58928037D01*
X144279691Y-58928297D01*
X144279947Y-58928534D01*
X144282962Y-58931930D01*
X144285994Y-58935297D01*
X144286200Y-58935577D01*
X144286434Y-58935840D01*
X144289097Y-58939506D01*
X144291792Y-58943161D01*
X144291973Y-58943464D01*
X144292176Y-58943744D01*
X144294449Y-58947617D01*
X144296795Y-58951553D01*
X144296945Y-58951872D01*
X144297120Y-58952170D01*
X144298997Y-58956232D01*
X144300955Y-58960393D01*
X144301074Y-58960728D01*
X144301218Y-58961039D01*
X144302687Y-58965257D01*
X144304232Y-58969597D01*
X144304318Y-58969941D01*
X144304431Y-58970266D01*
X144305487Y-58974631D01*
X144306596Y-58979077D01*
X144306647Y-58979424D01*
X144306729Y-58979762D01*
X144307352Y-58984199D01*
X144308023Y-58988742D01*
X144308040Y-58989098D01*
X144308088Y-58989437D01*
X144308277Y-58993947D01*
X144308500Y-58998500D01*
X144308500Y-64098500D01*
X144708500Y-64098500D01*
X144708500Y-58998500D01*
X144708505Y-58997863D01*
X144708502Y-58997802D01*
X144708505Y-58997741D01*
X144708510Y-58997104D01*
X144708793Y-58992598D01*
X144709048Y-58988047D01*
X144709101Y-58987706D01*
X144709123Y-58987353D01*
X144709849Y-58982872D01*
X144710542Y-58978392D01*
X144710630Y-58978051D01*
X144710685Y-58977709D01*
X144711834Y-58973361D01*
X144712972Y-58968929D01*
X144713092Y-58968598D01*
X144713181Y-58968263D01*
X144714768Y-58963995D01*
X144716314Y-58959748D01*
X144716463Y-58959438D01*
X144716586Y-58959106D01*
X144718595Y-58954988D01*
X144720535Y-58950938D01*
X144720715Y-58950641D01*
X144720869Y-58950325D01*
X144723246Y-58946461D01*
X144725596Y-58942581D01*
X144725806Y-58942300D01*
X144725989Y-58942003D01*
X144728741Y-58938378D01*
X144731449Y-58934758D01*
X144731682Y-58934502D01*
X144731896Y-58934221D01*
X144734992Y-58930878D01*
X144738037Y-58927543D01*
X144738297Y-58927309D01*
X144738534Y-58927053D01*
X144741930Y-58924038D01*
X144745297Y-58921006D01*
X144745577Y-58920800D01*
X144745840Y-58920566D01*
X144749506Y-58917903D01*
X144753161Y-58915208D01*
X144753464Y-58915027D01*
X144753744Y-58914824D01*
X144757617Y-58912551D01*
X144761553Y-58910205D01*
X144761872Y-58910055D01*
X144762170Y-58909880D01*
X144766232Y-58908003D01*
X144770393Y-58906045D01*
X144770728Y-58905926D01*
X144771039Y-58905782D01*
X144775257Y-58904313D01*
X144779597Y-58902768D01*
X144779941Y-58902682D01*
X144780266Y-58902569D01*
X144784631Y-58901513D01*
X144789077Y-58900404D01*
X144789424Y-58900353D01*
X144789762Y-58900271D01*
X144794199Y-58899648D01*
X144798742Y-58898977D01*
X144799098Y-58898960D01*
X144799437Y-58898912D01*
X144803947Y-58898723D01*
X144808500Y-58898500D01*
X152258500Y-58898500D01*
X152259137Y-58898505D01*
X152259198Y-58898502D01*
X152259259Y-58898505D01*
X152259896Y-58898510D01*
X152264402Y-58898793D01*
X152268953Y-58899048D01*
X152269294Y-58899101D01*
X152269647Y-58899123D01*
X152274128Y-58899849D01*
X152278608Y-58900542D01*
X152278949Y-58900630D01*
X152279291Y-58900685D01*
X152283639Y-58901834D01*
X152288071Y-58902972D01*
X152288402Y-58903092D01*
X152288737Y-58903181D01*
X152293005Y-58904768D01*
X152297252Y-58906314D01*
X152297562Y-58906463D01*
X152297894Y-58906586D01*
X152302012Y-58908595D01*
X152306062Y-58910535D01*
X152306359Y-58910715D01*
X152306675Y-58910869D01*
X152310539Y-58913246D01*
X152314419Y-58915596D01*
X152314700Y-58915806D01*
X152314997Y-58915989D01*
X152318622Y-58918741D01*
X152322242Y-58921449D01*
X152322498Y-58921682D01*
X152322779Y-58921896D01*
X152326122Y-58924992D01*
X152329457Y-58928037D01*
X152329691Y-58928297D01*
X152329947Y-58928534D01*
X152332962Y-58931930D01*
X152335994Y-58935297D01*
X152336200Y-58935577D01*
X152336434Y-58935840D01*
X152339097Y-58939506D01*
X152341792Y-58943161D01*
X152341973Y-58943464D01*
X152342176Y-58943744D01*
X152344449Y-58947617D01*
X152346795Y-58951553D01*
X152346945Y-58951872D01*
X152347120Y-58952170D01*
X152348997Y-58956232D01*
X152350955Y-58960393D01*
X152351074Y-58960728D01*
X152351218Y-58961039D01*
X152352687Y-58965257D01*
X152354232Y-58969597D01*
X152354318Y-58969941D01*
X152354431Y-58970266D01*
X152355487Y-58974631D01*
X152356596Y-58979077D01*
X152356647Y-58979424D01*
X152356729Y-58979762D01*
X152357352Y-58984199D01*
X152358023Y-58988742D01*
X152358040Y-58989098D01*
X152358088Y-58989437D01*
X152358277Y-58993947D01*
X152358500Y-58998500D01*
X152358500Y-72998500D01*
X152358495Y-72999137D01*
X152358498Y-72999198D01*
X152358495Y-72999259D01*
X152358490Y-72999896D01*
X152358207Y-73004402D01*
X152357952Y-73008953D01*
X152357899Y-73009294D01*
X152357877Y-73009647D01*
X152357151Y-73014128D01*
X152356458Y-73018608D01*
X152356370Y-73018949D01*
X152356315Y-73019291D01*
X152355166Y-73023639D01*
X152354028Y-73028071D01*
X152353908Y-73028402D01*
X152353819Y-73028737D01*
X152352232Y-73033005D01*
X152350686Y-73037252D01*
X152350537Y-73037562D01*
X152350414Y-73037894D01*
X152348405Y-73042012D01*
X152346465Y-73046062D01*
X152346285Y-73046359D01*
X152346131Y-73046675D01*
X152343754Y-73050539D01*
X152341404Y-73054419D01*
X152341194Y-73054700D01*
X152341011Y-73054997D01*
X152338259Y-73058622D01*
X152335551Y-73062242D01*
X152335318Y-73062498D01*
X152335104Y-73062779D01*
X152332008Y-73066122D01*
X152328963Y-73069457D01*
X152328703Y-73069691D01*
X152328466Y-73069947D01*
X152325070Y-73072962D01*
X152321703Y-73075994D01*
X152321423Y-73076200D01*
X152321160Y-73076434D01*
X152317494Y-73079097D01*
X152313839Y-73081792D01*
X152313536Y-73081973D01*
X152313256Y-73082176D01*
X152309383Y-73084449D01*
X152305447Y-73086795D01*
X152305128Y-73086945D01*
X152304830Y-73087120D01*
X152300768Y-73088997D01*
X152296607Y-73090955D01*
X152296272Y-73091074D01*
X152295961Y-73091218D01*
X152291743Y-73092687D01*
X152287403Y-73094232D01*
X152287059Y-73094318D01*
X152286734Y-73094431D01*
X152282369Y-73095487D01*
X152277923Y-73096596D01*
X152277576Y-73096647D01*
X152277238Y-73096729D01*
X152272801Y-73097352D01*
X152268258Y-73098023D01*
X152267902Y-73098040D01*
X152267563Y-73098088D01*
X152263053Y-73098277D01*
X152258500Y-73098500D01*
X134258500Y-73098500D01*
X134257863Y-73098495D01*
G37*
%TD.AperFunction*%
%TD*%
D11*
%TO.P,J101,1*%
%TO.N,N/C*%
X218059000Y-116976500D03*
D10*
%TO.P,J101,2*%
X220884000Y-116776500D03*
X215234000Y-116776500D03*
%TD*%
%TA.AperFunction,SMDPad,CuDef*%
D12*
%TO.P,AE101,1*%
%TO.N,N/C*%
G36*
X227057137Y-85905505D02*
G01*
X227057198Y-85905502D01*
X227057259Y-85905505D01*
X227057896Y-85905510D01*
X227062402Y-85905793D01*
X227066953Y-85906048D01*
X227067294Y-85906101D01*
X227067647Y-85906123D01*
X227072128Y-85906849D01*
X227076608Y-85907542D01*
X227076949Y-85907630D01*
X227077291Y-85907685D01*
X227081639Y-85908834D01*
X227086071Y-85909972D01*
X227086402Y-85910092D01*
X227086737Y-85910181D01*
X227091005Y-85911768D01*
X227095252Y-85913314D01*
X227095562Y-85913463D01*
X227095894Y-85913586D01*
X227100012Y-85915595D01*
X227104062Y-85917535D01*
X227104359Y-85917715D01*
X227104675Y-85917869D01*
X227108539Y-85920246D01*
X227112419Y-85922596D01*
X227112700Y-85922806D01*
X227112997Y-85922989D01*
X227116622Y-85925741D01*
X227120242Y-85928449D01*
X227120498Y-85928682D01*
X227120779Y-85928896D01*
X227124122Y-85931992D01*
X227127457Y-85935037D01*
X227127691Y-85935297D01*
X227127947Y-85935534D01*
X227130962Y-85938930D01*
X227133994Y-85942297D01*
X227134200Y-85942577D01*
X227134434Y-85942840D01*
X227137097Y-85946506D01*
X227139792Y-85950161D01*
X227139973Y-85950464D01*
X227140176Y-85950744D01*
X227142449Y-85954617D01*
X227144795Y-85958553D01*
X227144945Y-85958872D01*
X227145120Y-85959170D01*
X227146997Y-85963232D01*
X227148955Y-85967393D01*
X227149074Y-85967728D01*
X227149218Y-85968039D01*
X227150687Y-85972257D01*
X227152232Y-85976597D01*
X227152318Y-85976941D01*
X227152431Y-85977266D01*
X227153487Y-85981631D01*
X227154596Y-85986077D01*
X227154647Y-85986424D01*
X227154729Y-85986762D01*
X227155352Y-85991199D01*
X227156023Y-85995742D01*
X227156040Y-85996098D01*
X227156088Y-85996437D01*
X227156277Y-86000947D01*
X227156500Y-86005500D01*
X227156500Y-100005500D01*
X227156495Y-100006137D01*
X227156498Y-100006198D01*
X227156495Y-100006259D01*
X227156490Y-100006896D01*
X227156207Y-100011402D01*
X227155952Y-100015953D01*
X227155899Y-100016294D01*
X227155877Y-100016647D01*
X227155151Y-100021128D01*
X227154458Y-100025608D01*
X227154370Y-100025949D01*
X227154315Y-100026291D01*
X227153166Y-100030639D01*
X227152028Y-100035071D01*
X227151908Y-100035402D01*
X227151819Y-100035737D01*
X227150232Y-100040005D01*
X227148686Y-100044252D01*
X227148537Y-100044562D01*
X227148414Y-100044894D01*
X227146405Y-100049012D01*
X227144465Y-100053062D01*
X227144285Y-100053359D01*
X227144131Y-100053675D01*
X227141754Y-100057539D01*
X227139404Y-100061419D01*
X227139194Y-100061700D01*
X227139011Y-100061997D01*
X227136259Y-100065622D01*
X227133551Y-100069242D01*
X227133318Y-100069498D01*
X227133104Y-100069779D01*
X227130008Y-100073122D01*
X227126963Y-100076457D01*
X227126703Y-100076691D01*
X227126466Y-100076947D01*
X227123070Y-100079962D01*
X227119703Y-100082994D01*
X227119423Y-100083200D01*
X227119160Y-100083434D01*
X227115494Y-100086097D01*
X227111839Y-100088792D01*
X227111536Y-100088973D01*
X227111256Y-100089176D01*
X227107383Y-100091449D01*
X227103447Y-100093795D01*
X227103128Y-100093945D01*
X227102830Y-100094120D01*
X227098768Y-100095997D01*
X227094607Y-100097955D01*
X227094272Y-100098074D01*
X227093961Y-100098218D01*
X227089743Y-100099687D01*
X227085403Y-100101232D01*
X227085059Y-100101318D01*
X227084734Y-100101431D01*
X227080369Y-100102487D01*
X227075923Y-100103596D01*
X227075576Y-100103647D01*
X227075238Y-100103729D01*
X227070801Y-100104352D01*
X227066258Y-100105023D01*
X227065902Y-100105040D01*
X227065563Y-100105088D01*
X227061053Y-100105277D01*
X227056500Y-100105500D01*
X219606500Y-100105500D01*
X219605863Y-100105495D01*
X219605802Y-100105498D01*
X219605741Y-100105495D01*
X219605104Y-100105490D01*
X219600598Y-100105207D01*
X219596047Y-100104952D01*
X219595706Y-100104899D01*
X219595353Y-100104877D01*
X219590872Y-100104151D01*
X219586392Y-100103458D01*
X219586051Y-100103370D01*
X219585709Y-100103315D01*
X219581361Y-100102166D01*
X219576929Y-100101028D01*
X219576598Y-100100908D01*
X219576263Y-100100819D01*
X219571995Y-100099232D01*
X219567748Y-100097686D01*
X219567438Y-100097537D01*
X219567106Y-100097414D01*
X219562988Y-100095405D01*
X219558938Y-100093465D01*
X219558641Y-100093285D01*
X219558325Y-100093131D01*
X219554461Y-100090754D01*
X219550581Y-100088404D01*
X219550300Y-100088194D01*
X219550003Y-100088011D01*
X219546378Y-100085259D01*
X219542758Y-100082551D01*
X219542502Y-100082318D01*
X219542221Y-100082104D01*
X219538878Y-100079008D01*
X219535543Y-100075963D01*
X219535309Y-100075703D01*
X219535053Y-100075466D01*
X219532038Y-100072070D01*
X219529006Y-100068703D01*
X219528800Y-100068423D01*
X219528566Y-100068160D01*
X219525903Y-100064494D01*
X219523208Y-100060839D01*
X219523027Y-100060536D01*
X219522824Y-100060256D01*
X219520551Y-100056383D01*
X219518205Y-100052447D01*
X219518055Y-100052128D01*
X219517880Y-100051830D01*
X219516003Y-100047768D01*
X219514045Y-100043607D01*
X219513926Y-100043272D01*
X219513782Y-100042961D01*
X219512313Y-100038743D01*
X219510768Y-100034403D01*
X219510682Y-100034059D01*
X219510569Y-100033734D01*
X219509513Y-100029369D01*
X219508404Y-100024923D01*
X219508353Y-100024576D01*
X219508271Y-100024238D01*
X219507648Y-100019801D01*
X219506977Y-100015258D01*
X219506960Y-100014902D01*
X219506912Y-100014563D01*
X219506723Y-100010053D01*
X219506500Y-100005500D01*
X219506500Y-94905500D01*
X219106500Y-94905500D01*
X219106500Y-100005500D01*
X219106495Y-100006137D01*
X219106498Y-100006198D01*
X219106495Y-100006259D01*
X219106490Y-100006896D01*
X219106207Y-100011402D01*
X219105952Y-100015953D01*
X219105899Y-100016294D01*
X219105877Y-100016647D01*
X219105151Y-100021128D01*
X219104458Y-100025608D01*
X219104370Y-100025949D01*
X219104315Y-100026291D01*
X219103166Y-100030639D01*
X219102028Y-100035071D01*
X219101908Y-100035402D01*
X219101819Y-100035737D01*
X219100232Y-100040005D01*
X219098686Y-100044252D01*
X219098537Y-100044562D01*
X219098414Y-100044894D01*
X219096405Y-100049012D01*
X219094465Y-100053062D01*
X219094285Y-100053359D01*
X219094131Y-100053675D01*
X219091754Y-100057539D01*
X219089404Y-100061419D01*
X219089194Y-100061700D01*
X219089011Y-100061997D01*
X219086259Y-100065622D01*
X219083551Y-100069242D01*
X219083318Y-100069498D01*
X219083104Y-100069779D01*
X219080008Y-100073122D01*
X219076963Y-100076457D01*
X219076703Y-100076691D01*
X219076466Y-100076947D01*
X219073070Y-100079962D01*
X219069703Y-100082994D01*
X219069423Y-100083200D01*
X219069160Y-100083434D01*
X219065494Y-100086097D01*
X219061839Y-100088792D01*
X219061536Y-100088973D01*
X219061256Y-100089176D01*
X219057383Y-100091449D01*
X219053447Y-100093795D01*
X219053128Y-100093945D01*
X219052830Y-100094120D01*
X219048768Y-100095997D01*
X219044607Y-100097955D01*
X219044272Y-100098074D01*
X219043961Y-100098218D01*
X219039743Y-100099687D01*
X219035403Y-100101232D01*
X219035059Y-100101318D01*
X219034734Y-100101431D01*
X219031500Y-100102214D01*
X219031500Y-113005500D01*
X219031495Y-113006137D01*
X219031498Y-113006198D01*
X219031495Y-113006259D01*
X219031490Y-113006896D01*
X219031207Y-113011402D01*
X219030952Y-113015953D01*
X219030899Y-113016294D01*
X219030877Y-113016647D01*
X219030151Y-113021128D01*
X219029458Y-113025608D01*
X219029370Y-113025949D01*
X219029315Y-113026291D01*
X219028166Y-113030639D01*
X219027028Y-113035071D01*
X219026908Y-113035402D01*
X219026819Y-113035737D01*
X219025232Y-113040005D01*
X219023686Y-113044252D01*
X219023537Y-113044562D01*
X219023414Y-113044894D01*
X219021405Y-113049012D01*
X219019465Y-113053062D01*
X219019285Y-113053359D01*
X219019131Y-113053675D01*
X219016754Y-113057539D01*
X219014404Y-113061419D01*
X219014194Y-113061700D01*
X219014011Y-113061997D01*
X219011259Y-113065622D01*
X219008551Y-113069242D01*
X219008318Y-113069498D01*
X219008104Y-113069779D01*
X219005008Y-113073122D01*
X219001963Y-113076457D01*
X219001703Y-113076691D01*
X219001466Y-113076947D01*
X218998070Y-113079962D01*
X218994703Y-113082994D01*
X218994423Y-113083200D01*
X218994160Y-113083434D01*
X218990494Y-113086097D01*
X218986839Y-113088792D01*
X218986536Y-113088973D01*
X218986256Y-113089176D01*
X218982383Y-113091449D01*
X218978447Y-113093795D01*
X218978128Y-113093945D01*
X218977830Y-113094120D01*
X218973768Y-113095997D01*
X218969607Y-113097955D01*
X218969272Y-113098074D01*
X218968961Y-113098218D01*
X218964743Y-113099687D01*
X218960403Y-113101232D01*
X218960059Y-113101318D01*
X218959734Y-113101431D01*
X218955369Y-113102487D01*
X218950923Y-113103596D01*
X218950576Y-113103647D01*
X218950238Y-113103729D01*
X218945801Y-113104352D01*
X218941258Y-113105023D01*
X218940902Y-113105040D01*
X218940563Y-113105088D01*
X218936053Y-113105277D01*
X218931500Y-113105500D01*
X217181500Y-113105500D01*
X217180863Y-113105495D01*
X217180802Y-113105498D01*
X217180741Y-113105495D01*
X217180104Y-113105490D01*
X217175598Y-113105207D01*
X217171047Y-113104952D01*
X217170706Y-113104899D01*
X217170353Y-113104877D01*
X217165872Y-113104151D01*
X217161392Y-113103458D01*
X217161051Y-113103370D01*
X217160709Y-113103315D01*
X217156361Y-113102166D01*
X217151929Y-113101028D01*
X217151598Y-113100908D01*
X217151263Y-113100819D01*
X217146995Y-113099232D01*
X217142748Y-113097686D01*
X217142438Y-113097537D01*
X217142106Y-113097414D01*
X217137988Y-113095405D01*
X217133938Y-113093465D01*
X217133641Y-113093285D01*
X217133325Y-113093131D01*
X217129461Y-113090754D01*
X217125581Y-113088404D01*
X217125300Y-113088194D01*
X217125003Y-113088011D01*
X217121378Y-113085259D01*
X217117758Y-113082551D01*
X217117502Y-113082318D01*
X217117221Y-113082104D01*
X217113878Y-113079008D01*
X217110543Y-113075963D01*
X217110309Y-113075703D01*
X217110053Y-113075466D01*
X217107038Y-113072070D01*
X217104006Y-113068703D01*
X217103800Y-113068423D01*
X217103566Y-113068160D01*
X217100903Y-113064494D01*
X217098208Y-113060839D01*
X217098027Y-113060536D01*
X217097824Y-113060256D01*
X217095551Y-113056383D01*
X217093205Y-113052447D01*
X217093055Y-113052128D01*
X217092880Y-113051830D01*
X217091003Y-113047768D01*
X217089045Y-113043607D01*
X217088926Y-113043272D01*
X217088782Y-113042961D01*
X217087313Y-113038743D01*
X217085768Y-113034403D01*
X217085682Y-113034059D01*
X217085569Y-113033734D01*
X217084513Y-113029369D01*
X217083404Y-113024923D01*
X217083353Y-113024576D01*
X217083271Y-113024238D01*
X217082648Y-113019801D01*
X217081977Y-113015258D01*
X217081960Y-113014902D01*
X217081912Y-113014563D01*
X217081723Y-113010053D01*
X217081500Y-113005500D01*
X217081500Y-100102203D01*
X217081361Y-100102166D01*
X217076929Y-100101028D01*
X217076598Y-100100908D01*
X217076263Y-100100819D01*
X217071995Y-100099232D01*
X217067748Y-100097686D01*
X217067438Y-100097537D01*
X217067106Y-100097414D01*
X217062988Y-100095405D01*
X217058938Y-100093465D01*
X217058641Y-100093285D01*
X217058325Y-100093131D01*
X217054461Y-100090754D01*
X217050581Y-100088404D01*
X217050300Y-100088194D01*
X217050003Y-100088011D01*
X217046378Y-100085259D01*
X217042758Y-100082551D01*
X217042502Y-100082318D01*
X217042221Y-100082104D01*
X217038878Y-100079008D01*
X217035543Y-100075963D01*
X217035309Y-100075703D01*
X217035053Y-100075466D01*
X217032038Y-100072070D01*
X217029006Y-100068703D01*
X217028800Y-100068423D01*
X217028566Y-100068160D01*
X217025903Y-100064494D01*
X217023208Y-100060839D01*
X217023027Y-100060536D01*
X217022824Y-100060256D01*
X217020551Y-100056383D01*
X217018205Y-100052447D01*
X217018055Y-100052128D01*
X217017880Y-100051830D01*
X217016003Y-100047768D01*
X217014045Y-100043607D01*
X217013926Y-100043272D01*
X217013782Y-100042961D01*
X217012313Y-100038743D01*
X217010768Y-100034403D01*
X217010682Y-100034059D01*
X217010569Y-100033734D01*
X217009513Y-100029369D01*
X217008404Y-100024923D01*
X217008353Y-100024576D01*
X217008271Y-100024238D01*
X217007648Y-100019801D01*
X217006977Y-100015258D01*
X217006960Y-100014902D01*
X217006912Y-100014563D01*
X217006723Y-100010053D01*
X217006500Y-100005500D01*
X217006500Y-94905500D01*
X216606500Y-94905500D01*
X216606500Y-100005500D01*
X216606495Y-100006137D01*
X216606498Y-100006198D01*
X216606495Y-100006259D01*
X216606490Y-100006896D01*
X216606207Y-100011402D01*
X216605952Y-100015953D01*
X216605899Y-100016294D01*
X216605877Y-100016647D01*
X216605151Y-100021128D01*
X216604458Y-100025608D01*
X216604370Y-100025949D01*
X216604315Y-100026291D01*
X216603166Y-100030639D01*
X216602028Y-100035071D01*
X216601908Y-100035402D01*
X216601819Y-100035737D01*
X216600232Y-100040005D01*
X216598686Y-100044252D01*
X216598537Y-100044562D01*
X216598414Y-100044894D01*
X216596405Y-100049012D01*
X216594465Y-100053062D01*
X216594285Y-100053359D01*
X216594131Y-100053675D01*
X216591754Y-100057539D01*
X216589404Y-100061419D01*
X216589194Y-100061700D01*
X216589011Y-100061997D01*
X216586259Y-100065622D01*
X216583551Y-100069242D01*
X216583318Y-100069498D01*
X216583104Y-100069779D01*
X216580008Y-100073122D01*
X216576963Y-100076457D01*
X216576703Y-100076691D01*
X216576466Y-100076947D01*
X216573070Y-100079962D01*
X216569703Y-100082994D01*
X216569423Y-100083200D01*
X216569160Y-100083434D01*
X216565494Y-100086097D01*
X216561839Y-100088792D01*
X216561536Y-100088973D01*
X216561256Y-100089176D01*
X216557383Y-100091449D01*
X216553447Y-100093795D01*
X216553128Y-100093945D01*
X216552830Y-100094120D01*
X216548768Y-100095997D01*
X216544607Y-100097955D01*
X216544272Y-100098074D01*
X216543961Y-100098218D01*
X216539743Y-100099687D01*
X216535403Y-100101232D01*
X216535059Y-100101318D01*
X216534734Y-100101431D01*
X216530369Y-100102487D01*
X216525923Y-100103596D01*
X216525576Y-100103647D01*
X216525238Y-100103729D01*
X216520801Y-100104352D01*
X216516258Y-100105023D01*
X216515902Y-100105040D01*
X216515563Y-100105088D01*
X216511053Y-100105277D01*
X216506500Y-100105500D01*
X209056500Y-100105500D01*
X209055863Y-100105495D01*
X209055802Y-100105498D01*
X209055741Y-100105495D01*
X209055104Y-100105490D01*
X209050598Y-100105207D01*
X209046047Y-100104952D01*
X209045706Y-100104899D01*
X209045353Y-100104877D01*
X209040872Y-100104151D01*
X209036392Y-100103458D01*
X209036051Y-100103370D01*
X209035709Y-100103315D01*
X209031361Y-100102166D01*
X209026929Y-100101028D01*
X209026598Y-100100908D01*
X209026263Y-100100819D01*
X209021995Y-100099232D01*
X209017748Y-100097686D01*
X209017438Y-100097537D01*
X209017106Y-100097414D01*
X209012988Y-100095405D01*
X209008938Y-100093465D01*
X209008641Y-100093285D01*
X209008325Y-100093131D01*
X209004461Y-100090754D01*
X209000581Y-100088404D01*
X209000300Y-100088194D01*
X209000003Y-100088011D01*
X208996378Y-100085259D01*
X208992758Y-100082551D01*
X208992502Y-100082318D01*
X208992221Y-100082104D01*
X208988878Y-100079008D01*
X208985543Y-100075963D01*
X208985309Y-100075703D01*
X208985053Y-100075466D01*
X208982038Y-100072070D01*
X208979006Y-100068703D01*
X208978800Y-100068423D01*
X208978566Y-100068160D01*
X208975903Y-100064494D01*
X208973208Y-100060839D01*
X208973027Y-100060536D01*
X208972824Y-100060256D01*
X208970551Y-100056383D01*
X208968205Y-100052447D01*
X208968055Y-100052128D01*
X208967880Y-100051830D01*
X208966003Y-100047768D01*
X208964045Y-100043607D01*
X208963926Y-100043272D01*
X208963782Y-100042961D01*
X208962313Y-100038743D01*
X208960768Y-100034403D01*
X208960682Y-100034059D01*
X208960569Y-100033734D01*
X208959513Y-100029369D01*
X208958404Y-100024923D01*
X208958353Y-100024576D01*
X208958271Y-100024238D01*
X208957648Y-100019801D01*
X208956977Y-100015258D01*
X208956960Y-100014902D01*
X208956912Y-100014563D01*
X208956723Y-100010053D01*
X208956500Y-100005500D01*
X208956500Y-86005500D01*
X208956505Y-86004863D01*
X208956502Y-86004802D01*
X208956505Y-86004741D01*
X208956510Y-86004104D01*
X208956793Y-85999598D01*
X208957048Y-85995047D01*
X208957101Y-85994706D01*
X208957123Y-85994353D01*
X208957849Y-85989872D01*
X208958542Y-85985392D01*
X208958630Y-85985051D01*
X208958685Y-85984709D01*
X208959834Y-85980361D01*
X208960972Y-85975929D01*
X208961092Y-85975598D01*
X208961181Y-85975263D01*
X208962768Y-85970995D01*
X208964314Y-85966748D01*
X208964463Y-85966438D01*
X208964586Y-85966106D01*
X208966595Y-85961988D01*
X208968535Y-85957938D01*
X208968715Y-85957641D01*
X208968869Y-85957325D01*
X208971246Y-85953461D01*
X208973596Y-85949581D01*
X208973806Y-85949300D01*
X208973989Y-85949003D01*
X208976741Y-85945378D01*
X208979449Y-85941758D01*
X208979682Y-85941502D01*
X208979896Y-85941221D01*
X208982992Y-85937878D01*
X208986037Y-85934543D01*
X208986297Y-85934309D01*
X208986534Y-85934053D01*
X208989930Y-85931038D01*
X208993297Y-85928006D01*
X208993577Y-85927800D01*
X208993840Y-85927566D01*
X208997506Y-85924903D01*
X209001161Y-85922208D01*
X209001464Y-85922027D01*
X209001744Y-85921824D01*
X209005617Y-85919551D01*
X209009553Y-85917205D01*
X209009872Y-85917055D01*
X209010170Y-85916880D01*
X209014232Y-85915003D01*
X209018393Y-85913045D01*
X209018728Y-85912926D01*
X209019039Y-85912782D01*
X209023257Y-85911313D01*
X209027597Y-85909768D01*
X209027941Y-85909682D01*
X209028266Y-85909569D01*
X209032631Y-85908513D01*
X209037077Y-85907404D01*
X209037424Y-85907353D01*
X209037762Y-85907271D01*
X209042199Y-85906648D01*
X209046742Y-85905977D01*
X209047098Y-85905960D01*
X209047437Y-85905912D01*
X209051947Y-85905723D01*
X209056500Y-85905500D01*
X227056500Y-85905500D01*
X227057137Y-85905505D01*
G37*
%TD.AperFunction*%
%TD*%
D11*
%TO.P,J101,1*%
%TO.N,N/C*%
X193167000Y-116786000D03*
D10*
%TO.P,J101,2*%
X195992000Y-116586000D03*
X190342000Y-116586000D03*
%TD*%
%TA.AperFunction,SMDPad,CuDef*%
D12*
%TO.P,AE101,1*%
%TO.N,N/C*%
G36*
X202165137Y-85715005D02*
G01*
X202165198Y-85715002D01*
X202165259Y-85715005D01*
X202165896Y-85715010D01*
X202170402Y-85715293D01*
X202174953Y-85715548D01*
X202175294Y-85715601D01*
X202175647Y-85715623D01*
X202180128Y-85716349D01*
X202184608Y-85717042D01*
X202184949Y-85717130D01*
X202185291Y-85717185D01*
X202189639Y-85718334D01*
X202194071Y-85719472D01*
X202194402Y-85719592D01*
X202194737Y-85719681D01*
X202199005Y-85721268D01*
X202203252Y-85722814D01*
X202203562Y-85722963D01*
X202203894Y-85723086D01*
X202208012Y-85725095D01*
X202212062Y-85727035D01*
X202212359Y-85727215D01*
X202212675Y-85727369D01*
X202216539Y-85729746D01*
X202220419Y-85732096D01*
X202220700Y-85732306D01*
X202220997Y-85732489D01*
X202224622Y-85735241D01*
X202228242Y-85737949D01*
X202228498Y-85738182D01*
X202228779Y-85738396D01*
X202232122Y-85741492D01*
X202235457Y-85744537D01*
X202235691Y-85744797D01*
X202235947Y-85745034D01*
X202238962Y-85748430D01*
X202241994Y-85751797D01*
X202242200Y-85752077D01*
X202242434Y-85752340D01*
X202245097Y-85756006D01*
X202247792Y-85759661D01*
X202247973Y-85759964D01*
X202248176Y-85760244D01*
X202250449Y-85764117D01*
X202252795Y-85768053D01*
X202252945Y-85768372D01*
X202253120Y-85768670D01*
X202254997Y-85772732D01*
X202256955Y-85776893D01*
X202257074Y-85777228D01*
X202257218Y-85777539D01*
X202258687Y-85781757D01*
X202260232Y-85786097D01*
X202260318Y-85786441D01*
X202260431Y-85786766D01*
X202261487Y-85791131D01*
X202262596Y-85795577D01*
X202262647Y-85795924D01*
X202262729Y-85796262D01*
X202263352Y-85800699D01*
X202264023Y-85805242D01*
X202264040Y-85805598D01*
X202264088Y-85805937D01*
X202264277Y-85810447D01*
X202264500Y-85815000D01*
X202264500Y-99815000D01*
X202264495Y-99815637D01*
X202264498Y-99815698D01*
X202264495Y-99815759D01*
X202264490Y-99816396D01*
X202264207Y-99820902D01*
X202263952Y-99825453D01*
X202263899Y-99825794D01*
X202263877Y-99826147D01*
X202263151Y-99830628D01*
X202262458Y-99835108D01*
X202262370Y-99835449D01*
X202262315Y-99835791D01*
X202261166Y-99840139D01*
X202260028Y-99844571D01*
X202259908Y-99844902D01*
X202259819Y-99845237D01*
X202258232Y-99849505D01*
X202256686Y-99853752D01*
X202256537Y-99854062D01*
X202256414Y-99854394D01*
X202254405Y-99858512D01*
X202252465Y-99862562D01*
X202252285Y-99862859D01*
X202252131Y-99863175D01*
X202249754Y-99867039D01*
X202247404Y-99870919D01*
X202247194Y-99871200D01*
X202247011Y-99871497D01*
X202244259Y-99875122D01*
X202241551Y-99878742D01*
X202241318Y-99878998D01*
X202241104Y-99879279D01*
X202238008Y-99882622D01*
X202234963Y-99885957D01*
X202234703Y-99886191D01*
X202234466Y-99886447D01*
X202231070Y-99889462D01*
X202227703Y-99892494D01*
X202227423Y-99892700D01*
X202227160Y-99892934D01*
X202223494Y-99895597D01*
X202219839Y-99898292D01*
X202219536Y-99898473D01*
X202219256Y-99898676D01*
X202215383Y-99900949D01*
X202211447Y-99903295D01*
X202211128Y-99903445D01*
X202210830Y-99903620D01*
X202206768Y-99905497D01*
X202202607Y-99907455D01*
X202202272Y-99907574D01*
X202201961Y-99907718D01*
X202197743Y-99909187D01*
X202193403Y-99910732D01*
X202193059Y-99910818D01*
X202192734Y-99910931D01*
X202188369Y-99911987D01*
X202183923Y-99913096D01*
X202183576Y-99913147D01*
X202183238Y-99913229D01*
X202178801Y-99913852D01*
X202174258Y-99914523D01*
X202173902Y-99914540D01*
X202173563Y-99914588D01*
X202169053Y-99914777D01*
X202164500Y-99915000D01*
X194714500Y-99915000D01*
X194713863Y-99914995D01*
X194713802Y-99914998D01*
X194713741Y-99914995D01*
X194713104Y-99914990D01*
X194708598Y-99914707D01*
X194704047Y-99914452D01*
X194703706Y-99914399D01*
X194703353Y-99914377D01*
X194698872Y-99913651D01*
X194694392Y-99912958D01*
X194694051Y-99912870D01*
X194693709Y-99912815D01*
X194689361Y-99911666D01*
X194684929Y-99910528D01*
X194684598Y-99910408D01*
X194684263Y-99910319D01*
X194679995Y-99908732D01*
X194675748Y-99907186D01*
X194675438Y-99907037D01*
X194675106Y-99906914D01*
X194670988Y-99904905D01*
X194666938Y-99902965D01*
X194666641Y-99902785D01*
X194666325Y-99902631D01*
X194662461Y-99900254D01*
X194658581Y-99897904D01*
X194658300Y-99897694D01*
X194658003Y-99897511D01*
X194654378Y-99894759D01*
X194650758Y-99892051D01*
X194650502Y-99891818D01*
X194650221Y-99891604D01*
X194646878Y-99888508D01*
X194643543Y-99885463D01*
X194643309Y-99885203D01*
X194643053Y-99884966D01*
X194640038Y-99881570D01*
X194637006Y-99878203D01*
X194636800Y-99877923D01*
X194636566Y-99877660D01*
X194633903Y-99873994D01*
X194631208Y-99870339D01*
X194631027Y-99870036D01*
X194630824Y-99869756D01*
X194628551Y-99865883D01*
X194626205Y-99861947D01*
X194626055Y-99861628D01*
X194625880Y-99861330D01*
X194624003Y-99857268D01*
X194622045Y-99853107D01*
X194621926Y-99852772D01*
X194621782Y-99852461D01*
X194620313Y-99848243D01*
X194618768Y-99843903D01*
X194618682Y-99843559D01*
X194618569Y-99843234D01*
X194617513Y-99838869D01*
X194616404Y-99834423D01*
X194616353Y-99834076D01*
X194616271Y-99833738D01*
X194615648Y-99829301D01*
X194614977Y-99824758D01*
X194614960Y-99824402D01*
X194614912Y-99824063D01*
X194614723Y-99819553D01*
X194614500Y-99815000D01*
X194614500Y-94715000D01*
X194214500Y-94715000D01*
X194214500Y-99815000D01*
X194214495Y-99815637D01*
X194214498Y-99815698D01*
X194214495Y-99815759D01*
X194214490Y-99816396D01*
X194214207Y-99820902D01*
X194213952Y-99825453D01*
X194213899Y-99825794D01*
X194213877Y-99826147D01*
X194213151Y-99830628D01*
X194212458Y-99835108D01*
X194212370Y-99835449D01*
X194212315Y-99835791D01*
X194211166Y-99840139D01*
X194210028Y-99844571D01*
X194209908Y-99844902D01*
X194209819Y-99845237D01*
X194208232Y-99849505D01*
X194206686Y-99853752D01*
X194206537Y-99854062D01*
X194206414Y-99854394D01*
X194204405Y-99858512D01*
X194202465Y-99862562D01*
X194202285Y-99862859D01*
X194202131Y-99863175D01*
X194199754Y-99867039D01*
X194197404Y-99870919D01*
X194197194Y-99871200D01*
X194197011Y-99871497D01*
X194194259Y-99875122D01*
X194191551Y-99878742D01*
X194191318Y-99878998D01*
X194191104Y-99879279D01*
X194188008Y-99882622D01*
X194184963Y-99885957D01*
X194184703Y-99886191D01*
X194184466Y-99886447D01*
X194181070Y-99889462D01*
X194177703Y-99892494D01*
X194177423Y-99892700D01*
X194177160Y-99892934D01*
X194173494Y-99895597D01*
X194169839Y-99898292D01*
X194169536Y-99898473D01*
X194169256Y-99898676D01*
X194165383Y-99900949D01*
X194161447Y-99903295D01*
X194161128Y-99903445D01*
X194160830Y-99903620D01*
X194156768Y-99905497D01*
X194152607Y-99907455D01*
X194152272Y-99907574D01*
X194151961Y-99907718D01*
X194147743Y-99909187D01*
X194143403Y-99910732D01*
X194143059Y-99910818D01*
X194142734Y-99910931D01*
X194139500Y-99911714D01*
X194139500Y-112815000D01*
X194139495Y-112815637D01*
X194139498Y-112815698D01*
X194139495Y-112815759D01*
X194139490Y-112816396D01*
X194139207Y-112820902D01*
X194138952Y-112825453D01*
X194138899Y-112825794D01*
X194138877Y-112826147D01*
X194138151Y-112830628D01*
X194137458Y-112835108D01*
X194137370Y-112835449D01*
X194137315Y-112835791D01*
X194136166Y-112840139D01*
X194135028Y-112844571D01*
X194134908Y-112844902D01*
X194134819Y-112845237D01*
X194133232Y-112849505D01*
X194131686Y-112853752D01*
X194131537Y-112854062D01*
X194131414Y-112854394D01*
X194129405Y-112858512D01*
X194127465Y-112862562D01*
X194127285Y-112862859D01*
X194127131Y-112863175D01*
X194124754Y-112867039D01*
X194122404Y-112870919D01*
X194122194Y-112871200D01*
X194122011Y-112871497D01*
X194119259Y-112875122D01*
X194116551Y-112878742D01*
X194116318Y-112878998D01*
X194116104Y-112879279D01*
X194113008Y-112882622D01*
X194109963Y-112885957D01*
X194109703Y-112886191D01*
X194109466Y-112886447D01*
X194106070Y-112889462D01*
X194102703Y-112892494D01*
X194102423Y-112892700D01*
X194102160Y-112892934D01*
X194098494Y-112895597D01*
X194094839Y-112898292D01*
X194094536Y-112898473D01*
X194094256Y-112898676D01*
X194090383Y-112900949D01*
X194086447Y-112903295D01*
X194086128Y-112903445D01*
X194085830Y-112903620D01*
X194081768Y-112905497D01*
X194077607Y-112907455D01*
X194077272Y-112907574D01*
X194076961Y-112907718D01*
X194072743Y-112909187D01*
X194068403Y-112910732D01*
X194068059Y-112910818D01*
X194067734Y-112910931D01*
X194063369Y-112911987D01*
X194058923Y-112913096D01*
X194058576Y-112913147D01*
X194058238Y-112913229D01*
X194053801Y-112913852D01*
X194049258Y-112914523D01*
X194048902Y-112914540D01*
X194048563Y-112914588D01*
X194044053Y-112914777D01*
X194039500Y-112915000D01*
X192289500Y-112915000D01*
X192288863Y-112914995D01*
X192288802Y-112914998D01*
X192288741Y-112914995D01*
X192288104Y-112914990D01*
X192283598Y-112914707D01*
X192279047Y-112914452D01*
X192278706Y-112914399D01*
X192278353Y-112914377D01*
X192273872Y-112913651D01*
X192269392Y-112912958D01*
X192269051Y-112912870D01*
X192268709Y-112912815D01*
X192264361Y-112911666D01*
X192259929Y-112910528D01*
X192259598Y-112910408D01*
X192259263Y-112910319D01*
X192254995Y-112908732D01*
X192250748Y-112907186D01*
X192250438Y-112907037D01*
X192250106Y-112906914D01*
X192245988Y-112904905D01*
X192241938Y-112902965D01*
X192241641Y-112902785D01*
X192241325Y-112902631D01*
X192237461Y-112900254D01*
X192233581Y-112897904D01*
X192233300Y-112897694D01*
X192233003Y-112897511D01*
X192229378Y-112894759D01*
X192225758Y-112892051D01*
X192225502Y-112891818D01*
X192225221Y-112891604D01*
X192221878Y-112888508D01*
X192218543Y-112885463D01*
X192218309Y-112885203D01*
X192218053Y-112884966D01*
X192215038Y-112881570D01*
X192212006Y-112878203D01*
X192211800Y-112877923D01*
X192211566Y-112877660D01*
X192208903Y-112873994D01*
X192206208Y-112870339D01*
X192206027Y-112870036D01*
X192205824Y-112869756D01*
X192203551Y-112865883D01*
X192201205Y-112861947D01*
X192201055Y-112861628D01*
X192200880Y-112861330D01*
X192199003Y-112857268D01*
X192197045Y-112853107D01*
X192196926Y-112852772D01*
X192196782Y-112852461D01*
X192195313Y-112848243D01*
X192193768Y-112843903D01*
X192193682Y-112843559D01*
X192193569Y-112843234D01*
X192192513Y-112838869D01*
X192191404Y-112834423D01*
X192191353Y-112834076D01*
X192191271Y-112833738D01*
X192190648Y-112829301D01*
X192189977Y-112824758D01*
X192189960Y-112824402D01*
X192189912Y-112824063D01*
X192189723Y-112819553D01*
X192189500Y-112815000D01*
X192189500Y-99911703D01*
X192189361Y-99911666D01*
X192184929Y-99910528D01*
X192184598Y-99910408D01*
X192184263Y-99910319D01*
X192179995Y-99908732D01*
X192175748Y-99907186D01*
X192175438Y-99907037D01*
X192175106Y-99906914D01*
X192170988Y-99904905D01*
X192166938Y-99902965D01*
X192166641Y-99902785D01*
X192166325Y-99902631D01*
X192162461Y-99900254D01*
X192158581Y-99897904D01*
X192158300Y-99897694D01*
X192158003Y-99897511D01*
X192154378Y-99894759D01*
X192150758Y-99892051D01*
X192150502Y-99891818D01*
X192150221Y-99891604D01*
X192146878Y-99888508D01*
X192143543Y-99885463D01*
X192143309Y-99885203D01*
X192143053Y-99884966D01*
X192140038Y-99881570D01*
X192137006Y-99878203D01*
X192136800Y-99877923D01*
X192136566Y-99877660D01*
X192133903Y-99873994D01*
X192131208Y-99870339D01*
X192131027Y-99870036D01*
X192130824Y-99869756D01*
X192128551Y-99865883D01*
X192126205Y-99861947D01*
X192126055Y-99861628D01*
X192125880Y-99861330D01*
X192124003Y-99857268D01*
X192122045Y-99853107D01*
X192121926Y-99852772D01*
X192121782Y-99852461D01*
X192120313Y-99848243D01*
X192118768Y-99843903D01*
X192118682Y-99843559D01*
X192118569Y-99843234D01*
X192117513Y-99838869D01*
X192116404Y-99834423D01*
X192116353Y-99834076D01*
X192116271Y-99833738D01*
X192115648Y-99829301D01*
X192114977Y-99824758D01*
X192114960Y-99824402D01*
X192114912Y-99824063D01*
X192114723Y-99819553D01*
X192114500Y-99815000D01*
X192114500Y-94715000D01*
X191714500Y-94715000D01*
X191714500Y-99815000D01*
X191714495Y-99815637D01*
X191714498Y-99815698D01*
X191714495Y-99815759D01*
X191714490Y-99816396D01*
X191714207Y-99820902D01*
X191713952Y-99825453D01*
X191713899Y-99825794D01*
X191713877Y-99826147D01*
X191713151Y-99830628D01*
X191712458Y-99835108D01*
X191712370Y-99835449D01*
X191712315Y-99835791D01*
X191711166Y-99840139D01*
X191710028Y-99844571D01*
X191709908Y-99844902D01*
X191709819Y-99845237D01*
X191708232Y-99849505D01*
X191706686Y-99853752D01*
X191706537Y-99854062D01*
X191706414Y-99854394D01*
X191704405Y-99858512D01*
X191702465Y-99862562D01*
X191702285Y-99862859D01*
X191702131Y-99863175D01*
X191699754Y-99867039D01*
X191697404Y-99870919D01*
X191697194Y-99871200D01*
X191697011Y-99871497D01*
X191694259Y-99875122D01*
X191691551Y-99878742D01*
X191691318Y-99878998D01*
X191691104Y-99879279D01*
X191688008Y-99882622D01*
X191684963Y-99885957D01*
X191684703Y-99886191D01*
X191684466Y-99886447D01*
X191681070Y-99889462D01*
X191677703Y-99892494D01*
X191677423Y-99892700D01*
X191677160Y-99892934D01*
X191673494Y-99895597D01*
X191669839Y-99898292D01*
X191669536Y-99898473D01*
X191669256Y-99898676D01*
X191665383Y-99900949D01*
X191661447Y-99903295D01*
X191661128Y-99903445D01*
X191660830Y-99903620D01*
X191656768Y-99905497D01*
X191652607Y-99907455D01*
X191652272Y-99907574D01*
X191651961Y-99907718D01*
X191647743Y-99909187D01*
X191643403Y-99910732D01*
X191643059Y-99910818D01*
X191642734Y-99910931D01*
X191638369Y-99911987D01*
X191633923Y-99913096D01*
X191633576Y-99913147D01*
X191633238Y-99913229D01*
X191628801Y-99913852D01*
X191624258Y-99914523D01*
X191623902Y-99914540D01*
X191623563Y-99914588D01*
X191619053Y-99914777D01*
X191614500Y-99915000D01*
X184164500Y-99915000D01*
X184163863Y-99914995D01*
X184163802Y-99914998D01*
X184163741Y-99914995D01*
X184163104Y-99914990D01*
X184158598Y-99914707D01*
X184154047Y-99914452D01*
X184153706Y-99914399D01*
X184153353Y-99914377D01*
X184148872Y-99913651D01*
X184144392Y-99912958D01*
X184144051Y-99912870D01*
X184143709Y-99912815D01*
X184139361Y-99911666D01*
X184134929Y-99910528D01*
X184134598Y-99910408D01*
X184134263Y-99910319D01*
X184129995Y-99908732D01*
X184125748Y-99907186D01*
X184125438Y-99907037D01*
X184125106Y-99906914D01*
X184120988Y-99904905D01*
X184116938Y-99902965D01*
X184116641Y-99902785D01*
X184116325Y-99902631D01*
X184112461Y-99900254D01*
X184108581Y-99897904D01*
X184108300Y-99897694D01*
X184108003Y-99897511D01*
X184104378Y-99894759D01*
X184100758Y-99892051D01*
X184100502Y-99891818D01*
X184100221Y-99891604D01*
X184096878Y-99888508D01*
X184093543Y-99885463D01*
X184093309Y-99885203D01*
X184093053Y-99884966D01*
X184090038Y-99881570D01*
X184087006Y-99878203D01*
X184086800Y-99877923D01*
X184086566Y-99877660D01*
X184083903Y-99873994D01*
X184081208Y-99870339D01*
X184081027Y-99870036D01*
X184080824Y-99869756D01*
X184078551Y-99865883D01*
X184076205Y-99861947D01*
X184076055Y-99861628D01*
X184075880Y-99861330D01*
X184074003Y-99857268D01*
X184072045Y-99853107D01*
X184071926Y-99852772D01*
X184071782Y-99852461D01*
X184070313Y-99848243D01*
X184068768Y-99843903D01*
X184068682Y-99843559D01*
X184068569Y-99843234D01*
X184067513Y-99838869D01*
X184066404Y-99834423D01*
X184066353Y-99834076D01*
X184066271Y-99833738D01*
X184065648Y-99829301D01*
X184064977Y-99824758D01*
X184064960Y-99824402D01*
X184064912Y-99824063D01*
X184064723Y-99819553D01*
X184064500Y-99815000D01*
X184064500Y-85815000D01*
X184064505Y-85814363D01*
X184064502Y-85814302D01*
X184064505Y-85814241D01*
X184064510Y-85813604D01*
X184064793Y-85809098D01*
X184065048Y-85804547D01*
X184065101Y-85804206D01*
X184065123Y-85803853D01*
X184065849Y-85799372D01*
X184066542Y-85794892D01*
X184066630Y-85794551D01*
X184066685Y-85794209D01*
X184067834Y-85789861D01*
X184068972Y-85785429D01*
X184069092Y-85785098D01*
X184069181Y-85784763D01*
X184070768Y-85780495D01*
X184072314Y-85776248D01*
X184072463Y-85775938D01*
X184072586Y-85775606D01*
X184074595Y-85771488D01*
X184076535Y-85767438D01*
X184076715Y-85767141D01*
X184076869Y-85766825D01*
X184079246Y-85762961D01*
X184081596Y-85759081D01*
X184081806Y-85758800D01*
X184081989Y-85758503D01*
X184084741Y-85754878D01*
X184087449Y-85751258D01*
X184087682Y-85751002D01*
X184087896Y-85750721D01*
X184090992Y-85747378D01*
X184094037Y-85744043D01*
X184094297Y-85743809D01*
X184094534Y-85743553D01*
X184097930Y-85740538D01*
X184101297Y-85737506D01*
X184101577Y-85737300D01*
X184101840Y-85737066D01*
X184105506Y-85734403D01*
X184109161Y-85731708D01*
X184109464Y-85731527D01*
X184109744Y-85731324D01*
X184113617Y-85729051D01*
X184117553Y-85726705D01*
X184117872Y-85726555D01*
X184118170Y-85726380D01*
X184122232Y-85724503D01*
X184126393Y-85722545D01*
X184126728Y-85722426D01*
X184127039Y-85722282D01*
X184131257Y-85720813D01*
X184135597Y-85719268D01*
X184135941Y-85719182D01*
X184136266Y-85719069D01*
X184140631Y-85718013D01*
X184145077Y-85716904D01*
X184145424Y-85716853D01*
X184145762Y-85716771D01*
X184150199Y-85716148D01*
X184154742Y-85715477D01*
X184155098Y-85715460D01*
X184155437Y-85715412D01*
X184159947Y-85715223D01*
X184164500Y-85715000D01*
X202164500Y-85715000D01*
X202165137Y-85715005D01*
G37*
%TD.AperFunction*%
%TD*%
D10*
%TO.P,J101,2*%
%TO.N,N/C*%
X165513500Y-116522500D03*
X171163500Y-116522500D03*
D11*
%TO.P,J101,1*%
X168338500Y-116722500D03*
%TD*%
%TA.AperFunction,SMDPad,CuDef*%
D12*
%TO.P,AE101,1*%
%TO.N,N/C*%
G36*
X177336637Y-85651505D02*
G01*
X177336698Y-85651502D01*
X177336759Y-85651505D01*
X177337396Y-85651510D01*
X177341902Y-85651793D01*
X177346453Y-85652048D01*
X177346794Y-85652101D01*
X177347147Y-85652123D01*
X177351628Y-85652849D01*
X177356108Y-85653542D01*
X177356449Y-85653630D01*
X177356791Y-85653685D01*
X177361139Y-85654834D01*
X177365571Y-85655972D01*
X177365902Y-85656092D01*
X177366237Y-85656181D01*
X177370505Y-85657768D01*
X177374752Y-85659314D01*
X177375062Y-85659463D01*
X177375394Y-85659586D01*
X177379512Y-85661595D01*
X177383562Y-85663535D01*
X177383859Y-85663715D01*
X177384175Y-85663869D01*
X177388039Y-85666246D01*
X177391919Y-85668596D01*
X177392200Y-85668806D01*
X177392497Y-85668989D01*
X177396122Y-85671741D01*
X177399742Y-85674449D01*
X177399998Y-85674682D01*
X177400279Y-85674896D01*
X177403622Y-85677992D01*
X177406957Y-85681037D01*
X177407191Y-85681297D01*
X177407447Y-85681534D01*
X177410462Y-85684930D01*
X177413494Y-85688297D01*
X177413700Y-85688577D01*
X177413934Y-85688840D01*
X177416597Y-85692506D01*
X177419292Y-85696161D01*
X177419473Y-85696464D01*
X177419676Y-85696744D01*
X177421949Y-85700617D01*
X177424295Y-85704553D01*
X177424445Y-85704872D01*
X177424620Y-85705170D01*
X177426497Y-85709232D01*
X177428455Y-85713393D01*
X177428574Y-85713728D01*
X177428718Y-85714039D01*
X177430187Y-85718257D01*
X177431732Y-85722597D01*
X177431818Y-85722941D01*
X177431931Y-85723266D01*
X177432987Y-85727631D01*
X177434096Y-85732077D01*
X177434147Y-85732424D01*
X177434229Y-85732762D01*
X177434852Y-85737199D01*
X177435523Y-85741742D01*
X177435540Y-85742098D01*
X177435588Y-85742437D01*
X177435777Y-85746947D01*
X177436000Y-85751500D01*
X177436000Y-99751500D01*
X177435995Y-99752137D01*
X177435998Y-99752198D01*
X177435995Y-99752259D01*
X177435990Y-99752896D01*
X177435707Y-99757402D01*
X177435452Y-99761953D01*
X177435399Y-99762294D01*
X177435377Y-99762647D01*
X177434651Y-99767128D01*
X177433958Y-99771608D01*
X177433870Y-99771949D01*
X177433815Y-99772291D01*
X177432666Y-99776639D01*
X177431528Y-99781071D01*
X177431408Y-99781402D01*
X177431319Y-99781737D01*
X177429732Y-99786005D01*
X177428186Y-99790252D01*
X177428037Y-99790562D01*
X177427914Y-99790894D01*
X177425905Y-99795012D01*
X177423965Y-99799062D01*
X177423785Y-99799359D01*
X177423631Y-99799675D01*
X177421254Y-99803539D01*
X177418904Y-99807419D01*
X177418694Y-99807700D01*
X177418511Y-99807997D01*
X177415759Y-99811622D01*
X177413051Y-99815242D01*
X177412818Y-99815498D01*
X177412604Y-99815779D01*
X177409508Y-99819122D01*
X177406463Y-99822457D01*
X177406203Y-99822691D01*
X177405966Y-99822947D01*
X177402570Y-99825962D01*
X177399203Y-99828994D01*
X177398923Y-99829200D01*
X177398660Y-99829434D01*
X177394994Y-99832097D01*
X177391339Y-99834792D01*
X177391036Y-99834973D01*
X177390756Y-99835176D01*
X177386883Y-99837449D01*
X177382947Y-99839795D01*
X177382628Y-99839945D01*
X177382330Y-99840120D01*
X177378268Y-99841997D01*
X177374107Y-99843955D01*
X177373772Y-99844074D01*
X177373461Y-99844218D01*
X177369243Y-99845687D01*
X177364903Y-99847232D01*
X177364559Y-99847318D01*
X177364234Y-99847431D01*
X177359869Y-99848487D01*
X177355423Y-99849596D01*
X177355076Y-99849647D01*
X177354738Y-99849729D01*
X177350301Y-99850352D01*
X177345758Y-99851023D01*
X177345402Y-99851040D01*
X177345063Y-99851088D01*
X177340553Y-99851277D01*
X177336000Y-99851500D01*
X169886000Y-99851500D01*
X169885363Y-99851495D01*
X169885302Y-99851498D01*
X169885241Y-99851495D01*
X169884604Y-99851490D01*
X169880098Y-99851207D01*
X169875547Y-99850952D01*
X169875206Y-99850899D01*
X169874853Y-99850877D01*
X169870372Y-99850151D01*
X169865892Y-99849458D01*
X169865551Y-99849370D01*
X169865209Y-99849315D01*
X169860861Y-99848166D01*
X169856429Y-99847028D01*
X169856098Y-99846908D01*
X169855763Y-99846819D01*
X169851495Y-99845232D01*
X169847248Y-99843686D01*
X169846938Y-99843537D01*
X169846606Y-99843414D01*
X169842488Y-99841405D01*
X169838438Y-99839465D01*
X169838141Y-99839285D01*
X169837825Y-99839131D01*
X169833961Y-99836754D01*
X169830081Y-99834404D01*
X169829800Y-99834194D01*
X169829503Y-99834011D01*
X169825878Y-99831259D01*
X169822258Y-99828551D01*
X169822002Y-99828318D01*
X169821721Y-99828104D01*
X169818378Y-99825008D01*
X169815043Y-99821963D01*
X169814809Y-99821703D01*
X169814553Y-99821466D01*
X169811538Y-99818070D01*
X169808506Y-99814703D01*
X169808300Y-99814423D01*
X169808066Y-99814160D01*
X169805403Y-99810494D01*
X169802708Y-99806839D01*
X169802527Y-99806536D01*
X169802324Y-99806256D01*
X169800051Y-99802383D01*
X169797705Y-99798447D01*
X169797555Y-99798128D01*
X169797380Y-99797830D01*
X169795503Y-99793768D01*
X169793545Y-99789607D01*
X169793426Y-99789272D01*
X169793282Y-99788961D01*
X169791813Y-99784743D01*
X169790268Y-99780403D01*
X169790182Y-99780059D01*
X169790069Y-99779734D01*
X169789013Y-99775369D01*
X169787904Y-99770923D01*
X169787853Y-99770576D01*
X169787771Y-99770238D01*
X169787148Y-99765801D01*
X169786477Y-99761258D01*
X169786460Y-99760902D01*
X169786412Y-99760563D01*
X169786223Y-99756053D01*
X169786000Y-99751500D01*
X169786000Y-94651500D01*
X169386000Y-94651500D01*
X169386000Y-99751500D01*
X169385995Y-99752137D01*
X169385998Y-99752198D01*
X169385995Y-99752259D01*
X169385990Y-99752896D01*
X169385707Y-99757402D01*
X169385452Y-99761953D01*
X169385399Y-99762294D01*
X169385377Y-99762647D01*
X169384651Y-99767128D01*
X169383958Y-99771608D01*
X169383870Y-99771949D01*
X169383815Y-99772291D01*
X169382666Y-99776639D01*
X169381528Y-99781071D01*
X169381408Y-99781402D01*
X169381319Y-99781737D01*
X169379732Y-99786005D01*
X169378186Y-99790252D01*
X169378037Y-99790562D01*
X169377914Y-99790894D01*
X169375905Y-99795012D01*
X169373965Y-99799062D01*
X169373785Y-99799359D01*
X169373631Y-99799675D01*
X169371254Y-99803539D01*
X169368904Y-99807419D01*
X169368694Y-99807700D01*
X169368511Y-99807997D01*
X169365759Y-99811622D01*
X169363051Y-99815242D01*
X169362818Y-99815498D01*
X169362604Y-99815779D01*
X169359508Y-99819122D01*
X169356463Y-99822457D01*
X169356203Y-99822691D01*
X169355966Y-99822947D01*
X169352570Y-99825962D01*
X169349203Y-99828994D01*
X169348923Y-99829200D01*
X169348660Y-99829434D01*
X169344994Y-99832097D01*
X169341339Y-99834792D01*
X169341036Y-99834973D01*
X169340756Y-99835176D01*
X169336883Y-99837449D01*
X169332947Y-99839795D01*
X169332628Y-99839945D01*
X169332330Y-99840120D01*
X169328268Y-99841997D01*
X169324107Y-99843955D01*
X169323772Y-99844074D01*
X169323461Y-99844218D01*
X169319243Y-99845687D01*
X169314903Y-99847232D01*
X169314559Y-99847318D01*
X169314234Y-99847431D01*
X169311000Y-99848214D01*
X169311000Y-112751500D01*
X169310995Y-112752137D01*
X169310998Y-112752198D01*
X169310995Y-112752259D01*
X169310990Y-112752896D01*
X169310707Y-112757402D01*
X169310452Y-112761953D01*
X169310399Y-112762294D01*
X169310377Y-112762647D01*
X169309651Y-112767128D01*
X169308958Y-112771608D01*
X169308870Y-112771949D01*
X169308815Y-112772291D01*
X169307666Y-112776639D01*
X169306528Y-112781071D01*
X169306408Y-112781402D01*
X169306319Y-112781737D01*
X169304732Y-112786005D01*
X169303186Y-112790252D01*
X169303037Y-112790562D01*
X169302914Y-112790894D01*
X169300905Y-112795012D01*
X169298965Y-112799062D01*
X169298785Y-112799359D01*
X169298631Y-112799675D01*
X169296254Y-112803539D01*
X169293904Y-112807419D01*
X169293694Y-112807700D01*
X169293511Y-112807997D01*
X169290759Y-112811622D01*
X169288051Y-112815242D01*
X169287818Y-112815498D01*
X169287604Y-112815779D01*
X169284508Y-112819122D01*
X169281463Y-112822457D01*
X169281203Y-112822691D01*
X169280966Y-112822947D01*
X169277570Y-112825962D01*
X169274203Y-112828994D01*
X169273923Y-112829200D01*
X169273660Y-112829434D01*
X169269994Y-112832097D01*
X169266339Y-112834792D01*
X169266036Y-112834973D01*
X169265756Y-112835176D01*
X169261883Y-112837449D01*
X169257947Y-112839795D01*
X169257628Y-112839945D01*
X169257330Y-112840120D01*
X169253268Y-112841997D01*
X169249107Y-112843955D01*
X169248772Y-112844074D01*
X169248461Y-112844218D01*
X169244243Y-112845687D01*
X169239903Y-112847232D01*
X169239559Y-112847318D01*
X169239234Y-112847431D01*
X169234869Y-112848487D01*
X169230423Y-112849596D01*
X169230076Y-112849647D01*
X169229738Y-112849729D01*
X169225301Y-112850352D01*
X169220758Y-112851023D01*
X169220402Y-112851040D01*
X169220063Y-112851088D01*
X169215553Y-112851277D01*
X169211000Y-112851500D01*
X167461000Y-112851500D01*
X167460363Y-112851495D01*
X167460302Y-112851498D01*
X167460241Y-112851495D01*
X167459604Y-112851490D01*
X167455098Y-112851207D01*
X167450547Y-112850952D01*
X167450206Y-112850899D01*
X167449853Y-112850877D01*
X167445372Y-112850151D01*
X167440892Y-112849458D01*
X167440551Y-112849370D01*
X167440209Y-112849315D01*
X167435861Y-112848166D01*
X167431429Y-112847028D01*
X167431098Y-112846908D01*
X167430763Y-112846819D01*
X167426495Y-112845232D01*
X167422248Y-112843686D01*
X167421938Y-112843537D01*
X167421606Y-112843414D01*
X167417488Y-112841405D01*
X167413438Y-112839465D01*
X167413141Y-112839285D01*
X167412825Y-112839131D01*
X167408961Y-112836754D01*
X167405081Y-112834404D01*
X167404800Y-112834194D01*
X167404503Y-112834011D01*
X167400878Y-112831259D01*
X167397258Y-112828551D01*
X167397002Y-112828318D01*
X167396721Y-112828104D01*
X167393378Y-112825008D01*
X167390043Y-112821963D01*
X167389809Y-112821703D01*
X167389553Y-112821466D01*
X167386538Y-112818070D01*
X167383506Y-112814703D01*
X167383300Y-112814423D01*
X167383066Y-112814160D01*
X167380403Y-112810494D01*
X167377708Y-112806839D01*
X167377527Y-112806536D01*
X167377324Y-112806256D01*
X167375051Y-112802383D01*
X167372705Y-112798447D01*
X167372555Y-112798128D01*
X167372380Y-112797830D01*
X167370503Y-112793768D01*
X167368545Y-112789607D01*
X167368426Y-112789272D01*
X167368282Y-112788961D01*
X167366813Y-112784743D01*
X167365268Y-112780403D01*
X167365182Y-112780059D01*
X167365069Y-112779734D01*
X167364013Y-112775369D01*
X167362904Y-112770923D01*
X167362853Y-112770576D01*
X167362771Y-112770238D01*
X167362148Y-112765801D01*
X167361477Y-112761258D01*
X167361460Y-112760902D01*
X167361412Y-112760563D01*
X167361223Y-112756053D01*
X167361000Y-112751500D01*
X167361000Y-99848203D01*
X167360861Y-99848166D01*
X167356429Y-99847028D01*
X167356098Y-99846908D01*
X167355763Y-99846819D01*
X167351495Y-99845232D01*
X167347248Y-99843686D01*
X167346938Y-99843537D01*
X167346606Y-99843414D01*
X167342488Y-99841405D01*
X167338438Y-99839465D01*
X167338141Y-99839285D01*
X167337825Y-99839131D01*
X167333961Y-99836754D01*
X167330081Y-99834404D01*
X167329800Y-99834194D01*
X167329503Y-99834011D01*
X167325878Y-99831259D01*
X167322258Y-99828551D01*
X167322002Y-99828318D01*
X167321721Y-99828104D01*
X167318378Y-99825008D01*
X167315043Y-99821963D01*
X167314809Y-99821703D01*
X167314553Y-99821466D01*
X167311538Y-99818070D01*
X167308506Y-99814703D01*
X167308300Y-99814423D01*
X167308066Y-99814160D01*
X167305403Y-99810494D01*
X167302708Y-99806839D01*
X167302527Y-99806536D01*
X167302324Y-99806256D01*
X167300051Y-99802383D01*
X167297705Y-99798447D01*
X167297555Y-99798128D01*
X167297380Y-99797830D01*
X167295503Y-99793768D01*
X167293545Y-99789607D01*
X167293426Y-99789272D01*
X167293282Y-99788961D01*
X167291813Y-99784743D01*
X167290268Y-99780403D01*
X167290182Y-99780059D01*
X167290069Y-99779734D01*
X167289013Y-99775369D01*
X167287904Y-99770923D01*
X167287853Y-99770576D01*
X167287771Y-99770238D01*
X167287148Y-99765801D01*
X167286477Y-99761258D01*
X167286460Y-99760902D01*
X167286412Y-99760563D01*
X167286223Y-99756053D01*
X167286000Y-99751500D01*
X167286000Y-94651500D01*
X166886000Y-94651500D01*
X166886000Y-99751500D01*
X166885995Y-99752137D01*
X166885998Y-99752198D01*
X166885995Y-99752259D01*
X166885990Y-99752896D01*
X166885707Y-99757402D01*
X166885452Y-99761953D01*
X166885399Y-99762294D01*
X166885377Y-99762647D01*
X166884651Y-99767128D01*
X166883958Y-99771608D01*
X166883870Y-99771949D01*
X166883815Y-99772291D01*
X166882666Y-99776639D01*
X166881528Y-99781071D01*
X166881408Y-99781402D01*
X166881319Y-99781737D01*
X166879732Y-99786005D01*
X166878186Y-99790252D01*
X166878037Y-99790562D01*
X166877914Y-99790894D01*
X166875905Y-99795012D01*
X166873965Y-99799062D01*
X166873785Y-99799359D01*
X166873631Y-99799675D01*
X166871254Y-99803539D01*
X166868904Y-99807419D01*
X166868694Y-99807700D01*
X166868511Y-99807997D01*
X166865759Y-99811622D01*
X166863051Y-99815242D01*
X166862818Y-99815498D01*
X166862604Y-99815779D01*
X166859508Y-99819122D01*
X166856463Y-99822457D01*
X166856203Y-99822691D01*
X166855966Y-99822947D01*
X166852570Y-99825962D01*
X166849203Y-99828994D01*
X166848923Y-99829200D01*
X166848660Y-99829434D01*
X166844994Y-99832097D01*
X166841339Y-99834792D01*
X166841036Y-99834973D01*
X166840756Y-99835176D01*
X166836883Y-99837449D01*
X166832947Y-99839795D01*
X166832628Y-99839945D01*
X166832330Y-99840120D01*
X166828268Y-99841997D01*
X166824107Y-99843955D01*
X166823772Y-99844074D01*
X166823461Y-99844218D01*
X166819243Y-99845687D01*
X166814903Y-99847232D01*
X166814559Y-99847318D01*
X166814234Y-99847431D01*
X166809869Y-99848487D01*
X166805423Y-99849596D01*
X166805076Y-99849647D01*
X166804738Y-99849729D01*
X166800301Y-99850352D01*
X166795758Y-99851023D01*
X166795402Y-99851040D01*
X166795063Y-99851088D01*
X166790553Y-99851277D01*
X166786000Y-99851500D01*
X159336000Y-99851500D01*
X159335363Y-99851495D01*
X159335302Y-99851498D01*
X159335241Y-99851495D01*
X159334604Y-99851490D01*
X159330098Y-99851207D01*
X159325547Y-99850952D01*
X159325206Y-99850899D01*
X159324853Y-99850877D01*
X159320372Y-99850151D01*
X159315892Y-99849458D01*
X159315551Y-99849370D01*
X159315209Y-99849315D01*
X159310861Y-99848166D01*
X159306429Y-99847028D01*
X159306098Y-99846908D01*
X159305763Y-99846819D01*
X159301495Y-99845232D01*
X159297248Y-99843686D01*
X159296938Y-99843537D01*
X159296606Y-99843414D01*
X159292488Y-99841405D01*
X159288438Y-99839465D01*
X159288141Y-99839285D01*
X159287825Y-99839131D01*
X159283961Y-99836754D01*
X159280081Y-99834404D01*
X159279800Y-99834194D01*
X159279503Y-99834011D01*
X159275878Y-99831259D01*
X159272258Y-99828551D01*
X159272002Y-99828318D01*
X159271721Y-99828104D01*
X159268378Y-99825008D01*
X159265043Y-99821963D01*
X159264809Y-99821703D01*
X159264553Y-99821466D01*
X159261538Y-99818070D01*
X159258506Y-99814703D01*
X159258300Y-99814423D01*
X159258066Y-99814160D01*
X159255403Y-99810494D01*
X159252708Y-99806839D01*
X159252527Y-99806536D01*
X159252324Y-99806256D01*
X159250051Y-99802383D01*
X159247705Y-99798447D01*
X159247555Y-99798128D01*
X159247380Y-99797830D01*
X159245503Y-99793768D01*
X159243545Y-99789607D01*
X159243426Y-99789272D01*
X159243282Y-99788961D01*
X159241813Y-99784743D01*
X159240268Y-99780403D01*
X159240182Y-99780059D01*
X159240069Y-99779734D01*
X159239013Y-99775369D01*
X159237904Y-99770923D01*
X159237853Y-99770576D01*
X159237771Y-99770238D01*
X159237148Y-99765801D01*
X159236477Y-99761258D01*
X159236460Y-99760902D01*
X159236412Y-99760563D01*
X159236223Y-99756053D01*
X159236000Y-99751500D01*
X159236000Y-85751500D01*
X159236005Y-85750863D01*
X159236002Y-85750802D01*
X159236005Y-85750741D01*
X159236010Y-85750104D01*
X159236293Y-85745598D01*
X159236548Y-85741047D01*
X159236601Y-85740706D01*
X159236623Y-85740353D01*
X159237349Y-85735872D01*
X159238042Y-85731392D01*
X159238130Y-85731051D01*
X159238185Y-85730709D01*
X159239334Y-85726361D01*
X159240472Y-85721929D01*
X159240592Y-85721598D01*
X159240681Y-85721263D01*
X159242268Y-85716995D01*
X159243814Y-85712748D01*
X159243963Y-85712438D01*
X159244086Y-85712106D01*
X159246095Y-85707988D01*
X159248035Y-85703938D01*
X159248215Y-85703641D01*
X159248369Y-85703325D01*
X159250746Y-85699461D01*
X159253096Y-85695581D01*
X159253306Y-85695300D01*
X159253489Y-85695003D01*
X159256241Y-85691378D01*
X159258949Y-85687758D01*
X159259182Y-85687502D01*
X159259396Y-85687221D01*
X159262492Y-85683878D01*
X159265537Y-85680543D01*
X159265797Y-85680309D01*
X159266034Y-85680053D01*
X159269430Y-85677038D01*
X159272797Y-85674006D01*
X159273077Y-85673800D01*
X159273340Y-85673566D01*
X159277006Y-85670903D01*
X159280661Y-85668208D01*
X159280964Y-85668027D01*
X159281244Y-85667824D01*
X159285117Y-85665551D01*
X159289053Y-85663205D01*
X159289372Y-85663055D01*
X159289670Y-85662880D01*
X159293732Y-85661003D01*
X159297893Y-85659045D01*
X159298228Y-85658926D01*
X159298539Y-85658782D01*
X159302757Y-85657313D01*
X159307097Y-85655768D01*
X159307441Y-85655682D01*
X159307766Y-85655569D01*
X159312131Y-85654513D01*
X159316577Y-85653404D01*
X159316924Y-85653353D01*
X159317262Y-85653271D01*
X159321699Y-85652648D01*
X159326242Y-85651977D01*
X159326598Y-85651960D01*
X159326937Y-85651912D01*
X159331447Y-85651723D01*
X159336000Y-85651500D01*
X177336000Y-85651500D01*
X177336637Y-85651505D01*
G37*
%TD.AperFunction*%
%TD*%
%TA.AperFunction,SMDPad,CuDef*%
%TO.P,AE101,1*%
%TO.N,Net-(AE101-Pad1)*%
G36*
X152317637Y-85715005D02*
G01*
X152317698Y-85715002D01*
X152317759Y-85715005D01*
X152318396Y-85715010D01*
X152322902Y-85715293D01*
X152327453Y-85715548D01*
X152327794Y-85715601D01*
X152328147Y-85715623D01*
X152332628Y-85716349D01*
X152337108Y-85717042D01*
X152337449Y-85717130D01*
X152337791Y-85717185D01*
X152342139Y-85718334D01*
X152346571Y-85719472D01*
X152346902Y-85719592D01*
X152347237Y-85719681D01*
X152351505Y-85721268D01*
X152355752Y-85722814D01*
X152356062Y-85722963D01*
X152356394Y-85723086D01*
X152360512Y-85725095D01*
X152364562Y-85727035D01*
X152364859Y-85727215D01*
X152365175Y-85727369D01*
X152369039Y-85729746D01*
X152372919Y-85732096D01*
X152373200Y-85732306D01*
X152373497Y-85732489D01*
X152377122Y-85735241D01*
X152380742Y-85737949D01*
X152380998Y-85738182D01*
X152381279Y-85738396D01*
X152384622Y-85741492D01*
X152387957Y-85744537D01*
X152388191Y-85744797D01*
X152388447Y-85745034D01*
X152391462Y-85748430D01*
X152394494Y-85751797D01*
X152394700Y-85752077D01*
X152394934Y-85752340D01*
X152397597Y-85756006D01*
X152400292Y-85759661D01*
X152400473Y-85759964D01*
X152400676Y-85760244D01*
X152402949Y-85764117D01*
X152405295Y-85768053D01*
X152405445Y-85768372D01*
X152405620Y-85768670D01*
X152407497Y-85772732D01*
X152409455Y-85776893D01*
X152409574Y-85777228D01*
X152409718Y-85777539D01*
X152411187Y-85781757D01*
X152412732Y-85786097D01*
X152412818Y-85786441D01*
X152412931Y-85786766D01*
X152413987Y-85791131D01*
X152415096Y-85795577D01*
X152415147Y-85795924D01*
X152415229Y-85796262D01*
X152415852Y-85800699D01*
X152416523Y-85805242D01*
X152416540Y-85805598D01*
X152416588Y-85805937D01*
X152416777Y-85810447D01*
X152417000Y-85815000D01*
X152417000Y-99815000D01*
X152416995Y-99815637D01*
X152416998Y-99815698D01*
X152416995Y-99815759D01*
X152416990Y-99816396D01*
X152416707Y-99820902D01*
X152416452Y-99825453D01*
X152416399Y-99825794D01*
X152416377Y-99826147D01*
X152415651Y-99830628D01*
X152414958Y-99835108D01*
X152414870Y-99835449D01*
X152414815Y-99835791D01*
X152413666Y-99840139D01*
X152412528Y-99844571D01*
X152412408Y-99844902D01*
X152412319Y-99845237D01*
X152410732Y-99849505D01*
X152409186Y-99853752D01*
X152409037Y-99854062D01*
X152408914Y-99854394D01*
X152406905Y-99858512D01*
X152404965Y-99862562D01*
X152404785Y-99862859D01*
X152404631Y-99863175D01*
X152402254Y-99867039D01*
X152399904Y-99870919D01*
X152399694Y-99871200D01*
X152399511Y-99871497D01*
X152396759Y-99875122D01*
X152394051Y-99878742D01*
X152393818Y-99878998D01*
X152393604Y-99879279D01*
X152390508Y-99882622D01*
X152387463Y-99885957D01*
X152387203Y-99886191D01*
X152386966Y-99886447D01*
X152383570Y-99889462D01*
X152380203Y-99892494D01*
X152379923Y-99892700D01*
X152379660Y-99892934D01*
X152375994Y-99895597D01*
X152372339Y-99898292D01*
X152372036Y-99898473D01*
X152371756Y-99898676D01*
X152367883Y-99900949D01*
X152363947Y-99903295D01*
X152363628Y-99903445D01*
X152363330Y-99903620D01*
X152359268Y-99905497D01*
X152355107Y-99907455D01*
X152354772Y-99907574D01*
X152354461Y-99907718D01*
X152350243Y-99909187D01*
X152345903Y-99910732D01*
X152345559Y-99910818D01*
X152345234Y-99910931D01*
X152340869Y-99911987D01*
X152336423Y-99913096D01*
X152336076Y-99913147D01*
X152335738Y-99913229D01*
X152331301Y-99913852D01*
X152326758Y-99914523D01*
X152326402Y-99914540D01*
X152326063Y-99914588D01*
X152321553Y-99914777D01*
X152317000Y-99915000D01*
X144867000Y-99915000D01*
X144866363Y-99914995D01*
X144866302Y-99914998D01*
X144866241Y-99914995D01*
X144865604Y-99914990D01*
X144861098Y-99914707D01*
X144856547Y-99914452D01*
X144856206Y-99914399D01*
X144855853Y-99914377D01*
X144851372Y-99913651D01*
X144846892Y-99912958D01*
X144846551Y-99912870D01*
X144846209Y-99912815D01*
X144841861Y-99911666D01*
X144837429Y-99910528D01*
X144837098Y-99910408D01*
X144836763Y-99910319D01*
X144832495Y-99908732D01*
X144828248Y-99907186D01*
X144827938Y-99907037D01*
X144827606Y-99906914D01*
X144823488Y-99904905D01*
X144819438Y-99902965D01*
X144819141Y-99902785D01*
X144818825Y-99902631D01*
X144814961Y-99900254D01*
X144811081Y-99897904D01*
X144810800Y-99897694D01*
X144810503Y-99897511D01*
X144806878Y-99894759D01*
X144803258Y-99892051D01*
X144803002Y-99891818D01*
X144802721Y-99891604D01*
X144799378Y-99888508D01*
X144796043Y-99885463D01*
X144795809Y-99885203D01*
X144795553Y-99884966D01*
X144792538Y-99881570D01*
X144789506Y-99878203D01*
X144789300Y-99877923D01*
X144789066Y-99877660D01*
X144786403Y-99873994D01*
X144783708Y-99870339D01*
X144783527Y-99870036D01*
X144783324Y-99869756D01*
X144781051Y-99865883D01*
X144778705Y-99861947D01*
X144778555Y-99861628D01*
X144778380Y-99861330D01*
X144776503Y-99857268D01*
X144774545Y-99853107D01*
X144774426Y-99852772D01*
X144774282Y-99852461D01*
X144772813Y-99848243D01*
X144771268Y-99843903D01*
X144771182Y-99843559D01*
X144771069Y-99843234D01*
X144770013Y-99838869D01*
X144768904Y-99834423D01*
X144768853Y-99834076D01*
X144768771Y-99833738D01*
X144768148Y-99829301D01*
X144767477Y-99824758D01*
X144767460Y-99824402D01*
X144767412Y-99824063D01*
X144767223Y-99819553D01*
X144767000Y-99815000D01*
X144767000Y-94715000D01*
X144367000Y-94715000D01*
X144367000Y-99815000D01*
X144366995Y-99815637D01*
X144366998Y-99815698D01*
X144366995Y-99815759D01*
X144366990Y-99816396D01*
X144366707Y-99820902D01*
X144366452Y-99825453D01*
X144366399Y-99825794D01*
X144366377Y-99826147D01*
X144365651Y-99830628D01*
X144364958Y-99835108D01*
X144364870Y-99835449D01*
X144364815Y-99835791D01*
X144363666Y-99840139D01*
X144362528Y-99844571D01*
X144362408Y-99844902D01*
X144362319Y-99845237D01*
X144360732Y-99849505D01*
X144359186Y-99853752D01*
X144359037Y-99854062D01*
X144358914Y-99854394D01*
X144356905Y-99858512D01*
X144354965Y-99862562D01*
X144354785Y-99862859D01*
X144354631Y-99863175D01*
X144352254Y-99867039D01*
X144349904Y-99870919D01*
X144349694Y-99871200D01*
X144349511Y-99871497D01*
X144346759Y-99875122D01*
X144344051Y-99878742D01*
X144343818Y-99878998D01*
X144343604Y-99879279D01*
X144340508Y-99882622D01*
X144337463Y-99885957D01*
X144337203Y-99886191D01*
X144336966Y-99886447D01*
X144333570Y-99889462D01*
X144330203Y-99892494D01*
X144329923Y-99892700D01*
X144329660Y-99892934D01*
X144325994Y-99895597D01*
X144322339Y-99898292D01*
X144322036Y-99898473D01*
X144321756Y-99898676D01*
X144317883Y-99900949D01*
X144313947Y-99903295D01*
X144313628Y-99903445D01*
X144313330Y-99903620D01*
X144309268Y-99905497D01*
X144305107Y-99907455D01*
X144304772Y-99907574D01*
X144304461Y-99907718D01*
X144300243Y-99909187D01*
X144295903Y-99910732D01*
X144295559Y-99910818D01*
X144295234Y-99910931D01*
X144292000Y-99911714D01*
X144292000Y-112815000D01*
X144291995Y-112815637D01*
X144291998Y-112815698D01*
X144291995Y-112815759D01*
X144291990Y-112816396D01*
X144291707Y-112820902D01*
X144291452Y-112825453D01*
X144291399Y-112825794D01*
X144291377Y-112826147D01*
X144290651Y-112830628D01*
X144289958Y-112835108D01*
X144289870Y-112835449D01*
X144289815Y-112835791D01*
X144288666Y-112840139D01*
X144287528Y-112844571D01*
X144287408Y-112844902D01*
X144287319Y-112845237D01*
X144285732Y-112849505D01*
X144284186Y-112853752D01*
X144284037Y-112854062D01*
X144283914Y-112854394D01*
X144281905Y-112858512D01*
X144279965Y-112862562D01*
X144279785Y-112862859D01*
X144279631Y-112863175D01*
X144277254Y-112867039D01*
X144274904Y-112870919D01*
X144274694Y-112871200D01*
X144274511Y-112871497D01*
X144271759Y-112875122D01*
X144269051Y-112878742D01*
X144268818Y-112878998D01*
X144268604Y-112879279D01*
X144265508Y-112882622D01*
X144262463Y-112885957D01*
X144262203Y-112886191D01*
X144261966Y-112886447D01*
X144258570Y-112889462D01*
X144255203Y-112892494D01*
X144254923Y-112892700D01*
X144254660Y-112892934D01*
X144250994Y-112895597D01*
X144247339Y-112898292D01*
X144247036Y-112898473D01*
X144246756Y-112898676D01*
X144242883Y-112900949D01*
X144238947Y-112903295D01*
X144238628Y-112903445D01*
X144238330Y-112903620D01*
X144234268Y-112905497D01*
X144230107Y-112907455D01*
X144229772Y-112907574D01*
X144229461Y-112907718D01*
X144225243Y-112909187D01*
X144220903Y-112910732D01*
X144220559Y-112910818D01*
X144220234Y-112910931D01*
X144215869Y-112911987D01*
X144211423Y-112913096D01*
X144211076Y-112913147D01*
X144210738Y-112913229D01*
X144206301Y-112913852D01*
X144201758Y-112914523D01*
X144201402Y-112914540D01*
X144201063Y-112914588D01*
X144196553Y-112914777D01*
X144192000Y-112915000D01*
X142442000Y-112915000D01*
X142441363Y-112914995D01*
X142441302Y-112914998D01*
X142441241Y-112914995D01*
X142440604Y-112914990D01*
X142436098Y-112914707D01*
X142431547Y-112914452D01*
X142431206Y-112914399D01*
X142430853Y-112914377D01*
X142426372Y-112913651D01*
X142421892Y-112912958D01*
X142421551Y-112912870D01*
X142421209Y-112912815D01*
X142416861Y-112911666D01*
X142412429Y-112910528D01*
X142412098Y-112910408D01*
X142411763Y-112910319D01*
X142407495Y-112908732D01*
X142403248Y-112907186D01*
X142402938Y-112907037D01*
X142402606Y-112906914D01*
X142398488Y-112904905D01*
X142394438Y-112902965D01*
X142394141Y-112902785D01*
X142393825Y-112902631D01*
X142389961Y-112900254D01*
X142386081Y-112897904D01*
X142385800Y-112897694D01*
X142385503Y-112897511D01*
X142381878Y-112894759D01*
X142378258Y-112892051D01*
X142378002Y-112891818D01*
X142377721Y-112891604D01*
X142374378Y-112888508D01*
X142371043Y-112885463D01*
X142370809Y-112885203D01*
X142370553Y-112884966D01*
X142367538Y-112881570D01*
X142364506Y-112878203D01*
X142364300Y-112877923D01*
X142364066Y-112877660D01*
X142361403Y-112873994D01*
X142358708Y-112870339D01*
X142358527Y-112870036D01*
X142358324Y-112869756D01*
X142356051Y-112865883D01*
X142353705Y-112861947D01*
X142353555Y-112861628D01*
X142353380Y-112861330D01*
X142351503Y-112857268D01*
X142349545Y-112853107D01*
X142349426Y-112852772D01*
X142349282Y-112852461D01*
X142347813Y-112848243D01*
X142346268Y-112843903D01*
X142346182Y-112843559D01*
X142346069Y-112843234D01*
X142345013Y-112838869D01*
X142343904Y-112834423D01*
X142343853Y-112834076D01*
X142343771Y-112833738D01*
X142343148Y-112829301D01*
X142342477Y-112824758D01*
X142342460Y-112824402D01*
X142342412Y-112824063D01*
X142342223Y-112819553D01*
X142342000Y-112815000D01*
X142342000Y-99911703D01*
X142341861Y-99911666D01*
X142337429Y-99910528D01*
X142337098Y-99910408D01*
X142336763Y-99910319D01*
X142332495Y-99908732D01*
X142328248Y-99907186D01*
X142327938Y-99907037D01*
X142327606Y-99906914D01*
X142323488Y-99904905D01*
X142319438Y-99902965D01*
X142319141Y-99902785D01*
X142318825Y-99902631D01*
X142314961Y-99900254D01*
X142311081Y-99897904D01*
X142310800Y-99897694D01*
X142310503Y-99897511D01*
X142306878Y-99894759D01*
X142303258Y-99892051D01*
X142303002Y-99891818D01*
X142302721Y-99891604D01*
X142299378Y-99888508D01*
X142296043Y-99885463D01*
X142295809Y-99885203D01*
X142295553Y-99884966D01*
X142292538Y-99881570D01*
X142289506Y-99878203D01*
X142289300Y-99877923D01*
X142289066Y-99877660D01*
X142286403Y-99873994D01*
X142283708Y-99870339D01*
X142283527Y-99870036D01*
X142283324Y-99869756D01*
X142281051Y-99865883D01*
X142278705Y-99861947D01*
X142278555Y-99861628D01*
X142278380Y-99861330D01*
X142276503Y-99857268D01*
X142274545Y-99853107D01*
X142274426Y-99852772D01*
X142274282Y-99852461D01*
X142272813Y-99848243D01*
X142271268Y-99843903D01*
X142271182Y-99843559D01*
X142271069Y-99843234D01*
X142270013Y-99838869D01*
X142268904Y-99834423D01*
X142268853Y-99834076D01*
X142268771Y-99833738D01*
X142268148Y-99829301D01*
X142267477Y-99824758D01*
X142267460Y-99824402D01*
X142267412Y-99824063D01*
X142267223Y-99819553D01*
X142267000Y-99815000D01*
X142267000Y-94715000D01*
X141867000Y-94715000D01*
X141867000Y-99815000D01*
X141866995Y-99815637D01*
X141866998Y-99815698D01*
X141866995Y-99815759D01*
X141866990Y-99816396D01*
X141866707Y-99820902D01*
X141866452Y-99825453D01*
X141866399Y-99825794D01*
X141866377Y-99826147D01*
X141865651Y-99830628D01*
X141864958Y-99835108D01*
X141864870Y-99835449D01*
X141864815Y-99835791D01*
X141863666Y-99840139D01*
X141862528Y-99844571D01*
X141862408Y-99844902D01*
X141862319Y-99845237D01*
X141860732Y-99849505D01*
X141859186Y-99853752D01*
X141859037Y-99854062D01*
X141858914Y-99854394D01*
X141856905Y-99858512D01*
X141854965Y-99862562D01*
X141854785Y-99862859D01*
X141854631Y-99863175D01*
X141852254Y-99867039D01*
X141849904Y-99870919D01*
X141849694Y-99871200D01*
X141849511Y-99871497D01*
X141846759Y-99875122D01*
X141844051Y-99878742D01*
X141843818Y-99878998D01*
X141843604Y-99879279D01*
X141840508Y-99882622D01*
X141837463Y-99885957D01*
X141837203Y-99886191D01*
X141836966Y-99886447D01*
X141833570Y-99889462D01*
X141830203Y-99892494D01*
X141829923Y-99892700D01*
X141829660Y-99892934D01*
X141825994Y-99895597D01*
X141822339Y-99898292D01*
X141822036Y-99898473D01*
X141821756Y-99898676D01*
X141817883Y-99900949D01*
X141813947Y-99903295D01*
X141813628Y-99903445D01*
X141813330Y-99903620D01*
X141809268Y-99905497D01*
X141805107Y-99907455D01*
X141804772Y-99907574D01*
X141804461Y-99907718D01*
X141800243Y-99909187D01*
X141795903Y-99910732D01*
X141795559Y-99910818D01*
X141795234Y-99910931D01*
X141790869Y-99911987D01*
X141786423Y-99913096D01*
X141786076Y-99913147D01*
X141785738Y-99913229D01*
X141781301Y-99913852D01*
X141776758Y-99914523D01*
X141776402Y-99914540D01*
X141776063Y-99914588D01*
X141771553Y-99914777D01*
X141767000Y-99915000D01*
X134317000Y-99915000D01*
X134316363Y-99914995D01*
X134316302Y-99914998D01*
X134316241Y-99914995D01*
X134315604Y-99914990D01*
X134311098Y-99914707D01*
X134306547Y-99914452D01*
X134306206Y-99914399D01*
X134305853Y-99914377D01*
X134301372Y-99913651D01*
X134296892Y-99912958D01*
X134296551Y-99912870D01*
X134296209Y-99912815D01*
X134291861Y-99911666D01*
X134287429Y-99910528D01*
X134287098Y-99910408D01*
X134286763Y-99910319D01*
X134282495Y-99908732D01*
X134278248Y-99907186D01*
X134277938Y-99907037D01*
X134277606Y-99906914D01*
X134273488Y-99904905D01*
X134269438Y-99902965D01*
X134269141Y-99902785D01*
X134268825Y-99902631D01*
X134264961Y-99900254D01*
X134261081Y-99897904D01*
X134260800Y-99897694D01*
X134260503Y-99897511D01*
X134256878Y-99894759D01*
X134253258Y-99892051D01*
X134253002Y-99891818D01*
X134252721Y-99891604D01*
X134249378Y-99888508D01*
X134246043Y-99885463D01*
X134245809Y-99885203D01*
X134245553Y-99884966D01*
X134242538Y-99881570D01*
X134239506Y-99878203D01*
X134239300Y-99877923D01*
X134239066Y-99877660D01*
X134236403Y-99873994D01*
X134233708Y-99870339D01*
X134233527Y-99870036D01*
X134233324Y-99869756D01*
X134231051Y-99865883D01*
X134228705Y-99861947D01*
X134228555Y-99861628D01*
X134228380Y-99861330D01*
X134226503Y-99857268D01*
X134224545Y-99853107D01*
X134224426Y-99852772D01*
X134224282Y-99852461D01*
X134222813Y-99848243D01*
X134221268Y-99843903D01*
X134221182Y-99843559D01*
X134221069Y-99843234D01*
X134220013Y-99838869D01*
X134218904Y-99834423D01*
X134218853Y-99834076D01*
X134218771Y-99833738D01*
X134218148Y-99829301D01*
X134217477Y-99824758D01*
X134217460Y-99824402D01*
X134217412Y-99824063D01*
X134217223Y-99819553D01*
X134217000Y-99815000D01*
X134217000Y-85815000D01*
X134217005Y-85814363D01*
X134217002Y-85814302D01*
X134217005Y-85814241D01*
X134217010Y-85813604D01*
X134217293Y-85809098D01*
X134217548Y-85804547D01*
X134217601Y-85804206D01*
X134217623Y-85803853D01*
X134218349Y-85799372D01*
X134219042Y-85794892D01*
X134219130Y-85794551D01*
X134219185Y-85794209D01*
X134220334Y-85789861D01*
X134221472Y-85785429D01*
X134221592Y-85785098D01*
X134221681Y-85784763D01*
X134223268Y-85780495D01*
X134224814Y-85776248D01*
X134224963Y-85775938D01*
X134225086Y-85775606D01*
X134227095Y-85771488D01*
X134229035Y-85767438D01*
X134229215Y-85767141D01*
X134229369Y-85766825D01*
X134231746Y-85762961D01*
X134234096Y-85759081D01*
X134234306Y-85758800D01*
X134234489Y-85758503D01*
X134237241Y-85754878D01*
X134239949Y-85751258D01*
X134240182Y-85751002D01*
X134240396Y-85750721D01*
X134243492Y-85747378D01*
X134246537Y-85744043D01*
X134246797Y-85743809D01*
X134247034Y-85743553D01*
X134250430Y-85740538D01*
X134253797Y-85737506D01*
X134254077Y-85737300D01*
X134254340Y-85737066D01*
X134258006Y-85734403D01*
X134261661Y-85731708D01*
X134261964Y-85731527D01*
X134262244Y-85731324D01*
X134266117Y-85729051D01*
X134270053Y-85726705D01*
X134270372Y-85726555D01*
X134270670Y-85726380D01*
X134274732Y-85724503D01*
X134278893Y-85722545D01*
X134279228Y-85722426D01*
X134279539Y-85722282D01*
X134283757Y-85720813D01*
X134288097Y-85719268D01*
X134288441Y-85719182D01*
X134288766Y-85719069D01*
X134293131Y-85718013D01*
X134297577Y-85716904D01*
X134297924Y-85716853D01*
X134298262Y-85716771D01*
X134302699Y-85716148D01*
X134307242Y-85715477D01*
X134307598Y-85715460D01*
X134307937Y-85715412D01*
X134312447Y-85715223D01*
X134317000Y-85715000D01*
X152317000Y-85715000D01*
X152317637Y-85715005D01*
G37*
%TD.AperFunction*%
%TD*%
D11*
%TO.P,J101,1*%
%TO.N,Net-(AE101-Pad1)*%
X143319500Y-116786000D03*
D10*
%TO.P,J101,2*%
%TO.N,Earth*%
X146144500Y-116586000D03*
X140494500Y-116586000D03*
%TD*%
D13*
%TO.N,*%
X168338500Y-115697000D02*
X168338500Y-111887000D01*
X193167000Y-115760500D02*
X193167000Y-111950500D01*
X218059000Y-115951000D02*
X218059000Y-112141000D01*
X192976500Y-43307000D02*
X192976500Y-47117000D01*
X143256000Y-43053000D02*
X143256000Y-46863000D01*
X168148000Y-43243500D02*
X168148000Y-47053500D01*
X217995500Y-43243500D02*
X217995500Y-47053500D01*
%TO.N,Net-(AE101-Pad1)*%
X143319500Y-115760500D02*
X143319500Y-111950500D01*
%TD*%
M02*
