%TF.GenerationSoftware,KiCad,Pcbnew,(5.1.8)-1*%
%TF.CreationDate,2020-12-04T16:42:46+03:00*%
%TF.ProjectId,Antenna,416e7465-6e6e-4612-9e6b-696361645f70,rev?*%
%TF.SameCoordinates,Original*%
%TF.FileFunction,Legend,Top*%
%TF.FilePolarity,Positive*%
%FSLAX46Y46*%
G04 Gerber Fmt 4.6, Leading zero omitted, Abs format (unit mm)*
G04 Created by KiCad (PCBNEW (5.1.8)-1) date 2020-12-04 16:42:46*
%MOMM*%
%LPD*%
G01*
G04 APERTURE LIST*
%ADD10C,0.120000*%
%ADD11C,0.150000*%
G04 APERTURE END LIST*
D10*
%TO.C,J101*%
X142416000Y-43937500D02*
X141306000Y-43937500D01*
X145206000Y-43937500D02*
X144096000Y-43937500D01*
X142416000Y-40227500D02*
X141306000Y-40227500D01*
X145206000Y-40227500D02*
X144096000Y-40227500D01*
X143256000Y-44487500D02*
X143006000Y-44987500D01*
X143006000Y-44987500D02*
X143506000Y-44987500D01*
X143506000Y-44987500D02*
X143256000Y-44487500D01*
X217155500Y-44128000D02*
X216045500Y-44128000D01*
X219945500Y-44128000D02*
X218835500Y-44128000D01*
X217155500Y-40418000D02*
X216045500Y-40418000D01*
X219945500Y-40418000D02*
X218835500Y-40418000D01*
X217995500Y-44678000D02*
X217745500Y-45178000D01*
X217745500Y-45178000D02*
X218245500Y-45178000D01*
X218245500Y-45178000D02*
X217995500Y-44678000D01*
X167308000Y-44128000D02*
X166198000Y-44128000D01*
X170098000Y-44128000D02*
X168988000Y-44128000D01*
X167308000Y-40418000D02*
X166198000Y-40418000D01*
X170098000Y-40418000D02*
X168988000Y-40418000D01*
X168148000Y-44678000D02*
X167898000Y-45178000D01*
X167898000Y-45178000D02*
X168398000Y-45178000D01*
X168398000Y-45178000D02*
X168148000Y-44678000D01*
X192136500Y-44191500D02*
X191026500Y-44191500D01*
X194926500Y-44191500D02*
X193816500Y-44191500D01*
X192136500Y-40481500D02*
X191026500Y-40481500D01*
X194926500Y-40481500D02*
X193816500Y-40481500D01*
X192976500Y-44741500D02*
X192726500Y-45241500D01*
X192726500Y-45241500D02*
X193226500Y-45241500D01*
X193226500Y-45241500D02*
X192976500Y-44741500D01*
X218899000Y-115066500D02*
X220009000Y-115066500D01*
X216109000Y-115066500D02*
X217219000Y-115066500D01*
X218899000Y-118776500D02*
X220009000Y-118776500D01*
X216109000Y-118776500D02*
X217219000Y-118776500D01*
X218059000Y-114516500D02*
X218309000Y-114016500D01*
X218309000Y-114016500D02*
X217809000Y-114016500D01*
X217809000Y-114016500D02*
X218059000Y-114516500D01*
X194007000Y-114876000D02*
X195117000Y-114876000D01*
X191217000Y-114876000D02*
X192327000Y-114876000D01*
X194007000Y-118586000D02*
X195117000Y-118586000D01*
X191217000Y-118586000D02*
X192327000Y-118586000D01*
X193167000Y-114326000D02*
X193417000Y-113826000D01*
X193417000Y-113826000D02*
X192917000Y-113826000D01*
X192917000Y-113826000D02*
X193167000Y-114326000D01*
X169178500Y-114812500D02*
X170288500Y-114812500D01*
X166388500Y-114812500D02*
X167498500Y-114812500D01*
X169178500Y-118522500D02*
X170288500Y-118522500D01*
X166388500Y-118522500D02*
X167498500Y-118522500D01*
X168338500Y-114262500D02*
X168588500Y-113762500D01*
X168588500Y-113762500D02*
X168088500Y-113762500D01*
X168088500Y-113762500D02*
X168338500Y-114262500D01*
X144159500Y-114876000D02*
X145269500Y-114876000D01*
X141369500Y-114876000D02*
X142479500Y-114876000D01*
X144159500Y-118586000D02*
X145269500Y-118586000D01*
X141369500Y-118586000D02*
X142479500Y-118586000D01*
X143319500Y-114326000D02*
X143569500Y-113826000D01*
X143569500Y-113826000D02*
X143069500Y-113826000D01*
X143069500Y-113826000D02*
X143319500Y-114326000D01*
D11*
X141970285Y-45179880D02*
X141970285Y-45894166D01*
X141922666Y-46037023D01*
X141827428Y-46132261D01*
X141684571Y-46179880D01*
X141589333Y-46179880D01*
X142970285Y-46179880D02*
X142398857Y-46179880D01*
X142684571Y-46179880D02*
X142684571Y-45179880D01*
X142589333Y-45322738D01*
X142494095Y-45417976D01*
X142398857Y-45465595D01*
X143589333Y-45179880D02*
X143684571Y-45179880D01*
X143779809Y-45227500D01*
X143827428Y-45275119D01*
X143875047Y-45370357D01*
X143922666Y-45560833D01*
X143922666Y-45798928D01*
X143875047Y-45989404D01*
X143827428Y-46084642D01*
X143779809Y-46132261D01*
X143684571Y-46179880D01*
X143589333Y-46179880D01*
X143494095Y-46132261D01*
X143446476Y-46084642D01*
X143398857Y-45989404D01*
X143351238Y-45798928D01*
X143351238Y-45560833D01*
X143398857Y-45370357D01*
X143446476Y-45275119D01*
X143494095Y-45227500D01*
X143589333Y-45179880D01*
X144875047Y-46179880D02*
X144303619Y-46179880D01*
X144589333Y-46179880D02*
X144589333Y-45179880D01*
X144494095Y-45322738D01*
X144398857Y-45417976D01*
X144303619Y-45465595D01*
X216709785Y-45370380D02*
X216709785Y-46084666D01*
X216662166Y-46227523D01*
X216566928Y-46322761D01*
X216424071Y-46370380D01*
X216328833Y-46370380D01*
X217709785Y-46370380D02*
X217138357Y-46370380D01*
X217424071Y-46370380D02*
X217424071Y-45370380D01*
X217328833Y-45513238D01*
X217233595Y-45608476D01*
X217138357Y-45656095D01*
X218328833Y-45370380D02*
X218424071Y-45370380D01*
X218519309Y-45418000D01*
X218566928Y-45465619D01*
X218614547Y-45560857D01*
X218662166Y-45751333D01*
X218662166Y-45989428D01*
X218614547Y-46179904D01*
X218566928Y-46275142D01*
X218519309Y-46322761D01*
X218424071Y-46370380D01*
X218328833Y-46370380D01*
X218233595Y-46322761D01*
X218185976Y-46275142D01*
X218138357Y-46179904D01*
X218090738Y-45989428D01*
X218090738Y-45751333D01*
X218138357Y-45560857D01*
X218185976Y-45465619D01*
X218233595Y-45418000D01*
X218328833Y-45370380D01*
X219614547Y-46370380D02*
X219043119Y-46370380D01*
X219328833Y-46370380D02*
X219328833Y-45370380D01*
X219233595Y-45513238D01*
X219138357Y-45608476D01*
X219043119Y-45656095D01*
X166862285Y-45370380D02*
X166862285Y-46084666D01*
X166814666Y-46227523D01*
X166719428Y-46322761D01*
X166576571Y-46370380D01*
X166481333Y-46370380D01*
X167862285Y-46370380D02*
X167290857Y-46370380D01*
X167576571Y-46370380D02*
X167576571Y-45370380D01*
X167481333Y-45513238D01*
X167386095Y-45608476D01*
X167290857Y-45656095D01*
X168481333Y-45370380D02*
X168576571Y-45370380D01*
X168671809Y-45418000D01*
X168719428Y-45465619D01*
X168767047Y-45560857D01*
X168814666Y-45751333D01*
X168814666Y-45989428D01*
X168767047Y-46179904D01*
X168719428Y-46275142D01*
X168671809Y-46322761D01*
X168576571Y-46370380D01*
X168481333Y-46370380D01*
X168386095Y-46322761D01*
X168338476Y-46275142D01*
X168290857Y-46179904D01*
X168243238Y-45989428D01*
X168243238Y-45751333D01*
X168290857Y-45560857D01*
X168338476Y-45465619D01*
X168386095Y-45418000D01*
X168481333Y-45370380D01*
X169767047Y-46370380D02*
X169195619Y-46370380D01*
X169481333Y-46370380D02*
X169481333Y-45370380D01*
X169386095Y-45513238D01*
X169290857Y-45608476D01*
X169195619Y-45656095D01*
X191690785Y-45433880D02*
X191690785Y-46148166D01*
X191643166Y-46291023D01*
X191547928Y-46386261D01*
X191405071Y-46433880D01*
X191309833Y-46433880D01*
X192690785Y-46433880D02*
X192119357Y-46433880D01*
X192405071Y-46433880D02*
X192405071Y-45433880D01*
X192309833Y-45576738D01*
X192214595Y-45671976D01*
X192119357Y-45719595D01*
X193309833Y-45433880D02*
X193405071Y-45433880D01*
X193500309Y-45481500D01*
X193547928Y-45529119D01*
X193595547Y-45624357D01*
X193643166Y-45814833D01*
X193643166Y-46052928D01*
X193595547Y-46243404D01*
X193547928Y-46338642D01*
X193500309Y-46386261D01*
X193405071Y-46433880D01*
X193309833Y-46433880D01*
X193214595Y-46386261D01*
X193166976Y-46338642D01*
X193119357Y-46243404D01*
X193071738Y-46052928D01*
X193071738Y-45814833D01*
X193119357Y-45624357D01*
X193166976Y-45529119D01*
X193214595Y-45481500D01*
X193309833Y-45433880D01*
X194595547Y-46433880D02*
X194024119Y-46433880D01*
X194309833Y-46433880D02*
X194309833Y-45433880D01*
X194214595Y-45576738D01*
X194119357Y-45671976D01*
X194024119Y-45719595D01*
%TO.C,AE101*%
X196889952Y-76049166D02*
X197366142Y-76049166D01*
X196794714Y-76334880D02*
X197128047Y-75334880D01*
X197461380Y-76334880D01*
X197794714Y-75811071D02*
X198128047Y-75811071D01*
X198270904Y-76334880D02*
X197794714Y-76334880D01*
X197794714Y-75334880D01*
X198270904Y-75334880D01*
X199223285Y-76334880D02*
X198651857Y-76334880D01*
X198937571Y-76334880D02*
X198937571Y-75334880D01*
X198842333Y-75477738D01*
X198747095Y-75572976D01*
X198651857Y-75620595D01*
X199842333Y-75334880D02*
X199937571Y-75334880D01*
X200032809Y-75382500D01*
X200080428Y-75430119D01*
X200128047Y-75525357D01*
X200175666Y-75715833D01*
X200175666Y-75953928D01*
X200128047Y-76144404D01*
X200080428Y-76239642D01*
X200032809Y-76287261D01*
X199937571Y-76334880D01*
X199842333Y-76334880D01*
X199747095Y-76287261D01*
X199699476Y-76239642D01*
X199651857Y-76144404D01*
X199604238Y-75953928D01*
X199604238Y-75715833D01*
X199651857Y-75525357D01*
X199699476Y-75430119D01*
X199747095Y-75382500D01*
X199842333Y-75334880D01*
X201128047Y-76334880D02*
X200556619Y-76334880D01*
X200842333Y-76334880D02*
X200842333Y-75334880D01*
X200747095Y-75477738D01*
X200651857Y-75572976D01*
X200556619Y-75620595D01*
X221908952Y-75985666D02*
X222385142Y-75985666D01*
X221813714Y-76271380D02*
X222147047Y-75271380D01*
X222480380Y-76271380D01*
X222813714Y-75747571D02*
X223147047Y-75747571D01*
X223289904Y-76271380D02*
X222813714Y-76271380D01*
X222813714Y-75271380D01*
X223289904Y-75271380D01*
X224242285Y-76271380D02*
X223670857Y-76271380D01*
X223956571Y-76271380D02*
X223956571Y-75271380D01*
X223861333Y-75414238D01*
X223766095Y-75509476D01*
X223670857Y-75557095D01*
X224861333Y-75271380D02*
X224956571Y-75271380D01*
X225051809Y-75319000D01*
X225099428Y-75366619D01*
X225147047Y-75461857D01*
X225194666Y-75652333D01*
X225194666Y-75890428D01*
X225147047Y-76080904D01*
X225099428Y-76176142D01*
X225051809Y-76223761D01*
X224956571Y-76271380D01*
X224861333Y-76271380D01*
X224766095Y-76223761D01*
X224718476Y-76176142D01*
X224670857Y-76080904D01*
X224623238Y-75890428D01*
X224623238Y-75652333D01*
X224670857Y-75461857D01*
X224718476Y-75366619D01*
X224766095Y-75319000D01*
X224861333Y-75271380D01*
X226147047Y-76271380D02*
X225575619Y-76271380D01*
X225861333Y-76271380D02*
X225861333Y-75271380D01*
X225766095Y-75414238D01*
X225670857Y-75509476D01*
X225575619Y-75557095D01*
X172061452Y-75985666D02*
X172537642Y-75985666D01*
X171966214Y-76271380D02*
X172299547Y-75271380D01*
X172632880Y-76271380D01*
X172966214Y-75747571D02*
X173299547Y-75747571D01*
X173442404Y-76271380D02*
X172966214Y-76271380D01*
X172966214Y-75271380D01*
X173442404Y-75271380D01*
X174394785Y-76271380D02*
X173823357Y-76271380D01*
X174109071Y-76271380D02*
X174109071Y-75271380D01*
X174013833Y-75414238D01*
X173918595Y-75509476D01*
X173823357Y-75557095D01*
X175013833Y-75271380D02*
X175109071Y-75271380D01*
X175204309Y-75319000D01*
X175251928Y-75366619D01*
X175299547Y-75461857D01*
X175347166Y-75652333D01*
X175347166Y-75890428D01*
X175299547Y-76080904D01*
X175251928Y-76176142D01*
X175204309Y-76223761D01*
X175109071Y-76271380D01*
X175013833Y-76271380D01*
X174918595Y-76223761D01*
X174870976Y-76176142D01*
X174823357Y-76080904D01*
X174775738Y-75890428D01*
X174775738Y-75652333D01*
X174823357Y-75461857D01*
X174870976Y-75366619D01*
X174918595Y-75319000D01*
X175013833Y-75271380D01*
X176299547Y-76271380D02*
X175728119Y-76271380D01*
X176013833Y-76271380D02*
X176013833Y-75271380D01*
X175918595Y-75414238D01*
X175823357Y-75509476D01*
X175728119Y-75557095D01*
X147169452Y-75795166D02*
X147645642Y-75795166D01*
X147074214Y-76080880D02*
X147407547Y-75080880D01*
X147740880Y-76080880D01*
X148074214Y-75557071D02*
X148407547Y-75557071D01*
X148550404Y-76080880D02*
X148074214Y-76080880D01*
X148074214Y-75080880D01*
X148550404Y-75080880D01*
X149502785Y-76080880D02*
X148931357Y-76080880D01*
X149217071Y-76080880D02*
X149217071Y-75080880D01*
X149121833Y-75223738D01*
X149026595Y-75318976D01*
X148931357Y-75366595D01*
X150121833Y-75080880D02*
X150217071Y-75080880D01*
X150312309Y-75128500D01*
X150359928Y-75176119D01*
X150407547Y-75271357D01*
X150455166Y-75461833D01*
X150455166Y-75699928D01*
X150407547Y-75890404D01*
X150359928Y-75985642D01*
X150312309Y-76033261D01*
X150217071Y-76080880D01*
X150121833Y-76080880D01*
X150026595Y-76033261D01*
X149978976Y-75985642D01*
X149931357Y-75890404D01*
X149883738Y-75699928D01*
X149883738Y-75461833D01*
X149931357Y-75271357D01*
X149978976Y-75176119D01*
X150026595Y-75128500D01*
X150121833Y-75080880D01*
X151407547Y-76080880D02*
X150836119Y-76080880D01*
X151121833Y-76080880D02*
X151121833Y-75080880D01*
X151026595Y-75223738D01*
X150931357Y-75318976D01*
X150836119Y-75366595D01*
%TO.C,J101*%
X216773285Y-112728880D02*
X216773285Y-113443166D01*
X216725666Y-113586023D01*
X216630428Y-113681261D01*
X216487571Y-113728880D01*
X216392333Y-113728880D01*
X217773285Y-113728880D02*
X217201857Y-113728880D01*
X217487571Y-113728880D02*
X217487571Y-112728880D01*
X217392333Y-112871738D01*
X217297095Y-112966976D01*
X217201857Y-113014595D01*
X218392333Y-112728880D02*
X218487571Y-112728880D01*
X218582809Y-112776500D01*
X218630428Y-112824119D01*
X218678047Y-112919357D01*
X218725666Y-113109833D01*
X218725666Y-113347928D01*
X218678047Y-113538404D01*
X218630428Y-113633642D01*
X218582809Y-113681261D01*
X218487571Y-113728880D01*
X218392333Y-113728880D01*
X218297095Y-113681261D01*
X218249476Y-113633642D01*
X218201857Y-113538404D01*
X218154238Y-113347928D01*
X218154238Y-113109833D01*
X218201857Y-112919357D01*
X218249476Y-112824119D01*
X218297095Y-112776500D01*
X218392333Y-112728880D01*
X219678047Y-113728880D02*
X219106619Y-113728880D01*
X219392333Y-113728880D02*
X219392333Y-112728880D01*
X219297095Y-112871738D01*
X219201857Y-112966976D01*
X219106619Y-113014595D01*
%TO.C,AE101*%
X209907452Y-83542166D02*
X210383642Y-83542166D01*
X209812214Y-83827880D02*
X210145547Y-82827880D01*
X210478880Y-83827880D01*
X210812214Y-83304071D02*
X211145547Y-83304071D01*
X211288404Y-83827880D02*
X210812214Y-83827880D01*
X210812214Y-82827880D01*
X211288404Y-82827880D01*
X212240785Y-83827880D02*
X211669357Y-83827880D01*
X211955071Y-83827880D02*
X211955071Y-82827880D01*
X211859833Y-82970738D01*
X211764595Y-83065976D01*
X211669357Y-83113595D01*
X212859833Y-82827880D02*
X212955071Y-82827880D01*
X213050309Y-82875500D01*
X213097928Y-82923119D01*
X213145547Y-83018357D01*
X213193166Y-83208833D01*
X213193166Y-83446928D01*
X213145547Y-83637404D01*
X213097928Y-83732642D01*
X213050309Y-83780261D01*
X212955071Y-83827880D01*
X212859833Y-83827880D01*
X212764595Y-83780261D01*
X212716976Y-83732642D01*
X212669357Y-83637404D01*
X212621738Y-83446928D01*
X212621738Y-83208833D01*
X212669357Y-83018357D01*
X212716976Y-82923119D01*
X212764595Y-82875500D01*
X212859833Y-82827880D01*
X214145547Y-83827880D02*
X213574119Y-83827880D01*
X213859833Y-83827880D02*
X213859833Y-82827880D01*
X213764595Y-82970738D01*
X213669357Y-83065976D01*
X213574119Y-83113595D01*
%TO.C,J101*%
X191881285Y-112538380D02*
X191881285Y-113252666D01*
X191833666Y-113395523D01*
X191738428Y-113490761D01*
X191595571Y-113538380D01*
X191500333Y-113538380D01*
X192881285Y-113538380D02*
X192309857Y-113538380D01*
X192595571Y-113538380D02*
X192595571Y-112538380D01*
X192500333Y-112681238D01*
X192405095Y-112776476D01*
X192309857Y-112824095D01*
X193500333Y-112538380D02*
X193595571Y-112538380D01*
X193690809Y-112586000D01*
X193738428Y-112633619D01*
X193786047Y-112728857D01*
X193833666Y-112919333D01*
X193833666Y-113157428D01*
X193786047Y-113347904D01*
X193738428Y-113443142D01*
X193690809Y-113490761D01*
X193595571Y-113538380D01*
X193500333Y-113538380D01*
X193405095Y-113490761D01*
X193357476Y-113443142D01*
X193309857Y-113347904D01*
X193262238Y-113157428D01*
X193262238Y-112919333D01*
X193309857Y-112728857D01*
X193357476Y-112633619D01*
X193405095Y-112586000D01*
X193500333Y-112538380D01*
X194786047Y-113538380D02*
X194214619Y-113538380D01*
X194500333Y-113538380D02*
X194500333Y-112538380D01*
X194405095Y-112681238D01*
X194309857Y-112776476D01*
X194214619Y-112824095D01*
%TO.C,AE101*%
X185015452Y-83351666D02*
X185491642Y-83351666D01*
X184920214Y-83637380D02*
X185253547Y-82637380D01*
X185586880Y-83637380D01*
X185920214Y-83113571D02*
X186253547Y-83113571D01*
X186396404Y-83637380D02*
X185920214Y-83637380D01*
X185920214Y-82637380D01*
X186396404Y-82637380D01*
X187348785Y-83637380D02*
X186777357Y-83637380D01*
X187063071Y-83637380D02*
X187063071Y-82637380D01*
X186967833Y-82780238D01*
X186872595Y-82875476D01*
X186777357Y-82923095D01*
X187967833Y-82637380D02*
X188063071Y-82637380D01*
X188158309Y-82685000D01*
X188205928Y-82732619D01*
X188253547Y-82827857D01*
X188301166Y-83018333D01*
X188301166Y-83256428D01*
X188253547Y-83446904D01*
X188205928Y-83542142D01*
X188158309Y-83589761D01*
X188063071Y-83637380D01*
X187967833Y-83637380D01*
X187872595Y-83589761D01*
X187824976Y-83542142D01*
X187777357Y-83446904D01*
X187729738Y-83256428D01*
X187729738Y-83018333D01*
X187777357Y-82827857D01*
X187824976Y-82732619D01*
X187872595Y-82685000D01*
X187967833Y-82637380D01*
X189253547Y-83637380D02*
X188682119Y-83637380D01*
X188967833Y-83637380D02*
X188967833Y-82637380D01*
X188872595Y-82780238D01*
X188777357Y-82875476D01*
X188682119Y-82923095D01*
%TO.C,J101*%
X167052785Y-112474880D02*
X167052785Y-113189166D01*
X167005166Y-113332023D01*
X166909928Y-113427261D01*
X166767071Y-113474880D01*
X166671833Y-113474880D01*
X168052785Y-113474880D02*
X167481357Y-113474880D01*
X167767071Y-113474880D02*
X167767071Y-112474880D01*
X167671833Y-112617738D01*
X167576595Y-112712976D01*
X167481357Y-112760595D01*
X168671833Y-112474880D02*
X168767071Y-112474880D01*
X168862309Y-112522500D01*
X168909928Y-112570119D01*
X168957547Y-112665357D01*
X169005166Y-112855833D01*
X169005166Y-113093928D01*
X168957547Y-113284404D01*
X168909928Y-113379642D01*
X168862309Y-113427261D01*
X168767071Y-113474880D01*
X168671833Y-113474880D01*
X168576595Y-113427261D01*
X168528976Y-113379642D01*
X168481357Y-113284404D01*
X168433738Y-113093928D01*
X168433738Y-112855833D01*
X168481357Y-112665357D01*
X168528976Y-112570119D01*
X168576595Y-112522500D01*
X168671833Y-112474880D01*
X169957547Y-113474880D02*
X169386119Y-113474880D01*
X169671833Y-113474880D02*
X169671833Y-112474880D01*
X169576595Y-112617738D01*
X169481357Y-112712976D01*
X169386119Y-112760595D01*
%TO.C,AE101*%
X160186952Y-83288166D02*
X160663142Y-83288166D01*
X160091714Y-83573880D02*
X160425047Y-82573880D01*
X160758380Y-83573880D01*
X161091714Y-83050071D02*
X161425047Y-83050071D01*
X161567904Y-83573880D02*
X161091714Y-83573880D01*
X161091714Y-82573880D01*
X161567904Y-82573880D01*
X162520285Y-83573880D02*
X161948857Y-83573880D01*
X162234571Y-83573880D02*
X162234571Y-82573880D01*
X162139333Y-82716738D01*
X162044095Y-82811976D01*
X161948857Y-82859595D01*
X163139333Y-82573880D02*
X163234571Y-82573880D01*
X163329809Y-82621500D01*
X163377428Y-82669119D01*
X163425047Y-82764357D01*
X163472666Y-82954833D01*
X163472666Y-83192928D01*
X163425047Y-83383404D01*
X163377428Y-83478642D01*
X163329809Y-83526261D01*
X163234571Y-83573880D01*
X163139333Y-83573880D01*
X163044095Y-83526261D01*
X162996476Y-83478642D01*
X162948857Y-83383404D01*
X162901238Y-83192928D01*
X162901238Y-82954833D01*
X162948857Y-82764357D01*
X162996476Y-82669119D01*
X163044095Y-82621500D01*
X163139333Y-82573880D01*
X164425047Y-83573880D02*
X163853619Y-83573880D01*
X164139333Y-83573880D02*
X164139333Y-82573880D01*
X164044095Y-82716738D01*
X163948857Y-82811976D01*
X163853619Y-82859595D01*
X135167952Y-83351666D02*
X135644142Y-83351666D01*
X135072714Y-83637380D02*
X135406047Y-82637380D01*
X135739380Y-83637380D01*
X136072714Y-83113571D02*
X136406047Y-83113571D01*
X136548904Y-83637380D02*
X136072714Y-83637380D01*
X136072714Y-82637380D01*
X136548904Y-82637380D01*
X137501285Y-83637380D02*
X136929857Y-83637380D01*
X137215571Y-83637380D02*
X137215571Y-82637380D01*
X137120333Y-82780238D01*
X137025095Y-82875476D01*
X136929857Y-82923095D01*
X138120333Y-82637380D02*
X138215571Y-82637380D01*
X138310809Y-82685000D01*
X138358428Y-82732619D01*
X138406047Y-82827857D01*
X138453666Y-83018333D01*
X138453666Y-83256428D01*
X138406047Y-83446904D01*
X138358428Y-83542142D01*
X138310809Y-83589761D01*
X138215571Y-83637380D01*
X138120333Y-83637380D01*
X138025095Y-83589761D01*
X137977476Y-83542142D01*
X137929857Y-83446904D01*
X137882238Y-83256428D01*
X137882238Y-83018333D01*
X137929857Y-82827857D01*
X137977476Y-82732619D01*
X138025095Y-82685000D01*
X138120333Y-82637380D01*
X139406047Y-83637380D02*
X138834619Y-83637380D01*
X139120333Y-83637380D02*
X139120333Y-82637380D01*
X139025095Y-82780238D01*
X138929857Y-82875476D01*
X138834619Y-82923095D01*
%TO.C,J101*%
X142033785Y-112538380D02*
X142033785Y-113252666D01*
X141986166Y-113395523D01*
X141890928Y-113490761D01*
X141748071Y-113538380D01*
X141652833Y-113538380D01*
X143033785Y-113538380D02*
X142462357Y-113538380D01*
X142748071Y-113538380D02*
X142748071Y-112538380D01*
X142652833Y-112681238D01*
X142557595Y-112776476D01*
X142462357Y-112824095D01*
X143652833Y-112538380D02*
X143748071Y-112538380D01*
X143843309Y-112586000D01*
X143890928Y-112633619D01*
X143938547Y-112728857D01*
X143986166Y-112919333D01*
X143986166Y-113157428D01*
X143938547Y-113347904D01*
X143890928Y-113443142D01*
X143843309Y-113490761D01*
X143748071Y-113538380D01*
X143652833Y-113538380D01*
X143557595Y-113490761D01*
X143509976Y-113443142D01*
X143462357Y-113347904D01*
X143414738Y-113157428D01*
X143414738Y-112919333D01*
X143462357Y-112728857D01*
X143509976Y-112633619D01*
X143557595Y-112586000D01*
X143652833Y-112538380D01*
X144938547Y-113538380D02*
X144367119Y-113538380D01*
X144652833Y-113538380D02*
X144652833Y-112538380D01*
X144557595Y-112681238D01*
X144462357Y-112776476D01*
X144367119Y-112824095D01*
%TD*%
M02*
