%TF.GenerationSoftware,KiCad,Pcbnew,(5.1.8)-1*%
%TF.CreationDate,2020-12-04T16:08:35+03:00*%
%TF.ProjectId,SDR,5344522e-6b69-4636-9164-5f7063625858,rev?*%
%TF.SameCoordinates,Original*%
%TF.FileFunction,Soldermask,Top*%
%TF.FilePolarity,Negative*%
%FSLAX46Y46*%
G04 Gerber Fmt 4.6, Leading zero omitted, Abs format (unit mm)*
G04 Created by KiCad (PCBNEW (5.1.8)-1) date 2020-12-04 16:08:35*
%MOMM*%
%LPD*%
G01*
G04 APERTURE LIST*
%ADD10R,2.000000X2.000000*%
%ADD11R,0.270000X0.330000*%
%ADD12R,1.500000X2.000000*%
%ADD13R,3.800000X2.000000*%
%ADD14R,1.500000X0.400000*%
%ADD15R,0.400000X1.500000*%
%ADD16O,1.700000X1.700000*%
%ADD17R,1.700000X1.700000*%
%ADD18R,5.080000X1.500000*%
%ADD19C,0.100000*%
%ADD20R,2.300000X0.900000*%
%ADD21R,2.500000X2.500000*%
%ADD22R,3.650000X2.650000*%
G04 APERTURE END LIST*
%TO.C,R5*%
G36*
G01*
X105213999Y-133750000D02*
X106114001Y-133750000D01*
G75*
G02*
X106364000Y-133999999I0J-249999D01*
G01*
X106364000Y-134700001D01*
G75*
G02*
X106114001Y-134950000I-249999J0D01*
G01*
X105213999Y-134950000D01*
G75*
G02*
X104964000Y-134700001I0J249999D01*
G01*
X104964000Y-133999999D01*
G75*
G02*
X105213999Y-133750000I249999J0D01*
G01*
G37*
G36*
G01*
X105213999Y-131750000D02*
X106114001Y-131750000D01*
G75*
G02*
X106364000Y-131999999I0J-249999D01*
G01*
X106364000Y-132700001D01*
G75*
G02*
X106114001Y-132950000I-249999J0D01*
G01*
X105213999Y-132950000D01*
G75*
G02*
X104964000Y-132700001I0J249999D01*
G01*
X104964000Y-131999999D01*
G75*
G02*
X105213999Y-131750000I249999J0D01*
G01*
G37*
%TD*%
%TO.C,C83*%
G36*
G01*
X76167000Y-133408000D02*
X75217000Y-133408000D01*
G75*
G02*
X74967000Y-133158000I0J250000D01*
G01*
X74967000Y-132483000D01*
G75*
G02*
X75217000Y-132233000I250000J0D01*
G01*
X76167000Y-132233000D01*
G75*
G02*
X76417000Y-132483000I0J-250000D01*
G01*
X76417000Y-133158000D01*
G75*
G02*
X76167000Y-133408000I-250000J0D01*
G01*
G37*
G36*
G01*
X76167000Y-135483000D02*
X75217000Y-135483000D01*
G75*
G02*
X74967000Y-135233000I0J250000D01*
G01*
X74967000Y-134558000D01*
G75*
G02*
X75217000Y-134308000I250000J0D01*
G01*
X76167000Y-134308000D01*
G75*
G02*
X76417000Y-134558000I0J-250000D01*
G01*
X76417000Y-135233000D01*
G75*
G02*
X76167000Y-135483000I-250000J0D01*
G01*
G37*
%TD*%
%TO.C,C82*%
G36*
G01*
X82771000Y-135440000D02*
X81821000Y-135440000D01*
G75*
G02*
X81571000Y-135190000I0J250000D01*
G01*
X81571000Y-134515000D01*
G75*
G02*
X81821000Y-134265000I250000J0D01*
G01*
X82771000Y-134265000D01*
G75*
G02*
X83021000Y-134515000I0J-250000D01*
G01*
X83021000Y-135190000D01*
G75*
G02*
X82771000Y-135440000I-250000J0D01*
G01*
G37*
G36*
G01*
X82771000Y-137515000D02*
X81821000Y-137515000D01*
G75*
G02*
X81571000Y-137265000I0J250000D01*
G01*
X81571000Y-136590000D01*
G75*
G02*
X81821000Y-136340000I250000J0D01*
G01*
X82771000Y-136340000D01*
G75*
G02*
X83021000Y-136590000I0J-250000D01*
G01*
X83021000Y-137265000D01*
G75*
G02*
X82771000Y-137515000I-250000J0D01*
G01*
G37*
%TD*%
%TO.C,C81*%
G36*
G01*
X81567000Y-125672000D02*
X82517000Y-125672000D01*
G75*
G02*
X82767000Y-125922000I0J-250000D01*
G01*
X82767000Y-126597000D01*
G75*
G02*
X82517000Y-126847000I-250000J0D01*
G01*
X81567000Y-126847000D01*
G75*
G02*
X81317000Y-126597000I0J250000D01*
G01*
X81317000Y-125922000D01*
G75*
G02*
X81567000Y-125672000I250000J0D01*
G01*
G37*
G36*
G01*
X81567000Y-123597000D02*
X82517000Y-123597000D01*
G75*
G02*
X82767000Y-123847000I0J-250000D01*
G01*
X82767000Y-124522000D01*
G75*
G02*
X82517000Y-124772000I-250000J0D01*
G01*
X81567000Y-124772000D01*
G75*
G02*
X81317000Y-124522000I0J250000D01*
G01*
X81317000Y-123847000D01*
G75*
G02*
X81567000Y-123597000I250000J0D01*
G01*
G37*
%TD*%
%TO.C,C80*%
G36*
G01*
X73548001Y-133466000D02*
X72247999Y-133466000D01*
G75*
G02*
X71998000Y-133216001I0J249999D01*
G01*
X71998000Y-132390999D01*
G75*
G02*
X72247999Y-132141000I249999J0D01*
G01*
X73548001Y-132141000D01*
G75*
G02*
X73798000Y-132390999I0J-249999D01*
G01*
X73798000Y-133216001D01*
G75*
G02*
X73548001Y-133466000I-249999J0D01*
G01*
G37*
G36*
G01*
X73548001Y-136591000D02*
X72247999Y-136591000D01*
G75*
G02*
X71998000Y-136341001I0J249999D01*
G01*
X71998000Y-135515999D01*
G75*
G02*
X72247999Y-135266000I249999J0D01*
G01*
X73548001Y-135266000D01*
G75*
G02*
X73798000Y-135515999I0J-249999D01*
G01*
X73798000Y-136341001D01*
G75*
G02*
X73548001Y-136591000I-249999J0D01*
G01*
G37*
%TD*%
D10*
%TO.C,X1*%
X95544000Y-125290000D03*
X100544000Y-125290000D03*
X100544000Y-121090000D03*
X95544000Y-121090000D03*
%TD*%
D11*
%TO.C,U7*%
X70604000Y-119720000D03*
X70104000Y-119720000D03*
X69604000Y-119720000D03*
X69604000Y-119040000D03*
X70104000Y-119040000D03*
X70604000Y-119040000D03*
%TD*%
%TO.C,U6*%
X70604000Y-107020000D03*
X70104000Y-107020000D03*
X69604000Y-107020000D03*
X69604000Y-106340000D03*
X70104000Y-106340000D03*
X70604000Y-106340000D03*
%TD*%
%TO.C,U5*%
X70604000Y-94320000D03*
X70104000Y-94320000D03*
X69604000Y-94320000D03*
X69604000Y-93640000D03*
X70104000Y-93640000D03*
X70604000Y-93640000D03*
%TD*%
D12*
%TO.C,U4*%
X134606000Y-90272000D03*
X139206000Y-90272000D03*
X136906000Y-90272000D03*
D13*
X136906000Y-83972000D03*
%TD*%
D12*
%TO.C,U3*%
X150128000Y-99466000D03*
X145528000Y-99466000D03*
X147828000Y-99466000D03*
D13*
X147828000Y-105766000D03*
%TD*%
D14*
%TO.C,U2*%
X116138000Y-121778000D03*
X116138000Y-122428000D03*
X116138000Y-123078000D03*
X113478000Y-123078000D03*
X113478000Y-122428000D03*
X113478000Y-121778000D03*
%TD*%
D15*
%TO.C,U1*%
X114696000Y-136204000D03*
X114046000Y-136204000D03*
X113396000Y-136204000D03*
X113396000Y-133544000D03*
X114046000Y-133544000D03*
X114696000Y-133544000D03*
%TD*%
%TO.C,R20*%
G36*
G01*
X120034000Y-167328001D02*
X120034000Y-166427999D01*
G75*
G02*
X120283999Y-166178000I249999J0D01*
G01*
X120984001Y-166178000D01*
G75*
G02*
X121234000Y-166427999I0J-249999D01*
G01*
X121234000Y-167328001D01*
G75*
G02*
X120984001Y-167578000I-249999J0D01*
G01*
X120283999Y-167578000D01*
G75*
G02*
X120034000Y-167328001I0J249999D01*
G01*
G37*
G36*
G01*
X118034000Y-167328001D02*
X118034000Y-166427999D01*
G75*
G02*
X118283999Y-166178000I249999J0D01*
G01*
X118984001Y-166178000D01*
G75*
G02*
X119234000Y-166427999I0J-249999D01*
G01*
X119234000Y-167328001D01*
G75*
G02*
X118984001Y-167578000I-249999J0D01*
G01*
X118283999Y-167578000D01*
G75*
G02*
X118034000Y-167328001I0J249999D01*
G01*
G37*
%TD*%
%TO.C,R19*%
G36*
G01*
X73752000Y-127819999D02*
X73752000Y-128720001D01*
G75*
G02*
X73502001Y-128970000I-249999J0D01*
G01*
X72801999Y-128970000D01*
G75*
G02*
X72552000Y-128720001I0J249999D01*
G01*
X72552000Y-127819999D01*
G75*
G02*
X72801999Y-127570000I249999J0D01*
G01*
X73502001Y-127570000D01*
G75*
G02*
X73752000Y-127819999I0J-249999D01*
G01*
G37*
G36*
G01*
X75752000Y-127819999D02*
X75752000Y-128720001D01*
G75*
G02*
X75502001Y-128970000I-249999J0D01*
G01*
X74801999Y-128970000D01*
G75*
G02*
X74552000Y-128720001I0J249999D01*
G01*
X74552000Y-127819999D01*
G75*
G02*
X74801999Y-127570000I249999J0D01*
G01*
X75502001Y-127570000D01*
G75*
G02*
X75752000Y-127819999I0J-249999D01*
G01*
G37*
%TD*%
%TO.C,R18*%
G36*
G01*
X73768000Y-122231999D02*
X73768000Y-123132001D01*
G75*
G02*
X73518001Y-123382000I-249999J0D01*
G01*
X72817999Y-123382000D01*
G75*
G02*
X72568000Y-123132001I0J249999D01*
G01*
X72568000Y-122231999D01*
G75*
G02*
X72817999Y-121982000I249999J0D01*
G01*
X73518001Y-121982000D01*
G75*
G02*
X73768000Y-122231999I0J-249999D01*
G01*
G37*
G36*
G01*
X75768000Y-122231999D02*
X75768000Y-123132001D01*
G75*
G02*
X75518001Y-123382000I-249999J0D01*
G01*
X74817999Y-123382000D01*
G75*
G02*
X74568000Y-123132001I0J249999D01*
G01*
X74568000Y-122231999D01*
G75*
G02*
X74817999Y-121982000I249999J0D01*
G01*
X75518001Y-121982000D01*
G75*
G02*
X75768000Y-122231999I0J-249999D01*
G01*
G37*
%TD*%
%TO.C,R17*%
G36*
G01*
X67506001Y-121266000D02*
X66605999Y-121266000D01*
G75*
G02*
X66356000Y-121016001I0J249999D01*
G01*
X66356000Y-120315999D01*
G75*
G02*
X66605999Y-120066000I249999J0D01*
G01*
X67506001Y-120066000D01*
G75*
G02*
X67756000Y-120315999I0J-249999D01*
G01*
X67756000Y-121016001D01*
G75*
G02*
X67506001Y-121266000I-249999J0D01*
G01*
G37*
G36*
G01*
X67506001Y-123266000D02*
X66605999Y-123266000D01*
G75*
G02*
X66356000Y-123016001I0J249999D01*
G01*
X66356000Y-122315999D01*
G75*
G02*
X66605999Y-122066000I249999J0D01*
G01*
X67506001Y-122066000D01*
G75*
G02*
X67756000Y-122315999I0J-249999D01*
G01*
X67756000Y-123016001D01*
G75*
G02*
X67506001Y-123266000I-249999J0D01*
G01*
G37*
%TD*%
%TO.C,R16*%
G36*
G01*
X73768000Y-113849999D02*
X73768000Y-114750001D01*
G75*
G02*
X73518001Y-115000000I-249999J0D01*
G01*
X72817999Y-115000000D01*
G75*
G02*
X72568000Y-114750001I0J249999D01*
G01*
X72568000Y-113849999D01*
G75*
G02*
X72817999Y-113600000I249999J0D01*
G01*
X73518001Y-113600000D01*
G75*
G02*
X73768000Y-113849999I0J-249999D01*
G01*
G37*
G36*
G01*
X75768000Y-113849999D02*
X75768000Y-114750001D01*
G75*
G02*
X75518001Y-115000000I-249999J0D01*
G01*
X74817999Y-115000000D01*
G75*
G02*
X74568000Y-114750001I0J249999D01*
G01*
X74568000Y-113849999D01*
G75*
G02*
X74817999Y-113600000I249999J0D01*
G01*
X75518001Y-113600000D01*
G75*
G02*
X75768000Y-113849999I0J-249999D01*
G01*
G37*
%TD*%
%TO.C,R15*%
G36*
G01*
X73768000Y-109531999D02*
X73768000Y-110432001D01*
G75*
G02*
X73518001Y-110682000I-249999J0D01*
G01*
X72817999Y-110682000D01*
G75*
G02*
X72568000Y-110432001I0J249999D01*
G01*
X72568000Y-109531999D01*
G75*
G02*
X72817999Y-109282000I249999J0D01*
G01*
X73518001Y-109282000D01*
G75*
G02*
X73768000Y-109531999I0J-249999D01*
G01*
G37*
G36*
G01*
X75768000Y-109531999D02*
X75768000Y-110432001D01*
G75*
G02*
X75518001Y-110682000I-249999J0D01*
G01*
X74817999Y-110682000D01*
G75*
G02*
X74568000Y-110432001I0J249999D01*
G01*
X74568000Y-109531999D01*
G75*
G02*
X74817999Y-109282000I249999J0D01*
G01*
X75518001Y-109282000D01*
G75*
G02*
X75768000Y-109531999I0J-249999D01*
G01*
G37*
%TD*%
%TO.C,R14*%
G36*
G01*
X67506001Y-108566000D02*
X66605999Y-108566000D01*
G75*
G02*
X66356000Y-108316001I0J249999D01*
G01*
X66356000Y-107615999D01*
G75*
G02*
X66605999Y-107366000I249999J0D01*
G01*
X67506001Y-107366000D01*
G75*
G02*
X67756000Y-107615999I0J-249999D01*
G01*
X67756000Y-108316001D01*
G75*
G02*
X67506001Y-108566000I-249999J0D01*
G01*
G37*
G36*
G01*
X67506001Y-110566000D02*
X66605999Y-110566000D01*
G75*
G02*
X66356000Y-110316001I0J249999D01*
G01*
X66356000Y-109615999D01*
G75*
G02*
X66605999Y-109366000I249999J0D01*
G01*
X67506001Y-109366000D01*
G75*
G02*
X67756000Y-109615999I0J-249999D01*
G01*
X67756000Y-110316001D01*
G75*
G02*
X67506001Y-110566000I-249999J0D01*
G01*
G37*
%TD*%
%TO.C,R13*%
G36*
G01*
X73768000Y-101149999D02*
X73768000Y-102050001D01*
G75*
G02*
X73518001Y-102300000I-249999J0D01*
G01*
X72817999Y-102300000D01*
G75*
G02*
X72568000Y-102050001I0J249999D01*
G01*
X72568000Y-101149999D01*
G75*
G02*
X72817999Y-100900000I249999J0D01*
G01*
X73518001Y-100900000D01*
G75*
G02*
X73768000Y-101149999I0J-249999D01*
G01*
G37*
G36*
G01*
X75768000Y-101149999D02*
X75768000Y-102050001D01*
G75*
G02*
X75518001Y-102300000I-249999J0D01*
G01*
X74817999Y-102300000D01*
G75*
G02*
X74568000Y-102050001I0J249999D01*
G01*
X74568000Y-101149999D01*
G75*
G02*
X74817999Y-100900000I249999J0D01*
G01*
X75518001Y-100900000D01*
G75*
G02*
X75768000Y-101149999I0J-249999D01*
G01*
G37*
%TD*%
%TO.C,R12*%
G36*
G01*
X73768000Y-96831999D02*
X73768000Y-97732001D01*
G75*
G02*
X73518001Y-97982000I-249999J0D01*
G01*
X72817999Y-97982000D01*
G75*
G02*
X72568000Y-97732001I0J249999D01*
G01*
X72568000Y-96831999D01*
G75*
G02*
X72817999Y-96582000I249999J0D01*
G01*
X73518001Y-96582000D01*
G75*
G02*
X73768000Y-96831999I0J-249999D01*
G01*
G37*
G36*
G01*
X75768000Y-96831999D02*
X75768000Y-97732001D01*
G75*
G02*
X75518001Y-97982000I-249999J0D01*
G01*
X74817999Y-97982000D01*
G75*
G02*
X74568000Y-97732001I0J249999D01*
G01*
X74568000Y-96831999D01*
G75*
G02*
X74817999Y-96582000I249999J0D01*
G01*
X75518001Y-96582000D01*
G75*
G02*
X75768000Y-96831999I0J-249999D01*
G01*
G37*
%TD*%
%TO.C,R11*%
G36*
G01*
X67506001Y-95866000D02*
X66605999Y-95866000D01*
G75*
G02*
X66356000Y-95616001I0J249999D01*
G01*
X66356000Y-94915999D01*
G75*
G02*
X66605999Y-94666000I249999J0D01*
G01*
X67506001Y-94666000D01*
G75*
G02*
X67756000Y-94915999I0J-249999D01*
G01*
X67756000Y-95616001D01*
G75*
G02*
X67506001Y-95866000I-249999J0D01*
G01*
G37*
G36*
G01*
X67506001Y-97866000D02*
X66605999Y-97866000D01*
G75*
G02*
X66356000Y-97616001I0J249999D01*
G01*
X66356000Y-96915999D01*
G75*
G02*
X66605999Y-96666000I249999J0D01*
G01*
X67506001Y-96666000D01*
G75*
G02*
X67756000Y-96915999I0J-249999D01*
G01*
X67756000Y-97616001D01*
G75*
G02*
X67506001Y-97866000I-249999J0D01*
G01*
G37*
%TD*%
%TO.C,R10*%
G36*
G01*
X73768000Y-88449999D02*
X73768000Y-89350001D01*
G75*
G02*
X73518001Y-89600000I-249999J0D01*
G01*
X72817999Y-89600000D01*
G75*
G02*
X72568000Y-89350001I0J249999D01*
G01*
X72568000Y-88449999D01*
G75*
G02*
X72817999Y-88200000I249999J0D01*
G01*
X73518001Y-88200000D01*
G75*
G02*
X73768000Y-88449999I0J-249999D01*
G01*
G37*
G36*
G01*
X75768000Y-88449999D02*
X75768000Y-89350001D01*
G75*
G02*
X75518001Y-89600000I-249999J0D01*
G01*
X74817999Y-89600000D01*
G75*
G02*
X74568000Y-89350001I0J249999D01*
G01*
X74568000Y-88449999D01*
G75*
G02*
X74817999Y-88200000I249999J0D01*
G01*
X75518001Y-88200000D01*
G75*
G02*
X75768000Y-88449999I0J-249999D01*
G01*
G37*
%TD*%
%TO.C,R9*%
G36*
G01*
X134816001Y-103486000D02*
X133915999Y-103486000D01*
G75*
G02*
X133666000Y-103236001I0J249999D01*
G01*
X133666000Y-102535999D01*
G75*
G02*
X133915999Y-102286000I249999J0D01*
G01*
X134816001Y-102286000D01*
G75*
G02*
X135066000Y-102535999I0J-249999D01*
G01*
X135066000Y-103236001D01*
G75*
G02*
X134816001Y-103486000I-249999J0D01*
G01*
G37*
G36*
G01*
X134816001Y-105486000D02*
X133915999Y-105486000D01*
G75*
G02*
X133666000Y-105236001I0J249999D01*
G01*
X133666000Y-104535999D01*
G75*
G02*
X133915999Y-104286000I249999J0D01*
G01*
X134816001Y-104286000D01*
G75*
G02*
X135066000Y-104535999I0J-249999D01*
G01*
X135066000Y-105236001D01*
G75*
G02*
X134816001Y-105486000I-249999J0D01*
G01*
G37*
%TD*%
%TO.C,R8*%
G36*
G01*
X141928001Y-103486000D02*
X141027999Y-103486000D01*
G75*
G02*
X140778000Y-103236001I0J249999D01*
G01*
X140778000Y-102535999D01*
G75*
G02*
X141027999Y-102286000I249999J0D01*
G01*
X141928001Y-102286000D01*
G75*
G02*
X142178000Y-102535999I0J-249999D01*
G01*
X142178000Y-103236001D01*
G75*
G02*
X141928001Y-103486000I-249999J0D01*
G01*
G37*
G36*
G01*
X141928001Y-105486000D02*
X141027999Y-105486000D01*
G75*
G02*
X140778000Y-105236001I0J249999D01*
G01*
X140778000Y-104535999D01*
G75*
G02*
X141027999Y-104286000I249999J0D01*
G01*
X141928001Y-104286000D01*
G75*
G02*
X142178000Y-104535999I0J-249999D01*
G01*
X142178000Y-105236001D01*
G75*
G02*
X141928001Y-105486000I-249999J0D01*
G01*
G37*
%TD*%
%TO.C,R7*%
G36*
G01*
X138372001Y-103486000D02*
X137471999Y-103486000D01*
G75*
G02*
X137222000Y-103236001I0J249999D01*
G01*
X137222000Y-102535999D01*
G75*
G02*
X137471999Y-102286000I249999J0D01*
G01*
X138372001Y-102286000D01*
G75*
G02*
X138622000Y-102535999I0J-249999D01*
G01*
X138622000Y-103236001D01*
G75*
G02*
X138372001Y-103486000I-249999J0D01*
G01*
G37*
G36*
G01*
X138372001Y-105486000D02*
X137471999Y-105486000D01*
G75*
G02*
X137222000Y-105236001I0J249999D01*
G01*
X137222000Y-104535999D01*
G75*
G02*
X137471999Y-104286000I249999J0D01*
G01*
X138372001Y-104286000D01*
G75*
G02*
X138622000Y-104535999I0J-249999D01*
G01*
X138622000Y-105236001D01*
G75*
G02*
X138372001Y-105486000I-249999J0D01*
G01*
G37*
%TD*%
%TO.C,R4*%
G36*
G01*
X103994000Y-122739999D02*
X103994000Y-123640001D01*
G75*
G02*
X103744001Y-123890000I-249999J0D01*
G01*
X103043999Y-123890000D01*
G75*
G02*
X102794000Y-123640001I0J249999D01*
G01*
X102794000Y-122739999D01*
G75*
G02*
X103043999Y-122490000I249999J0D01*
G01*
X103744001Y-122490000D01*
G75*
G02*
X103994000Y-122739999I0J-249999D01*
G01*
G37*
G36*
G01*
X105994000Y-122739999D02*
X105994000Y-123640001D01*
G75*
G02*
X105744001Y-123890000I-249999J0D01*
G01*
X105043999Y-123890000D01*
G75*
G02*
X104794000Y-123640001I0J249999D01*
G01*
X104794000Y-122739999D01*
G75*
G02*
X105043999Y-122490000I249999J0D01*
G01*
X105744001Y-122490000D01*
G75*
G02*
X105994000Y-122739999I0J-249999D01*
G01*
G37*
%TD*%
%TO.C,R3*%
G36*
G01*
X70554001Y-123298000D02*
X69653999Y-123298000D01*
G75*
G02*
X69404000Y-123048001I0J249999D01*
G01*
X69404000Y-122347999D01*
G75*
G02*
X69653999Y-122098000I249999J0D01*
G01*
X70554001Y-122098000D01*
G75*
G02*
X70804000Y-122347999I0J-249999D01*
G01*
X70804000Y-123048001D01*
G75*
G02*
X70554001Y-123298000I-249999J0D01*
G01*
G37*
G36*
G01*
X70554001Y-125298000D02*
X69653999Y-125298000D01*
G75*
G02*
X69404000Y-125048001I0J249999D01*
G01*
X69404000Y-124347999D01*
G75*
G02*
X69653999Y-124098000I249999J0D01*
G01*
X70554001Y-124098000D01*
G75*
G02*
X70804000Y-124347999I0J-249999D01*
G01*
X70804000Y-125048001D01*
G75*
G02*
X70554001Y-125298000I-249999J0D01*
G01*
G37*
%TD*%
%TO.C,R2*%
G36*
G01*
X70554001Y-110598000D02*
X69653999Y-110598000D01*
G75*
G02*
X69404000Y-110348001I0J249999D01*
G01*
X69404000Y-109647999D01*
G75*
G02*
X69653999Y-109398000I249999J0D01*
G01*
X70554001Y-109398000D01*
G75*
G02*
X70804000Y-109647999I0J-249999D01*
G01*
X70804000Y-110348001D01*
G75*
G02*
X70554001Y-110598000I-249999J0D01*
G01*
G37*
G36*
G01*
X70554001Y-112598000D02*
X69653999Y-112598000D01*
G75*
G02*
X69404000Y-112348001I0J249999D01*
G01*
X69404000Y-111647999D01*
G75*
G02*
X69653999Y-111398000I249999J0D01*
G01*
X70554001Y-111398000D01*
G75*
G02*
X70804000Y-111647999I0J-249999D01*
G01*
X70804000Y-112348001D01*
G75*
G02*
X70554001Y-112598000I-249999J0D01*
G01*
G37*
%TD*%
%TO.C,R1*%
G36*
G01*
X70554001Y-97898000D02*
X69653999Y-97898000D01*
G75*
G02*
X69404000Y-97648001I0J249999D01*
G01*
X69404000Y-96947999D01*
G75*
G02*
X69653999Y-96698000I249999J0D01*
G01*
X70554001Y-96698000D01*
G75*
G02*
X70804000Y-96947999I0J-249999D01*
G01*
X70804000Y-97648001D01*
G75*
G02*
X70554001Y-97898000I-249999J0D01*
G01*
G37*
G36*
G01*
X70554001Y-99898000D02*
X69653999Y-99898000D01*
G75*
G02*
X69404000Y-99648001I0J249999D01*
G01*
X69404000Y-98947999D01*
G75*
G02*
X69653999Y-98698000I249999J0D01*
G01*
X70554001Y-98698000D01*
G75*
G02*
X70804000Y-98947999I0J-249999D01*
G01*
X70804000Y-99648001D01*
G75*
G02*
X70554001Y-99898000I-249999J0D01*
G01*
G37*
%TD*%
%TO.C,L48*%
G36*
G01*
X63914000Y-155766000D02*
X63594000Y-155766000D01*
G75*
G02*
X63434000Y-155606000I0J160000D01*
G01*
X63434000Y-155161000D01*
G75*
G02*
X63594000Y-155001000I160000J0D01*
G01*
X63914000Y-155001000D01*
G75*
G02*
X64074000Y-155161000I0J-160000D01*
G01*
X64074000Y-155606000D01*
G75*
G02*
X63914000Y-155766000I-160000J0D01*
G01*
G37*
G36*
G01*
X63914000Y-156911000D02*
X63594000Y-156911000D01*
G75*
G02*
X63434000Y-156751000I0J160000D01*
G01*
X63434000Y-156306000D01*
G75*
G02*
X63594000Y-156146000I160000J0D01*
G01*
X63914000Y-156146000D01*
G75*
G02*
X64074000Y-156306000I0J-160000D01*
G01*
X64074000Y-156751000D01*
G75*
G02*
X63914000Y-156911000I-160000J0D01*
G01*
G37*
%TD*%
%TO.C,L47*%
G36*
G01*
X88077000Y-154780000D02*
X88077000Y-155100000D01*
G75*
G02*
X87917000Y-155260000I-160000J0D01*
G01*
X87472000Y-155260000D01*
G75*
G02*
X87312000Y-155100000I0J160000D01*
G01*
X87312000Y-154780000D01*
G75*
G02*
X87472000Y-154620000I160000J0D01*
G01*
X87917000Y-154620000D01*
G75*
G02*
X88077000Y-154780000I0J-160000D01*
G01*
G37*
G36*
G01*
X86932000Y-154780000D02*
X86932000Y-155100000D01*
G75*
G02*
X86772000Y-155260000I-160000J0D01*
G01*
X86327000Y-155260000D01*
G75*
G02*
X86167000Y-155100000I0J160000D01*
G01*
X86167000Y-154780000D01*
G75*
G02*
X86327000Y-154620000I160000J0D01*
G01*
X86772000Y-154620000D01*
G75*
G02*
X86932000Y-154780000I0J-160000D01*
G01*
G37*
%TD*%
%TO.C,L46*%
G36*
G01*
X88077000Y-152748000D02*
X88077000Y-153068000D01*
G75*
G02*
X87917000Y-153228000I-160000J0D01*
G01*
X87472000Y-153228000D01*
G75*
G02*
X87312000Y-153068000I0J160000D01*
G01*
X87312000Y-152748000D01*
G75*
G02*
X87472000Y-152588000I160000J0D01*
G01*
X87917000Y-152588000D01*
G75*
G02*
X88077000Y-152748000I0J-160000D01*
G01*
G37*
G36*
G01*
X86932000Y-152748000D02*
X86932000Y-153068000D01*
G75*
G02*
X86772000Y-153228000I-160000J0D01*
G01*
X86327000Y-153228000D01*
G75*
G02*
X86167000Y-153068000I0J160000D01*
G01*
X86167000Y-152748000D01*
G75*
G02*
X86327000Y-152588000I160000J0D01*
G01*
X86772000Y-152588000D01*
G75*
G02*
X86932000Y-152748000I0J-160000D01*
G01*
G37*
%TD*%
%TO.C,L45*%
G36*
G01*
X93157000Y-154780000D02*
X93157000Y-155100000D01*
G75*
G02*
X92997000Y-155260000I-160000J0D01*
G01*
X92552000Y-155260000D01*
G75*
G02*
X92392000Y-155100000I0J160000D01*
G01*
X92392000Y-154780000D01*
G75*
G02*
X92552000Y-154620000I160000J0D01*
G01*
X92997000Y-154620000D01*
G75*
G02*
X93157000Y-154780000I0J-160000D01*
G01*
G37*
G36*
G01*
X92012000Y-154780000D02*
X92012000Y-155100000D01*
G75*
G02*
X91852000Y-155260000I-160000J0D01*
G01*
X91407000Y-155260000D01*
G75*
G02*
X91247000Y-155100000I0J160000D01*
G01*
X91247000Y-154780000D01*
G75*
G02*
X91407000Y-154620000I160000J0D01*
G01*
X91852000Y-154620000D01*
G75*
G02*
X92012000Y-154780000I0J-160000D01*
G01*
G37*
%TD*%
%TO.C,L44*%
G36*
G01*
X93157000Y-152748000D02*
X93157000Y-153068000D01*
G75*
G02*
X92997000Y-153228000I-160000J0D01*
G01*
X92552000Y-153228000D01*
G75*
G02*
X92392000Y-153068000I0J160000D01*
G01*
X92392000Y-152748000D01*
G75*
G02*
X92552000Y-152588000I160000J0D01*
G01*
X92997000Y-152588000D01*
G75*
G02*
X93157000Y-152748000I0J-160000D01*
G01*
G37*
G36*
G01*
X92012000Y-152748000D02*
X92012000Y-153068000D01*
G75*
G02*
X91852000Y-153228000I-160000J0D01*
G01*
X91407000Y-153228000D01*
G75*
G02*
X91247000Y-153068000I0J160000D01*
G01*
X91247000Y-152748000D01*
G75*
G02*
X91407000Y-152588000I160000J0D01*
G01*
X91852000Y-152588000D01*
G75*
G02*
X92012000Y-152748000I0J-160000D01*
G01*
G37*
%TD*%
%TO.C,L39*%
G36*
G01*
X103825000Y-154780000D02*
X103825000Y-155100000D01*
G75*
G02*
X103665000Y-155260000I-160000J0D01*
G01*
X103220000Y-155260000D01*
G75*
G02*
X103060000Y-155100000I0J160000D01*
G01*
X103060000Y-154780000D01*
G75*
G02*
X103220000Y-154620000I160000J0D01*
G01*
X103665000Y-154620000D01*
G75*
G02*
X103825000Y-154780000I0J-160000D01*
G01*
G37*
G36*
G01*
X102680000Y-154780000D02*
X102680000Y-155100000D01*
G75*
G02*
X102520000Y-155260000I-160000J0D01*
G01*
X102075000Y-155260000D01*
G75*
G02*
X101915000Y-155100000I0J160000D01*
G01*
X101915000Y-154780000D01*
G75*
G02*
X102075000Y-154620000I160000J0D01*
G01*
X102520000Y-154620000D01*
G75*
G02*
X102680000Y-154780000I0J-160000D01*
G01*
G37*
%TD*%
%TO.C,L38*%
G36*
G01*
X103825000Y-152748000D02*
X103825000Y-153068000D01*
G75*
G02*
X103665000Y-153228000I-160000J0D01*
G01*
X103220000Y-153228000D01*
G75*
G02*
X103060000Y-153068000I0J160000D01*
G01*
X103060000Y-152748000D01*
G75*
G02*
X103220000Y-152588000I160000J0D01*
G01*
X103665000Y-152588000D01*
G75*
G02*
X103825000Y-152748000I0J-160000D01*
G01*
G37*
G36*
G01*
X102680000Y-152748000D02*
X102680000Y-153068000D01*
G75*
G02*
X102520000Y-153228000I-160000J0D01*
G01*
X102075000Y-153228000D01*
G75*
G02*
X101915000Y-153068000I0J160000D01*
G01*
X101915000Y-152748000D01*
G75*
G02*
X102075000Y-152588000I160000J0D01*
G01*
X102520000Y-152588000D01*
G75*
G02*
X102680000Y-152748000I0J-160000D01*
G01*
G37*
%TD*%
%TO.C,L37*%
G36*
G01*
X108905000Y-154780000D02*
X108905000Y-155100000D01*
G75*
G02*
X108745000Y-155260000I-160000J0D01*
G01*
X108300000Y-155260000D01*
G75*
G02*
X108140000Y-155100000I0J160000D01*
G01*
X108140000Y-154780000D01*
G75*
G02*
X108300000Y-154620000I160000J0D01*
G01*
X108745000Y-154620000D01*
G75*
G02*
X108905000Y-154780000I0J-160000D01*
G01*
G37*
G36*
G01*
X107760000Y-154780000D02*
X107760000Y-155100000D01*
G75*
G02*
X107600000Y-155260000I-160000J0D01*
G01*
X107155000Y-155260000D01*
G75*
G02*
X106995000Y-155100000I0J160000D01*
G01*
X106995000Y-154780000D01*
G75*
G02*
X107155000Y-154620000I160000J0D01*
G01*
X107600000Y-154620000D01*
G75*
G02*
X107760000Y-154780000I0J-160000D01*
G01*
G37*
%TD*%
%TO.C,L36*%
G36*
G01*
X108905000Y-152748000D02*
X108905000Y-153068000D01*
G75*
G02*
X108745000Y-153228000I-160000J0D01*
G01*
X108300000Y-153228000D01*
G75*
G02*
X108140000Y-153068000I0J160000D01*
G01*
X108140000Y-152748000D01*
G75*
G02*
X108300000Y-152588000I160000J0D01*
G01*
X108745000Y-152588000D01*
G75*
G02*
X108905000Y-152748000I0J-160000D01*
G01*
G37*
G36*
G01*
X107760000Y-152748000D02*
X107760000Y-153068000D01*
G75*
G02*
X107600000Y-153228000I-160000J0D01*
G01*
X107155000Y-153228000D01*
G75*
G02*
X106995000Y-153068000I0J160000D01*
G01*
X106995000Y-152748000D01*
G75*
G02*
X107155000Y-152588000I160000J0D01*
G01*
X107600000Y-152588000D01*
G75*
G02*
X107760000Y-152748000I0J-160000D01*
G01*
G37*
%TD*%
%TO.C,L35*%
G36*
G01*
X86932000Y-164178000D02*
X86932000Y-164498000D01*
G75*
G02*
X86772000Y-164658000I-160000J0D01*
G01*
X86327000Y-164658000D01*
G75*
G02*
X86167000Y-164498000I0J160000D01*
G01*
X86167000Y-164178000D01*
G75*
G02*
X86327000Y-164018000I160000J0D01*
G01*
X86772000Y-164018000D01*
G75*
G02*
X86932000Y-164178000I0J-160000D01*
G01*
G37*
G36*
G01*
X88077000Y-164178000D02*
X88077000Y-164498000D01*
G75*
G02*
X87917000Y-164658000I-160000J0D01*
G01*
X87472000Y-164658000D01*
G75*
G02*
X87312000Y-164498000I0J160000D01*
G01*
X87312000Y-164178000D01*
G75*
G02*
X87472000Y-164018000I160000J0D01*
G01*
X87917000Y-164018000D01*
G75*
G02*
X88077000Y-164178000I0J-160000D01*
G01*
G37*
%TD*%
%TO.C,L34*%
G36*
G01*
X86932000Y-166210000D02*
X86932000Y-166530000D01*
G75*
G02*
X86772000Y-166690000I-160000J0D01*
G01*
X86327000Y-166690000D01*
G75*
G02*
X86167000Y-166530000I0J160000D01*
G01*
X86167000Y-166210000D01*
G75*
G02*
X86327000Y-166050000I160000J0D01*
G01*
X86772000Y-166050000D01*
G75*
G02*
X86932000Y-166210000I0J-160000D01*
G01*
G37*
G36*
G01*
X88077000Y-166210000D02*
X88077000Y-166530000D01*
G75*
G02*
X87917000Y-166690000I-160000J0D01*
G01*
X87472000Y-166690000D01*
G75*
G02*
X87312000Y-166530000I0J160000D01*
G01*
X87312000Y-166210000D01*
G75*
G02*
X87472000Y-166050000I160000J0D01*
G01*
X87917000Y-166050000D01*
G75*
G02*
X88077000Y-166210000I0J-160000D01*
G01*
G37*
%TD*%
%TO.C,L33*%
G36*
G01*
X92012000Y-164178000D02*
X92012000Y-164498000D01*
G75*
G02*
X91852000Y-164658000I-160000J0D01*
G01*
X91407000Y-164658000D01*
G75*
G02*
X91247000Y-164498000I0J160000D01*
G01*
X91247000Y-164178000D01*
G75*
G02*
X91407000Y-164018000I160000J0D01*
G01*
X91852000Y-164018000D01*
G75*
G02*
X92012000Y-164178000I0J-160000D01*
G01*
G37*
G36*
G01*
X93157000Y-164178000D02*
X93157000Y-164498000D01*
G75*
G02*
X92997000Y-164658000I-160000J0D01*
G01*
X92552000Y-164658000D01*
G75*
G02*
X92392000Y-164498000I0J160000D01*
G01*
X92392000Y-164178000D01*
G75*
G02*
X92552000Y-164018000I160000J0D01*
G01*
X92997000Y-164018000D01*
G75*
G02*
X93157000Y-164178000I0J-160000D01*
G01*
G37*
%TD*%
%TO.C,L32*%
G36*
G01*
X92012000Y-166210000D02*
X92012000Y-166530000D01*
G75*
G02*
X91852000Y-166690000I-160000J0D01*
G01*
X91407000Y-166690000D01*
G75*
G02*
X91247000Y-166530000I0J160000D01*
G01*
X91247000Y-166210000D01*
G75*
G02*
X91407000Y-166050000I160000J0D01*
G01*
X91852000Y-166050000D01*
G75*
G02*
X92012000Y-166210000I0J-160000D01*
G01*
G37*
G36*
G01*
X93157000Y-166210000D02*
X93157000Y-166530000D01*
G75*
G02*
X92997000Y-166690000I-160000J0D01*
G01*
X92552000Y-166690000D01*
G75*
G02*
X92392000Y-166530000I0J160000D01*
G01*
X92392000Y-166210000D01*
G75*
G02*
X92552000Y-166050000I160000J0D01*
G01*
X92997000Y-166050000D01*
G75*
G02*
X93157000Y-166210000I0J-160000D01*
G01*
G37*
%TD*%
%TO.C,L43*%
G36*
G01*
X95951000Y-154780000D02*
X95951000Y-155100000D01*
G75*
G02*
X95791000Y-155260000I-160000J0D01*
G01*
X95346000Y-155260000D01*
G75*
G02*
X95186000Y-155100000I0J160000D01*
G01*
X95186000Y-154780000D01*
G75*
G02*
X95346000Y-154620000I160000J0D01*
G01*
X95791000Y-154620000D01*
G75*
G02*
X95951000Y-154780000I0J-160000D01*
G01*
G37*
G36*
G01*
X94806000Y-154780000D02*
X94806000Y-155100000D01*
G75*
G02*
X94646000Y-155260000I-160000J0D01*
G01*
X94201000Y-155260000D01*
G75*
G02*
X94041000Y-155100000I0J160000D01*
G01*
X94041000Y-154780000D01*
G75*
G02*
X94201000Y-154620000I160000J0D01*
G01*
X94646000Y-154620000D01*
G75*
G02*
X94806000Y-154780000I0J-160000D01*
G01*
G37*
%TD*%
%TO.C,L27*%
G36*
G01*
X102680000Y-164178000D02*
X102680000Y-164498000D01*
G75*
G02*
X102520000Y-164658000I-160000J0D01*
G01*
X102075000Y-164658000D01*
G75*
G02*
X101915000Y-164498000I0J160000D01*
G01*
X101915000Y-164178000D01*
G75*
G02*
X102075000Y-164018000I160000J0D01*
G01*
X102520000Y-164018000D01*
G75*
G02*
X102680000Y-164178000I0J-160000D01*
G01*
G37*
G36*
G01*
X103825000Y-164178000D02*
X103825000Y-164498000D01*
G75*
G02*
X103665000Y-164658000I-160000J0D01*
G01*
X103220000Y-164658000D01*
G75*
G02*
X103060000Y-164498000I0J160000D01*
G01*
X103060000Y-164178000D01*
G75*
G02*
X103220000Y-164018000I160000J0D01*
G01*
X103665000Y-164018000D01*
G75*
G02*
X103825000Y-164178000I0J-160000D01*
G01*
G37*
%TD*%
%TO.C,L42*%
G36*
G01*
X95951000Y-152748000D02*
X95951000Y-153068000D01*
G75*
G02*
X95791000Y-153228000I-160000J0D01*
G01*
X95346000Y-153228000D01*
G75*
G02*
X95186000Y-153068000I0J160000D01*
G01*
X95186000Y-152748000D01*
G75*
G02*
X95346000Y-152588000I160000J0D01*
G01*
X95791000Y-152588000D01*
G75*
G02*
X95951000Y-152748000I0J-160000D01*
G01*
G37*
G36*
G01*
X94806000Y-152748000D02*
X94806000Y-153068000D01*
G75*
G02*
X94646000Y-153228000I-160000J0D01*
G01*
X94201000Y-153228000D01*
G75*
G02*
X94041000Y-153068000I0J160000D01*
G01*
X94041000Y-152748000D01*
G75*
G02*
X94201000Y-152588000I160000J0D01*
G01*
X94646000Y-152588000D01*
G75*
G02*
X94806000Y-152748000I0J-160000D01*
G01*
G37*
%TD*%
%TO.C,L26*%
G36*
G01*
X102680000Y-166210000D02*
X102680000Y-166530000D01*
G75*
G02*
X102520000Y-166690000I-160000J0D01*
G01*
X102075000Y-166690000D01*
G75*
G02*
X101915000Y-166530000I0J160000D01*
G01*
X101915000Y-166210000D01*
G75*
G02*
X102075000Y-166050000I160000J0D01*
G01*
X102520000Y-166050000D01*
G75*
G02*
X102680000Y-166210000I0J-160000D01*
G01*
G37*
G36*
G01*
X103825000Y-166210000D02*
X103825000Y-166530000D01*
G75*
G02*
X103665000Y-166690000I-160000J0D01*
G01*
X103220000Y-166690000D01*
G75*
G02*
X103060000Y-166530000I0J160000D01*
G01*
X103060000Y-166210000D01*
G75*
G02*
X103220000Y-166050000I160000J0D01*
G01*
X103665000Y-166050000D01*
G75*
G02*
X103825000Y-166210000I0J-160000D01*
G01*
G37*
%TD*%
%TO.C,L41*%
G36*
G01*
X101031000Y-154780000D02*
X101031000Y-155100000D01*
G75*
G02*
X100871000Y-155260000I-160000J0D01*
G01*
X100426000Y-155260000D01*
G75*
G02*
X100266000Y-155100000I0J160000D01*
G01*
X100266000Y-154780000D01*
G75*
G02*
X100426000Y-154620000I160000J0D01*
G01*
X100871000Y-154620000D01*
G75*
G02*
X101031000Y-154780000I0J-160000D01*
G01*
G37*
G36*
G01*
X99886000Y-154780000D02*
X99886000Y-155100000D01*
G75*
G02*
X99726000Y-155260000I-160000J0D01*
G01*
X99281000Y-155260000D01*
G75*
G02*
X99121000Y-155100000I0J160000D01*
G01*
X99121000Y-154780000D01*
G75*
G02*
X99281000Y-154620000I160000J0D01*
G01*
X99726000Y-154620000D01*
G75*
G02*
X99886000Y-154780000I0J-160000D01*
G01*
G37*
%TD*%
%TO.C,L25*%
G36*
G01*
X107760000Y-164178000D02*
X107760000Y-164498000D01*
G75*
G02*
X107600000Y-164658000I-160000J0D01*
G01*
X107155000Y-164658000D01*
G75*
G02*
X106995000Y-164498000I0J160000D01*
G01*
X106995000Y-164178000D01*
G75*
G02*
X107155000Y-164018000I160000J0D01*
G01*
X107600000Y-164018000D01*
G75*
G02*
X107760000Y-164178000I0J-160000D01*
G01*
G37*
G36*
G01*
X108905000Y-164178000D02*
X108905000Y-164498000D01*
G75*
G02*
X108745000Y-164658000I-160000J0D01*
G01*
X108300000Y-164658000D01*
G75*
G02*
X108140000Y-164498000I0J160000D01*
G01*
X108140000Y-164178000D01*
G75*
G02*
X108300000Y-164018000I160000J0D01*
G01*
X108745000Y-164018000D01*
G75*
G02*
X108905000Y-164178000I0J-160000D01*
G01*
G37*
%TD*%
%TO.C,L40*%
G36*
G01*
X101031000Y-152748000D02*
X101031000Y-153068000D01*
G75*
G02*
X100871000Y-153228000I-160000J0D01*
G01*
X100426000Y-153228000D01*
G75*
G02*
X100266000Y-153068000I0J160000D01*
G01*
X100266000Y-152748000D01*
G75*
G02*
X100426000Y-152588000I160000J0D01*
G01*
X100871000Y-152588000D01*
G75*
G02*
X101031000Y-152748000I0J-160000D01*
G01*
G37*
G36*
G01*
X99886000Y-152748000D02*
X99886000Y-153068000D01*
G75*
G02*
X99726000Y-153228000I-160000J0D01*
G01*
X99281000Y-153228000D01*
G75*
G02*
X99121000Y-153068000I0J160000D01*
G01*
X99121000Y-152748000D01*
G75*
G02*
X99281000Y-152588000I160000J0D01*
G01*
X99726000Y-152588000D01*
G75*
G02*
X99886000Y-152748000I0J-160000D01*
G01*
G37*
%TD*%
%TO.C,L24*%
G36*
G01*
X107760000Y-166210000D02*
X107760000Y-166530000D01*
G75*
G02*
X107600000Y-166690000I-160000J0D01*
G01*
X107155000Y-166690000D01*
G75*
G02*
X106995000Y-166530000I0J160000D01*
G01*
X106995000Y-166210000D01*
G75*
G02*
X107155000Y-166050000I160000J0D01*
G01*
X107600000Y-166050000D01*
G75*
G02*
X107760000Y-166210000I0J-160000D01*
G01*
G37*
G36*
G01*
X108905000Y-166210000D02*
X108905000Y-166530000D01*
G75*
G02*
X108745000Y-166690000I-160000J0D01*
G01*
X108300000Y-166690000D01*
G75*
G02*
X108140000Y-166530000I0J160000D01*
G01*
X108140000Y-166210000D01*
G75*
G02*
X108300000Y-166050000I160000J0D01*
G01*
X108745000Y-166050000D01*
G75*
G02*
X108905000Y-166210000I0J-160000D01*
G01*
G37*
%TD*%
%TO.C,L31*%
G36*
G01*
X94806000Y-164178000D02*
X94806000Y-164498000D01*
G75*
G02*
X94646000Y-164658000I-160000J0D01*
G01*
X94201000Y-164658000D01*
G75*
G02*
X94041000Y-164498000I0J160000D01*
G01*
X94041000Y-164178000D01*
G75*
G02*
X94201000Y-164018000I160000J0D01*
G01*
X94646000Y-164018000D01*
G75*
G02*
X94806000Y-164178000I0J-160000D01*
G01*
G37*
G36*
G01*
X95951000Y-164178000D02*
X95951000Y-164498000D01*
G75*
G02*
X95791000Y-164658000I-160000J0D01*
G01*
X95346000Y-164658000D01*
G75*
G02*
X95186000Y-164498000I0J160000D01*
G01*
X95186000Y-164178000D01*
G75*
G02*
X95346000Y-164018000I160000J0D01*
G01*
X95791000Y-164018000D01*
G75*
G02*
X95951000Y-164178000I0J-160000D01*
G01*
G37*
%TD*%
%TO.C,L30*%
G36*
G01*
X94806000Y-166210000D02*
X94806000Y-166530000D01*
G75*
G02*
X94646000Y-166690000I-160000J0D01*
G01*
X94201000Y-166690000D01*
G75*
G02*
X94041000Y-166530000I0J160000D01*
G01*
X94041000Y-166210000D01*
G75*
G02*
X94201000Y-166050000I160000J0D01*
G01*
X94646000Y-166050000D01*
G75*
G02*
X94806000Y-166210000I0J-160000D01*
G01*
G37*
G36*
G01*
X95951000Y-166210000D02*
X95951000Y-166530000D01*
G75*
G02*
X95791000Y-166690000I-160000J0D01*
G01*
X95346000Y-166690000D01*
G75*
G02*
X95186000Y-166530000I0J160000D01*
G01*
X95186000Y-166210000D01*
G75*
G02*
X95346000Y-166050000I160000J0D01*
G01*
X95791000Y-166050000D01*
G75*
G02*
X95951000Y-166210000I0J-160000D01*
G01*
G37*
%TD*%
%TO.C,L29*%
G36*
G01*
X99886000Y-164178000D02*
X99886000Y-164498000D01*
G75*
G02*
X99726000Y-164658000I-160000J0D01*
G01*
X99281000Y-164658000D01*
G75*
G02*
X99121000Y-164498000I0J160000D01*
G01*
X99121000Y-164178000D01*
G75*
G02*
X99281000Y-164018000I160000J0D01*
G01*
X99726000Y-164018000D01*
G75*
G02*
X99886000Y-164178000I0J-160000D01*
G01*
G37*
G36*
G01*
X101031000Y-164178000D02*
X101031000Y-164498000D01*
G75*
G02*
X100871000Y-164658000I-160000J0D01*
G01*
X100426000Y-164658000D01*
G75*
G02*
X100266000Y-164498000I0J160000D01*
G01*
X100266000Y-164178000D01*
G75*
G02*
X100426000Y-164018000I160000J0D01*
G01*
X100871000Y-164018000D01*
G75*
G02*
X101031000Y-164178000I0J-160000D01*
G01*
G37*
%TD*%
%TO.C,L28*%
G36*
G01*
X99886000Y-166210000D02*
X99886000Y-166530000D01*
G75*
G02*
X99726000Y-166690000I-160000J0D01*
G01*
X99281000Y-166690000D01*
G75*
G02*
X99121000Y-166530000I0J160000D01*
G01*
X99121000Y-166210000D01*
G75*
G02*
X99281000Y-166050000I160000J0D01*
G01*
X99726000Y-166050000D01*
G75*
G02*
X99886000Y-166210000I0J-160000D01*
G01*
G37*
G36*
G01*
X101031000Y-166210000D02*
X101031000Y-166530000D01*
G75*
G02*
X100871000Y-166690000I-160000J0D01*
G01*
X100426000Y-166690000D01*
G75*
G02*
X100266000Y-166530000I0J160000D01*
G01*
X100266000Y-166210000D01*
G75*
G02*
X100426000Y-166050000I160000J0D01*
G01*
X100871000Y-166050000D01*
G75*
G02*
X101031000Y-166210000I0J-160000D01*
G01*
G37*
%TD*%
%TO.C,L23*%
G36*
G01*
X63594000Y-152590000D02*
X63914000Y-152590000D01*
G75*
G02*
X64074000Y-152750000I0J-160000D01*
G01*
X64074000Y-153195000D01*
G75*
G02*
X63914000Y-153355000I-160000J0D01*
G01*
X63594000Y-153355000D01*
G75*
G02*
X63434000Y-153195000I0J160000D01*
G01*
X63434000Y-152750000D01*
G75*
G02*
X63594000Y-152590000I160000J0D01*
G01*
G37*
G36*
G01*
X63594000Y-151445000D02*
X63914000Y-151445000D01*
G75*
G02*
X64074000Y-151605000I0J-160000D01*
G01*
X64074000Y-152050000D01*
G75*
G02*
X63914000Y-152210000I-160000J0D01*
G01*
X63594000Y-152210000D01*
G75*
G02*
X63434000Y-152050000I0J160000D01*
G01*
X63434000Y-151605000D01*
G75*
G02*
X63594000Y-151445000I160000J0D01*
G01*
G37*
%TD*%
%TO.C,L22*%
G36*
G01*
X111696000Y-118524000D02*
X111696000Y-118204000D01*
G75*
G02*
X111856000Y-118044000I160000J0D01*
G01*
X112301000Y-118044000D01*
G75*
G02*
X112461000Y-118204000I0J-160000D01*
G01*
X112461000Y-118524000D01*
G75*
G02*
X112301000Y-118684000I-160000J0D01*
G01*
X111856000Y-118684000D01*
G75*
G02*
X111696000Y-118524000I0J160000D01*
G01*
G37*
G36*
G01*
X110551000Y-118524000D02*
X110551000Y-118204000D01*
G75*
G02*
X110711000Y-118044000I160000J0D01*
G01*
X111156000Y-118044000D01*
G75*
G02*
X111316000Y-118204000I0J-160000D01*
G01*
X111316000Y-118524000D01*
G75*
G02*
X111156000Y-118684000I-160000J0D01*
G01*
X110711000Y-118684000D01*
G75*
G02*
X110551000Y-118524000I0J160000D01*
G01*
G37*
%TD*%
%TO.C,L20*%
G36*
G01*
X103822000Y-118524000D02*
X103822000Y-118204000D01*
G75*
G02*
X103982000Y-118044000I160000J0D01*
G01*
X104427000Y-118044000D01*
G75*
G02*
X104587000Y-118204000I0J-160000D01*
G01*
X104587000Y-118524000D01*
G75*
G02*
X104427000Y-118684000I-160000J0D01*
G01*
X103982000Y-118684000D01*
G75*
G02*
X103822000Y-118524000I0J160000D01*
G01*
G37*
G36*
G01*
X102677000Y-118524000D02*
X102677000Y-118204000D01*
G75*
G02*
X102837000Y-118044000I160000J0D01*
G01*
X103282000Y-118044000D01*
G75*
G02*
X103442000Y-118204000I0J-160000D01*
G01*
X103442000Y-118524000D01*
G75*
G02*
X103282000Y-118684000I-160000J0D01*
G01*
X102837000Y-118684000D01*
G75*
G02*
X102677000Y-118524000I0J160000D01*
G01*
G37*
%TD*%
%TO.C,L19*%
G36*
G01*
X102458000Y-117077500D02*
X102458000Y-116602500D01*
G75*
G02*
X102695500Y-116365000I237500J0D01*
G01*
X103270500Y-116365000D01*
G75*
G02*
X103508000Y-116602500I0J-237500D01*
G01*
X103508000Y-117077500D01*
G75*
G02*
X103270500Y-117315000I-237500J0D01*
G01*
X102695500Y-117315000D01*
G75*
G02*
X102458000Y-117077500I0J237500D01*
G01*
G37*
G36*
G01*
X100708000Y-117077500D02*
X100708000Y-116602500D01*
G75*
G02*
X100945500Y-116365000I237500J0D01*
G01*
X101520500Y-116365000D01*
G75*
G02*
X101758000Y-116602500I0J-237500D01*
G01*
X101758000Y-117077500D01*
G75*
G02*
X101520500Y-117315000I-237500J0D01*
G01*
X100945500Y-117315000D01*
G75*
G02*
X100708000Y-117077500I0J237500D01*
G01*
G37*
%TD*%
%TO.C,L17*%
G36*
G01*
X95694000Y-118524000D02*
X95694000Y-118204000D01*
G75*
G02*
X95854000Y-118044000I160000J0D01*
G01*
X96299000Y-118044000D01*
G75*
G02*
X96459000Y-118204000I0J-160000D01*
G01*
X96459000Y-118524000D01*
G75*
G02*
X96299000Y-118684000I-160000J0D01*
G01*
X95854000Y-118684000D01*
G75*
G02*
X95694000Y-118524000I0J160000D01*
G01*
G37*
G36*
G01*
X94549000Y-118524000D02*
X94549000Y-118204000D01*
G75*
G02*
X94709000Y-118044000I160000J0D01*
G01*
X95154000Y-118044000D01*
G75*
G02*
X95314000Y-118204000I0J-160000D01*
G01*
X95314000Y-118524000D01*
G75*
G02*
X95154000Y-118684000I-160000J0D01*
G01*
X94709000Y-118684000D01*
G75*
G02*
X94549000Y-118524000I0J160000D01*
G01*
G37*
%TD*%
%TO.C,L16*%
G36*
G01*
X94330000Y-117077500D02*
X94330000Y-116602500D01*
G75*
G02*
X94567500Y-116365000I237500J0D01*
G01*
X95142500Y-116365000D01*
G75*
G02*
X95380000Y-116602500I0J-237500D01*
G01*
X95380000Y-117077500D01*
G75*
G02*
X95142500Y-117315000I-237500J0D01*
G01*
X94567500Y-117315000D01*
G75*
G02*
X94330000Y-117077500I0J237500D01*
G01*
G37*
G36*
G01*
X92580000Y-117077500D02*
X92580000Y-116602500D01*
G75*
G02*
X92817500Y-116365000I237500J0D01*
G01*
X93392500Y-116365000D01*
G75*
G02*
X93630000Y-116602500I0J-237500D01*
G01*
X93630000Y-117077500D01*
G75*
G02*
X93392500Y-117315000I-237500J0D01*
G01*
X92817500Y-117315000D01*
G75*
G02*
X92580000Y-117077500I0J237500D01*
G01*
G37*
%TD*%
%TO.C,L14*%
G36*
G01*
X87566000Y-118524000D02*
X87566000Y-118204000D01*
G75*
G02*
X87726000Y-118044000I160000J0D01*
G01*
X88171000Y-118044000D01*
G75*
G02*
X88331000Y-118204000I0J-160000D01*
G01*
X88331000Y-118524000D01*
G75*
G02*
X88171000Y-118684000I-160000J0D01*
G01*
X87726000Y-118684000D01*
G75*
G02*
X87566000Y-118524000I0J160000D01*
G01*
G37*
G36*
G01*
X86421000Y-118524000D02*
X86421000Y-118204000D01*
G75*
G02*
X86581000Y-118044000I160000J0D01*
G01*
X87026000Y-118044000D01*
G75*
G02*
X87186000Y-118204000I0J-160000D01*
G01*
X87186000Y-118524000D01*
G75*
G02*
X87026000Y-118684000I-160000J0D01*
G01*
X86581000Y-118684000D01*
G75*
G02*
X86421000Y-118524000I0J160000D01*
G01*
G37*
%TD*%
%TO.C,L21*%
G36*
G01*
X108902000Y-118524000D02*
X108902000Y-118204000D01*
G75*
G02*
X109062000Y-118044000I160000J0D01*
G01*
X109507000Y-118044000D01*
G75*
G02*
X109667000Y-118204000I0J-160000D01*
G01*
X109667000Y-118524000D01*
G75*
G02*
X109507000Y-118684000I-160000J0D01*
G01*
X109062000Y-118684000D01*
G75*
G02*
X108902000Y-118524000I0J160000D01*
G01*
G37*
G36*
G01*
X107757000Y-118524000D02*
X107757000Y-118204000D01*
G75*
G02*
X107917000Y-118044000I160000J0D01*
G01*
X108362000Y-118044000D01*
G75*
G02*
X108522000Y-118204000I0J-160000D01*
G01*
X108522000Y-118524000D01*
G75*
G02*
X108362000Y-118684000I-160000J0D01*
G01*
X107917000Y-118684000D01*
G75*
G02*
X107757000Y-118524000I0J160000D01*
G01*
G37*
%TD*%
%TO.C,L18*%
G36*
G01*
X100774000Y-118524000D02*
X100774000Y-118204000D01*
G75*
G02*
X100934000Y-118044000I160000J0D01*
G01*
X101379000Y-118044000D01*
G75*
G02*
X101539000Y-118204000I0J-160000D01*
G01*
X101539000Y-118524000D01*
G75*
G02*
X101379000Y-118684000I-160000J0D01*
G01*
X100934000Y-118684000D01*
G75*
G02*
X100774000Y-118524000I0J160000D01*
G01*
G37*
G36*
G01*
X99629000Y-118524000D02*
X99629000Y-118204000D01*
G75*
G02*
X99789000Y-118044000I160000J0D01*
G01*
X100234000Y-118044000D01*
G75*
G02*
X100394000Y-118204000I0J-160000D01*
G01*
X100394000Y-118524000D01*
G75*
G02*
X100234000Y-118684000I-160000J0D01*
G01*
X99789000Y-118684000D01*
G75*
G02*
X99629000Y-118524000I0J160000D01*
G01*
G37*
%TD*%
%TO.C,L15*%
G36*
G01*
X92646000Y-118524000D02*
X92646000Y-118204000D01*
G75*
G02*
X92806000Y-118044000I160000J0D01*
G01*
X93251000Y-118044000D01*
G75*
G02*
X93411000Y-118204000I0J-160000D01*
G01*
X93411000Y-118524000D01*
G75*
G02*
X93251000Y-118684000I-160000J0D01*
G01*
X92806000Y-118684000D01*
G75*
G02*
X92646000Y-118524000I0J160000D01*
G01*
G37*
G36*
G01*
X91501000Y-118524000D02*
X91501000Y-118204000D01*
G75*
G02*
X91661000Y-118044000I160000J0D01*
G01*
X92106000Y-118044000D01*
G75*
G02*
X92266000Y-118204000I0J-160000D01*
G01*
X92266000Y-118524000D01*
G75*
G02*
X92106000Y-118684000I-160000J0D01*
G01*
X91661000Y-118684000D01*
G75*
G02*
X91501000Y-118524000I0J160000D01*
G01*
G37*
%TD*%
%TO.C,L13*%
G36*
G01*
X84772000Y-118524000D02*
X84772000Y-118204000D01*
G75*
G02*
X84932000Y-118044000I160000J0D01*
G01*
X85377000Y-118044000D01*
G75*
G02*
X85537000Y-118204000I0J-160000D01*
G01*
X85537000Y-118524000D01*
G75*
G02*
X85377000Y-118684000I-160000J0D01*
G01*
X84932000Y-118684000D01*
G75*
G02*
X84772000Y-118524000I0J160000D01*
G01*
G37*
G36*
G01*
X83627000Y-118524000D02*
X83627000Y-118204000D01*
G75*
G02*
X83787000Y-118044000I160000J0D01*
G01*
X84232000Y-118044000D01*
G75*
G02*
X84392000Y-118204000I0J-160000D01*
G01*
X84392000Y-118524000D01*
G75*
G02*
X84232000Y-118684000I-160000J0D01*
G01*
X83787000Y-118684000D01*
G75*
G02*
X83627000Y-118524000I0J160000D01*
G01*
G37*
%TD*%
%TO.C,L12*%
G36*
G01*
X111696000Y-142146000D02*
X111696000Y-141826000D01*
G75*
G02*
X111856000Y-141666000I160000J0D01*
G01*
X112301000Y-141666000D01*
G75*
G02*
X112461000Y-141826000I0J-160000D01*
G01*
X112461000Y-142146000D01*
G75*
G02*
X112301000Y-142306000I-160000J0D01*
G01*
X111856000Y-142306000D01*
G75*
G02*
X111696000Y-142146000I0J160000D01*
G01*
G37*
G36*
G01*
X110551000Y-142146000D02*
X110551000Y-141826000D01*
G75*
G02*
X110711000Y-141666000I160000J0D01*
G01*
X111156000Y-141666000D01*
G75*
G02*
X111316000Y-141826000I0J-160000D01*
G01*
X111316000Y-142146000D01*
G75*
G02*
X111156000Y-142306000I-160000J0D01*
G01*
X110711000Y-142306000D01*
G75*
G02*
X110551000Y-142146000I0J160000D01*
G01*
G37*
%TD*%
%TO.C,L10*%
G36*
G01*
X103822000Y-142146000D02*
X103822000Y-141826000D01*
G75*
G02*
X103982000Y-141666000I160000J0D01*
G01*
X104427000Y-141666000D01*
G75*
G02*
X104587000Y-141826000I0J-160000D01*
G01*
X104587000Y-142146000D01*
G75*
G02*
X104427000Y-142306000I-160000J0D01*
G01*
X103982000Y-142306000D01*
G75*
G02*
X103822000Y-142146000I0J160000D01*
G01*
G37*
G36*
G01*
X102677000Y-142146000D02*
X102677000Y-141826000D01*
G75*
G02*
X102837000Y-141666000I160000J0D01*
G01*
X103282000Y-141666000D01*
G75*
G02*
X103442000Y-141826000I0J-160000D01*
G01*
X103442000Y-142146000D01*
G75*
G02*
X103282000Y-142306000I-160000J0D01*
G01*
X102837000Y-142306000D01*
G75*
G02*
X102677000Y-142146000I0J160000D01*
G01*
G37*
%TD*%
%TO.C,L9*%
G36*
G01*
X102458000Y-143747500D02*
X102458000Y-143272500D01*
G75*
G02*
X102695500Y-143035000I237500J0D01*
G01*
X103270500Y-143035000D01*
G75*
G02*
X103508000Y-143272500I0J-237500D01*
G01*
X103508000Y-143747500D01*
G75*
G02*
X103270500Y-143985000I-237500J0D01*
G01*
X102695500Y-143985000D01*
G75*
G02*
X102458000Y-143747500I0J237500D01*
G01*
G37*
G36*
G01*
X100708000Y-143747500D02*
X100708000Y-143272500D01*
G75*
G02*
X100945500Y-143035000I237500J0D01*
G01*
X101520500Y-143035000D01*
G75*
G02*
X101758000Y-143272500I0J-237500D01*
G01*
X101758000Y-143747500D01*
G75*
G02*
X101520500Y-143985000I-237500J0D01*
G01*
X100945500Y-143985000D01*
G75*
G02*
X100708000Y-143747500I0J237500D01*
G01*
G37*
%TD*%
%TO.C,L7*%
G36*
G01*
X95694000Y-142146000D02*
X95694000Y-141826000D01*
G75*
G02*
X95854000Y-141666000I160000J0D01*
G01*
X96299000Y-141666000D01*
G75*
G02*
X96459000Y-141826000I0J-160000D01*
G01*
X96459000Y-142146000D01*
G75*
G02*
X96299000Y-142306000I-160000J0D01*
G01*
X95854000Y-142306000D01*
G75*
G02*
X95694000Y-142146000I0J160000D01*
G01*
G37*
G36*
G01*
X94549000Y-142146000D02*
X94549000Y-141826000D01*
G75*
G02*
X94709000Y-141666000I160000J0D01*
G01*
X95154000Y-141666000D01*
G75*
G02*
X95314000Y-141826000I0J-160000D01*
G01*
X95314000Y-142146000D01*
G75*
G02*
X95154000Y-142306000I-160000J0D01*
G01*
X94709000Y-142306000D01*
G75*
G02*
X94549000Y-142146000I0J160000D01*
G01*
G37*
%TD*%
%TO.C,L6*%
G36*
G01*
X94330000Y-143747500D02*
X94330000Y-143272500D01*
G75*
G02*
X94567500Y-143035000I237500J0D01*
G01*
X95142500Y-143035000D01*
G75*
G02*
X95380000Y-143272500I0J-237500D01*
G01*
X95380000Y-143747500D01*
G75*
G02*
X95142500Y-143985000I-237500J0D01*
G01*
X94567500Y-143985000D01*
G75*
G02*
X94330000Y-143747500I0J237500D01*
G01*
G37*
G36*
G01*
X92580000Y-143747500D02*
X92580000Y-143272500D01*
G75*
G02*
X92817500Y-143035000I237500J0D01*
G01*
X93392500Y-143035000D01*
G75*
G02*
X93630000Y-143272500I0J-237500D01*
G01*
X93630000Y-143747500D01*
G75*
G02*
X93392500Y-143985000I-237500J0D01*
G01*
X92817500Y-143985000D01*
G75*
G02*
X92580000Y-143747500I0J237500D01*
G01*
G37*
%TD*%
%TO.C,L4*%
G36*
G01*
X87566000Y-142146000D02*
X87566000Y-141826000D01*
G75*
G02*
X87726000Y-141666000I160000J0D01*
G01*
X88171000Y-141666000D01*
G75*
G02*
X88331000Y-141826000I0J-160000D01*
G01*
X88331000Y-142146000D01*
G75*
G02*
X88171000Y-142306000I-160000J0D01*
G01*
X87726000Y-142306000D01*
G75*
G02*
X87566000Y-142146000I0J160000D01*
G01*
G37*
G36*
G01*
X86421000Y-142146000D02*
X86421000Y-141826000D01*
G75*
G02*
X86581000Y-141666000I160000J0D01*
G01*
X87026000Y-141666000D01*
G75*
G02*
X87186000Y-141826000I0J-160000D01*
G01*
X87186000Y-142146000D01*
G75*
G02*
X87026000Y-142306000I-160000J0D01*
G01*
X86581000Y-142306000D01*
G75*
G02*
X86421000Y-142146000I0J160000D01*
G01*
G37*
%TD*%
%TO.C,L11*%
G36*
G01*
X108902000Y-142146000D02*
X108902000Y-141826000D01*
G75*
G02*
X109062000Y-141666000I160000J0D01*
G01*
X109507000Y-141666000D01*
G75*
G02*
X109667000Y-141826000I0J-160000D01*
G01*
X109667000Y-142146000D01*
G75*
G02*
X109507000Y-142306000I-160000J0D01*
G01*
X109062000Y-142306000D01*
G75*
G02*
X108902000Y-142146000I0J160000D01*
G01*
G37*
G36*
G01*
X107757000Y-142146000D02*
X107757000Y-141826000D01*
G75*
G02*
X107917000Y-141666000I160000J0D01*
G01*
X108362000Y-141666000D01*
G75*
G02*
X108522000Y-141826000I0J-160000D01*
G01*
X108522000Y-142146000D01*
G75*
G02*
X108362000Y-142306000I-160000J0D01*
G01*
X107917000Y-142306000D01*
G75*
G02*
X107757000Y-142146000I0J160000D01*
G01*
G37*
%TD*%
%TO.C,L8*%
G36*
G01*
X100774000Y-142146000D02*
X100774000Y-141826000D01*
G75*
G02*
X100934000Y-141666000I160000J0D01*
G01*
X101379000Y-141666000D01*
G75*
G02*
X101539000Y-141826000I0J-160000D01*
G01*
X101539000Y-142146000D01*
G75*
G02*
X101379000Y-142306000I-160000J0D01*
G01*
X100934000Y-142306000D01*
G75*
G02*
X100774000Y-142146000I0J160000D01*
G01*
G37*
G36*
G01*
X99629000Y-142146000D02*
X99629000Y-141826000D01*
G75*
G02*
X99789000Y-141666000I160000J0D01*
G01*
X100234000Y-141666000D01*
G75*
G02*
X100394000Y-141826000I0J-160000D01*
G01*
X100394000Y-142146000D01*
G75*
G02*
X100234000Y-142306000I-160000J0D01*
G01*
X99789000Y-142306000D01*
G75*
G02*
X99629000Y-142146000I0J160000D01*
G01*
G37*
%TD*%
%TO.C,L5*%
G36*
G01*
X92646000Y-142146000D02*
X92646000Y-141826000D01*
G75*
G02*
X92806000Y-141666000I160000J0D01*
G01*
X93251000Y-141666000D01*
G75*
G02*
X93411000Y-141826000I0J-160000D01*
G01*
X93411000Y-142146000D01*
G75*
G02*
X93251000Y-142306000I-160000J0D01*
G01*
X92806000Y-142306000D01*
G75*
G02*
X92646000Y-142146000I0J160000D01*
G01*
G37*
G36*
G01*
X91501000Y-142146000D02*
X91501000Y-141826000D01*
G75*
G02*
X91661000Y-141666000I160000J0D01*
G01*
X92106000Y-141666000D01*
G75*
G02*
X92266000Y-141826000I0J-160000D01*
G01*
X92266000Y-142146000D01*
G75*
G02*
X92106000Y-142306000I-160000J0D01*
G01*
X91661000Y-142306000D01*
G75*
G02*
X91501000Y-142146000I0J160000D01*
G01*
G37*
%TD*%
%TO.C,L3*%
G36*
G01*
X84772000Y-142146000D02*
X84772000Y-141826000D01*
G75*
G02*
X84932000Y-141666000I160000J0D01*
G01*
X85377000Y-141666000D01*
G75*
G02*
X85537000Y-141826000I0J-160000D01*
G01*
X85537000Y-142146000D01*
G75*
G02*
X85377000Y-142306000I-160000J0D01*
G01*
X84932000Y-142306000D01*
G75*
G02*
X84772000Y-142146000I0J160000D01*
G01*
G37*
G36*
G01*
X83627000Y-142146000D02*
X83627000Y-141826000D01*
G75*
G02*
X83787000Y-141666000I160000J0D01*
G01*
X84232000Y-141666000D01*
G75*
G02*
X84392000Y-141826000I0J-160000D01*
G01*
X84392000Y-142146000D01*
G75*
G02*
X84232000Y-142306000I-160000J0D01*
G01*
X83787000Y-142306000D01*
G75*
G02*
X83627000Y-142146000I0J160000D01*
G01*
G37*
%TD*%
%TO.C,L2*%
G36*
G01*
X92957488Y-129264786D02*
X92731214Y-129038512D01*
G75*
G02*
X92731214Y-128812238I113137J113137D01*
G01*
X93045876Y-128497576D01*
G75*
G02*
X93272150Y-128497576I113137J-113137D01*
G01*
X93498424Y-128723850D01*
G75*
G02*
X93498424Y-128950124I-113137J-113137D01*
G01*
X93183762Y-129264786D01*
G75*
G02*
X92957488Y-129264786I-113137J113137D01*
G01*
G37*
G36*
G01*
X92147850Y-130074424D02*
X91921576Y-129848150D01*
G75*
G02*
X91921576Y-129621876I113137J113137D01*
G01*
X92236238Y-129307214D01*
G75*
G02*
X92462512Y-129307214I113137J-113137D01*
G01*
X92688786Y-129533488D01*
G75*
G02*
X92688786Y-129759762I-113137J-113137D01*
G01*
X92374124Y-130074424D01*
G75*
G02*
X92147850Y-130074424I-113137J113137D01*
G01*
G37*
%TD*%
%TO.C,L1*%
G36*
G01*
X92731214Y-132073488D02*
X92957488Y-131847214D01*
G75*
G02*
X93183762Y-131847214I113137J-113137D01*
G01*
X93498424Y-132161876D01*
G75*
G02*
X93498424Y-132388150I-113137J-113137D01*
G01*
X93272150Y-132614424D01*
G75*
G02*
X93045876Y-132614424I-113137J113137D01*
G01*
X92731214Y-132299762D01*
G75*
G02*
X92731214Y-132073488I113137J113137D01*
G01*
G37*
G36*
G01*
X91921576Y-131263850D02*
X92147850Y-131037576D01*
G75*
G02*
X92374124Y-131037576I113137J-113137D01*
G01*
X92688786Y-131352238D01*
G75*
G02*
X92688786Y-131578512I-113137J-113137D01*
G01*
X92462512Y-131804786D01*
G75*
G02*
X92236238Y-131804786I-113137J113137D01*
G01*
X91921576Y-131490124D01*
G75*
G02*
X91921576Y-131263850I113137J113137D01*
G01*
G37*
%TD*%
D16*
%TO.C,J4*%
X149860000Y-74168000D03*
X149860000Y-76708000D03*
X147320000Y-74168000D03*
X147320000Y-76708000D03*
X144780000Y-74168000D03*
X144780000Y-76708000D03*
X142240000Y-74168000D03*
X142240000Y-76708000D03*
X139700000Y-74168000D03*
X139700000Y-76708000D03*
X137160000Y-74168000D03*
X137160000Y-76708000D03*
X134620000Y-74168000D03*
X134620000Y-76708000D03*
X132080000Y-74168000D03*
X132080000Y-76708000D03*
X129540000Y-74168000D03*
X129540000Y-76708000D03*
X127000000Y-74168000D03*
X127000000Y-76708000D03*
X124460000Y-74168000D03*
X124460000Y-76708000D03*
X121920000Y-74168000D03*
X121920000Y-76708000D03*
X119380000Y-74168000D03*
X119380000Y-76708000D03*
X116840000Y-74168000D03*
X116840000Y-76708000D03*
X114300000Y-74168000D03*
X114300000Y-76708000D03*
X111760000Y-74168000D03*
X111760000Y-76708000D03*
X109220000Y-74168000D03*
X109220000Y-76708000D03*
X106680000Y-74168000D03*
X106680000Y-76708000D03*
X104140000Y-74168000D03*
X104140000Y-76708000D03*
X101600000Y-74168000D03*
D17*
X101600000Y-76708000D03*
%TD*%
D16*
%TO.C,J3*%
X150622000Y-165354000D03*
X148082000Y-165354000D03*
X150622000Y-162814000D03*
X148082000Y-162814000D03*
X150622000Y-160274000D03*
X148082000Y-160274000D03*
X150622000Y-157734000D03*
X148082000Y-157734000D03*
X150622000Y-155194000D03*
X148082000Y-155194000D03*
X150622000Y-152654000D03*
X148082000Y-152654000D03*
X150622000Y-150114000D03*
X148082000Y-150114000D03*
X150622000Y-147574000D03*
X148082000Y-147574000D03*
X150622000Y-145034000D03*
X148082000Y-145034000D03*
X150622000Y-142494000D03*
X148082000Y-142494000D03*
X150622000Y-139954000D03*
X148082000Y-139954000D03*
X150622000Y-137414000D03*
X148082000Y-137414000D03*
X150622000Y-134874000D03*
X148082000Y-134874000D03*
X150622000Y-132334000D03*
X148082000Y-132334000D03*
X150622000Y-129794000D03*
X148082000Y-129794000D03*
X150622000Y-127254000D03*
X148082000Y-127254000D03*
X150622000Y-124714000D03*
X148082000Y-124714000D03*
X150622000Y-122174000D03*
X148082000Y-122174000D03*
X150622000Y-119634000D03*
X148082000Y-119634000D03*
X150622000Y-117094000D03*
D17*
X148082000Y-117094000D03*
%TD*%
D18*
%TO.C,J2*%
X59182000Y-147574000D03*
X59182000Y-151824000D03*
X59182000Y-143324000D03*
%TD*%
%TO.C,J1*%
X59436000Y-86360000D03*
X59436000Y-90610000D03*
X59436000Y-82110000D03*
%TD*%
D19*
%TO.C,DA2*%
G36*
X65534000Y-157375500D02*
G01*
X69659000Y-157375500D01*
X69659000Y-157792000D01*
X72134000Y-157792000D01*
X72134000Y-158692000D01*
X69659000Y-158692000D01*
X69659000Y-159108500D01*
X65534000Y-159108500D01*
X65534000Y-157375500D01*
G37*
D20*
X70984000Y-156742000D03*
X70984000Y-159742000D03*
%TD*%
D19*
%TO.C,DA1*%
G36*
X65534000Y-151279500D02*
G01*
X69659000Y-151279500D01*
X69659000Y-151696000D01*
X72134000Y-151696000D01*
X72134000Y-152596000D01*
X69659000Y-152596000D01*
X69659000Y-153012500D01*
X65534000Y-153012500D01*
X65534000Y-151279500D01*
G37*
D20*
X70984000Y-150646000D03*
X70984000Y-153646000D03*
%TD*%
%TO.C,D7*%
G36*
G01*
X124058000Y-163266000D02*
X124058000Y-164591000D01*
G75*
G02*
X123983000Y-164666000I-75000J0D01*
G01*
X123833000Y-164666000D01*
G75*
G02*
X123758000Y-164591000I0J75000D01*
G01*
X123758000Y-163266000D01*
G75*
G02*
X123833000Y-163191000I75000J0D01*
G01*
X123983000Y-163191000D01*
G75*
G02*
X124058000Y-163266000I0J-75000D01*
G01*
G37*
G36*
G01*
X123558000Y-163266000D02*
X123558000Y-164591000D01*
G75*
G02*
X123483000Y-164666000I-75000J0D01*
G01*
X123333000Y-164666000D01*
G75*
G02*
X123258000Y-164591000I0J75000D01*
G01*
X123258000Y-163266000D01*
G75*
G02*
X123333000Y-163191000I75000J0D01*
G01*
X123483000Y-163191000D01*
G75*
G02*
X123558000Y-163266000I0J-75000D01*
G01*
G37*
G36*
G01*
X123058000Y-163266000D02*
X123058000Y-164591000D01*
G75*
G02*
X122983000Y-164666000I-75000J0D01*
G01*
X122833000Y-164666000D01*
G75*
G02*
X122758000Y-164591000I0J75000D01*
G01*
X122758000Y-163266000D01*
G75*
G02*
X122833000Y-163191000I75000J0D01*
G01*
X122983000Y-163191000D01*
G75*
G02*
X123058000Y-163266000I0J-75000D01*
G01*
G37*
G36*
G01*
X122558000Y-163266000D02*
X122558000Y-164591000D01*
G75*
G02*
X122483000Y-164666000I-75000J0D01*
G01*
X122333000Y-164666000D01*
G75*
G02*
X122258000Y-164591000I0J75000D01*
G01*
X122258000Y-163266000D01*
G75*
G02*
X122333000Y-163191000I75000J0D01*
G01*
X122483000Y-163191000D01*
G75*
G02*
X122558000Y-163266000I0J-75000D01*
G01*
G37*
G36*
G01*
X122058000Y-163266000D02*
X122058000Y-164591000D01*
G75*
G02*
X121983000Y-164666000I-75000J0D01*
G01*
X121833000Y-164666000D01*
G75*
G02*
X121758000Y-164591000I0J75000D01*
G01*
X121758000Y-163266000D01*
G75*
G02*
X121833000Y-163191000I75000J0D01*
G01*
X121983000Y-163191000D01*
G75*
G02*
X122058000Y-163266000I0J-75000D01*
G01*
G37*
G36*
G01*
X121558000Y-163266000D02*
X121558000Y-164591000D01*
G75*
G02*
X121483000Y-164666000I-75000J0D01*
G01*
X121333000Y-164666000D01*
G75*
G02*
X121258000Y-164591000I0J75000D01*
G01*
X121258000Y-163266000D01*
G75*
G02*
X121333000Y-163191000I75000J0D01*
G01*
X121483000Y-163191000D01*
G75*
G02*
X121558000Y-163266000I0J-75000D01*
G01*
G37*
G36*
G01*
X121058000Y-163266000D02*
X121058000Y-164591000D01*
G75*
G02*
X120983000Y-164666000I-75000J0D01*
G01*
X120833000Y-164666000D01*
G75*
G02*
X120758000Y-164591000I0J75000D01*
G01*
X120758000Y-163266000D01*
G75*
G02*
X120833000Y-163191000I75000J0D01*
G01*
X120983000Y-163191000D01*
G75*
G02*
X121058000Y-163266000I0J-75000D01*
G01*
G37*
G36*
G01*
X120558000Y-163266000D02*
X120558000Y-164591000D01*
G75*
G02*
X120483000Y-164666000I-75000J0D01*
G01*
X120333000Y-164666000D01*
G75*
G02*
X120258000Y-164591000I0J75000D01*
G01*
X120258000Y-163266000D01*
G75*
G02*
X120333000Y-163191000I75000J0D01*
G01*
X120483000Y-163191000D01*
G75*
G02*
X120558000Y-163266000I0J-75000D01*
G01*
G37*
G36*
G01*
X120058000Y-163266000D02*
X120058000Y-164591000D01*
G75*
G02*
X119983000Y-164666000I-75000J0D01*
G01*
X119833000Y-164666000D01*
G75*
G02*
X119758000Y-164591000I0J75000D01*
G01*
X119758000Y-163266000D01*
G75*
G02*
X119833000Y-163191000I75000J0D01*
G01*
X119983000Y-163191000D01*
G75*
G02*
X120058000Y-163266000I0J-75000D01*
G01*
G37*
G36*
G01*
X119558000Y-163266000D02*
X119558000Y-164591000D01*
G75*
G02*
X119483000Y-164666000I-75000J0D01*
G01*
X119333000Y-164666000D01*
G75*
G02*
X119258000Y-164591000I0J75000D01*
G01*
X119258000Y-163266000D01*
G75*
G02*
X119333000Y-163191000I75000J0D01*
G01*
X119483000Y-163191000D01*
G75*
G02*
X119558000Y-163266000I0J-75000D01*
G01*
G37*
G36*
G01*
X119058000Y-163266000D02*
X119058000Y-164591000D01*
G75*
G02*
X118983000Y-164666000I-75000J0D01*
G01*
X118833000Y-164666000D01*
G75*
G02*
X118758000Y-164591000I0J75000D01*
G01*
X118758000Y-163266000D01*
G75*
G02*
X118833000Y-163191000I75000J0D01*
G01*
X118983000Y-163191000D01*
G75*
G02*
X119058000Y-163266000I0J-75000D01*
G01*
G37*
G36*
G01*
X118558000Y-163266000D02*
X118558000Y-164591000D01*
G75*
G02*
X118483000Y-164666000I-75000J0D01*
G01*
X118333000Y-164666000D01*
G75*
G02*
X118258000Y-164591000I0J75000D01*
G01*
X118258000Y-163266000D01*
G75*
G02*
X118333000Y-163191000I75000J0D01*
G01*
X118483000Y-163191000D01*
G75*
G02*
X118558000Y-163266000I0J-75000D01*
G01*
G37*
G36*
G01*
X117733000Y-162441000D02*
X117733000Y-162591000D01*
G75*
G02*
X117658000Y-162666000I-75000J0D01*
G01*
X116333000Y-162666000D01*
G75*
G02*
X116258000Y-162591000I0J75000D01*
G01*
X116258000Y-162441000D01*
G75*
G02*
X116333000Y-162366000I75000J0D01*
G01*
X117658000Y-162366000D01*
G75*
G02*
X117733000Y-162441000I0J-75000D01*
G01*
G37*
G36*
G01*
X117733000Y-161941000D02*
X117733000Y-162091000D01*
G75*
G02*
X117658000Y-162166000I-75000J0D01*
G01*
X116333000Y-162166000D01*
G75*
G02*
X116258000Y-162091000I0J75000D01*
G01*
X116258000Y-161941000D01*
G75*
G02*
X116333000Y-161866000I75000J0D01*
G01*
X117658000Y-161866000D01*
G75*
G02*
X117733000Y-161941000I0J-75000D01*
G01*
G37*
G36*
G01*
X117733000Y-161441000D02*
X117733000Y-161591000D01*
G75*
G02*
X117658000Y-161666000I-75000J0D01*
G01*
X116333000Y-161666000D01*
G75*
G02*
X116258000Y-161591000I0J75000D01*
G01*
X116258000Y-161441000D01*
G75*
G02*
X116333000Y-161366000I75000J0D01*
G01*
X117658000Y-161366000D01*
G75*
G02*
X117733000Y-161441000I0J-75000D01*
G01*
G37*
G36*
G01*
X117733000Y-160941000D02*
X117733000Y-161091000D01*
G75*
G02*
X117658000Y-161166000I-75000J0D01*
G01*
X116333000Y-161166000D01*
G75*
G02*
X116258000Y-161091000I0J75000D01*
G01*
X116258000Y-160941000D01*
G75*
G02*
X116333000Y-160866000I75000J0D01*
G01*
X117658000Y-160866000D01*
G75*
G02*
X117733000Y-160941000I0J-75000D01*
G01*
G37*
G36*
G01*
X117733000Y-160441000D02*
X117733000Y-160591000D01*
G75*
G02*
X117658000Y-160666000I-75000J0D01*
G01*
X116333000Y-160666000D01*
G75*
G02*
X116258000Y-160591000I0J75000D01*
G01*
X116258000Y-160441000D01*
G75*
G02*
X116333000Y-160366000I75000J0D01*
G01*
X117658000Y-160366000D01*
G75*
G02*
X117733000Y-160441000I0J-75000D01*
G01*
G37*
G36*
G01*
X117733000Y-159941000D02*
X117733000Y-160091000D01*
G75*
G02*
X117658000Y-160166000I-75000J0D01*
G01*
X116333000Y-160166000D01*
G75*
G02*
X116258000Y-160091000I0J75000D01*
G01*
X116258000Y-159941000D01*
G75*
G02*
X116333000Y-159866000I75000J0D01*
G01*
X117658000Y-159866000D01*
G75*
G02*
X117733000Y-159941000I0J-75000D01*
G01*
G37*
G36*
G01*
X117733000Y-159441000D02*
X117733000Y-159591000D01*
G75*
G02*
X117658000Y-159666000I-75000J0D01*
G01*
X116333000Y-159666000D01*
G75*
G02*
X116258000Y-159591000I0J75000D01*
G01*
X116258000Y-159441000D01*
G75*
G02*
X116333000Y-159366000I75000J0D01*
G01*
X117658000Y-159366000D01*
G75*
G02*
X117733000Y-159441000I0J-75000D01*
G01*
G37*
G36*
G01*
X117733000Y-158941000D02*
X117733000Y-159091000D01*
G75*
G02*
X117658000Y-159166000I-75000J0D01*
G01*
X116333000Y-159166000D01*
G75*
G02*
X116258000Y-159091000I0J75000D01*
G01*
X116258000Y-158941000D01*
G75*
G02*
X116333000Y-158866000I75000J0D01*
G01*
X117658000Y-158866000D01*
G75*
G02*
X117733000Y-158941000I0J-75000D01*
G01*
G37*
G36*
G01*
X117733000Y-158441000D02*
X117733000Y-158591000D01*
G75*
G02*
X117658000Y-158666000I-75000J0D01*
G01*
X116333000Y-158666000D01*
G75*
G02*
X116258000Y-158591000I0J75000D01*
G01*
X116258000Y-158441000D01*
G75*
G02*
X116333000Y-158366000I75000J0D01*
G01*
X117658000Y-158366000D01*
G75*
G02*
X117733000Y-158441000I0J-75000D01*
G01*
G37*
G36*
G01*
X117733000Y-157941000D02*
X117733000Y-158091000D01*
G75*
G02*
X117658000Y-158166000I-75000J0D01*
G01*
X116333000Y-158166000D01*
G75*
G02*
X116258000Y-158091000I0J75000D01*
G01*
X116258000Y-157941000D01*
G75*
G02*
X116333000Y-157866000I75000J0D01*
G01*
X117658000Y-157866000D01*
G75*
G02*
X117733000Y-157941000I0J-75000D01*
G01*
G37*
G36*
G01*
X117733000Y-157441000D02*
X117733000Y-157591000D01*
G75*
G02*
X117658000Y-157666000I-75000J0D01*
G01*
X116333000Y-157666000D01*
G75*
G02*
X116258000Y-157591000I0J75000D01*
G01*
X116258000Y-157441000D01*
G75*
G02*
X116333000Y-157366000I75000J0D01*
G01*
X117658000Y-157366000D01*
G75*
G02*
X117733000Y-157441000I0J-75000D01*
G01*
G37*
G36*
G01*
X117733000Y-156941000D02*
X117733000Y-157091000D01*
G75*
G02*
X117658000Y-157166000I-75000J0D01*
G01*
X116333000Y-157166000D01*
G75*
G02*
X116258000Y-157091000I0J75000D01*
G01*
X116258000Y-156941000D01*
G75*
G02*
X116333000Y-156866000I75000J0D01*
G01*
X117658000Y-156866000D01*
G75*
G02*
X117733000Y-156941000I0J-75000D01*
G01*
G37*
G36*
G01*
X118558000Y-154941000D02*
X118558000Y-156266000D01*
G75*
G02*
X118483000Y-156341000I-75000J0D01*
G01*
X118333000Y-156341000D01*
G75*
G02*
X118258000Y-156266000I0J75000D01*
G01*
X118258000Y-154941000D01*
G75*
G02*
X118333000Y-154866000I75000J0D01*
G01*
X118483000Y-154866000D01*
G75*
G02*
X118558000Y-154941000I0J-75000D01*
G01*
G37*
G36*
G01*
X119058000Y-154941000D02*
X119058000Y-156266000D01*
G75*
G02*
X118983000Y-156341000I-75000J0D01*
G01*
X118833000Y-156341000D01*
G75*
G02*
X118758000Y-156266000I0J75000D01*
G01*
X118758000Y-154941000D01*
G75*
G02*
X118833000Y-154866000I75000J0D01*
G01*
X118983000Y-154866000D01*
G75*
G02*
X119058000Y-154941000I0J-75000D01*
G01*
G37*
G36*
G01*
X119558000Y-154941000D02*
X119558000Y-156266000D01*
G75*
G02*
X119483000Y-156341000I-75000J0D01*
G01*
X119333000Y-156341000D01*
G75*
G02*
X119258000Y-156266000I0J75000D01*
G01*
X119258000Y-154941000D01*
G75*
G02*
X119333000Y-154866000I75000J0D01*
G01*
X119483000Y-154866000D01*
G75*
G02*
X119558000Y-154941000I0J-75000D01*
G01*
G37*
G36*
G01*
X120058000Y-154941000D02*
X120058000Y-156266000D01*
G75*
G02*
X119983000Y-156341000I-75000J0D01*
G01*
X119833000Y-156341000D01*
G75*
G02*
X119758000Y-156266000I0J75000D01*
G01*
X119758000Y-154941000D01*
G75*
G02*
X119833000Y-154866000I75000J0D01*
G01*
X119983000Y-154866000D01*
G75*
G02*
X120058000Y-154941000I0J-75000D01*
G01*
G37*
G36*
G01*
X120558000Y-154941000D02*
X120558000Y-156266000D01*
G75*
G02*
X120483000Y-156341000I-75000J0D01*
G01*
X120333000Y-156341000D01*
G75*
G02*
X120258000Y-156266000I0J75000D01*
G01*
X120258000Y-154941000D01*
G75*
G02*
X120333000Y-154866000I75000J0D01*
G01*
X120483000Y-154866000D01*
G75*
G02*
X120558000Y-154941000I0J-75000D01*
G01*
G37*
G36*
G01*
X121058000Y-154941000D02*
X121058000Y-156266000D01*
G75*
G02*
X120983000Y-156341000I-75000J0D01*
G01*
X120833000Y-156341000D01*
G75*
G02*
X120758000Y-156266000I0J75000D01*
G01*
X120758000Y-154941000D01*
G75*
G02*
X120833000Y-154866000I75000J0D01*
G01*
X120983000Y-154866000D01*
G75*
G02*
X121058000Y-154941000I0J-75000D01*
G01*
G37*
G36*
G01*
X121558000Y-154941000D02*
X121558000Y-156266000D01*
G75*
G02*
X121483000Y-156341000I-75000J0D01*
G01*
X121333000Y-156341000D01*
G75*
G02*
X121258000Y-156266000I0J75000D01*
G01*
X121258000Y-154941000D01*
G75*
G02*
X121333000Y-154866000I75000J0D01*
G01*
X121483000Y-154866000D01*
G75*
G02*
X121558000Y-154941000I0J-75000D01*
G01*
G37*
G36*
G01*
X122058000Y-154941000D02*
X122058000Y-156266000D01*
G75*
G02*
X121983000Y-156341000I-75000J0D01*
G01*
X121833000Y-156341000D01*
G75*
G02*
X121758000Y-156266000I0J75000D01*
G01*
X121758000Y-154941000D01*
G75*
G02*
X121833000Y-154866000I75000J0D01*
G01*
X121983000Y-154866000D01*
G75*
G02*
X122058000Y-154941000I0J-75000D01*
G01*
G37*
G36*
G01*
X122558000Y-154941000D02*
X122558000Y-156266000D01*
G75*
G02*
X122483000Y-156341000I-75000J0D01*
G01*
X122333000Y-156341000D01*
G75*
G02*
X122258000Y-156266000I0J75000D01*
G01*
X122258000Y-154941000D01*
G75*
G02*
X122333000Y-154866000I75000J0D01*
G01*
X122483000Y-154866000D01*
G75*
G02*
X122558000Y-154941000I0J-75000D01*
G01*
G37*
G36*
G01*
X123058000Y-154941000D02*
X123058000Y-156266000D01*
G75*
G02*
X122983000Y-156341000I-75000J0D01*
G01*
X122833000Y-156341000D01*
G75*
G02*
X122758000Y-156266000I0J75000D01*
G01*
X122758000Y-154941000D01*
G75*
G02*
X122833000Y-154866000I75000J0D01*
G01*
X122983000Y-154866000D01*
G75*
G02*
X123058000Y-154941000I0J-75000D01*
G01*
G37*
G36*
G01*
X123558000Y-154941000D02*
X123558000Y-156266000D01*
G75*
G02*
X123483000Y-156341000I-75000J0D01*
G01*
X123333000Y-156341000D01*
G75*
G02*
X123258000Y-156266000I0J75000D01*
G01*
X123258000Y-154941000D01*
G75*
G02*
X123333000Y-154866000I75000J0D01*
G01*
X123483000Y-154866000D01*
G75*
G02*
X123558000Y-154941000I0J-75000D01*
G01*
G37*
G36*
G01*
X124058000Y-154941000D02*
X124058000Y-156266000D01*
G75*
G02*
X123983000Y-156341000I-75000J0D01*
G01*
X123833000Y-156341000D01*
G75*
G02*
X123758000Y-156266000I0J75000D01*
G01*
X123758000Y-154941000D01*
G75*
G02*
X123833000Y-154866000I75000J0D01*
G01*
X123983000Y-154866000D01*
G75*
G02*
X124058000Y-154941000I0J-75000D01*
G01*
G37*
G36*
G01*
X126058000Y-156941000D02*
X126058000Y-157091000D01*
G75*
G02*
X125983000Y-157166000I-75000J0D01*
G01*
X124658000Y-157166000D01*
G75*
G02*
X124583000Y-157091000I0J75000D01*
G01*
X124583000Y-156941000D01*
G75*
G02*
X124658000Y-156866000I75000J0D01*
G01*
X125983000Y-156866000D01*
G75*
G02*
X126058000Y-156941000I0J-75000D01*
G01*
G37*
G36*
G01*
X126058000Y-157441000D02*
X126058000Y-157591000D01*
G75*
G02*
X125983000Y-157666000I-75000J0D01*
G01*
X124658000Y-157666000D01*
G75*
G02*
X124583000Y-157591000I0J75000D01*
G01*
X124583000Y-157441000D01*
G75*
G02*
X124658000Y-157366000I75000J0D01*
G01*
X125983000Y-157366000D01*
G75*
G02*
X126058000Y-157441000I0J-75000D01*
G01*
G37*
G36*
G01*
X126058000Y-157941000D02*
X126058000Y-158091000D01*
G75*
G02*
X125983000Y-158166000I-75000J0D01*
G01*
X124658000Y-158166000D01*
G75*
G02*
X124583000Y-158091000I0J75000D01*
G01*
X124583000Y-157941000D01*
G75*
G02*
X124658000Y-157866000I75000J0D01*
G01*
X125983000Y-157866000D01*
G75*
G02*
X126058000Y-157941000I0J-75000D01*
G01*
G37*
G36*
G01*
X126058000Y-158441000D02*
X126058000Y-158591000D01*
G75*
G02*
X125983000Y-158666000I-75000J0D01*
G01*
X124658000Y-158666000D01*
G75*
G02*
X124583000Y-158591000I0J75000D01*
G01*
X124583000Y-158441000D01*
G75*
G02*
X124658000Y-158366000I75000J0D01*
G01*
X125983000Y-158366000D01*
G75*
G02*
X126058000Y-158441000I0J-75000D01*
G01*
G37*
G36*
G01*
X126058000Y-158941000D02*
X126058000Y-159091000D01*
G75*
G02*
X125983000Y-159166000I-75000J0D01*
G01*
X124658000Y-159166000D01*
G75*
G02*
X124583000Y-159091000I0J75000D01*
G01*
X124583000Y-158941000D01*
G75*
G02*
X124658000Y-158866000I75000J0D01*
G01*
X125983000Y-158866000D01*
G75*
G02*
X126058000Y-158941000I0J-75000D01*
G01*
G37*
G36*
G01*
X126058000Y-159441000D02*
X126058000Y-159591000D01*
G75*
G02*
X125983000Y-159666000I-75000J0D01*
G01*
X124658000Y-159666000D01*
G75*
G02*
X124583000Y-159591000I0J75000D01*
G01*
X124583000Y-159441000D01*
G75*
G02*
X124658000Y-159366000I75000J0D01*
G01*
X125983000Y-159366000D01*
G75*
G02*
X126058000Y-159441000I0J-75000D01*
G01*
G37*
G36*
G01*
X126058000Y-159941000D02*
X126058000Y-160091000D01*
G75*
G02*
X125983000Y-160166000I-75000J0D01*
G01*
X124658000Y-160166000D01*
G75*
G02*
X124583000Y-160091000I0J75000D01*
G01*
X124583000Y-159941000D01*
G75*
G02*
X124658000Y-159866000I75000J0D01*
G01*
X125983000Y-159866000D01*
G75*
G02*
X126058000Y-159941000I0J-75000D01*
G01*
G37*
G36*
G01*
X126058000Y-160441000D02*
X126058000Y-160591000D01*
G75*
G02*
X125983000Y-160666000I-75000J0D01*
G01*
X124658000Y-160666000D01*
G75*
G02*
X124583000Y-160591000I0J75000D01*
G01*
X124583000Y-160441000D01*
G75*
G02*
X124658000Y-160366000I75000J0D01*
G01*
X125983000Y-160366000D01*
G75*
G02*
X126058000Y-160441000I0J-75000D01*
G01*
G37*
G36*
G01*
X126058000Y-160941000D02*
X126058000Y-161091000D01*
G75*
G02*
X125983000Y-161166000I-75000J0D01*
G01*
X124658000Y-161166000D01*
G75*
G02*
X124583000Y-161091000I0J75000D01*
G01*
X124583000Y-160941000D01*
G75*
G02*
X124658000Y-160866000I75000J0D01*
G01*
X125983000Y-160866000D01*
G75*
G02*
X126058000Y-160941000I0J-75000D01*
G01*
G37*
G36*
G01*
X126058000Y-161441000D02*
X126058000Y-161591000D01*
G75*
G02*
X125983000Y-161666000I-75000J0D01*
G01*
X124658000Y-161666000D01*
G75*
G02*
X124583000Y-161591000I0J75000D01*
G01*
X124583000Y-161441000D01*
G75*
G02*
X124658000Y-161366000I75000J0D01*
G01*
X125983000Y-161366000D01*
G75*
G02*
X126058000Y-161441000I0J-75000D01*
G01*
G37*
G36*
G01*
X126058000Y-161941000D02*
X126058000Y-162091000D01*
G75*
G02*
X125983000Y-162166000I-75000J0D01*
G01*
X124658000Y-162166000D01*
G75*
G02*
X124583000Y-162091000I0J75000D01*
G01*
X124583000Y-161941000D01*
G75*
G02*
X124658000Y-161866000I75000J0D01*
G01*
X125983000Y-161866000D01*
G75*
G02*
X126058000Y-161941000I0J-75000D01*
G01*
G37*
G36*
G01*
X126058000Y-162441000D02*
X126058000Y-162591000D01*
G75*
G02*
X125983000Y-162666000I-75000J0D01*
G01*
X124658000Y-162666000D01*
G75*
G02*
X124583000Y-162591000I0J75000D01*
G01*
X124583000Y-162441000D01*
G75*
G02*
X124658000Y-162366000I75000J0D01*
G01*
X125983000Y-162366000D01*
G75*
G02*
X126058000Y-162441000I0J-75000D01*
G01*
G37*
%TD*%
%TO.C,D9*%
G36*
G01*
X119782000Y-124770000D02*
X119782000Y-123445000D01*
G75*
G02*
X119857000Y-123370000I75000J0D01*
G01*
X120007000Y-123370000D01*
G75*
G02*
X120082000Y-123445000I0J-75000D01*
G01*
X120082000Y-124770000D01*
G75*
G02*
X120007000Y-124845000I-75000J0D01*
G01*
X119857000Y-124845000D01*
G75*
G02*
X119782000Y-124770000I0J75000D01*
G01*
G37*
G36*
G01*
X120282000Y-124770000D02*
X120282000Y-123445000D01*
G75*
G02*
X120357000Y-123370000I75000J0D01*
G01*
X120507000Y-123370000D01*
G75*
G02*
X120582000Y-123445000I0J-75000D01*
G01*
X120582000Y-124770000D01*
G75*
G02*
X120507000Y-124845000I-75000J0D01*
G01*
X120357000Y-124845000D01*
G75*
G02*
X120282000Y-124770000I0J75000D01*
G01*
G37*
G36*
G01*
X120782000Y-124770000D02*
X120782000Y-123445000D01*
G75*
G02*
X120857000Y-123370000I75000J0D01*
G01*
X121007000Y-123370000D01*
G75*
G02*
X121082000Y-123445000I0J-75000D01*
G01*
X121082000Y-124770000D01*
G75*
G02*
X121007000Y-124845000I-75000J0D01*
G01*
X120857000Y-124845000D01*
G75*
G02*
X120782000Y-124770000I0J75000D01*
G01*
G37*
G36*
G01*
X121282000Y-124770000D02*
X121282000Y-123445000D01*
G75*
G02*
X121357000Y-123370000I75000J0D01*
G01*
X121507000Y-123370000D01*
G75*
G02*
X121582000Y-123445000I0J-75000D01*
G01*
X121582000Y-124770000D01*
G75*
G02*
X121507000Y-124845000I-75000J0D01*
G01*
X121357000Y-124845000D01*
G75*
G02*
X121282000Y-124770000I0J75000D01*
G01*
G37*
G36*
G01*
X121782000Y-124770000D02*
X121782000Y-123445000D01*
G75*
G02*
X121857000Y-123370000I75000J0D01*
G01*
X122007000Y-123370000D01*
G75*
G02*
X122082000Y-123445000I0J-75000D01*
G01*
X122082000Y-124770000D01*
G75*
G02*
X122007000Y-124845000I-75000J0D01*
G01*
X121857000Y-124845000D01*
G75*
G02*
X121782000Y-124770000I0J75000D01*
G01*
G37*
G36*
G01*
X122282000Y-124770000D02*
X122282000Y-123445000D01*
G75*
G02*
X122357000Y-123370000I75000J0D01*
G01*
X122507000Y-123370000D01*
G75*
G02*
X122582000Y-123445000I0J-75000D01*
G01*
X122582000Y-124770000D01*
G75*
G02*
X122507000Y-124845000I-75000J0D01*
G01*
X122357000Y-124845000D01*
G75*
G02*
X122282000Y-124770000I0J75000D01*
G01*
G37*
G36*
G01*
X122782000Y-124770000D02*
X122782000Y-123445000D01*
G75*
G02*
X122857000Y-123370000I75000J0D01*
G01*
X123007000Y-123370000D01*
G75*
G02*
X123082000Y-123445000I0J-75000D01*
G01*
X123082000Y-124770000D01*
G75*
G02*
X123007000Y-124845000I-75000J0D01*
G01*
X122857000Y-124845000D01*
G75*
G02*
X122782000Y-124770000I0J75000D01*
G01*
G37*
G36*
G01*
X123282000Y-124770000D02*
X123282000Y-123445000D01*
G75*
G02*
X123357000Y-123370000I75000J0D01*
G01*
X123507000Y-123370000D01*
G75*
G02*
X123582000Y-123445000I0J-75000D01*
G01*
X123582000Y-124770000D01*
G75*
G02*
X123507000Y-124845000I-75000J0D01*
G01*
X123357000Y-124845000D01*
G75*
G02*
X123282000Y-124770000I0J75000D01*
G01*
G37*
G36*
G01*
X123782000Y-124770000D02*
X123782000Y-123445000D01*
G75*
G02*
X123857000Y-123370000I75000J0D01*
G01*
X124007000Y-123370000D01*
G75*
G02*
X124082000Y-123445000I0J-75000D01*
G01*
X124082000Y-124770000D01*
G75*
G02*
X124007000Y-124845000I-75000J0D01*
G01*
X123857000Y-124845000D01*
G75*
G02*
X123782000Y-124770000I0J75000D01*
G01*
G37*
G36*
G01*
X124282000Y-124770000D02*
X124282000Y-123445000D01*
G75*
G02*
X124357000Y-123370000I75000J0D01*
G01*
X124507000Y-123370000D01*
G75*
G02*
X124582000Y-123445000I0J-75000D01*
G01*
X124582000Y-124770000D01*
G75*
G02*
X124507000Y-124845000I-75000J0D01*
G01*
X124357000Y-124845000D01*
G75*
G02*
X124282000Y-124770000I0J75000D01*
G01*
G37*
G36*
G01*
X124782000Y-124770000D02*
X124782000Y-123445000D01*
G75*
G02*
X124857000Y-123370000I75000J0D01*
G01*
X125007000Y-123370000D01*
G75*
G02*
X125082000Y-123445000I0J-75000D01*
G01*
X125082000Y-124770000D01*
G75*
G02*
X125007000Y-124845000I-75000J0D01*
G01*
X124857000Y-124845000D01*
G75*
G02*
X124782000Y-124770000I0J75000D01*
G01*
G37*
G36*
G01*
X125282000Y-124770000D02*
X125282000Y-123445000D01*
G75*
G02*
X125357000Y-123370000I75000J0D01*
G01*
X125507000Y-123370000D01*
G75*
G02*
X125582000Y-123445000I0J-75000D01*
G01*
X125582000Y-124770000D01*
G75*
G02*
X125507000Y-124845000I-75000J0D01*
G01*
X125357000Y-124845000D01*
G75*
G02*
X125282000Y-124770000I0J75000D01*
G01*
G37*
G36*
G01*
X126107000Y-125595000D02*
X126107000Y-125445000D01*
G75*
G02*
X126182000Y-125370000I75000J0D01*
G01*
X127507000Y-125370000D01*
G75*
G02*
X127582000Y-125445000I0J-75000D01*
G01*
X127582000Y-125595000D01*
G75*
G02*
X127507000Y-125670000I-75000J0D01*
G01*
X126182000Y-125670000D01*
G75*
G02*
X126107000Y-125595000I0J75000D01*
G01*
G37*
G36*
G01*
X126107000Y-126095000D02*
X126107000Y-125945000D01*
G75*
G02*
X126182000Y-125870000I75000J0D01*
G01*
X127507000Y-125870000D01*
G75*
G02*
X127582000Y-125945000I0J-75000D01*
G01*
X127582000Y-126095000D01*
G75*
G02*
X127507000Y-126170000I-75000J0D01*
G01*
X126182000Y-126170000D01*
G75*
G02*
X126107000Y-126095000I0J75000D01*
G01*
G37*
G36*
G01*
X126107000Y-126595000D02*
X126107000Y-126445000D01*
G75*
G02*
X126182000Y-126370000I75000J0D01*
G01*
X127507000Y-126370000D01*
G75*
G02*
X127582000Y-126445000I0J-75000D01*
G01*
X127582000Y-126595000D01*
G75*
G02*
X127507000Y-126670000I-75000J0D01*
G01*
X126182000Y-126670000D01*
G75*
G02*
X126107000Y-126595000I0J75000D01*
G01*
G37*
G36*
G01*
X126107000Y-127095000D02*
X126107000Y-126945000D01*
G75*
G02*
X126182000Y-126870000I75000J0D01*
G01*
X127507000Y-126870000D01*
G75*
G02*
X127582000Y-126945000I0J-75000D01*
G01*
X127582000Y-127095000D01*
G75*
G02*
X127507000Y-127170000I-75000J0D01*
G01*
X126182000Y-127170000D01*
G75*
G02*
X126107000Y-127095000I0J75000D01*
G01*
G37*
G36*
G01*
X126107000Y-127595000D02*
X126107000Y-127445000D01*
G75*
G02*
X126182000Y-127370000I75000J0D01*
G01*
X127507000Y-127370000D01*
G75*
G02*
X127582000Y-127445000I0J-75000D01*
G01*
X127582000Y-127595000D01*
G75*
G02*
X127507000Y-127670000I-75000J0D01*
G01*
X126182000Y-127670000D01*
G75*
G02*
X126107000Y-127595000I0J75000D01*
G01*
G37*
G36*
G01*
X126107000Y-128095000D02*
X126107000Y-127945000D01*
G75*
G02*
X126182000Y-127870000I75000J0D01*
G01*
X127507000Y-127870000D01*
G75*
G02*
X127582000Y-127945000I0J-75000D01*
G01*
X127582000Y-128095000D01*
G75*
G02*
X127507000Y-128170000I-75000J0D01*
G01*
X126182000Y-128170000D01*
G75*
G02*
X126107000Y-128095000I0J75000D01*
G01*
G37*
G36*
G01*
X126107000Y-128595000D02*
X126107000Y-128445000D01*
G75*
G02*
X126182000Y-128370000I75000J0D01*
G01*
X127507000Y-128370000D01*
G75*
G02*
X127582000Y-128445000I0J-75000D01*
G01*
X127582000Y-128595000D01*
G75*
G02*
X127507000Y-128670000I-75000J0D01*
G01*
X126182000Y-128670000D01*
G75*
G02*
X126107000Y-128595000I0J75000D01*
G01*
G37*
G36*
G01*
X126107000Y-129095000D02*
X126107000Y-128945000D01*
G75*
G02*
X126182000Y-128870000I75000J0D01*
G01*
X127507000Y-128870000D01*
G75*
G02*
X127582000Y-128945000I0J-75000D01*
G01*
X127582000Y-129095000D01*
G75*
G02*
X127507000Y-129170000I-75000J0D01*
G01*
X126182000Y-129170000D01*
G75*
G02*
X126107000Y-129095000I0J75000D01*
G01*
G37*
G36*
G01*
X126107000Y-129595000D02*
X126107000Y-129445000D01*
G75*
G02*
X126182000Y-129370000I75000J0D01*
G01*
X127507000Y-129370000D01*
G75*
G02*
X127582000Y-129445000I0J-75000D01*
G01*
X127582000Y-129595000D01*
G75*
G02*
X127507000Y-129670000I-75000J0D01*
G01*
X126182000Y-129670000D01*
G75*
G02*
X126107000Y-129595000I0J75000D01*
G01*
G37*
G36*
G01*
X126107000Y-130095000D02*
X126107000Y-129945000D01*
G75*
G02*
X126182000Y-129870000I75000J0D01*
G01*
X127507000Y-129870000D01*
G75*
G02*
X127582000Y-129945000I0J-75000D01*
G01*
X127582000Y-130095000D01*
G75*
G02*
X127507000Y-130170000I-75000J0D01*
G01*
X126182000Y-130170000D01*
G75*
G02*
X126107000Y-130095000I0J75000D01*
G01*
G37*
G36*
G01*
X126107000Y-130595000D02*
X126107000Y-130445000D01*
G75*
G02*
X126182000Y-130370000I75000J0D01*
G01*
X127507000Y-130370000D01*
G75*
G02*
X127582000Y-130445000I0J-75000D01*
G01*
X127582000Y-130595000D01*
G75*
G02*
X127507000Y-130670000I-75000J0D01*
G01*
X126182000Y-130670000D01*
G75*
G02*
X126107000Y-130595000I0J75000D01*
G01*
G37*
G36*
G01*
X126107000Y-131095000D02*
X126107000Y-130945000D01*
G75*
G02*
X126182000Y-130870000I75000J0D01*
G01*
X127507000Y-130870000D01*
G75*
G02*
X127582000Y-130945000I0J-75000D01*
G01*
X127582000Y-131095000D01*
G75*
G02*
X127507000Y-131170000I-75000J0D01*
G01*
X126182000Y-131170000D01*
G75*
G02*
X126107000Y-131095000I0J75000D01*
G01*
G37*
G36*
G01*
X125282000Y-133095000D02*
X125282000Y-131770000D01*
G75*
G02*
X125357000Y-131695000I75000J0D01*
G01*
X125507000Y-131695000D01*
G75*
G02*
X125582000Y-131770000I0J-75000D01*
G01*
X125582000Y-133095000D01*
G75*
G02*
X125507000Y-133170000I-75000J0D01*
G01*
X125357000Y-133170000D01*
G75*
G02*
X125282000Y-133095000I0J75000D01*
G01*
G37*
G36*
G01*
X124782000Y-133095000D02*
X124782000Y-131770000D01*
G75*
G02*
X124857000Y-131695000I75000J0D01*
G01*
X125007000Y-131695000D01*
G75*
G02*
X125082000Y-131770000I0J-75000D01*
G01*
X125082000Y-133095000D01*
G75*
G02*
X125007000Y-133170000I-75000J0D01*
G01*
X124857000Y-133170000D01*
G75*
G02*
X124782000Y-133095000I0J75000D01*
G01*
G37*
G36*
G01*
X124282000Y-133095000D02*
X124282000Y-131770000D01*
G75*
G02*
X124357000Y-131695000I75000J0D01*
G01*
X124507000Y-131695000D01*
G75*
G02*
X124582000Y-131770000I0J-75000D01*
G01*
X124582000Y-133095000D01*
G75*
G02*
X124507000Y-133170000I-75000J0D01*
G01*
X124357000Y-133170000D01*
G75*
G02*
X124282000Y-133095000I0J75000D01*
G01*
G37*
G36*
G01*
X123782000Y-133095000D02*
X123782000Y-131770000D01*
G75*
G02*
X123857000Y-131695000I75000J0D01*
G01*
X124007000Y-131695000D01*
G75*
G02*
X124082000Y-131770000I0J-75000D01*
G01*
X124082000Y-133095000D01*
G75*
G02*
X124007000Y-133170000I-75000J0D01*
G01*
X123857000Y-133170000D01*
G75*
G02*
X123782000Y-133095000I0J75000D01*
G01*
G37*
G36*
G01*
X123282000Y-133095000D02*
X123282000Y-131770000D01*
G75*
G02*
X123357000Y-131695000I75000J0D01*
G01*
X123507000Y-131695000D01*
G75*
G02*
X123582000Y-131770000I0J-75000D01*
G01*
X123582000Y-133095000D01*
G75*
G02*
X123507000Y-133170000I-75000J0D01*
G01*
X123357000Y-133170000D01*
G75*
G02*
X123282000Y-133095000I0J75000D01*
G01*
G37*
G36*
G01*
X122782000Y-133095000D02*
X122782000Y-131770000D01*
G75*
G02*
X122857000Y-131695000I75000J0D01*
G01*
X123007000Y-131695000D01*
G75*
G02*
X123082000Y-131770000I0J-75000D01*
G01*
X123082000Y-133095000D01*
G75*
G02*
X123007000Y-133170000I-75000J0D01*
G01*
X122857000Y-133170000D01*
G75*
G02*
X122782000Y-133095000I0J75000D01*
G01*
G37*
G36*
G01*
X122282000Y-133095000D02*
X122282000Y-131770000D01*
G75*
G02*
X122357000Y-131695000I75000J0D01*
G01*
X122507000Y-131695000D01*
G75*
G02*
X122582000Y-131770000I0J-75000D01*
G01*
X122582000Y-133095000D01*
G75*
G02*
X122507000Y-133170000I-75000J0D01*
G01*
X122357000Y-133170000D01*
G75*
G02*
X122282000Y-133095000I0J75000D01*
G01*
G37*
G36*
G01*
X121782000Y-133095000D02*
X121782000Y-131770000D01*
G75*
G02*
X121857000Y-131695000I75000J0D01*
G01*
X122007000Y-131695000D01*
G75*
G02*
X122082000Y-131770000I0J-75000D01*
G01*
X122082000Y-133095000D01*
G75*
G02*
X122007000Y-133170000I-75000J0D01*
G01*
X121857000Y-133170000D01*
G75*
G02*
X121782000Y-133095000I0J75000D01*
G01*
G37*
G36*
G01*
X121282000Y-133095000D02*
X121282000Y-131770000D01*
G75*
G02*
X121357000Y-131695000I75000J0D01*
G01*
X121507000Y-131695000D01*
G75*
G02*
X121582000Y-131770000I0J-75000D01*
G01*
X121582000Y-133095000D01*
G75*
G02*
X121507000Y-133170000I-75000J0D01*
G01*
X121357000Y-133170000D01*
G75*
G02*
X121282000Y-133095000I0J75000D01*
G01*
G37*
G36*
G01*
X120782000Y-133095000D02*
X120782000Y-131770000D01*
G75*
G02*
X120857000Y-131695000I75000J0D01*
G01*
X121007000Y-131695000D01*
G75*
G02*
X121082000Y-131770000I0J-75000D01*
G01*
X121082000Y-133095000D01*
G75*
G02*
X121007000Y-133170000I-75000J0D01*
G01*
X120857000Y-133170000D01*
G75*
G02*
X120782000Y-133095000I0J75000D01*
G01*
G37*
G36*
G01*
X120282000Y-133095000D02*
X120282000Y-131770000D01*
G75*
G02*
X120357000Y-131695000I75000J0D01*
G01*
X120507000Y-131695000D01*
G75*
G02*
X120582000Y-131770000I0J-75000D01*
G01*
X120582000Y-133095000D01*
G75*
G02*
X120507000Y-133170000I-75000J0D01*
G01*
X120357000Y-133170000D01*
G75*
G02*
X120282000Y-133095000I0J75000D01*
G01*
G37*
G36*
G01*
X119782000Y-133095000D02*
X119782000Y-131770000D01*
G75*
G02*
X119857000Y-131695000I75000J0D01*
G01*
X120007000Y-131695000D01*
G75*
G02*
X120082000Y-131770000I0J-75000D01*
G01*
X120082000Y-133095000D01*
G75*
G02*
X120007000Y-133170000I-75000J0D01*
G01*
X119857000Y-133170000D01*
G75*
G02*
X119782000Y-133095000I0J75000D01*
G01*
G37*
G36*
G01*
X117782000Y-131095000D02*
X117782000Y-130945000D01*
G75*
G02*
X117857000Y-130870000I75000J0D01*
G01*
X119182000Y-130870000D01*
G75*
G02*
X119257000Y-130945000I0J-75000D01*
G01*
X119257000Y-131095000D01*
G75*
G02*
X119182000Y-131170000I-75000J0D01*
G01*
X117857000Y-131170000D01*
G75*
G02*
X117782000Y-131095000I0J75000D01*
G01*
G37*
G36*
G01*
X117782000Y-130595000D02*
X117782000Y-130445000D01*
G75*
G02*
X117857000Y-130370000I75000J0D01*
G01*
X119182000Y-130370000D01*
G75*
G02*
X119257000Y-130445000I0J-75000D01*
G01*
X119257000Y-130595000D01*
G75*
G02*
X119182000Y-130670000I-75000J0D01*
G01*
X117857000Y-130670000D01*
G75*
G02*
X117782000Y-130595000I0J75000D01*
G01*
G37*
G36*
G01*
X117782000Y-130095000D02*
X117782000Y-129945000D01*
G75*
G02*
X117857000Y-129870000I75000J0D01*
G01*
X119182000Y-129870000D01*
G75*
G02*
X119257000Y-129945000I0J-75000D01*
G01*
X119257000Y-130095000D01*
G75*
G02*
X119182000Y-130170000I-75000J0D01*
G01*
X117857000Y-130170000D01*
G75*
G02*
X117782000Y-130095000I0J75000D01*
G01*
G37*
G36*
G01*
X117782000Y-129595000D02*
X117782000Y-129445000D01*
G75*
G02*
X117857000Y-129370000I75000J0D01*
G01*
X119182000Y-129370000D01*
G75*
G02*
X119257000Y-129445000I0J-75000D01*
G01*
X119257000Y-129595000D01*
G75*
G02*
X119182000Y-129670000I-75000J0D01*
G01*
X117857000Y-129670000D01*
G75*
G02*
X117782000Y-129595000I0J75000D01*
G01*
G37*
G36*
G01*
X117782000Y-129095000D02*
X117782000Y-128945000D01*
G75*
G02*
X117857000Y-128870000I75000J0D01*
G01*
X119182000Y-128870000D01*
G75*
G02*
X119257000Y-128945000I0J-75000D01*
G01*
X119257000Y-129095000D01*
G75*
G02*
X119182000Y-129170000I-75000J0D01*
G01*
X117857000Y-129170000D01*
G75*
G02*
X117782000Y-129095000I0J75000D01*
G01*
G37*
G36*
G01*
X117782000Y-128595000D02*
X117782000Y-128445000D01*
G75*
G02*
X117857000Y-128370000I75000J0D01*
G01*
X119182000Y-128370000D01*
G75*
G02*
X119257000Y-128445000I0J-75000D01*
G01*
X119257000Y-128595000D01*
G75*
G02*
X119182000Y-128670000I-75000J0D01*
G01*
X117857000Y-128670000D01*
G75*
G02*
X117782000Y-128595000I0J75000D01*
G01*
G37*
G36*
G01*
X117782000Y-128095000D02*
X117782000Y-127945000D01*
G75*
G02*
X117857000Y-127870000I75000J0D01*
G01*
X119182000Y-127870000D01*
G75*
G02*
X119257000Y-127945000I0J-75000D01*
G01*
X119257000Y-128095000D01*
G75*
G02*
X119182000Y-128170000I-75000J0D01*
G01*
X117857000Y-128170000D01*
G75*
G02*
X117782000Y-128095000I0J75000D01*
G01*
G37*
G36*
G01*
X117782000Y-127595000D02*
X117782000Y-127445000D01*
G75*
G02*
X117857000Y-127370000I75000J0D01*
G01*
X119182000Y-127370000D01*
G75*
G02*
X119257000Y-127445000I0J-75000D01*
G01*
X119257000Y-127595000D01*
G75*
G02*
X119182000Y-127670000I-75000J0D01*
G01*
X117857000Y-127670000D01*
G75*
G02*
X117782000Y-127595000I0J75000D01*
G01*
G37*
G36*
G01*
X117782000Y-127095000D02*
X117782000Y-126945000D01*
G75*
G02*
X117857000Y-126870000I75000J0D01*
G01*
X119182000Y-126870000D01*
G75*
G02*
X119257000Y-126945000I0J-75000D01*
G01*
X119257000Y-127095000D01*
G75*
G02*
X119182000Y-127170000I-75000J0D01*
G01*
X117857000Y-127170000D01*
G75*
G02*
X117782000Y-127095000I0J75000D01*
G01*
G37*
G36*
G01*
X117782000Y-126595000D02*
X117782000Y-126445000D01*
G75*
G02*
X117857000Y-126370000I75000J0D01*
G01*
X119182000Y-126370000D01*
G75*
G02*
X119257000Y-126445000I0J-75000D01*
G01*
X119257000Y-126595000D01*
G75*
G02*
X119182000Y-126670000I-75000J0D01*
G01*
X117857000Y-126670000D01*
G75*
G02*
X117782000Y-126595000I0J75000D01*
G01*
G37*
G36*
G01*
X117782000Y-126095000D02*
X117782000Y-125945000D01*
G75*
G02*
X117857000Y-125870000I75000J0D01*
G01*
X119182000Y-125870000D01*
G75*
G02*
X119257000Y-125945000I0J-75000D01*
G01*
X119257000Y-126095000D01*
G75*
G02*
X119182000Y-126170000I-75000J0D01*
G01*
X117857000Y-126170000D01*
G75*
G02*
X117782000Y-126095000I0J75000D01*
G01*
G37*
G36*
G01*
X117782000Y-125595000D02*
X117782000Y-125445000D01*
G75*
G02*
X117857000Y-125370000I75000J0D01*
G01*
X119182000Y-125370000D01*
G75*
G02*
X119257000Y-125445000I0J-75000D01*
G01*
X119257000Y-125595000D01*
G75*
G02*
X119182000Y-125670000I-75000J0D01*
G01*
X117857000Y-125670000D01*
G75*
G02*
X117782000Y-125595000I0J75000D01*
G01*
G37*
%TD*%
D21*
%TO.C,D6*%
X79502000Y-130556000D03*
G36*
G01*
X77939500Y-131931000D02*
X77189500Y-131931000D01*
G75*
G02*
X77127000Y-131868500I0J62500D01*
G01*
X77127000Y-131743500D01*
G75*
G02*
X77189500Y-131681000I62500J0D01*
G01*
X77939500Y-131681000D01*
G75*
G02*
X78002000Y-131743500I0J-62500D01*
G01*
X78002000Y-131868500D01*
G75*
G02*
X77939500Y-131931000I-62500J0D01*
G01*
G37*
G36*
G01*
X77939500Y-131431000D02*
X77189500Y-131431000D01*
G75*
G02*
X77127000Y-131368500I0J62500D01*
G01*
X77127000Y-131243500D01*
G75*
G02*
X77189500Y-131181000I62500J0D01*
G01*
X77939500Y-131181000D01*
G75*
G02*
X78002000Y-131243500I0J-62500D01*
G01*
X78002000Y-131368500D01*
G75*
G02*
X77939500Y-131431000I-62500J0D01*
G01*
G37*
G36*
G01*
X77939500Y-130931000D02*
X77189500Y-130931000D01*
G75*
G02*
X77127000Y-130868500I0J62500D01*
G01*
X77127000Y-130743500D01*
G75*
G02*
X77189500Y-130681000I62500J0D01*
G01*
X77939500Y-130681000D01*
G75*
G02*
X78002000Y-130743500I0J-62500D01*
G01*
X78002000Y-130868500D01*
G75*
G02*
X77939500Y-130931000I-62500J0D01*
G01*
G37*
G36*
G01*
X77939500Y-130431000D02*
X77189500Y-130431000D01*
G75*
G02*
X77127000Y-130368500I0J62500D01*
G01*
X77127000Y-130243500D01*
G75*
G02*
X77189500Y-130181000I62500J0D01*
G01*
X77939500Y-130181000D01*
G75*
G02*
X78002000Y-130243500I0J-62500D01*
G01*
X78002000Y-130368500D01*
G75*
G02*
X77939500Y-130431000I-62500J0D01*
G01*
G37*
G36*
G01*
X77939500Y-129931000D02*
X77189500Y-129931000D01*
G75*
G02*
X77127000Y-129868500I0J62500D01*
G01*
X77127000Y-129743500D01*
G75*
G02*
X77189500Y-129681000I62500J0D01*
G01*
X77939500Y-129681000D01*
G75*
G02*
X78002000Y-129743500I0J-62500D01*
G01*
X78002000Y-129868500D01*
G75*
G02*
X77939500Y-129931000I-62500J0D01*
G01*
G37*
G36*
G01*
X77939500Y-129431000D02*
X77189500Y-129431000D01*
G75*
G02*
X77127000Y-129368500I0J62500D01*
G01*
X77127000Y-129243500D01*
G75*
G02*
X77189500Y-129181000I62500J0D01*
G01*
X77939500Y-129181000D01*
G75*
G02*
X78002000Y-129243500I0J-62500D01*
G01*
X78002000Y-129368500D01*
G75*
G02*
X77939500Y-129431000I-62500J0D01*
G01*
G37*
G36*
G01*
X78314500Y-129056000D02*
X78189500Y-129056000D01*
G75*
G02*
X78127000Y-128993500I0J62500D01*
G01*
X78127000Y-128243500D01*
G75*
G02*
X78189500Y-128181000I62500J0D01*
G01*
X78314500Y-128181000D01*
G75*
G02*
X78377000Y-128243500I0J-62500D01*
G01*
X78377000Y-128993500D01*
G75*
G02*
X78314500Y-129056000I-62500J0D01*
G01*
G37*
G36*
G01*
X78814500Y-129056000D02*
X78689500Y-129056000D01*
G75*
G02*
X78627000Y-128993500I0J62500D01*
G01*
X78627000Y-128243500D01*
G75*
G02*
X78689500Y-128181000I62500J0D01*
G01*
X78814500Y-128181000D01*
G75*
G02*
X78877000Y-128243500I0J-62500D01*
G01*
X78877000Y-128993500D01*
G75*
G02*
X78814500Y-129056000I-62500J0D01*
G01*
G37*
G36*
G01*
X79314500Y-129056000D02*
X79189500Y-129056000D01*
G75*
G02*
X79127000Y-128993500I0J62500D01*
G01*
X79127000Y-128243500D01*
G75*
G02*
X79189500Y-128181000I62500J0D01*
G01*
X79314500Y-128181000D01*
G75*
G02*
X79377000Y-128243500I0J-62500D01*
G01*
X79377000Y-128993500D01*
G75*
G02*
X79314500Y-129056000I-62500J0D01*
G01*
G37*
G36*
G01*
X79814500Y-129056000D02*
X79689500Y-129056000D01*
G75*
G02*
X79627000Y-128993500I0J62500D01*
G01*
X79627000Y-128243500D01*
G75*
G02*
X79689500Y-128181000I62500J0D01*
G01*
X79814500Y-128181000D01*
G75*
G02*
X79877000Y-128243500I0J-62500D01*
G01*
X79877000Y-128993500D01*
G75*
G02*
X79814500Y-129056000I-62500J0D01*
G01*
G37*
G36*
G01*
X80314500Y-129056000D02*
X80189500Y-129056000D01*
G75*
G02*
X80127000Y-128993500I0J62500D01*
G01*
X80127000Y-128243500D01*
G75*
G02*
X80189500Y-128181000I62500J0D01*
G01*
X80314500Y-128181000D01*
G75*
G02*
X80377000Y-128243500I0J-62500D01*
G01*
X80377000Y-128993500D01*
G75*
G02*
X80314500Y-129056000I-62500J0D01*
G01*
G37*
G36*
G01*
X80814500Y-129056000D02*
X80689500Y-129056000D01*
G75*
G02*
X80627000Y-128993500I0J62500D01*
G01*
X80627000Y-128243500D01*
G75*
G02*
X80689500Y-128181000I62500J0D01*
G01*
X80814500Y-128181000D01*
G75*
G02*
X80877000Y-128243500I0J-62500D01*
G01*
X80877000Y-128993500D01*
G75*
G02*
X80814500Y-129056000I-62500J0D01*
G01*
G37*
G36*
G01*
X81814500Y-129431000D02*
X81064500Y-129431000D01*
G75*
G02*
X81002000Y-129368500I0J62500D01*
G01*
X81002000Y-129243500D01*
G75*
G02*
X81064500Y-129181000I62500J0D01*
G01*
X81814500Y-129181000D01*
G75*
G02*
X81877000Y-129243500I0J-62500D01*
G01*
X81877000Y-129368500D01*
G75*
G02*
X81814500Y-129431000I-62500J0D01*
G01*
G37*
G36*
G01*
X81814500Y-129931000D02*
X81064500Y-129931000D01*
G75*
G02*
X81002000Y-129868500I0J62500D01*
G01*
X81002000Y-129743500D01*
G75*
G02*
X81064500Y-129681000I62500J0D01*
G01*
X81814500Y-129681000D01*
G75*
G02*
X81877000Y-129743500I0J-62500D01*
G01*
X81877000Y-129868500D01*
G75*
G02*
X81814500Y-129931000I-62500J0D01*
G01*
G37*
G36*
G01*
X81814500Y-130431000D02*
X81064500Y-130431000D01*
G75*
G02*
X81002000Y-130368500I0J62500D01*
G01*
X81002000Y-130243500D01*
G75*
G02*
X81064500Y-130181000I62500J0D01*
G01*
X81814500Y-130181000D01*
G75*
G02*
X81877000Y-130243500I0J-62500D01*
G01*
X81877000Y-130368500D01*
G75*
G02*
X81814500Y-130431000I-62500J0D01*
G01*
G37*
G36*
G01*
X81814500Y-130931000D02*
X81064500Y-130931000D01*
G75*
G02*
X81002000Y-130868500I0J62500D01*
G01*
X81002000Y-130743500D01*
G75*
G02*
X81064500Y-130681000I62500J0D01*
G01*
X81814500Y-130681000D01*
G75*
G02*
X81877000Y-130743500I0J-62500D01*
G01*
X81877000Y-130868500D01*
G75*
G02*
X81814500Y-130931000I-62500J0D01*
G01*
G37*
G36*
G01*
X81814500Y-131431000D02*
X81064500Y-131431000D01*
G75*
G02*
X81002000Y-131368500I0J62500D01*
G01*
X81002000Y-131243500D01*
G75*
G02*
X81064500Y-131181000I62500J0D01*
G01*
X81814500Y-131181000D01*
G75*
G02*
X81877000Y-131243500I0J-62500D01*
G01*
X81877000Y-131368500D01*
G75*
G02*
X81814500Y-131431000I-62500J0D01*
G01*
G37*
G36*
G01*
X81814500Y-131931000D02*
X81064500Y-131931000D01*
G75*
G02*
X81002000Y-131868500I0J62500D01*
G01*
X81002000Y-131743500D01*
G75*
G02*
X81064500Y-131681000I62500J0D01*
G01*
X81814500Y-131681000D01*
G75*
G02*
X81877000Y-131743500I0J-62500D01*
G01*
X81877000Y-131868500D01*
G75*
G02*
X81814500Y-131931000I-62500J0D01*
G01*
G37*
G36*
G01*
X80814500Y-132931000D02*
X80689500Y-132931000D01*
G75*
G02*
X80627000Y-132868500I0J62500D01*
G01*
X80627000Y-132118500D01*
G75*
G02*
X80689500Y-132056000I62500J0D01*
G01*
X80814500Y-132056000D01*
G75*
G02*
X80877000Y-132118500I0J-62500D01*
G01*
X80877000Y-132868500D01*
G75*
G02*
X80814500Y-132931000I-62500J0D01*
G01*
G37*
G36*
G01*
X80314500Y-132931000D02*
X80189500Y-132931000D01*
G75*
G02*
X80127000Y-132868500I0J62500D01*
G01*
X80127000Y-132118500D01*
G75*
G02*
X80189500Y-132056000I62500J0D01*
G01*
X80314500Y-132056000D01*
G75*
G02*
X80377000Y-132118500I0J-62500D01*
G01*
X80377000Y-132868500D01*
G75*
G02*
X80314500Y-132931000I-62500J0D01*
G01*
G37*
G36*
G01*
X79814500Y-132931000D02*
X79689500Y-132931000D01*
G75*
G02*
X79627000Y-132868500I0J62500D01*
G01*
X79627000Y-132118500D01*
G75*
G02*
X79689500Y-132056000I62500J0D01*
G01*
X79814500Y-132056000D01*
G75*
G02*
X79877000Y-132118500I0J-62500D01*
G01*
X79877000Y-132868500D01*
G75*
G02*
X79814500Y-132931000I-62500J0D01*
G01*
G37*
G36*
G01*
X79314500Y-132931000D02*
X79189500Y-132931000D01*
G75*
G02*
X79127000Y-132868500I0J62500D01*
G01*
X79127000Y-132118500D01*
G75*
G02*
X79189500Y-132056000I62500J0D01*
G01*
X79314500Y-132056000D01*
G75*
G02*
X79377000Y-132118500I0J-62500D01*
G01*
X79377000Y-132868500D01*
G75*
G02*
X79314500Y-132931000I-62500J0D01*
G01*
G37*
G36*
G01*
X78814500Y-132931000D02*
X78689500Y-132931000D01*
G75*
G02*
X78627000Y-132868500I0J62500D01*
G01*
X78627000Y-132118500D01*
G75*
G02*
X78689500Y-132056000I62500J0D01*
G01*
X78814500Y-132056000D01*
G75*
G02*
X78877000Y-132118500I0J-62500D01*
G01*
X78877000Y-132868500D01*
G75*
G02*
X78814500Y-132931000I-62500J0D01*
G01*
G37*
G36*
G01*
X78314500Y-132931000D02*
X78189500Y-132931000D01*
G75*
G02*
X78127000Y-132868500I0J62500D01*
G01*
X78127000Y-132118500D01*
G75*
G02*
X78189500Y-132056000I62500J0D01*
G01*
X78314500Y-132056000D01*
G75*
G02*
X78377000Y-132118500I0J-62500D01*
G01*
X78377000Y-132868500D01*
G75*
G02*
X78314500Y-132931000I-62500J0D01*
G01*
G37*
%TD*%
%TO.C,D5*%
G36*
G01*
X134991000Y-108191000D02*
X133741000Y-108191000D01*
G75*
G02*
X133491000Y-107941000I0J250000D01*
G01*
X133491000Y-107016000D01*
G75*
G02*
X133741000Y-106766000I250000J0D01*
G01*
X134991000Y-106766000D01*
G75*
G02*
X135241000Y-107016000I0J-250000D01*
G01*
X135241000Y-107941000D01*
G75*
G02*
X134991000Y-108191000I-250000J0D01*
G01*
G37*
G36*
G01*
X134991000Y-111166000D02*
X133741000Y-111166000D01*
G75*
G02*
X133491000Y-110916000I0J250000D01*
G01*
X133491000Y-109991000D01*
G75*
G02*
X133741000Y-109741000I250000J0D01*
G01*
X134991000Y-109741000D01*
G75*
G02*
X135241000Y-109991000I0J-250000D01*
G01*
X135241000Y-110916000D01*
G75*
G02*
X134991000Y-111166000I-250000J0D01*
G01*
G37*
%TD*%
%TO.C,D4*%
G36*
G01*
X142103000Y-108191000D02*
X140853000Y-108191000D01*
G75*
G02*
X140603000Y-107941000I0J250000D01*
G01*
X140603000Y-107016000D01*
G75*
G02*
X140853000Y-106766000I250000J0D01*
G01*
X142103000Y-106766000D01*
G75*
G02*
X142353000Y-107016000I0J-250000D01*
G01*
X142353000Y-107941000D01*
G75*
G02*
X142103000Y-108191000I-250000J0D01*
G01*
G37*
G36*
G01*
X142103000Y-111166000D02*
X140853000Y-111166000D01*
G75*
G02*
X140603000Y-110916000I0J250000D01*
G01*
X140603000Y-109991000D01*
G75*
G02*
X140853000Y-109741000I250000J0D01*
G01*
X142103000Y-109741000D01*
G75*
G02*
X142353000Y-109991000I0J-250000D01*
G01*
X142353000Y-110916000D01*
G75*
G02*
X142103000Y-111166000I-250000J0D01*
G01*
G37*
%TD*%
%TO.C,D3*%
G36*
G01*
X138547000Y-108227500D02*
X137297000Y-108227500D01*
G75*
G02*
X137047000Y-107977500I0J250000D01*
G01*
X137047000Y-107052500D01*
G75*
G02*
X137297000Y-106802500I250000J0D01*
G01*
X138547000Y-106802500D01*
G75*
G02*
X138797000Y-107052500I0J-250000D01*
G01*
X138797000Y-107977500D01*
G75*
G02*
X138547000Y-108227500I-250000J0D01*
G01*
G37*
G36*
G01*
X138547000Y-111202500D02*
X137297000Y-111202500D01*
G75*
G02*
X137047000Y-110952500I0J250000D01*
G01*
X137047000Y-110027500D01*
G75*
G02*
X137297000Y-109777500I250000J0D01*
G01*
X138547000Y-109777500D01*
G75*
G02*
X138797000Y-110027500I0J-250000D01*
G01*
X138797000Y-110952500D01*
G75*
G02*
X138547000Y-111202500I-250000J0D01*
G01*
G37*
%TD*%
%TO.C,D2*%
X80518000Y-159649000D03*
G36*
G01*
X81893000Y-161211500D02*
X81893000Y-161961500D01*
G75*
G02*
X81830500Y-162024000I-62500J0D01*
G01*
X81705500Y-162024000D01*
G75*
G02*
X81643000Y-161961500I0J62500D01*
G01*
X81643000Y-161211500D01*
G75*
G02*
X81705500Y-161149000I62500J0D01*
G01*
X81830500Y-161149000D01*
G75*
G02*
X81893000Y-161211500I0J-62500D01*
G01*
G37*
G36*
G01*
X81393000Y-161211500D02*
X81393000Y-161961500D01*
G75*
G02*
X81330500Y-162024000I-62500J0D01*
G01*
X81205500Y-162024000D01*
G75*
G02*
X81143000Y-161961500I0J62500D01*
G01*
X81143000Y-161211500D01*
G75*
G02*
X81205500Y-161149000I62500J0D01*
G01*
X81330500Y-161149000D01*
G75*
G02*
X81393000Y-161211500I0J-62500D01*
G01*
G37*
G36*
G01*
X80893000Y-161211500D02*
X80893000Y-161961500D01*
G75*
G02*
X80830500Y-162024000I-62500J0D01*
G01*
X80705500Y-162024000D01*
G75*
G02*
X80643000Y-161961500I0J62500D01*
G01*
X80643000Y-161211500D01*
G75*
G02*
X80705500Y-161149000I62500J0D01*
G01*
X80830500Y-161149000D01*
G75*
G02*
X80893000Y-161211500I0J-62500D01*
G01*
G37*
G36*
G01*
X80393000Y-161211500D02*
X80393000Y-161961500D01*
G75*
G02*
X80330500Y-162024000I-62500J0D01*
G01*
X80205500Y-162024000D01*
G75*
G02*
X80143000Y-161961500I0J62500D01*
G01*
X80143000Y-161211500D01*
G75*
G02*
X80205500Y-161149000I62500J0D01*
G01*
X80330500Y-161149000D01*
G75*
G02*
X80393000Y-161211500I0J-62500D01*
G01*
G37*
G36*
G01*
X79893000Y-161211500D02*
X79893000Y-161961500D01*
G75*
G02*
X79830500Y-162024000I-62500J0D01*
G01*
X79705500Y-162024000D01*
G75*
G02*
X79643000Y-161961500I0J62500D01*
G01*
X79643000Y-161211500D01*
G75*
G02*
X79705500Y-161149000I62500J0D01*
G01*
X79830500Y-161149000D01*
G75*
G02*
X79893000Y-161211500I0J-62500D01*
G01*
G37*
G36*
G01*
X79393000Y-161211500D02*
X79393000Y-161961500D01*
G75*
G02*
X79330500Y-162024000I-62500J0D01*
G01*
X79205500Y-162024000D01*
G75*
G02*
X79143000Y-161961500I0J62500D01*
G01*
X79143000Y-161211500D01*
G75*
G02*
X79205500Y-161149000I62500J0D01*
G01*
X79330500Y-161149000D01*
G75*
G02*
X79393000Y-161211500I0J-62500D01*
G01*
G37*
G36*
G01*
X79018000Y-160836500D02*
X79018000Y-160961500D01*
G75*
G02*
X78955500Y-161024000I-62500J0D01*
G01*
X78205500Y-161024000D01*
G75*
G02*
X78143000Y-160961500I0J62500D01*
G01*
X78143000Y-160836500D01*
G75*
G02*
X78205500Y-160774000I62500J0D01*
G01*
X78955500Y-160774000D01*
G75*
G02*
X79018000Y-160836500I0J-62500D01*
G01*
G37*
G36*
G01*
X79018000Y-160336500D02*
X79018000Y-160461500D01*
G75*
G02*
X78955500Y-160524000I-62500J0D01*
G01*
X78205500Y-160524000D01*
G75*
G02*
X78143000Y-160461500I0J62500D01*
G01*
X78143000Y-160336500D01*
G75*
G02*
X78205500Y-160274000I62500J0D01*
G01*
X78955500Y-160274000D01*
G75*
G02*
X79018000Y-160336500I0J-62500D01*
G01*
G37*
G36*
G01*
X79018000Y-159836500D02*
X79018000Y-159961500D01*
G75*
G02*
X78955500Y-160024000I-62500J0D01*
G01*
X78205500Y-160024000D01*
G75*
G02*
X78143000Y-159961500I0J62500D01*
G01*
X78143000Y-159836500D01*
G75*
G02*
X78205500Y-159774000I62500J0D01*
G01*
X78955500Y-159774000D01*
G75*
G02*
X79018000Y-159836500I0J-62500D01*
G01*
G37*
G36*
G01*
X79018000Y-159336500D02*
X79018000Y-159461500D01*
G75*
G02*
X78955500Y-159524000I-62500J0D01*
G01*
X78205500Y-159524000D01*
G75*
G02*
X78143000Y-159461500I0J62500D01*
G01*
X78143000Y-159336500D01*
G75*
G02*
X78205500Y-159274000I62500J0D01*
G01*
X78955500Y-159274000D01*
G75*
G02*
X79018000Y-159336500I0J-62500D01*
G01*
G37*
G36*
G01*
X79018000Y-158836500D02*
X79018000Y-158961500D01*
G75*
G02*
X78955500Y-159024000I-62500J0D01*
G01*
X78205500Y-159024000D01*
G75*
G02*
X78143000Y-158961500I0J62500D01*
G01*
X78143000Y-158836500D01*
G75*
G02*
X78205500Y-158774000I62500J0D01*
G01*
X78955500Y-158774000D01*
G75*
G02*
X79018000Y-158836500I0J-62500D01*
G01*
G37*
G36*
G01*
X79018000Y-158336500D02*
X79018000Y-158461500D01*
G75*
G02*
X78955500Y-158524000I-62500J0D01*
G01*
X78205500Y-158524000D01*
G75*
G02*
X78143000Y-158461500I0J62500D01*
G01*
X78143000Y-158336500D01*
G75*
G02*
X78205500Y-158274000I62500J0D01*
G01*
X78955500Y-158274000D01*
G75*
G02*
X79018000Y-158336500I0J-62500D01*
G01*
G37*
G36*
G01*
X79393000Y-157336500D02*
X79393000Y-158086500D01*
G75*
G02*
X79330500Y-158149000I-62500J0D01*
G01*
X79205500Y-158149000D01*
G75*
G02*
X79143000Y-158086500I0J62500D01*
G01*
X79143000Y-157336500D01*
G75*
G02*
X79205500Y-157274000I62500J0D01*
G01*
X79330500Y-157274000D01*
G75*
G02*
X79393000Y-157336500I0J-62500D01*
G01*
G37*
G36*
G01*
X79893000Y-157336500D02*
X79893000Y-158086500D01*
G75*
G02*
X79830500Y-158149000I-62500J0D01*
G01*
X79705500Y-158149000D01*
G75*
G02*
X79643000Y-158086500I0J62500D01*
G01*
X79643000Y-157336500D01*
G75*
G02*
X79705500Y-157274000I62500J0D01*
G01*
X79830500Y-157274000D01*
G75*
G02*
X79893000Y-157336500I0J-62500D01*
G01*
G37*
G36*
G01*
X80393000Y-157336500D02*
X80393000Y-158086500D01*
G75*
G02*
X80330500Y-158149000I-62500J0D01*
G01*
X80205500Y-158149000D01*
G75*
G02*
X80143000Y-158086500I0J62500D01*
G01*
X80143000Y-157336500D01*
G75*
G02*
X80205500Y-157274000I62500J0D01*
G01*
X80330500Y-157274000D01*
G75*
G02*
X80393000Y-157336500I0J-62500D01*
G01*
G37*
G36*
G01*
X80893000Y-157336500D02*
X80893000Y-158086500D01*
G75*
G02*
X80830500Y-158149000I-62500J0D01*
G01*
X80705500Y-158149000D01*
G75*
G02*
X80643000Y-158086500I0J62500D01*
G01*
X80643000Y-157336500D01*
G75*
G02*
X80705500Y-157274000I62500J0D01*
G01*
X80830500Y-157274000D01*
G75*
G02*
X80893000Y-157336500I0J-62500D01*
G01*
G37*
G36*
G01*
X81393000Y-157336500D02*
X81393000Y-158086500D01*
G75*
G02*
X81330500Y-158149000I-62500J0D01*
G01*
X81205500Y-158149000D01*
G75*
G02*
X81143000Y-158086500I0J62500D01*
G01*
X81143000Y-157336500D01*
G75*
G02*
X81205500Y-157274000I62500J0D01*
G01*
X81330500Y-157274000D01*
G75*
G02*
X81393000Y-157336500I0J-62500D01*
G01*
G37*
G36*
G01*
X81893000Y-157336500D02*
X81893000Y-158086500D01*
G75*
G02*
X81830500Y-158149000I-62500J0D01*
G01*
X81705500Y-158149000D01*
G75*
G02*
X81643000Y-158086500I0J62500D01*
G01*
X81643000Y-157336500D01*
G75*
G02*
X81705500Y-157274000I62500J0D01*
G01*
X81830500Y-157274000D01*
G75*
G02*
X81893000Y-157336500I0J-62500D01*
G01*
G37*
G36*
G01*
X82893000Y-158336500D02*
X82893000Y-158461500D01*
G75*
G02*
X82830500Y-158524000I-62500J0D01*
G01*
X82080500Y-158524000D01*
G75*
G02*
X82018000Y-158461500I0J62500D01*
G01*
X82018000Y-158336500D01*
G75*
G02*
X82080500Y-158274000I62500J0D01*
G01*
X82830500Y-158274000D01*
G75*
G02*
X82893000Y-158336500I0J-62500D01*
G01*
G37*
G36*
G01*
X82893000Y-158836500D02*
X82893000Y-158961500D01*
G75*
G02*
X82830500Y-159024000I-62500J0D01*
G01*
X82080500Y-159024000D01*
G75*
G02*
X82018000Y-158961500I0J62500D01*
G01*
X82018000Y-158836500D01*
G75*
G02*
X82080500Y-158774000I62500J0D01*
G01*
X82830500Y-158774000D01*
G75*
G02*
X82893000Y-158836500I0J-62500D01*
G01*
G37*
G36*
G01*
X82893000Y-159336500D02*
X82893000Y-159461500D01*
G75*
G02*
X82830500Y-159524000I-62500J0D01*
G01*
X82080500Y-159524000D01*
G75*
G02*
X82018000Y-159461500I0J62500D01*
G01*
X82018000Y-159336500D01*
G75*
G02*
X82080500Y-159274000I62500J0D01*
G01*
X82830500Y-159274000D01*
G75*
G02*
X82893000Y-159336500I0J-62500D01*
G01*
G37*
G36*
G01*
X82893000Y-159836500D02*
X82893000Y-159961500D01*
G75*
G02*
X82830500Y-160024000I-62500J0D01*
G01*
X82080500Y-160024000D01*
G75*
G02*
X82018000Y-159961500I0J62500D01*
G01*
X82018000Y-159836500D01*
G75*
G02*
X82080500Y-159774000I62500J0D01*
G01*
X82830500Y-159774000D01*
G75*
G02*
X82893000Y-159836500I0J-62500D01*
G01*
G37*
G36*
G01*
X82893000Y-160336500D02*
X82893000Y-160461500D01*
G75*
G02*
X82830500Y-160524000I-62500J0D01*
G01*
X82080500Y-160524000D01*
G75*
G02*
X82018000Y-160461500I0J62500D01*
G01*
X82018000Y-160336500D01*
G75*
G02*
X82080500Y-160274000I62500J0D01*
G01*
X82830500Y-160274000D01*
G75*
G02*
X82893000Y-160336500I0J-62500D01*
G01*
G37*
G36*
G01*
X82893000Y-160836500D02*
X82893000Y-160961500D01*
G75*
G02*
X82830500Y-161024000I-62500J0D01*
G01*
X82080500Y-161024000D01*
G75*
G02*
X82018000Y-160961500I0J62500D01*
G01*
X82018000Y-160836500D01*
G75*
G02*
X82080500Y-160774000I62500J0D01*
G01*
X82830500Y-160774000D01*
G75*
G02*
X82893000Y-160836500I0J-62500D01*
G01*
G37*
%TD*%
D22*
%TO.C,D1*%
X98298000Y-130429000D03*
G36*
G01*
X100385500Y-129054000D02*
X101110500Y-129054000D01*
G75*
G02*
X101173000Y-129116500I0J-62500D01*
G01*
X101173000Y-129241500D01*
G75*
G02*
X101110500Y-129304000I-62500J0D01*
G01*
X100385500Y-129304000D01*
G75*
G02*
X100323000Y-129241500I0J62500D01*
G01*
X100323000Y-129116500D01*
G75*
G02*
X100385500Y-129054000I62500J0D01*
G01*
G37*
G36*
G01*
X100385500Y-129554000D02*
X101110500Y-129554000D01*
G75*
G02*
X101173000Y-129616500I0J-62500D01*
G01*
X101173000Y-129741500D01*
G75*
G02*
X101110500Y-129804000I-62500J0D01*
G01*
X100385500Y-129804000D01*
G75*
G02*
X100323000Y-129741500I0J62500D01*
G01*
X100323000Y-129616500D01*
G75*
G02*
X100385500Y-129554000I62500J0D01*
G01*
G37*
G36*
G01*
X100385500Y-130054000D02*
X101110500Y-130054000D01*
G75*
G02*
X101173000Y-130116500I0J-62500D01*
G01*
X101173000Y-130241500D01*
G75*
G02*
X101110500Y-130304000I-62500J0D01*
G01*
X100385500Y-130304000D01*
G75*
G02*
X100323000Y-130241500I0J62500D01*
G01*
X100323000Y-130116500D01*
G75*
G02*
X100385500Y-130054000I62500J0D01*
G01*
G37*
G36*
G01*
X100385500Y-130554000D02*
X101110500Y-130554000D01*
G75*
G02*
X101173000Y-130616500I0J-62500D01*
G01*
X101173000Y-130741500D01*
G75*
G02*
X101110500Y-130804000I-62500J0D01*
G01*
X100385500Y-130804000D01*
G75*
G02*
X100323000Y-130741500I0J62500D01*
G01*
X100323000Y-130616500D01*
G75*
G02*
X100385500Y-130554000I62500J0D01*
G01*
G37*
G36*
G01*
X100385500Y-131054000D02*
X101110500Y-131054000D01*
G75*
G02*
X101173000Y-131116500I0J-62500D01*
G01*
X101173000Y-131241500D01*
G75*
G02*
X101110500Y-131304000I-62500J0D01*
G01*
X100385500Y-131304000D01*
G75*
G02*
X100323000Y-131241500I0J62500D01*
G01*
X100323000Y-131116500D01*
G75*
G02*
X100385500Y-131054000I62500J0D01*
G01*
G37*
G36*
G01*
X100385500Y-131554000D02*
X101110500Y-131554000D01*
G75*
G02*
X101173000Y-131616500I0J-62500D01*
G01*
X101173000Y-131741500D01*
G75*
G02*
X101110500Y-131804000I-62500J0D01*
G01*
X100385500Y-131804000D01*
G75*
G02*
X100323000Y-131741500I0J62500D01*
G01*
X100323000Y-131616500D01*
G75*
G02*
X100385500Y-131554000I62500J0D01*
G01*
G37*
G36*
G01*
X99985500Y-131954000D02*
X100110500Y-131954000D01*
G75*
G02*
X100173000Y-132016500I0J-62500D01*
G01*
X100173000Y-132741500D01*
G75*
G02*
X100110500Y-132804000I-62500J0D01*
G01*
X99985500Y-132804000D01*
G75*
G02*
X99923000Y-132741500I0J62500D01*
G01*
X99923000Y-132016500D01*
G75*
G02*
X99985500Y-131954000I62500J0D01*
G01*
G37*
G36*
G01*
X99485500Y-131954000D02*
X99610500Y-131954000D01*
G75*
G02*
X99673000Y-132016500I0J-62500D01*
G01*
X99673000Y-132741500D01*
G75*
G02*
X99610500Y-132804000I-62500J0D01*
G01*
X99485500Y-132804000D01*
G75*
G02*
X99423000Y-132741500I0J62500D01*
G01*
X99423000Y-132016500D01*
G75*
G02*
X99485500Y-131954000I62500J0D01*
G01*
G37*
G36*
G01*
X98985500Y-131954000D02*
X99110500Y-131954000D01*
G75*
G02*
X99173000Y-132016500I0J-62500D01*
G01*
X99173000Y-132741500D01*
G75*
G02*
X99110500Y-132804000I-62500J0D01*
G01*
X98985500Y-132804000D01*
G75*
G02*
X98923000Y-132741500I0J62500D01*
G01*
X98923000Y-132016500D01*
G75*
G02*
X98985500Y-131954000I62500J0D01*
G01*
G37*
G36*
G01*
X98485500Y-131954000D02*
X98610500Y-131954000D01*
G75*
G02*
X98673000Y-132016500I0J-62500D01*
G01*
X98673000Y-132741500D01*
G75*
G02*
X98610500Y-132804000I-62500J0D01*
G01*
X98485500Y-132804000D01*
G75*
G02*
X98423000Y-132741500I0J62500D01*
G01*
X98423000Y-132016500D01*
G75*
G02*
X98485500Y-131954000I62500J0D01*
G01*
G37*
G36*
G01*
X97985500Y-131954000D02*
X98110500Y-131954000D01*
G75*
G02*
X98173000Y-132016500I0J-62500D01*
G01*
X98173000Y-132741500D01*
G75*
G02*
X98110500Y-132804000I-62500J0D01*
G01*
X97985500Y-132804000D01*
G75*
G02*
X97923000Y-132741500I0J62500D01*
G01*
X97923000Y-132016500D01*
G75*
G02*
X97985500Y-131954000I62500J0D01*
G01*
G37*
G36*
G01*
X97485500Y-131954000D02*
X97610500Y-131954000D01*
G75*
G02*
X97673000Y-132016500I0J-62500D01*
G01*
X97673000Y-132741500D01*
G75*
G02*
X97610500Y-132804000I-62500J0D01*
G01*
X97485500Y-132804000D01*
G75*
G02*
X97423000Y-132741500I0J62500D01*
G01*
X97423000Y-132016500D01*
G75*
G02*
X97485500Y-131954000I62500J0D01*
G01*
G37*
G36*
G01*
X96985500Y-131954000D02*
X97110500Y-131954000D01*
G75*
G02*
X97173000Y-132016500I0J-62500D01*
G01*
X97173000Y-132741500D01*
G75*
G02*
X97110500Y-132804000I-62500J0D01*
G01*
X96985500Y-132804000D01*
G75*
G02*
X96923000Y-132741500I0J62500D01*
G01*
X96923000Y-132016500D01*
G75*
G02*
X96985500Y-131954000I62500J0D01*
G01*
G37*
G36*
G01*
X96485500Y-131954000D02*
X96610500Y-131954000D01*
G75*
G02*
X96673000Y-132016500I0J-62500D01*
G01*
X96673000Y-132741500D01*
G75*
G02*
X96610500Y-132804000I-62500J0D01*
G01*
X96485500Y-132804000D01*
G75*
G02*
X96423000Y-132741500I0J62500D01*
G01*
X96423000Y-132016500D01*
G75*
G02*
X96485500Y-131954000I62500J0D01*
G01*
G37*
G36*
G01*
X95485500Y-131554000D02*
X96210500Y-131554000D01*
G75*
G02*
X96273000Y-131616500I0J-62500D01*
G01*
X96273000Y-131741500D01*
G75*
G02*
X96210500Y-131804000I-62500J0D01*
G01*
X95485500Y-131804000D01*
G75*
G02*
X95423000Y-131741500I0J62500D01*
G01*
X95423000Y-131616500D01*
G75*
G02*
X95485500Y-131554000I62500J0D01*
G01*
G37*
G36*
G01*
X95485500Y-131054000D02*
X96210500Y-131054000D01*
G75*
G02*
X96273000Y-131116500I0J-62500D01*
G01*
X96273000Y-131241500D01*
G75*
G02*
X96210500Y-131304000I-62500J0D01*
G01*
X95485500Y-131304000D01*
G75*
G02*
X95423000Y-131241500I0J62500D01*
G01*
X95423000Y-131116500D01*
G75*
G02*
X95485500Y-131054000I62500J0D01*
G01*
G37*
G36*
G01*
X95485500Y-130554000D02*
X96210500Y-130554000D01*
G75*
G02*
X96273000Y-130616500I0J-62500D01*
G01*
X96273000Y-130741500D01*
G75*
G02*
X96210500Y-130804000I-62500J0D01*
G01*
X95485500Y-130804000D01*
G75*
G02*
X95423000Y-130741500I0J62500D01*
G01*
X95423000Y-130616500D01*
G75*
G02*
X95485500Y-130554000I62500J0D01*
G01*
G37*
G36*
G01*
X95485500Y-130054000D02*
X96210500Y-130054000D01*
G75*
G02*
X96273000Y-130116500I0J-62500D01*
G01*
X96273000Y-130241500D01*
G75*
G02*
X96210500Y-130304000I-62500J0D01*
G01*
X95485500Y-130304000D01*
G75*
G02*
X95423000Y-130241500I0J62500D01*
G01*
X95423000Y-130116500D01*
G75*
G02*
X95485500Y-130054000I62500J0D01*
G01*
G37*
G36*
G01*
X95485500Y-129554000D02*
X96210500Y-129554000D01*
G75*
G02*
X96273000Y-129616500I0J-62500D01*
G01*
X96273000Y-129741500D01*
G75*
G02*
X96210500Y-129804000I-62500J0D01*
G01*
X95485500Y-129804000D01*
G75*
G02*
X95423000Y-129741500I0J62500D01*
G01*
X95423000Y-129616500D01*
G75*
G02*
X95485500Y-129554000I62500J0D01*
G01*
G37*
G36*
G01*
X95485500Y-129054000D02*
X96210500Y-129054000D01*
G75*
G02*
X96273000Y-129116500I0J-62500D01*
G01*
X96273000Y-129241500D01*
G75*
G02*
X96210500Y-129304000I-62500J0D01*
G01*
X95485500Y-129304000D01*
G75*
G02*
X95423000Y-129241500I0J62500D01*
G01*
X95423000Y-129116500D01*
G75*
G02*
X95485500Y-129054000I62500J0D01*
G01*
G37*
G36*
G01*
X96485500Y-128054000D02*
X96610500Y-128054000D01*
G75*
G02*
X96673000Y-128116500I0J-62500D01*
G01*
X96673000Y-128841500D01*
G75*
G02*
X96610500Y-128904000I-62500J0D01*
G01*
X96485500Y-128904000D01*
G75*
G02*
X96423000Y-128841500I0J62500D01*
G01*
X96423000Y-128116500D01*
G75*
G02*
X96485500Y-128054000I62500J0D01*
G01*
G37*
G36*
G01*
X96985500Y-128054000D02*
X97110500Y-128054000D01*
G75*
G02*
X97173000Y-128116500I0J-62500D01*
G01*
X97173000Y-128841500D01*
G75*
G02*
X97110500Y-128904000I-62500J0D01*
G01*
X96985500Y-128904000D01*
G75*
G02*
X96923000Y-128841500I0J62500D01*
G01*
X96923000Y-128116500D01*
G75*
G02*
X96985500Y-128054000I62500J0D01*
G01*
G37*
G36*
G01*
X97485500Y-128054000D02*
X97610500Y-128054000D01*
G75*
G02*
X97673000Y-128116500I0J-62500D01*
G01*
X97673000Y-128841500D01*
G75*
G02*
X97610500Y-128904000I-62500J0D01*
G01*
X97485500Y-128904000D01*
G75*
G02*
X97423000Y-128841500I0J62500D01*
G01*
X97423000Y-128116500D01*
G75*
G02*
X97485500Y-128054000I62500J0D01*
G01*
G37*
G36*
G01*
X97985500Y-128054000D02*
X98110500Y-128054000D01*
G75*
G02*
X98173000Y-128116500I0J-62500D01*
G01*
X98173000Y-128841500D01*
G75*
G02*
X98110500Y-128904000I-62500J0D01*
G01*
X97985500Y-128904000D01*
G75*
G02*
X97923000Y-128841500I0J62500D01*
G01*
X97923000Y-128116500D01*
G75*
G02*
X97985500Y-128054000I62500J0D01*
G01*
G37*
G36*
G01*
X98485500Y-128054000D02*
X98610500Y-128054000D01*
G75*
G02*
X98673000Y-128116500I0J-62500D01*
G01*
X98673000Y-128841500D01*
G75*
G02*
X98610500Y-128904000I-62500J0D01*
G01*
X98485500Y-128904000D01*
G75*
G02*
X98423000Y-128841500I0J62500D01*
G01*
X98423000Y-128116500D01*
G75*
G02*
X98485500Y-128054000I62500J0D01*
G01*
G37*
G36*
G01*
X98985500Y-128054000D02*
X99110500Y-128054000D01*
G75*
G02*
X99173000Y-128116500I0J-62500D01*
G01*
X99173000Y-128841500D01*
G75*
G02*
X99110500Y-128904000I-62500J0D01*
G01*
X98985500Y-128904000D01*
G75*
G02*
X98923000Y-128841500I0J62500D01*
G01*
X98923000Y-128116500D01*
G75*
G02*
X98985500Y-128054000I62500J0D01*
G01*
G37*
G36*
G01*
X99485500Y-128054000D02*
X99610500Y-128054000D01*
G75*
G02*
X99673000Y-128116500I0J-62500D01*
G01*
X99673000Y-128841500D01*
G75*
G02*
X99610500Y-128904000I-62500J0D01*
G01*
X99485500Y-128904000D01*
G75*
G02*
X99423000Y-128841500I0J62500D01*
G01*
X99423000Y-128116500D01*
G75*
G02*
X99485500Y-128054000I62500J0D01*
G01*
G37*
G36*
G01*
X99985500Y-128054000D02*
X100110500Y-128054000D01*
G75*
G02*
X100173000Y-128116500I0J-62500D01*
G01*
X100173000Y-128841500D01*
G75*
G02*
X100110500Y-128904000I-62500J0D01*
G01*
X99985500Y-128904000D01*
G75*
G02*
X99923000Y-128841500I0J62500D01*
G01*
X99923000Y-128116500D01*
G75*
G02*
X99985500Y-128054000I62500J0D01*
G01*
G37*
%TD*%
%TO.C,C102*%
G36*
G01*
X73771999Y-156094000D02*
X75072001Y-156094000D01*
G75*
G02*
X75322000Y-156343999I0J-249999D01*
G01*
X75322000Y-157169001D01*
G75*
G02*
X75072001Y-157419000I-249999J0D01*
G01*
X73771999Y-157419000D01*
G75*
G02*
X73522000Y-157169001I0J249999D01*
G01*
X73522000Y-156343999D01*
G75*
G02*
X73771999Y-156094000I249999J0D01*
G01*
G37*
G36*
G01*
X73771999Y-152969000D02*
X75072001Y-152969000D01*
G75*
G02*
X75322000Y-153218999I0J-249999D01*
G01*
X75322000Y-154044001D01*
G75*
G02*
X75072001Y-154294000I-249999J0D01*
G01*
X73771999Y-154294000D01*
G75*
G02*
X73522000Y-154044001I0J249999D01*
G01*
X73522000Y-153218999D01*
G75*
G02*
X73771999Y-152969000I249999J0D01*
G01*
G37*
%TD*%
%TO.C,C101*%
G36*
G01*
X81567000Y-152299000D02*
X82517000Y-152299000D01*
G75*
G02*
X82767000Y-152549000I0J-250000D01*
G01*
X82767000Y-153224000D01*
G75*
G02*
X82517000Y-153474000I-250000J0D01*
G01*
X81567000Y-153474000D01*
G75*
G02*
X81317000Y-153224000I0J250000D01*
G01*
X81317000Y-152549000D01*
G75*
G02*
X81567000Y-152299000I250000J0D01*
G01*
G37*
G36*
G01*
X81567000Y-154374000D02*
X82517000Y-154374000D01*
G75*
G02*
X82767000Y-154624000I0J-250000D01*
G01*
X82767000Y-155299000D01*
G75*
G02*
X82517000Y-155549000I-250000J0D01*
G01*
X81567000Y-155549000D01*
G75*
G02*
X81317000Y-155299000I0J250000D01*
G01*
X81317000Y-154624000D01*
G75*
G02*
X81567000Y-154374000I250000J0D01*
G01*
G37*
%TD*%
%TO.C,C100*%
G36*
G01*
X84107000Y-152299000D02*
X85057000Y-152299000D01*
G75*
G02*
X85307000Y-152549000I0J-250000D01*
G01*
X85307000Y-153224000D01*
G75*
G02*
X85057000Y-153474000I-250000J0D01*
G01*
X84107000Y-153474000D01*
G75*
G02*
X83857000Y-153224000I0J250000D01*
G01*
X83857000Y-152549000D01*
G75*
G02*
X84107000Y-152299000I250000J0D01*
G01*
G37*
G36*
G01*
X84107000Y-154374000D02*
X85057000Y-154374000D01*
G75*
G02*
X85307000Y-154624000I0J-250000D01*
G01*
X85307000Y-155299000D01*
G75*
G02*
X85057000Y-155549000I-250000J0D01*
G01*
X84107000Y-155549000D01*
G75*
G02*
X83857000Y-155299000I0J250000D01*
G01*
X83857000Y-154624000D01*
G75*
G02*
X84107000Y-154374000I250000J0D01*
G01*
G37*
%TD*%
%TO.C,C99*%
G36*
G01*
X89187000Y-152299000D02*
X90137000Y-152299000D01*
G75*
G02*
X90387000Y-152549000I0J-250000D01*
G01*
X90387000Y-153224000D01*
G75*
G02*
X90137000Y-153474000I-250000J0D01*
G01*
X89187000Y-153474000D01*
G75*
G02*
X88937000Y-153224000I0J250000D01*
G01*
X88937000Y-152549000D01*
G75*
G02*
X89187000Y-152299000I250000J0D01*
G01*
G37*
G36*
G01*
X89187000Y-154374000D02*
X90137000Y-154374000D01*
G75*
G02*
X90387000Y-154624000I0J-250000D01*
G01*
X90387000Y-155299000D01*
G75*
G02*
X90137000Y-155549000I-250000J0D01*
G01*
X89187000Y-155549000D01*
G75*
G02*
X88937000Y-155299000I0J250000D01*
G01*
X88937000Y-154624000D01*
G75*
G02*
X89187000Y-154374000I250000J0D01*
G01*
G37*
%TD*%
%TO.C,C98*%
G36*
G01*
X97061000Y-152299000D02*
X98011000Y-152299000D01*
G75*
G02*
X98261000Y-152549000I0J-250000D01*
G01*
X98261000Y-153224000D01*
G75*
G02*
X98011000Y-153474000I-250000J0D01*
G01*
X97061000Y-153474000D01*
G75*
G02*
X96811000Y-153224000I0J250000D01*
G01*
X96811000Y-152549000D01*
G75*
G02*
X97061000Y-152299000I250000J0D01*
G01*
G37*
G36*
G01*
X97061000Y-154374000D02*
X98011000Y-154374000D01*
G75*
G02*
X98261000Y-154624000I0J-250000D01*
G01*
X98261000Y-155299000D01*
G75*
G02*
X98011000Y-155549000I-250000J0D01*
G01*
X97061000Y-155549000D01*
G75*
G02*
X96811000Y-155299000I0J250000D01*
G01*
X96811000Y-154624000D01*
G75*
G02*
X97061000Y-154374000I250000J0D01*
G01*
G37*
%TD*%
%TO.C,C97*%
G36*
G01*
X104935000Y-152299000D02*
X105885000Y-152299000D01*
G75*
G02*
X106135000Y-152549000I0J-250000D01*
G01*
X106135000Y-153224000D01*
G75*
G02*
X105885000Y-153474000I-250000J0D01*
G01*
X104935000Y-153474000D01*
G75*
G02*
X104685000Y-153224000I0J250000D01*
G01*
X104685000Y-152549000D01*
G75*
G02*
X104935000Y-152299000I250000J0D01*
G01*
G37*
G36*
G01*
X104935000Y-154374000D02*
X105885000Y-154374000D01*
G75*
G02*
X106135000Y-154624000I0J-250000D01*
G01*
X106135000Y-155299000D01*
G75*
G02*
X105885000Y-155549000I-250000J0D01*
G01*
X104935000Y-155549000D01*
G75*
G02*
X104685000Y-155299000I0J250000D01*
G01*
X104685000Y-154624000D01*
G75*
G02*
X104935000Y-154374000I250000J0D01*
G01*
G37*
%TD*%
%TO.C,C96*%
G36*
G01*
X112555000Y-152299000D02*
X113505000Y-152299000D01*
G75*
G02*
X113755000Y-152549000I0J-250000D01*
G01*
X113755000Y-153224000D01*
G75*
G02*
X113505000Y-153474000I-250000J0D01*
G01*
X112555000Y-153474000D01*
G75*
G02*
X112305000Y-153224000I0J250000D01*
G01*
X112305000Y-152549000D01*
G75*
G02*
X112555000Y-152299000I250000J0D01*
G01*
G37*
G36*
G01*
X112555000Y-154374000D02*
X113505000Y-154374000D01*
G75*
G02*
X113755000Y-154624000I0J-250000D01*
G01*
X113755000Y-155299000D01*
G75*
G02*
X113505000Y-155549000I-250000J0D01*
G01*
X112555000Y-155549000D01*
G75*
G02*
X112305000Y-155299000I0J250000D01*
G01*
X112305000Y-154624000D01*
G75*
G02*
X112555000Y-154374000I250000J0D01*
G01*
G37*
%TD*%
%TO.C,C95*%
G36*
G01*
X110015000Y-152299000D02*
X110965000Y-152299000D01*
G75*
G02*
X111215000Y-152549000I0J-250000D01*
G01*
X111215000Y-153224000D01*
G75*
G02*
X110965000Y-153474000I-250000J0D01*
G01*
X110015000Y-153474000D01*
G75*
G02*
X109765000Y-153224000I0J250000D01*
G01*
X109765000Y-152549000D01*
G75*
G02*
X110015000Y-152299000I250000J0D01*
G01*
G37*
G36*
G01*
X110015000Y-154374000D02*
X110965000Y-154374000D01*
G75*
G02*
X111215000Y-154624000I0J-250000D01*
G01*
X111215000Y-155299000D01*
G75*
G02*
X110965000Y-155549000I-250000J0D01*
G01*
X110015000Y-155549000D01*
G75*
G02*
X109765000Y-155299000I0J250000D01*
G01*
X109765000Y-154624000D01*
G75*
G02*
X110015000Y-154374000I250000J0D01*
G01*
G37*
%TD*%
%TO.C,C94*%
G36*
G01*
X82517000Y-164904000D02*
X81567000Y-164904000D01*
G75*
G02*
X81317000Y-164654000I0J250000D01*
G01*
X81317000Y-163979000D01*
G75*
G02*
X81567000Y-163729000I250000J0D01*
G01*
X82517000Y-163729000D01*
G75*
G02*
X82767000Y-163979000I0J-250000D01*
G01*
X82767000Y-164654000D01*
G75*
G02*
X82517000Y-164904000I-250000J0D01*
G01*
G37*
G36*
G01*
X82517000Y-166979000D02*
X81567000Y-166979000D01*
G75*
G02*
X81317000Y-166729000I0J250000D01*
G01*
X81317000Y-166054000D01*
G75*
G02*
X81567000Y-165804000I250000J0D01*
G01*
X82517000Y-165804000D01*
G75*
G02*
X82767000Y-166054000I0J-250000D01*
G01*
X82767000Y-166729000D01*
G75*
G02*
X82517000Y-166979000I-250000J0D01*
G01*
G37*
%TD*%
%TO.C,C93*%
G36*
G01*
X85057000Y-164904000D02*
X84107000Y-164904000D01*
G75*
G02*
X83857000Y-164654000I0J250000D01*
G01*
X83857000Y-163979000D01*
G75*
G02*
X84107000Y-163729000I250000J0D01*
G01*
X85057000Y-163729000D01*
G75*
G02*
X85307000Y-163979000I0J-250000D01*
G01*
X85307000Y-164654000D01*
G75*
G02*
X85057000Y-164904000I-250000J0D01*
G01*
G37*
G36*
G01*
X85057000Y-166979000D02*
X84107000Y-166979000D01*
G75*
G02*
X83857000Y-166729000I0J250000D01*
G01*
X83857000Y-166054000D01*
G75*
G02*
X84107000Y-165804000I250000J0D01*
G01*
X85057000Y-165804000D01*
G75*
G02*
X85307000Y-166054000I0J-250000D01*
G01*
X85307000Y-166729000D01*
G75*
G02*
X85057000Y-166979000I-250000J0D01*
G01*
G37*
%TD*%
%TO.C,C92*%
G36*
G01*
X90137000Y-164925500D02*
X89187000Y-164925500D01*
G75*
G02*
X88937000Y-164675500I0J250000D01*
G01*
X88937000Y-164000500D01*
G75*
G02*
X89187000Y-163750500I250000J0D01*
G01*
X90137000Y-163750500D01*
G75*
G02*
X90387000Y-164000500I0J-250000D01*
G01*
X90387000Y-164675500D01*
G75*
G02*
X90137000Y-164925500I-250000J0D01*
G01*
G37*
G36*
G01*
X90137000Y-167000500D02*
X89187000Y-167000500D01*
G75*
G02*
X88937000Y-166750500I0J250000D01*
G01*
X88937000Y-166075500D01*
G75*
G02*
X89187000Y-165825500I250000J0D01*
G01*
X90137000Y-165825500D01*
G75*
G02*
X90387000Y-166075500I0J-250000D01*
G01*
X90387000Y-166750500D01*
G75*
G02*
X90137000Y-167000500I-250000J0D01*
G01*
G37*
%TD*%
%TO.C,C91*%
G36*
G01*
X98011000Y-164904000D02*
X97061000Y-164904000D01*
G75*
G02*
X96811000Y-164654000I0J250000D01*
G01*
X96811000Y-163979000D01*
G75*
G02*
X97061000Y-163729000I250000J0D01*
G01*
X98011000Y-163729000D01*
G75*
G02*
X98261000Y-163979000I0J-250000D01*
G01*
X98261000Y-164654000D01*
G75*
G02*
X98011000Y-164904000I-250000J0D01*
G01*
G37*
G36*
G01*
X98011000Y-166979000D02*
X97061000Y-166979000D01*
G75*
G02*
X96811000Y-166729000I0J250000D01*
G01*
X96811000Y-166054000D01*
G75*
G02*
X97061000Y-165804000I250000J0D01*
G01*
X98011000Y-165804000D01*
G75*
G02*
X98261000Y-166054000I0J-250000D01*
G01*
X98261000Y-166729000D01*
G75*
G02*
X98011000Y-166979000I-250000J0D01*
G01*
G37*
%TD*%
%TO.C,C90*%
G36*
G01*
X105885000Y-164904000D02*
X104935000Y-164904000D01*
G75*
G02*
X104685000Y-164654000I0J250000D01*
G01*
X104685000Y-163979000D01*
G75*
G02*
X104935000Y-163729000I250000J0D01*
G01*
X105885000Y-163729000D01*
G75*
G02*
X106135000Y-163979000I0J-250000D01*
G01*
X106135000Y-164654000D01*
G75*
G02*
X105885000Y-164904000I-250000J0D01*
G01*
G37*
G36*
G01*
X105885000Y-166979000D02*
X104935000Y-166979000D01*
G75*
G02*
X104685000Y-166729000I0J250000D01*
G01*
X104685000Y-166054000D01*
G75*
G02*
X104935000Y-165804000I250000J0D01*
G01*
X105885000Y-165804000D01*
G75*
G02*
X106135000Y-166054000I0J-250000D01*
G01*
X106135000Y-166729000D01*
G75*
G02*
X105885000Y-166979000I-250000J0D01*
G01*
G37*
%TD*%
%TO.C,C89*%
G36*
G01*
X110965000Y-164904000D02*
X110015000Y-164904000D01*
G75*
G02*
X109765000Y-164654000I0J250000D01*
G01*
X109765000Y-163979000D01*
G75*
G02*
X110015000Y-163729000I250000J0D01*
G01*
X110965000Y-163729000D01*
G75*
G02*
X111215000Y-163979000I0J-250000D01*
G01*
X111215000Y-164654000D01*
G75*
G02*
X110965000Y-164904000I-250000J0D01*
G01*
G37*
G36*
G01*
X110965000Y-166979000D02*
X110015000Y-166979000D01*
G75*
G02*
X109765000Y-166729000I0J250000D01*
G01*
X109765000Y-166054000D01*
G75*
G02*
X110015000Y-165804000I250000J0D01*
G01*
X110965000Y-165804000D01*
G75*
G02*
X111215000Y-166054000I0J-250000D01*
G01*
X111215000Y-166729000D01*
G75*
G02*
X110965000Y-166979000I-250000J0D01*
G01*
G37*
%TD*%
%TO.C,C88*%
G36*
G01*
X113505000Y-164904000D02*
X112555000Y-164904000D01*
G75*
G02*
X112305000Y-164654000I0J250000D01*
G01*
X112305000Y-163979000D01*
G75*
G02*
X112555000Y-163729000I250000J0D01*
G01*
X113505000Y-163729000D01*
G75*
G02*
X113755000Y-163979000I0J-250000D01*
G01*
X113755000Y-164654000D01*
G75*
G02*
X113505000Y-164904000I-250000J0D01*
G01*
G37*
G36*
G01*
X113505000Y-166979000D02*
X112555000Y-166979000D01*
G75*
G02*
X112305000Y-166729000I0J250000D01*
G01*
X112305000Y-166054000D01*
G75*
G02*
X112555000Y-165804000I250000J0D01*
G01*
X113505000Y-165804000D01*
G75*
G02*
X113755000Y-166054000I0J-250000D01*
G01*
X113755000Y-166729000D01*
G75*
G02*
X113505000Y-166979000I-250000J0D01*
G01*
G37*
%TD*%
%TO.C,C87*%
G36*
G01*
X110606000Y-158607999D02*
X110606000Y-159908001D01*
G75*
G02*
X110356001Y-160158000I-249999J0D01*
G01*
X109530999Y-160158000D01*
G75*
G02*
X109281000Y-159908001I0J249999D01*
G01*
X109281000Y-158607999D01*
G75*
G02*
X109530999Y-158358000I249999J0D01*
G01*
X110356001Y-158358000D01*
G75*
G02*
X110606000Y-158607999I0J-249999D01*
G01*
G37*
G36*
G01*
X113731000Y-158607999D02*
X113731000Y-159908001D01*
G75*
G02*
X113481001Y-160158000I-249999J0D01*
G01*
X112655999Y-160158000D01*
G75*
G02*
X112406000Y-159908001I0J249999D01*
G01*
X112406000Y-158607999D01*
G75*
G02*
X112655999Y-158358000I249999J0D01*
G01*
X113481001Y-158358000D01*
G75*
G02*
X113731000Y-158607999I0J-249999D01*
G01*
G37*
%TD*%
%TO.C,C110*%
G36*
G01*
X135752000Y-116951999D02*
X135752000Y-118252001D01*
G75*
G02*
X135502001Y-118502000I-249999J0D01*
G01*
X134676999Y-118502000D01*
G75*
G02*
X134427000Y-118252001I0J249999D01*
G01*
X134427000Y-116951999D01*
G75*
G02*
X134676999Y-116702000I249999J0D01*
G01*
X135502001Y-116702000D01*
G75*
G02*
X135752000Y-116951999I0J-249999D01*
G01*
G37*
G36*
G01*
X138877000Y-116951999D02*
X138877000Y-118252001D01*
G75*
G02*
X138627001Y-118502000I-249999J0D01*
G01*
X137801999Y-118502000D01*
G75*
G02*
X137552000Y-118252001I0J249999D01*
G01*
X137552000Y-116951999D01*
G75*
G02*
X137801999Y-116702000I249999J0D01*
G01*
X138627001Y-116702000D01*
G75*
G02*
X138877000Y-116951999I0J-249999D01*
G01*
G37*
%TD*%
%TO.C,C107*%
G36*
G01*
X135752000Y-119491999D02*
X135752000Y-120792001D01*
G75*
G02*
X135502001Y-121042000I-249999J0D01*
G01*
X134676999Y-121042000D01*
G75*
G02*
X134427000Y-120792001I0J249999D01*
G01*
X134427000Y-119491999D01*
G75*
G02*
X134676999Y-119242000I249999J0D01*
G01*
X135502001Y-119242000D01*
G75*
G02*
X135752000Y-119491999I0J-249999D01*
G01*
G37*
G36*
G01*
X138877000Y-119491999D02*
X138877000Y-120792001D01*
G75*
G02*
X138627001Y-121042000I-249999J0D01*
G01*
X137801999Y-121042000D01*
G75*
G02*
X137552000Y-120792001I0J249999D01*
G01*
X137552000Y-119491999D01*
G75*
G02*
X137801999Y-119242000I249999J0D01*
G01*
X138627001Y-119242000D01*
G75*
G02*
X138877000Y-119491999I0J-249999D01*
G01*
G37*
%TD*%
%TO.C,C105*%
G36*
G01*
X130708000Y-129165999D02*
X130708000Y-130466001D01*
G75*
G02*
X130458001Y-130716000I-249999J0D01*
G01*
X129632999Y-130716000D01*
G75*
G02*
X129383000Y-130466001I0J249999D01*
G01*
X129383000Y-129165999D01*
G75*
G02*
X129632999Y-128916000I249999J0D01*
G01*
X130458001Y-128916000D01*
G75*
G02*
X130708000Y-129165999I0J-249999D01*
G01*
G37*
G36*
G01*
X133833000Y-129165999D02*
X133833000Y-130466001D01*
G75*
G02*
X133583001Y-130716000I-249999J0D01*
G01*
X132757999Y-130716000D01*
G75*
G02*
X132508000Y-130466001I0J249999D01*
G01*
X132508000Y-129165999D01*
G75*
G02*
X132757999Y-128916000I249999J0D01*
G01*
X133583001Y-128916000D01*
G75*
G02*
X133833000Y-129165999I0J-249999D01*
G01*
G37*
%TD*%
%TO.C,C103*%
G36*
G01*
X130672000Y-126095999D02*
X130672000Y-127396001D01*
G75*
G02*
X130422001Y-127646000I-249999J0D01*
G01*
X129596999Y-127646000D01*
G75*
G02*
X129347000Y-127396001I0J249999D01*
G01*
X129347000Y-126095999D01*
G75*
G02*
X129596999Y-125846000I249999J0D01*
G01*
X130422001Y-125846000D01*
G75*
G02*
X130672000Y-126095999I0J-249999D01*
G01*
G37*
G36*
G01*
X133797000Y-126095999D02*
X133797000Y-127396001D01*
G75*
G02*
X133547001Y-127646000I-249999J0D01*
G01*
X132721999Y-127646000D01*
G75*
G02*
X132472000Y-127396001I0J249999D01*
G01*
X132472000Y-126095999D01*
G75*
G02*
X132721999Y-125846000I249999J0D01*
G01*
X133547001Y-125846000D01*
G75*
G02*
X133797000Y-126095999I0J-249999D01*
G01*
G37*
%TD*%
%TO.C,C79*%
G36*
G01*
X85740001Y-135536500D02*
X84439999Y-135536500D01*
G75*
G02*
X84190000Y-135286501I0J249999D01*
G01*
X84190000Y-134461499D01*
G75*
G02*
X84439999Y-134211500I249999J0D01*
G01*
X85740001Y-134211500D01*
G75*
G02*
X85990000Y-134461499I0J-249999D01*
G01*
X85990000Y-135286501D01*
G75*
G02*
X85740001Y-135536500I-249999J0D01*
G01*
G37*
G36*
G01*
X85740001Y-138661500D02*
X84439999Y-138661500D01*
G75*
G02*
X84190000Y-138411501I0J249999D01*
G01*
X84190000Y-137586499D01*
G75*
G02*
X84439999Y-137336500I249999J0D01*
G01*
X85740001Y-137336500D01*
G75*
G02*
X85990000Y-137586499I0J-249999D01*
G01*
X85990000Y-138411501D01*
G75*
G02*
X85740001Y-138661500I-249999J0D01*
G01*
G37*
%TD*%
%TO.C,C78*%
G36*
G01*
X84185999Y-125614000D02*
X85486001Y-125614000D01*
G75*
G02*
X85736000Y-125863999I0J-249999D01*
G01*
X85736000Y-126689001D01*
G75*
G02*
X85486001Y-126939000I-249999J0D01*
G01*
X84185999Y-126939000D01*
G75*
G02*
X83936000Y-126689001I0J249999D01*
G01*
X83936000Y-125863999D01*
G75*
G02*
X84185999Y-125614000I249999J0D01*
G01*
G37*
G36*
G01*
X84185999Y-122489000D02*
X85486001Y-122489000D01*
G75*
G02*
X85736000Y-122738999I0J-249999D01*
G01*
X85736000Y-123564001D01*
G75*
G02*
X85486001Y-123814000I-249999J0D01*
G01*
X84185999Y-123814000D01*
G75*
G02*
X83936000Y-123564001I0J249999D01*
G01*
X83936000Y-122738999D01*
G75*
G02*
X84185999Y-122489000I249999J0D01*
G01*
G37*
%TD*%
%TO.C,C77*%
G36*
G01*
X75576000Y-126126001D02*
X75576000Y-124825999D01*
G75*
G02*
X75825999Y-124576000I249999J0D01*
G01*
X76651001Y-124576000D01*
G75*
G02*
X76901000Y-124825999I0J-249999D01*
G01*
X76901000Y-126126001D01*
G75*
G02*
X76651001Y-126376000I-249999J0D01*
G01*
X75825999Y-126376000D01*
G75*
G02*
X75576000Y-126126001I0J249999D01*
G01*
G37*
G36*
G01*
X72451000Y-126126001D02*
X72451000Y-124825999D01*
G75*
G02*
X72700999Y-124576000I249999J0D01*
G01*
X73526001Y-124576000D01*
G75*
G02*
X73776000Y-124825999I0J-249999D01*
G01*
X73776000Y-126126001D01*
G75*
G02*
X73526001Y-126376000I-249999J0D01*
G01*
X72700999Y-126376000D01*
G75*
G02*
X72451000Y-126126001I0J249999D01*
G01*
G37*
%TD*%
%TO.C,C76*%
G36*
G01*
X67531000Y-116898000D02*
X66581000Y-116898000D01*
G75*
G02*
X66331000Y-116648000I0J250000D01*
G01*
X66331000Y-115973000D01*
G75*
G02*
X66581000Y-115723000I250000J0D01*
G01*
X67531000Y-115723000D01*
G75*
G02*
X67781000Y-115973000I0J-250000D01*
G01*
X67781000Y-116648000D01*
G75*
G02*
X67531000Y-116898000I-250000J0D01*
G01*
G37*
G36*
G01*
X67531000Y-118973000D02*
X66581000Y-118973000D01*
G75*
G02*
X66331000Y-118723000I0J250000D01*
G01*
X66331000Y-118048000D01*
G75*
G02*
X66581000Y-117798000I250000J0D01*
G01*
X67531000Y-117798000D01*
G75*
G02*
X67781000Y-118048000I0J-250000D01*
G01*
X67781000Y-118723000D01*
G75*
G02*
X67531000Y-118973000I-250000J0D01*
G01*
G37*
%TD*%
%TO.C,C75*%
G36*
G01*
X73776000Y-119237999D02*
X73776000Y-120538001D01*
G75*
G02*
X73526001Y-120788000I-249999J0D01*
G01*
X72700999Y-120788000D01*
G75*
G02*
X72451000Y-120538001I0J249999D01*
G01*
X72451000Y-119237999D01*
G75*
G02*
X72700999Y-118988000I249999J0D01*
G01*
X73526001Y-118988000D01*
G75*
G02*
X73776000Y-119237999I0J-249999D01*
G01*
G37*
G36*
G01*
X76901000Y-119237999D02*
X76901000Y-120538001D01*
G75*
G02*
X76651001Y-120788000I-249999J0D01*
G01*
X75825999Y-120788000D01*
G75*
G02*
X75576000Y-120538001I0J249999D01*
G01*
X75576000Y-119237999D01*
G75*
G02*
X75825999Y-118988000I249999J0D01*
G01*
X76651001Y-118988000D01*
G75*
G02*
X76901000Y-119237999I0J-249999D01*
G01*
G37*
%TD*%
%TO.C,C74*%
G36*
G01*
X75576000Y-117744001D02*
X75576000Y-116443999D01*
G75*
G02*
X75825999Y-116194000I249999J0D01*
G01*
X76651001Y-116194000D01*
G75*
G02*
X76901000Y-116443999I0J-249999D01*
G01*
X76901000Y-117744001D01*
G75*
G02*
X76651001Y-117994000I-249999J0D01*
G01*
X75825999Y-117994000D01*
G75*
G02*
X75576000Y-117744001I0J249999D01*
G01*
G37*
G36*
G01*
X72451000Y-117744001D02*
X72451000Y-116443999D01*
G75*
G02*
X72700999Y-116194000I249999J0D01*
G01*
X73526001Y-116194000D01*
G75*
G02*
X73776000Y-116443999I0J-249999D01*
G01*
X73776000Y-117744001D01*
G75*
G02*
X73526001Y-117994000I-249999J0D01*
G01*
X72700999Y-117994000D01*
G75*
G02*
X72451000Y-117744001I0J249999D01*
G01*
G37*
%TD*%
%TO.C,C73*%
G36*
G01*
X78094000Y-109331999D02*
X78094000Y-110632001D01*
G75*
G02*
X77844001Y-110882000I-249999J0D01*
G01*
X77018999Y-110882000D01*
G75*
G02*
X76769000Y-110632001I0J249999D01*
G01*
X76769000Y-109331999D01*
G75*
G02*
X77018999Y-109082000I249999J0D01*
G01*
X77844001Y-109082000D01*
G75*
G02*
X78094000Y-109331999I0J-249999D01*
G01*
G37*
G36*
G01*
X81219000Y-109331999D02*
X81219000Y-110632001D01*
G75*
G02*
X80969001Y-110882000I-249999J0D01*
G01*
X80143999Y-110882000D01*
G75*
G02*
X79894000Y-110632001I0J249999D01*
G01*
X79894000Y-109331999D01*
G75*
G02*
X80143999Y-109082000I249999J0D01*
G01*
X80969001Y-109082000D01*
G75*
G02*
X81219000Y-109331999I0J-249999D01*
G01*
G37*
%TD*%
%TO.C,C72*%
G36*
G01*
X67531000Y-104198000D02*
X66581000Y-104198000D01*
G75*
G02*
X66331000Y-103948000I0J250000D01*
G01*
X66331000Y-103273000D01*
G75*
G02*
X66581000Y-103023000I250000J0D01*
G01*
X67531000Y-103023000D01*
G75*
G02*
X67781000Y-103273000I0J-250000D01*
G01*
X67781000Y-103948000D01*
G75*
G02*
X67531000Y-104198000I-250000J0D01*
G01*
G37*
G36*
G01*
X67531000Y-106273000D02*
X66581000Y-106273000D01*
G75*
G02*
X66331000Y-106023000I0J250000D01*
G01*
X66331000Y-105348000D01*
G75*
G02*
X66581000Y-105098000I250000J0D01*
G01*
X67531000Y-105098000D01*
G75*
G02*
X67781000Y-105348000I0J-250000D01*
G01*
X67781000Y-106023000D01*
G75*
G02*
X67531000Y-106273000I-250000J0D01*
G01*
G37*
%TD*%
%TO.C,C71*%
G36*
G01*
X73776000Y-106537999D02*
X73776000Y-107838001D01*
G75*
G02*
X73526001Y-108088000I-249999J0D01*
G01*
X72700999Y-108088000D01*
G75*
G02*
X72451000Y-107838001I0J249999D01*
G01*
X72451000Y-106537999D01*
G75*
G02*
X72700999Y-106288000I249999J0D01*
G01*
X73526001Y-106288000D01*
G75*
G02*
X73776000Y-106537999I0J-249999D01*
G01*
G37*
G36*
G01*
X76901000Y-106537999D02*
X76901000Y-107838001D01*
G75*
G02*
X76651001Y-108088000I-249999J0D01*
G01*
X75825999Y-108088000D01*
G75*
G02*
X75576000Y-107838001I0J249999D01*
G01*
X75576000Y-106537999D01*
G75*
G02*
X75825999Y-106288000I249999J0D01*
G01*
X76651001Y-106288000D01*
G75*
G02*
X76901000Y-106537999I0J-249999D01*
G01*
G37*
%TD*%
%TO.C,C70*%
G36*
G01*
X75576000Y-105044001D02*
X75576000Y-103743999D01*
G75*
G02*
X75825999Y-103494000I249999J0D01*
G01*
X76651001Y-103494000D01*
G75*
G02*
X76901000Y-103743999I0J-249999D01*
G01*
X76901000Y-105044001D01*
G75*
G02*
X76651001Y-105294000I-249999J0D01*
G01*
X75825999Y-105294000D01*
G75*
G02*
X75576000Y-105044001I0J249999D01*
G01*
G37*
G36*
G01*
X72451000Y-105044001D02*
X72451000Y-103743999D01*
G75*
G02*
X72700999Y-103494000I249999J0D01*
G01*
X73526001Y-103494000D01*
G75*
G02*
X73776000Y-103743999I0J-249999D01*
G01*
X73776000Y-105044001D01*
G75*
G02*
X73526001Y-105294000I-249999J0D01*
G01*
X72700999Y-105294000D01*
G75*
G02*
X72451000Y-105044001I0J249999D01*
G01*
G37*
%TD*%
%TO.C,C69*%
G36*
G01*
X78094000Y-96631999D02*
X78094000Y-97932001D01*
G75*
G02*
X77844001Y-98182000I-249999J0D01*
G01*
X77018999Y-98182000D01*
G75*
G02*
X76769000Y-97932001I0J249999D01*
G01*
X76769000Y-96631999D01*
G75*
G02*
X77018999Y-96382000I249999J0D01*
G01*
X77844001Y-96382000D01*
G75*
G02*
X78094000Y-96631999I0J-249999D01*
G01*
G37*
G36*
G01*
X81219000Y-96631999D02*
X81219000Y-97932001D01*
G75*
G02*
X80969001Y-98182000I-249999J0D01*
G01*
X80143999Y-98182000D01*
G75*
G02*
X79894000Y-97932001I0J249999D01*
G01*
X79894000Y-96631999D01*
G75*
G02*
X80143999Y-96382000I249999J0D01*
G01*
X80969001Y-96382000D01*
G75*
G02*
X81219000Y-96631999I0J-249999D01*
G01*
G37*
%TD*%
%TO.C,C68*%
G36*
G01*
X67531000Y-91498000D02*
X66581000Y-91498000D01*
G75*
G02*
X66331000Y-91248000I0J250000D01*
G01*
X66331000Y-90573000D01*
G75*
G02*
X66581000Y-90323000I250000J0D01*
G01*
X67531000Y-90323000D01*
G75*
G02*
X67781000Y-90573000I0J-250000D01*
G01*
X67781000Y-91248000D01*
G75*
G02*
X67531000Y-91498000I-250000J0D01*
G01*
G37*
G36*
G01*
X67531000Y-93573000D02*
X66581000Y-93573000D01*
G75*
G02*
X66331000Y-93323000I0J250000D01*
G01*
X66331000Y-92648000D01*
G75*
G02*
X66581000Y-92398000I250000J0D01*
G01*
X67531000Y-92398000D01*
G75*
G02*
X67781000Y-92648000I0J-250000D01*
G01*
X67781000Y-93323000D01*
G75*
G02*
X67531000Y-93573000I-250000J0D01*
G01*
G37*
%TD*%
%TO.C,C67*%
G36*
G01*
X73776000Y-93837999D02*
X73776000Y-95138001D01*
G75*
G02*
X73526001Y-95388000I-249999J0D01*
G01*
X72700999Y-95388000D01*
G75*
G02*
X72451000Y-95138001I0J249999D01*
G01*
X72451000Y-93837999D01*
G75*
G02*
X72700999Y-93588000I249999J0D01*
G01*
X73526001Y-93588000D01*
G75*
G02*
X73776000Y-93837999I0J-249999D01*
G01*
G37*
G36*
G01*
X76901000Y-93837999D02*
X76901000Y-95138001D01*
G75*
G02*
X76651001Y-95388000I-249999J0D01*
G01*
X75825999Y-95388000D01*
G75*
G02*
X75576000Y-95138001I0J249999D01*
G01*
X75576000Y-93837999D01*
G75*
G02*
X75825999Y-93588000I249999J0D01*
G01*
X76651001Y-93588000D01*
G75*
G02*
X76901000Y-93837999I0J-249999D01*
G01*
G37*
%TD*%
%TO.C,C66*%
G36*
G01*
X75576000Y-92344001D02*
X75576000Y-91043999D01*
G75*
G02*
X75825999Y-90794000I249999J0D01*
G01*
X76651001Y-90794000D01*
G75*
G02*
X76901000Y-91043999I0J-249999D01*
G01*
X76901000Y-92344001D01*
G75*
G02*
X76651001Y-92594000I-249999J0D01*
G01*
X75825999Y-92594000D01*
G75*
G02*
X75576000Y-92344001I0J249999D01*
G01*
G37*
G36*
G01*
X72451000Y-92344001D02*
X72451000Y-91043999D01*
G75*
G02*
X72700999Y-90794000I249999J0D01*
G01*
X73526001Y-90794000D01*
G75*
G02*
X73776000Y-91043999I0J-249999D01*
G01*
X73776000Y-92344001D01*
G75*
G02*
X73526001Y-92594000I-249999J0D01*
G01*
X72700999Y-92594000D01*
G75*
G02*
X72451000Y-92344001I0J249999D01*
G01*
G37*
%TD*%
%TO.C,C65*%
G36*
G01*
X135390000Y-98002000D02*
X135390000Y-99102000D01*
G75*
G02*
X135140000Y-99352000I-250000J0D01*
G01*
X133040000Y-99352000D01*
G75*
G02*
X132790000Y-99102000I0J250000D01*
G01*
X132790000Y-98002000D01*
G75*
G02*
X133040000Y-97752000I250000J0D01*
G01*
X135140000Y-97752000D01*
G75*
G02*
X135390000Y-98002000I0J-250000D01*
G01*
G37*
G36*
G01*
X138990000Y-98002000D02*
X138990000Y-99102000D01*
G75*
G02*
X138740000Y-99352000I-250000J0D01*
G01*
X136640000Y-99352000D01*
G75*
G02*
X136390000Y-99102000I0J250000D01*
G01*
X136390000Y-98002000D01*
G75*
G02*
X136640000Y-97752000I250000J0D01*
G01*
X138740000Y-97752000D01*
G75*
G02*
X138990000Y-98002000I0J-250000D01*
G01*
G37*
%TD*%
%TO.C,C64*%
G36*
G01*
X149344000Y-91736000D02*
X149344000Y-90636000D01*
G75*
G02*
X149594000Y-90386000I250000J0D01*
G01*
X151694000Y-90386000D01*
G75*
G02*
X151944000Y-90636000I0J-250000D01*
G01*
X151944000Y-91736000D01*
G75*
G02*
X151694000Y-91986000I-250000J0D01*
G01*
X149594000Y-91986000D01*
G75*
G02*
X149344000Y-91736000I0J250000D01*
G01*
G37*
G36*
G01*
X145744000Y-91736000D02*
X145744000Y-90636000D01*
G75*
G02*
X145994000Y-90386000I250000J0D01*
G01*
X148094000Y-90386000D01*
G75*
G02*
X148344000Y-90636000I0J-250000D01*
G01*
X148344000Y-91736000D01*
G75*
G02*
X148094000Y-91986000I-250000J0D01*
G01*
X145994000Y-91986000D01*
G75*
G02*
X145744000Y-91736000I0J250000D01*
G01*
G37*
%TD*%
%TO.C,C63*%
G36*
G01*
X136086000Y-93693000D02*
X136086000Y-92743000D01*
G75*
G02*
X136336000Y-92493000I250000J0D01*
G01*
X137011000Y-92493000D01*
G75*
G02*
X137261000Y-92743000I0J-250000D01*
G01*
X137261000Y-93693000D01*
G75*
G02*
X137011000Y-93943000I-250000J0D01*
G01*
X136336000Y-93943000D01*
G75*
G02*
X136086000Y-93693000I0J250000D01*
G01*
G37*
G36*
G01*
X134011000Y-93693000D02*
X134011000Y-92743000D01*
G75*
G02*
X134261000Y-92493000I250000J0D01*
G01*
X134936000Y-92493000D01*
G75*
G02*
X135186000Y-92743000I0J-250000D01*
G01*
X135186000Y-93693000D01*
G75*
G02*
X134936000Y-93943000I-250000J0D01*
G01*
X134261000Y-93943000D01*
G75*
G02*
X134011000Y-93693000I0J250000D01*
G01*
G37*
%TD*%
%TO.C,C62*%
G36*
G01*
X148648000Y-96045000D02*
X148648000Y-96995000D01*
G75*
G02*
X148398000Y-97245000I-250000J0D01*
G01*
X147723000Y-97245000D01*
G75*
G02*
X147473000Y-96995000I0J250000D01*
G01*
X147473000Y-96045000D01*
G75*
G02*
X147723000Y-95795000I250000J0D01*
G01*
X148398000Y-95795000D01*
G75*
G02*
X148648000Y-96045000I0J-250000D01*
G01*
G37*
G36*
G01*
X150723000Y-96045000D02*
X150723000Y-96995000D01*
G75*
G02*
X150473000Y-97245000I-250000J0D01*
G01*
X149798000Y-97245000D01*
G75*
G02*
X149548000Y-96995000I0J250000D01*
G01*
X149548000Y-96045000D01*
G75*
G02*
X149798000Y-95795000I250000J0D01*
G01*
X150473000Y-95795000D01*
G75*
G02*
X150723000Y-96045000I0J-250000D01*
G01*
G37*
%TD*%
%TO.C,C61*%
G36*
G01*
X139667000Y-93784000D02*
X138717000Y-93784000D01*
G75*
G02*
X138467000Y-93534000I0J250000D01*
G01*
X138467000Y-92859000D01*
G75*
G02*
X138717000Y-92609000I250000J0D01*
G01*
X139667000Y-92609000D01*
G75*
G02*
X139917000Y-92859000I0J-250000D01*
G01*
X139917000Y-93534000D01*
G75*
G02*
X139667000Y-93784000I-250000J0D01*
G01*
G37*
G36*
G01*
X139667000Y-95859000D02*
X138717000Y-95859000D01*
G75*
G02*
X138467000Y-95609000I0J250000D01*
G01*
X138467000Y-94934000D01*
G75*
G02*
X138717000Y-94684000I250000J0D01*
G01*
X139667000Y-94684000D01*
G75*
G02*
X139917000Y-94934000I0J-250000D01*
G01*
X139917000Y-95609000D01*
G75*
G02*
X139667000Y-95859000I-250000J0D01*
G01*
G37*
%TD*%
%TO.C,C60*%
G36*
G01*
X145067000Y-95954000D02*
X146017000Y-95954000D01*
G75*
G02*
X146267000Y-96204000I0J-250000D01*
G01*
X146267000Y-96879000D01*
G75*
G02*
X146017000Y-97129000I-250000J0D01*
G01*
X145067000Y-97129000D01*
G75*
G02*
X144817000Y-96879000I0J250000D01*
G01*
X144817000Y-96204000D01*
G75*
G02*
X145067000Y-95954000I250000J0D01*
G01*
G37*
G36*
G01*
X145067000Y-93879000D02*
X146017000Y-93879000D01*
G75*
G02*
X146267000Y-94129000I0J-250000D01*
G01*
X146267000Y-94804000D01*
G75*
G02*
X146017000Y-95054000I-250000J0D01*
G01*
X145067000Y-95054000D01*
G75*
G02*
X144817000Y-94804000I0J250000D01*
G01*
X144817000Y-94129000D01*
G75*
G02*
X145067000Y-93879000I250000J0D01*
G01*
G37*
%TD*%
%TO.C,C59*%
G36*
G01*
X149344000Y-85640000D02*
X149344000Y-84540000D01*
G75*
G02*
X149594000Y-84290000I250000J0D01*
G01*
X151694000Y-84290000D01*
G75*
G02*
X151944000Y-84540000I0J-250000D01*
G01*
X151944000Y-85640000D01*
G75*
G02*
X151694000Y-85890000I-250000J0D01*
G01*
X149594000Y-85890000D01*
G75*
G02*
X149344000Y-85640000I0J250000D01*
G01*
G37*
G36*
G01*
X145744000Y-85640000D02*
X145744000Y-84540000D01*
G75*
G02*
X145994000Y-84290000I250000J0D01*
G01*
X148094000Y-84290000D01*
G75*
G02*
X148344000Y-84540000I0J-250000D01*
G01*
X148344000Y-85640000D01*
G75*
G02*
X148094000Y-85890000I-250000J0D01*
G01*
X145994000Y-85890000D01*
G75*
G02*
X145744000Y-85640000I0J250000D01*
G01*
G37*
%TD*%
%TO.C,C58*%
G36*
G01*
X114104000Y-125509000D02*
X114104000Y-126459000D01*
G75*
G02*
X113854000Y-126709000I-250000J0D01*
G01*
X113179000Y-126709000D01*
G75*
G02*
X112929000Y-126459000I0J250000D01*
G01*
X112929000Y-125509000D01*
G75*
G02*
X113179000Y-125259000I250000J0D01*
G01*
X113854000Y-125259000D01*
G75*
G02*
X114104000Y-125509000I0J-250000D01*
G01*
G37*
G36*
G01*
X116179000Y-125509000D02*
X116179000Y-126459000D01*
G75*
G02*
X115929000Y-126709000I-250000J0D01*
G01*
X115254000Y-126709000D01*
G75*
G02*
X115004000Y-126459000I0J250000D01*
G01*
X115004000Y-125509000D01*
G75*
G02*
X115254000Y-125259000I250000J0D01*
G01*
X115929000Y-125259000D01*
G75*
G02*
X116179000Y-125509000I0J-250000D01*
G01*
G37*
%TD*%
%TO.C,C57*%
G36*
G01*
X110432000Y-122141000D02*
X110432000Y-121191000D01*
G75*
G02*
X110682000Y-120941000I250000J0D01*
G01*
X111357000Y-120941000D01*
G75*
G02*
X111607000Y-121191000I0J-250000D01*
G01*
X111607000Y-122141000D01*
G75*
G02*
X111357000Y-122391000I-250000J0D01*
G01*
X110682000Y-122391000D01*
G75*
G02*
X110432000Y-122141000I0J250000D01*
G01*
G37*
G36*
G01*
X108357000Y-122141000D02*
X108357000Y-121191000D01*
G75*
G02*
X108607000Y-120941000I250000J0D01*
G01*
X109282000Y-120941000D01*
G75*
G02*
X109532000Y-121191000I0J-250000D01*
G01*
X109532000Y-122141000D01*
G75*
G02*
X109282000Y-122391000I-250000J0D01*
G01*
X108607000Y-122391000D01*
G75*
G02*
X108357000Y-122141000I0J250000D01*
G01*
G37*
%TD*%
%TO.C,C56*%
G36*
G01*
X119601000Y-118951500D02*
X118651000Y-118951500D01*
G75*
G02*
X118401000Y-118701500I0J250000D01*
G01*
X118401000Y-118026500D01*
G75*
G02*
X118651000Y-117776500I250000J0D01*
G01*
X119601000Y-117776500D01*
G75*
G02*
X119851000Y-118026500I0J-250000D01*
G01*
X119851000Y-118701500D01*
G75*
G02*
X119601000Y-118951500I-250000J0D01*
G01*
G37*
G36*
G01*
X119601000Y-121026500D02*
X118651000Y-121026500D01*
G75*
G02*
X118401000Y-120776500I0J250000D01*
G01*
X118401000Y-120101500D01*
G75*
G02*
X118651000Y-119851500I250000J0D01*
G01*
X119601000Y-119851500D01*
G75*
G02*
X119851000Y-120101500I0J-250000D01*
G01*
X119851000Y-120776500D01*
G75*
G02*
X119601000Y-121026500I-250000J0D01*
G01*
G37*
%TD*%
%TO.C,C55*%
G36*
G01*
X73771999Y-149998000D02*
X75072001Y-149998000D01*
G75*
G02*
X75322000Y-150247999I0J-249999D01*
G01*
X75322000Y-151073001D01*
G75*
G02*
X75072001Y-151323000I-249999J0D01*
G01*
X73771999Y-151323000D01*
G75*
G02*
X73522000Y-151073001I0J249999D01*
G01*
X73522000Y-150247999D01*
G75*
G02*
X73771999Y-149998000I249999J0D01*
G01*
G37*
G36*
G01*
X73771999Y-146873000D02*
X75072001Y-146873000D01*
G75*
G02*
X75322000Y-147122999I0J-249999D01*
G01*
X75322000Y-147948001D01*
G75*
G02*
X75072001Y-148198000I-249999J0D01*
G01*
X73771999Y-148198000D01*
G75*
G02*
X73522000Y-147948001I0J249999D01*
G01*
X73522000Y-147122999D01*
G75*
G02*
X73771999Y-146873000I249999J0D01*
G01*
G37*
%TD*%
%TO.C,C54*%
G36*
G01*
X117061000Y-116898000D02*
X116111000Y-116898000D01*
G75*
G02*
X115861000Y-116648000I0J250000D01*
G01*
X115861000Y-115973000D01*
G75*
G02*
X116111000Y-115723000I250000J0D01*
G01*
X117061000Y-115723000D01*
G75*
G02*
X117311000Y-115973000I0J-250000D01*
G01*
X117311000Y-116648000D01*
G75*
G02*
X117061000Y-116898000I-250000J0D01*
G01*
G37*
G36*
G01*
X117061000Y-118973000D02*
X116111000Y-118973000D01*
G75*
G02*
X115861000Y-118723000I0J250000D01*
G01*
X115861000Y-118048000D01*
G75*
G02*
X116111000Y-117798000I250000J0D01*
G01*
X117061000Y-117798000D01*
G75*
G02*
X117311000Y-118048000I0J-250000D01*
G01*
X117311000Y-118723000D01*
G75*
G02*
X117061000Y-118973000I-250000J0D01*
G01*
G37*
%TD*%
%TO.C,C53*%
G36*
G01*
X114521000Y-116898000D02*
X113571000Y-116898000D01*
G75*
G02*
X113321000Y-116648000I0J250000D01*
G01*
X113321000Y-115973000D01*
G75*
G02*
X113571000Y-115723000I250000J0D01*
G01*
X114521000Y-115723000D01*
G75*
G02*
X114771000Y-115973000I0J-250000D01*
G01*
X114771000Y-116648000D01*
G75*
G02*
X114521000Y-116898000I-250000J0D01*
G01*
G37*
G36*
G01*
X114521000Y-118973000D02*
X113571000Y-118973000D01*
G75*
G02*
X113321000Y-118723000I0J250000D01*
G01*
X113321000Y-118048000D01*
G75*
G02*
X113571000Y-117798000I250000J0D01*
G01*
X114521000Y-117798000D01*
G75*
G02*
X114771000Y-118048000I0J-250000D01*
G01*
X114771000Y-118723000D01*
G75*
G02*
X114521000Y-118973000I-250000J0D01*
G01*
G37*
%TD*%
%TO.C,C52*%
G36*
G01*
X106647000Y-116898000D02*
X105697000Y-116898000D01*
G75*
G02*
X105447000Y-116648000I0J250000D01*
G01*
X105447000Y-115973000D01*
G75*
G02*
X105697000Y-115723000I250000J0D01*
G01*
X106647000Y-115723000D01*
G75*
G02*
X106897000Y-115973000I0J-250000D01*
G01*
X106897000Y-116648000D01*
G75*
G02*
X106647000Y-116898000I-250000J0D01*
G01*
G37*
G36*
G01*
X106647000Y-118973000D02*
X105697000Y-118973000D01*
G75*
G02*
X105447000Y-118723000I0J250000D01*
G01*
X105447000Y-118048000D01*
G75*
G02*
X105697000Y-117798000I250000J0D01*
G01*
X106647000Y-117798000D01*
G75*
G02*
X106897000Y-118048000I0J-250000D01*
G01*
X106897000Y-118723000D01*
G75*
G02*
X106647000Y-118973000I-250000J0D01*
G01*
G37*
%TD*%
%TO.C,C51*%
G36*
G01*
X98519000Y-116898000D02*
X97569000Y-116898000D01*
G75*
G02*
X97319000Y-116648000I0J250000D01*
G01*
X97319000Y-115973000D01*
G75*
G02*
X97569000Y-115723000I250000J0D01*
G01*
X98519000Y-115723000D01*
G75*
G02*
X98769000Y-115973000I0J-250000D01*
G01*
X98769000Y-116648000D01*
G75*
G02*
X98519000Y-116898000I-250000J0D01*
G01*
G37*
G36*
G01*
X98519000Y-118973000D02*
X97569000Y-118973000D01*
G75*
G02*
X97319000Y-118723000I0J250000D01*
G01*
X97319000Y-118048000D01*
G75*
G02*
X97569000Y-117798000I250000J0D01*
G01*
X98519000Y-117798000D01*
G75*
G02*
X98769000Y-118048000I0J-250000D01*
G01*
X98769000Y-118723000D01*
G75*
G02*
X98519000Y-118973000I-250000J0D01*
G01*
G37*
%TD*%
%TO.C,C50*%
G36*
G01*
X90391000Y-116898000D02*
X89441000Y-116898000D01*
G75*
G02*
X89191000Y-116648000I0J250000D01*
G01*
X89191000Y-115973000D01*
G75*
G02*
X89441000Y-115723000I250000J0D01*
G01*
X90391000Y-115723000D01*
G75*
G02*
X90641000Y-115973000I0J-250000D01*
G01*
X90641000Y-116648000D01*
G75*
G02*
X90391000Y-116898000I-250000J0D01*
G01*
G37*
G36*
G01*
X90391000Y-118973000D02*
X89441000Y-118973000D01*
G75*
G02*
X89191000Y-118723000I0J250000D01*
G01*
X89191000Y-118048000D01*
G75*
G02*
X89441000Y-117798000I250000J0D01*
G01*
X90391000Y-117798000D01*
G75*
G02*
X90641000Y-118048000I0J-250000D01*
G01*
X90641000Y-118723000D01*
G75*
G02*
X90391000Y-118973000I-250000J0D01*
G01*
G37*
%TD*%
%TO.C,C49*%
G36*
G01*
X82517000Y-116898000D02*
X81567000Y-116898000D01*
G75*
G02*
X81317000Y-116648000I0J250000D01*
G01*
X81317000Y-115973000D01*
G75*
G02*
X81567000Y-115723000I250000J0D01*
G01*
X82517000Y-115723000D01*
G75*
G02*
X82767000Y-115973000I0J-250000D01*
G01*
X82767000Y-116648000D01*
G75*
G02*
X82517000Y-116898000I-250000J0D01*
G01*
G37*
G36*
G01*
X82517000Y-118973000D02*
X81567000Y-118973000D01*
G75*
G02*
X81317000Y-118723000I0J250000D01*
G01*
X81317000Y-118048000D01*
G75*
G02*
X81567000Y-117798000I250000J0D01*
G01*
X82517000Y-117798000D01*
G75*
G02*
X82767000Y-118048000I0J-250000D01*
G01*
X82767000Y-118723000D01*
G75*
G02*
X82517000Y-118973000I-250000J0D01*
G01*
G37*
%TD*%
%TO.C,C48*%
G36*
G01*
X79977000Y-116898000D02*
X79027000Y-116898000D01*
G75*
G02*
X78777000Y-116648000I0J250000D01*
G01*
X78777000Y-115973000D01*
G75*
G02*
X79027000Y-115723000I250000J0D01*
G01*
X79977000Y-115723000D01*
G75*
G02*
X80227000Y-115973000I0J-250000D01*
G01*
X80227000Y-116648000D01*
G75*
G02*
X79977000Y-116898000I-250000J0D01*
G01*
G37*
G36*
G01*
X79977000Y-118973000D02*
X79027000Y-118973000D01*
G75*
G02*
X78777000Y-118723000I0J250000D01*
G01*
X78777000Y-118048000D01*
G75*
G02*
X79027000Y-117798000I250000J0D01*
G01*
X79977000Y-117798000D01*
G75*
G02*
X80227000Y-118048000I0J-250000D01*
G01*
X80227000Y-118723000D01*
G75*
G02*
X79977000Y-118973000I-250000J0D01*
G01*
G37*
%TD*%
%TO.C,C47*%
G36*
G01*
X116111000Y-143452000D02*
X117061000Y-143452000D01*
G75*
G02*
X117311000Y-143702000I0J-250000D01*
G01*
X117311000Y-144377000D01*
G75*
G02*
X117061000Y-144627000I-250000J0D01*
G01*
X116111000Y-144627000D01*
G75*
G02*
X115861000Y-144377000I0J250000D01*
G01*
X115861000Y-143702000D01*
G75*
G02*
X116111000Y-143452000I250000J0D01*
G01*
G37*
G36*
G01*
X116111000Y-141377000D02*
X117061000Y-141377000D01*
G75*
G02*
X117311000Y-141627000I0J-250000D01*
G01*
X117311000Y-142302000D01*
G75*
G02*
X117061000Y-142552000I-250000J0D01*
G01*
X116111000Y-142552000D01*
G75*
G02*
X115861000Y-142302000I0J250000D01*
G01*
X115861000Y-141627000D01*
G75*
G02*
X116111000Y-141377000I250000J0D01*
G01*
G37*
%TD*%
%TO.C,C46*%
G36*
G01*
X113571000Y-143452000D02*
X114521000Y-143452000D01*
G75*
G02*
X114771000Y-143702000I0J-250000D01*
G01*
X114771000Y-144377000D01*
G75*
G02*
X114521000Y-144627000I-250000J0D01*
G01*
X113571000Y-144627000D01*
G75*
G02*
X113321000Y-144377000I0J250000D01*
G01*
X113321000Y-143702000D01*
G75*
G02*
X113571000Y-143452000I250000J0D01*
G01*
G37*
G36*
G01*
X113571000Y-141377000D02*
X114521000Y-141377000D01*
G75*
G02*
X114771000Y-141627000I0J-250000D01*
G01*
X114771000Y-142302000D01*
G75*
G02*
X114521000Y-142552000I-250000J0D01*
G01*
X113571000Y-142552000D01*
G75*
G02*
X113321000Y-142302000I0J250000D01*
G01*
X113321000Y-141627000D01*
G75*
G02*
X113571000Y-141377000I250000J0D01*
G01*
G37*
%TD*%
%TO.C,C45*%
G36*
G01*
X105697000Y-143452000D02*
X106647000Y-143452000D01*
G75*
G02*
X106897000Y-143702000I0J-250000D01*
G01*
X106897000Y-144377000D01*
G75*
G02*
X106647000Y-144627000I-250000J0D01*
G01*
X105697000Y-144627000D01*
G75*
G02*
X105447000Y-144377000I0J250000D01*
G01*
X105447000Y-143702000D01*
G75*
G02*
X105697000Y-143452000I250000J0D01*
G01*
G37*
G36*
G01*
X105697000Y-141377000D02*
X106647000Y-141377000D01*
G75*
G02*
X106897000Y-141627000I0J-250000D01*
G01*
X106897000Y-142302000D01*
G75*
G02*
X106647000Y-142552000I-250000J0D01*
G01*
X105697000Y-142552000D01*
G75*
G02*
X105447000Y-142302000I0J250000D01*
G01*
X105447000Y-141627000D01*
G75*
G02*
X105697000Y-141377000I250000J0D01*
G01*
G37*
%TD*%
%TO.C,C44*%
G36*
G01*
X97569000Y-143452000D02*
X98519000Y-143452000D01*
G75*
G02*
X98769000Y-143702000I0J-250000D01*
G01*
X98769000Y-144377000D01*
G75*
G02*
X98519000Y-144627000I-250000J0D01*
G01*
X97569000Y-144627000D01*
G75*
G02*
X97319000Y-144377000I0J250000D01*
G01*
X97319000Y-143702000D01*
G75*
G02*
X97569000Y-143452000I250000J0D01*
G01*
G37*
G36*
G01*
X97569000Y-141377000D02*
X98519000Y-141377000D01*
G75*
G02*
X98769000Y-141627000I0J-250000D01*
G01*
X98769000Y-142302000D01*
G75*
G02*
X98519000Y-142552000I-250000J0D01*
G01*
X97569000Y-142552000D01*
G75*
G02*
X97319000Y-142302000I0J250000D01*
G01*
X97319000Y-141627000D01*
G75*
G02*
X97569000Y-141377000I250000J0D01*
G01*
G37*
%TD*%
%TO.C,C43*%
G36*
G01*
X89441000Y-143452000D02*
X90391000Y-143452000D01*
G75*
G02*
X90641000Y-143702000I0J-250000D01*
G01*
X90641000Y-144377000D01*
G75*
G02*
X90391000Y-144627000I-250000J0D01*
G01*
X89441000Y-144627000D01*
G75*
G02*
X89191000Y-144377000I0J250000D01*
G01*
X89191000Y-143702000D01*
G75*
G02*
X89441000Y-143452000I250000J0D01*
G01*
G37*
G36*
G01*
X89441000Y-141377000D02*
X90391000Y-141377000D01*
G75*
G02*
X90641000Y-141627000I0J-250000D01*
G01*
X90641000Y-142302000D01*
G75*
G02*
X90391000Y-142552000I-250000J0D01*
G01*
X89441000Y-142552000D01*
G75*
G02*
X89191000Y-142302000I0J250000D01*
G01*
X89191000Y-141627000D01*
G75*
G02*
X89441000Y-141377000I250000J0D01*
G01*
G37*
%TD*%
%TO.C,C42*%
G36*
G01*
X81567000Y-143452000D02*
X82517000Y-143452000D01*
G75*
G02*
X82767000Y-143702000I0J-250000D01*
G01*
X82767000Y-144377000D01*
G75*
G02*
X82517000Y-144627000I-250000J0D01*
G01*
X81567000Y-144627000D01*
G75*
G02*
X81317000Y-144377000I0J250000D01*
G01*
X81317000Y-143702000D01*
G75*
G02*
X81567000Y-143452000I250000J0D01*
G01*
G37*
G36*
G01*
X81567000Y-141377000D02*
X82517000Y-141377000D01*
G75*
G02*
X82767000Y-141627000I0J-250000D01*
G01*
X82767000Y-142302000D01*
G75*
G02*
X82517000Y-142552000I-250000J0D01*
G01*
X81567000Y-142552000D01*
G75*
G02*
X81317000Y-142302000I0J250000D01*
G01*
X81317000Y-141627000D01*
G75*
G02*
X81567000Y-141377000I250000J0D01*
G01*
G37*
%TD*%
%TO.C,C41*%
G36*
G01*
X79027000Y-143452000D02*
X79977000Y-143452000D01*
G75*
G02*
X80227000Y-143702000I0J-250000D01*
G01*
X80227000Y-144377000D01*
G75*
G02*
X79977000Y-144627000I-250000J0D01*
G01*
X79027000Y-144627000D01*
G75*
G02*
X78777000Y-144377000I0J250000D01*
G01*
X78777000Y-143702000D01*
G75*
G02*
X79027000Y-143452000I250000J0D01*
G01*
G37*
G36*
G01*
X79027000Y-141377000D02*
X79977000Y-141377000D01*
G75*
G02*
X80227000Y-141627000I0J-250000D01*
G01*
X80227000Y-142302000D01*
G75*
G02*
X79977000Y-142552000I-250000J0D01*
G01*
X79027000Y-142552000D01*
G75*
G02*
X78777000Y-142302000I0J250000D01*
G01*
X78777000Y-141627000D01*
G75*
G02*
X79027000Y-141377000I250000J0D01*
G01*
G37*
%TD*%
%TO.C,C40*%
G36*
G01*
X114104000Y-130081000D02*
X114104000Y-131031000D01*
G75*
G02*
X113854000Y-131281000I-250000J0D01*
G01*
X113179000Y-131281000D01*
G75*
G02*
X112929000Y-131031000I0J250000D01*
G01*
X112929000Y-130081000D01*
G75*
G02*
X113179000Y-129831000I250000J0D01*
G01*
X113854000Y-129831000D01*
G75*
G02*
X114104000Y-130081000I0J-250000D01*
G01*
G37*
G36*
G01*
X116179000Y-130081000D02*
X116179000Y-131031000D01*
G75*
G02*
X115929000Y-131281000I-250000J0D01*
G01*
X115254000Y-131281000D01*
G75*
G02*
X115004000Y-131031000I0J250000D01*
G01*
X115004000Y-130081000D01*
G75*
G02*
X115254000Y-129831000I250000J0D01*
G01*
X115929000Y-129831000D01*
G75*
G02*
X116179000Y-130081000I0J-250000D01*
G01*
G37*
%TD*%
%TO.C,C39*%
G36*
G01*
X117569000Y-133916000D02*
X116619000Y-133916000D01*
G75*
G02*
X116369000Y-133666000I0J250000D01*
G01*
X116369000Y-132991000D01*
G75*
G02*
X116619000Y-132741000I250000J0D01*
G01*
X117569000Y-132741000D01*
G75*
G02*
X117819000Y-132991000I0J-250000D01*
G01*
X117819000Y-133666000D01*
G75*
G02*
X117569000Y-133916000I-250000J0D01*
G01*
G37*
G36*
G01*
X117569000Y-135991000D02*
X116619000Y-135991000D01*
G75*
G02*
X116369000Y-135741000I0J250000D01*
G01*
X116369000Y-135066000D01*
G75*
G02*
X116619000Y-134816000I250000J0D01*
G01*
X117569000Y-134816000D01*
G75*
G02*
X117819000Y-135066000I0J-250000D01*
G01*
X117819000Y-135741000D01*
G75*
G02*
X117569000Y-135991000I-250000J0D01*
G01*
G37*
%TD*%
%TO.C,C38*%
G36*
G01*
X116020000Y-140175000D02*
X116020000Y-139225000D01*
G75*
G02*
X116270000Y-138975000I250000J0D01*
G01*
X116945000Y-138975000D01*
G75*
G02*
X117195000Y-139225000I0J-250000D01*
G01*
X117195000Y-140175000D01*
G75*
G02*
X116945000Y-140425000I-250000J0D01*
G01*
X116270000Y-140425000D01*
G75*
G02*
X116020000Y-140175000I0J250000D01*
G01*
G37*
G36*
G01*
X113945000Y-140175000D02*
X113945000Y-139225000D01*
G75*
G02*
X114195000Y-138975000I250000J0D01*
G01*
X114870000Y-138975000D01*
G75*
G02*
X115120000Y-139225000I0J-250000D01*
G01*
X115120000Y-140175000D01*
G75*
G02*
X114870000Y-140425000I-250000J0D01*
G01*
X114195000Y-140425000D01*
G75*
G02*
X113945000Y-140175000I0J250000D01*
G01*
G37*
%TD*%
%TO.C,C37*%
G36*
G01*
X86302000Y-158717000D02*
X86302000Y-157767000D01*
G75*
G02*
X86552000Y-157517000I250000J0D01*
G01*
X87227000Y-157517000D01*
G75*
G02*
X87477000Y-157767000I0J-250000D01*
G01*
X87477000Y-158717000D01*
G75*
G02*
X87227000Y-158967000I-250000J0D01*
G01*
X86552000Y-158967000D01*
G75*
G02*
X86302000Y-158717000I0J250000D01*
G01*
G37*
G36*
G01*
X84227000Y-158717000D02*
X84227000Y-157767000D01*
G75*
G02*
X84477000Y-157517000I250000J0D01*
G01*
X85152000Y-157517000D01*
G75*
G02*
X85402000Y-157767000I0J-250000D01*
G01*
X85402000Y-158717000D01*
G75*
G02*
X85152000Y-158967000I-250000J0D01*
G01*
X84477000Y-158967000D01*
G75*
G02*
X84227000Y-158717000I0J250000D01*
G01*
G37*
%TD*%
%TO.C,C36*%
G36*
G01*
X86302000Y-161511000D02*
X86302000Y-160561000D01*
G75*
G02*
X86552000Y-160311000I250000J0D01*
G01*
X87227000Y-160311000D01*
G75*
G02*
X87477000Y-160561000I0J-250000D01*
G01*
X87477000Y-161511000D01*
G75*
G02*
X87227000Y-161761000I-250000J0D01*
G01*
X86552000Y-161761000D01*
G75*
G02*
X86302000Y-161511000I0J250000D01*
G01*
G37*
G36*
G01*
X84227000Y-161511000D02*
X84227000Y-160561000D01*
G75*
G02*
X84477000Y-160311000I250000J0D01*
G01*
X85152000Y-160311000D01*
G75*
G02*
X85402000Y-160561000I0J-250000D01*
G01*
X85402000Y-161511000D01*
G75*
G02*
X85152000Y-161761000I-250000J0D01*
G01*
X84477000Y-161761000D01*
G75*
G02*
X84227000Y-161511000I0J250000D01*
G01*
G37*
%TD*%
%TO.C,C35*%
G36*
G01*
X75634000Y-160241000D02*
X75634000Y-159291000D01*
G75*
G02*
X75884000Y-159041000I250000J0D01*
G01*
X76559000Y-159041000D01*
G75*
G02*
X76809000Y-159291000I0J-250000D01*
G01*
X76809000Y-160241000D01*
G75*
G02*
X76559000Y-160491000I-250000J0D01*
G01*
X75884000Y-160491000D01*
G75*
G02*
X75634000Y-160241000I0J250000D01*
G01*
G37*
G36*
G01*
X73559000Y-160241000D02*
X73559000Y-159291000D01*
G75*
G02*
X73809000Y-159041000I250000J0D01*
G01*
X74484000Y-159041000D01*
G75*
G02*
X74734000Y-159291000I0J-250000D01*
G01*
X74734000Y-160241000D01*
G75*
G02*
X74484000Y-160491000I-250000J0D01*
G01*
X73809000Y-160491000D01*
G75*
G02*
X73559000Y-160241000I0J250000D01*
G01*
G37*
%TD*%
%TO.C,C34*%
G36*
G01*
X75634000Y-162781000D02*
X75634000Y-161831000D01*
G75*
G02*
X75884000Y-161581000I250000J0D01*
G01*
X76559000Y-161581000D01*
G75*
G02*
X76809000Y-161831000I0J-250000D01*
G01*
X76809000Y-162781000D01*
G75*
G02*
X76559000Y-163031000I-250000J0D01*
G01*
X75884000Y-163031000D01*
G75*
G02*
X75634000Y-162781000I0J250000D01*
G01*
G37*
G36*
G01*
X73559000Y-162781000D02*
X73559000Y-161831000D01*
G75*
G02*
X73809000Y-161581000I250000J0D01*
G01*
X74484000Y-161581000D01*
G75*
G02*
X74734000Y-161831000I0J-250000D01*
G01*
X74734000Y-162781000D01*
G75*
G02*
X74484000Y-163031000I-250000J0D01*
G01*
X73809000Y-163031000D01*
G75*
G02*
X73559000Y-162781000I0J250000D01*
G01*
G37*
%TD*%
%TO.C,C31*%
G36*
G01*
X75576000Y-165750001D02*
X75576000Y-164449999D01*
G75*
G02*
X75825999Y-164200000I249999J0D01*
G01*
X76651001Y-164200000D01*
G75*
G02*
X76901000Y-164449999I0J-249999D01*
G01*
X76901000Y-165750001D01*
G75*
G02*
X76651001Y-166000000I-249999J0D01*
G01*
X75825999Y-166000000D01*
G75*
G02*
X75576000Y-165750001I0J249999D01*
G01*
G37*
G36*
G01*
X72451000Y-165750001D02*
X72451000Y-164449999D01*
G75*
G02*
X72700999Y-164200000I249999J0D01*
G01*
X73526001Y-164200000D01*
G75*
G02*
X73776000Y-164449999I0J-249999D01*
G01*
X73776000Y-165750001D01*
G75*
G02*
X73526001Y-166000000I-249999J0D01*
G01*
X72700999Y-166000000D01*
G75*
G02*
X72451000Y-165750001I0J249999D01*
G01*
G37*
%TD*%
%TO.C,C23*%
G36*
G01*
X102246000Y-139080001D02*
X102246000Y-137779999D01*
G75*
G02*
X102495999Y-137530000I249999J0D01*
G01*
X103321001Y-137530000D01*
G75*
G02*
X103571000Y-137779999I0J-249999D01*
G01*
X103571000Y-139080001D01*
G75*
G02*
X103321001Y-139330000I-249999J0D01*
G01*
X102495999Y-139330000D01*
G75*
G02*
X102246000Y-139080001I0J249999D01*
G01*
G37*
G36*
G01*
X99121000Y-139080001D02*
X99121000Y-137779999D01*
G75*
G02*
X99370999Y-137530000I249999J0D01*
G01*
X100196001Y-137530000D01*
G75*
G02*
X100446000Y-137779999I0J-249999D01*
G01*
X100446000Y-139080001D01*
G75*
G02*
X100196001Y-139330000I-249999J0D01*
G01*
X99370999Y-139330000D01*
G75*
G02*
X99121000Y-139080001I0J249999D01*
G01*
G37*
%TD*%
%TO.C,C22*%
G36*
G01*
X102246000Y-136286001D02*
X102246000Y-134985999D01*
G75*
G02*
X102495999Y-134736000I249999J0D01*
G01*
X103321001Y-134736000D01*
G75*
G02*
X103571000Y-134985999I0J-249999D01*
G01*
X103571000Y-136286001D01*
G75*
G02*
X103321001Y-136536000I-249999J0D01*
G01*
X102495999Y-136536000D01*
G75*
G02*
X102246000Y-136286001I0J249999D01*
G01*
G37*
G36*
G01*
X99121000Y-136286001D02*
X99121000Y-134985999D01*
G75*
G02*
X99370999Y-134736000I249999J0D01*
G01*
X100196001Y-134736000D01*
G75*
G02*
X100446000Y-134985999I0J-249999D01*
G01*
X100446000Y-136286001D01*
G75*
G02*
X100196001Y-136536000I-249999J0D01*
G01*
X99370999Y-136536000D01*
G75*
G02*
X99121000Y-136286001I0J249999D01*
G01*
G37*
%TD*%
%TO.C,C21*%
G36*
G01*
X96070000Y-135669000D02*
X96070000Y-136619000D01*
G75*
G02*
X95820000Y-136869000I-250000J0D01*
G01*
X95145000Y-136869000D01*
G75*
G02*
X94895000Y-136619000I0J250000D01*
G01*
X94895000Y-135669000D01*
G75*
G02*
X95145000Y-135419000I250000J0D01*
G01*
X95820000Y-135419000D01*
G75*
G02*
X96070000Y-135669000I0J-250000D01*
G01*
G37*
G36*
G01*
X98145000Y-135669000D02*
X98145000Y-136619000D01*
G75*
G02*
X97895000Y-136869000I-250000J0D01*
G01*
X97220000Y-136869000D01*
G75*
G02*
X96970000Y-136619000I0J250000D01*
G01*
X96970000Y-135669000D01*
G75*
G02*
X97220000Y-135419000I250000J0D01*
G01*
X97895000Y-135419000D01*
G75*
G02*
X98145000Y-135669000I0J-250000D01*
G01*
G37*
%TD*%
%TO.C,C20*%
G36*
G01*
X96091500Y-138209000D02*
X96091500Y-139159000D01*
G75*
G02*
X95841500Y-139409000I-250000J0D01*
G01*
X95166500Y-139409000D01*
G75*
G02*
X94916500Y-139159000I0J250000D01*
G01*
X94916500Y-138209000D01*
G75*
G02*
X95166500Y-137959000I250000J0D01*
G01*
X95841500Y-137959000D01*
G75*
G02*
X96091500Y-138209000I0J-250000D01*
G01*
G37*
G36*
G01*
X98166500Y-138209000D02*
X98166500Y-139159000D01*
G75*
G02*
X97916500Y-139409000I-250000J0D01*
G01*
X97241500Y-139409000D01*
G75*
G02*
X96991500Y-139159000I0J250000D01*
G01*
X96991500Y-138209000D01*
G75*
G02*
X97241500Y-137959000I250000J0D01*
G01*
X97916500Y-137959000D01*
G75*
G02*
X98166500Y-138209000I0J-250000D01*
G01*
G37*
%TD*%
%TO.C,C19*%
G36*
G01*
X104844000Y-125951000D02*
X104844000Y-125001000D01*
G75*
G02*
X105094000Y-124751000I250000J0D01*
G01*
X105769000Y-124751000D01*
G75*
G02*
X106019000Y-125001000I0J-250000D01*
G01*
X106019000Y-125951000D01*
G75*
G02*
X105769000Y-126201000I-250000J0D01*
G01*
X105094000Y-126201000D01*
G75*
G02*
X104844000Y-125951000I0J250000D01*
G01*
G37*
G36*
G01*
X102769000Y-125951000D02*
X102769000Y-125001000D01*
G75*
G02*
X103019000Y-124751000I250000J0D01*
G01*
X103694000Y-124751000D01*
G75*
G02*
X103944000Y-125001000I0J-250000D01*
G01*
X103944000Y-125951000D01*
G75*
G02*
X103694000Y-126201000I-250000J0D01*
G01*
X103019000Y-126201000D01*
G75*
G02*
X102769000Y-125951000I0J250000D01*
G01*
G37*
%TD*%
%TO.C,C18*%
G36*
G01*
X108088000Y-138826001D02*
X108088000Y-137525999D01*
G75*
G02*
X108337999Y-137276000I249999J0D01*
G01*
X109163001Y-137276000D01*
G75*
G02*
X109413000Y-137525999I0J-249999D01*
G01*
X109413000Y-138826001D01*
G75*
G02*
X109163001Y-139076000I-249999J0D01*
G01*
X108337999Y-139076000D01*
G75*
G02*
X108088000Y-138826001I0J249999D01*
G01*
G37*
G36*
G01*
X104963000Y-138826001D02*
X104963000Y-137525999D01*
G75*
G02*
X105212999Y-137276000I249999J0D01*
G01*
X106038001Y-137276000D01*
G75*
G02*
X106288000Y-137525999I0J-249999D01*
G01*
X106288000Y-138826001D01*
G75*
G02*
X106038001Y-139076000I-249999J0D01*
G01*
X105212999Y-139076000D01*
G75*
G02*
X104963000Y-138826001I0J249999D01*
G01*
G37*
%TD*%
%TO.C,C17*%
G36*
G01*
X107807999Y-134758000D02*
X109108001Y-134758000D01*
G75*
G02*
X109358000Y-135007999I0J-249999D01*
G01*
X109358000Y-135833001D01*
G75*
G02*
X109108001Y-136083000I-249999J0D01*
G01*
X107807999Y-136083000D01*
G75*
G02*
X107558000Y-135833001I0J249999D01*
G01*
X107558000Y-135007999D01*
G75*
G02*
X107807999Y-134758000I249999J0D01*
G01*
G37*
G36*
G01*
X107807999Y-131633000D02*
X109108001Y-131633000D01*
G75*
G02*
X109358000Y-131882999I0J-249999D01*
G01*
X109358000Y-132708001D01*
G75*
G02*
X109108001Y-132958000I-249999J0D01*
G01*
X107807999Y-132958000D01*
G75*
G02*
X107558000Y-132708001I0J249999D01*
G01*
X107558000Y-131882999D01*
G75*
G02*
X107807999Y-131633000I249999J0D01*
G01*
G37*
%TD*%
%TO.C,C16*%
G36*
G01*
X89720000Y-127541000D02*
X89720000Y-128491000D01*
G75*
G02*
X89470000Y-128741000I-250000J0D01*
G01*
X88795000Y-128741000D01*
G75*
G02*
X88545000Y-128491000I0J250000D01*
G01*
X88545000Y-127541000D01*
G75*
G02*
X88795000Y-127291000I250000J0D01*
G01*
X89470000Y-127291000D01*
G75*
G02*
X89720000Y-127541000I0J-250000D01*
G01*
G37*
G36*
G01*
X91795000Y-127541000D02*
X91795000Y-128491000D01*
G75*
G02*
X91545000Y-128741000I-250000J0D01*
G01*
X90870000Y-128741000D01*
G75*
G02*
X90620000Y-128491000I0J250000D01*
G01*
X90620000Y-127541000D01*
G75*
G02*
X90870000Y-127291000I250000J0D01*
G01*
X91545000Y-127291000D01*
G75*
G02*
X91795000Y-127541000I0J-250000D01*
G01*
G37*
%TD*%
%TO.C,C15*%
G36*
G01*
X89720000Y-132621000D02*
X89720000Y-133571000D01*
G75*
G02*
X89470000Y-133821000I-250000J0D01*
G01*
X88795000Y-133821000D01*
G75*
G02*
X88545000Y-133571000I0J250000D01*
G01*
X88545000Y-132621000D01*
G75*
G02*
X88795000Y-132371000I250000J0D01*
G01*
X89470000Y-132371000D01*
G75*
G02*
X89720000Y-132621000I0J-250000D01*
G01*
G37*
G36*
G01*
X91795000Y-132621000D02*
X91795000Y-133571000D01*
G75*
G02*
X91545000Y-133821000I-250000J0D01*
G01*
X90870000Y-133821000D01*
G75*
G02*
X90620000Y-133571000I0J250000D01*
G01*
X90620000Y-132621000D01*
G75*
G02*
X90870000Y-132371000I250000J0D01*
G01*
X91545000Y-132371000D01*
G75*
G02*
X91795000Y-132621000I0J-250000D01*
G01*
G37*
%TD*%
%TO.C,C14*%
G36*
G01*
X87746000Y-129905999D02*
X87746000Y-131206001D01*
G75*
G02*
X87496001Y-131456000I-249999J0D01*
G01*
X86670999Y-131456000D01*
G75*
G02*
X86421000Y-131206001I0J249999D01*
G01*
X86421000Y-129905999D01*
G75*
G02*
X86670999Y-129656000I249999J0D01*
G01*
X87496001Y-129656000D01*
G75*
G02*
X87746000Y-129905999I0J-249999D01*
G01*
G37*
G36*
G01*
X90871000Y-129905999D02*
X90871000Y-131206001D01*
G75*
G02*
X90621001Y-131456000I-249999J0D01*
G01*
X89795999Y-131456000D01*
G75*
G02*
X89546000Y-131206001I0J249999D01*
G01*
X89546000Y-129905999D01*
G75*
G02*
X89795999Y-129656000I249999J0D01*
G01*
X90621001Y-129656000D01*
G75*
G02*
X90871000Y-129905999I0J-249999D01*
G01*
G37*
%TD*%
%TO.C,C13*%
G36*
G01*
X103922500Y-120429000D02*
X103922500Y-121379000D01*
G75*
G02*
X103672500Y-121629000I-250000J0D01*
G01*
X102997500Y-121629000D01*
G75*
G02*
X102747500Y-121379000I0J250000D01*
G01*
X102747500Y-120429000D01*
G75*
G02*
X102997500Y-120179000I250000J0D01*
G01*
X103672500Y-120179000D01*
G75*
G02*
X103922500Y-120429000I0J-250000D01*
G01*
G37*
G36*
G01*
X105997500Y-120429000D02*
X105997500Y-121379000D01*
G75*
G02*
X105747500Y-121629000I-250000J0D01*
G01*
X105072500Y-121629000D01*
G75*
G02*
X104822500Y-121379000I0J250000D01*
G01*
X104822500Y-120429000D01*
G75*
G02*
X105072500Y-120179000I250000J0D01*
G01*
X105747500Y-120179000D01*
G75*
G02*
X105997500Y-120429000I0J-250000D01*
G01*
G37*
%TD*%
%TO.C,C12*%
G36*
G01*
X110686000Y-127475000D02*
X110686000Y-126525000D01*
G75*
G02*
X110936000Y-126275000I250000J0D01*
G01*
X111611000Y-126275000D01*
G75*
G02*
X111861000Y-126525000I0J-250000D01*
G01*
X111861000Y-127475000D01*
G75*
G02*
X111611000Y-127725000I-250000J0D01*
G01*
X110936000Y-127725000D01*
G75*
G02*
X110686000Y-127475000I0J250000D01*
G01*
G37*
G36*
G01*
X108611000Y-127475000D02*
X108611000Y-126525000D01*
G75*
G02*
X108861000Y-126275000I250000J0D01*
G01*
X109536000Y-126275000D01*
G75*
G02*
X109786000Y-126525000I0J-250000D01*
G01*
X109786000Y-127475000D01*
G75*
G02*
X109536000Y-127725000I-250000J0D01*
G01*
X108861000Y-127725000D01*
G75*
G02*
X108611000Y-127475000I0J250000D01*
G01*
G37*
%TD*%
%TO.C,C11*%
G36*
G01*
X110686000Y-130015000D02*
X110686000Y-129065000D01*
G75*
G02*
X110936000Y-128815000I250000J0D01*
G01*
X111611000Y-128815000D01*
G75*
G02*
X111861000Y-129065000I0J-250000D01*
G01*
X111861000Y-130015000D01*
G75*
G02*
X111611000Y-130265000I-250000J0D01*
G01*
X110936000Y-130265000D01*
G75*
G02*
X110686000Y-130015000I0J250000D01*
G01*
G37*
G36*
G01*
X108611000Y-130015000D02*
X108611000Y-129065000D01*
G75*
G02*
X108861000Y-128815000I250000J0D01*
G01*
X109536000Y-128815000D01*
G75*
G02*
X109786000Y-129065000I0J-250000D01*
G01*
X109786000Y-130015000D01*
G75*
G02*
X109536000Y-130265000I-250000J0D01*
G01*
X108861000Y-130265000D01*
G75*
G02*
X108611000Y-130015000I0J250000D01*
G01*
G37*
%TD*%
%TO.C,C10*%
G36*
G01*
X79215000Y-124772000D02*
X78265000Y-124772000D01*
G75*
G02*
X78015000Y-124522000I0J250000D01*
G01*
X78015000Y-123847000D01*
G75*
G02*
X78265000Y-123597000I250000J0D01*
G01*
X79215000Y-123597000D01*
G75*
G02*
X79465000Y-123847000I0J-250000D01*
G01*
X79465000Y-124522000D01*
G75*
G02*
X79215000Y-124772000I-250000J0D01*
G01*
G37*
G36*
G01*
X79215000Y-126847000D02*
X78265000Y-126847000D01*
G75*
G02*
X78015000Y-126597000I0J250000D01*
G01*
X78015000Y-125922000D01*
G75*
G02*
X78265000Y-125672000I250000J0D01*
G01*
X79215000Y-125672000D01*
G75*
G02*
X79465000Y-125922000I0J-250000D01*
G01*
X79465000Y-126597000D01*
G75*
G02*
X79215000Y-126847000I-250000J0D01*
G01*
G37*
%TD*%
%TO.C,C9*%
G36*
G01*
X79281000Y-136340000D02*
X80231000Y-136340000D01*
G75*
G02*
X80481000Y-136590000I0J-250000D01*
G01*
X80481000Y-137265000D01*
G75*
G02*
X80231000Y-137515000I-250000J0D01*
G01*
X79281000Y-137515000D01*
G75*
G02*
X79031000Y-137265000I0J250000D01*
G01*
X79031000Y-136590000D01*
G75*
G02*
X79281000Y-136340000I250000J0D01*
G01*
G37*
G36*
G01*
X79281000Y-134265000D02*
X80231000Y-134265000D01*
G75*
G02*
X80481000Y-134515000I0J-250000D01*
G01*
X80481000Y-135190000D01*
G75*
G02*
X80231000Y-135440000I-250000J0D01*
G01*
X79281000Y-135440000D01*
G75*
G02*
X79031000Y-135190000I0J250000D01*
G01*
X79031000Y-134515000D01*
G75*
G02*
X79281000Y-134265000I250000J0D01*
G01*
G37*
%TD*%
%TO.C,C8*%
G36*
G01*
X67089000Y-128444500D02*
X68039000Y-128444500D01*
G75*
G02*
X68289000Y-128694500I0J-250000D01*
G01*
X68289000Y-129369500D01*
G75*
G02*
X68039000Y-129619500I-250000J0D01*
G01*
X67089000Y-129619500D01*
G75*
G02*
X66839000Y-129369500I0J250000D01*
G01*
X66839000Y-128694500D01*
G75*
G02*
X67089000Y-128444500I250000J0D01*
G01*
G37*
G36*
G01*
X67089000Y-126369500D02*
X68039000Y-126369500D01*
G75*
G02*
X68289000Y-126619500I0J-250000D01*
G01*
X68289000Y-127294500D01*
G75*
G02*
X68039000Y-127544500I-250000J0D01*
G01*
X67089000Y-127544500D01*
G75*
G02*
X66839000Y-127294500I0J250000D01*
G01*
X66839000Y-126619500D01*
G75*
G02*
X67089000Y-126369500I250000J0D01*
G01*
G37*
%TD*%
%TO.C,C7*%
G36*
G01*
X65245000Y-125301500D02*
X64295000Y-125301500D01*
G75*
G02*
X64045000Y-125051500I0J250000D01*
G01*
X64045000Y-124376500D01*
G75*
G02*
X64295000Y-124126500I250000J0D01*
G01*
X65245000Y-124126500D01*
G75*
G02*
X65495000Y-124376500I0J-250000D01*
G01*
X65495000Y-125051500D01*
G75*
G02*
X65245000Y-125301500I-250000J0D01*
G01*
G37*
G36*
G01*
X65245000Y-127376500D02*
X64295000Y-127376500D01*
G75*
G02*
X64045000Y-127126500I0J250000D01*
G01*
X64045000Y-126451500D01*
G75*
G02*
X64295000Y-126201500I250000J0D01*
G01*
X65245000Y-126201500D01*
G75*
G02*
X65495000Y-126451500I0J-250000D01*
G01*
X65495000Y-127126500D01*
G75*
G02*
X65245000Y-127376500I-250000J0D01*
G01*
G37*
%TD*%
%TO.C,C6*%
G36*
G01*
X69629000Y-128466000D02*
X70579000Y-128466000D01*
G75*
G02*
X70829000Y-128716000I0J-250000D01*
G01*
X70829000Y-129391000D01*
G75*
G02*
X70579000Y-129641000I-250000J0D01*
G01*
X69629000Y-129641000D01*
G75*
G02*
X69379000Y-129391000I0J250000D01*
G01*
X69379000Y-128716000D01*
G75*
G02*
X69629000Y-128466000I250000J0D01*
G01*
G37*
G36*
G01*
X69629000Y-126391000D02*
X70579000Y-126391000D01*
G75*
G02*
X70829000Y-126641000I0J-250000D01*
G01*
X70829000Y-127316000D01*
G75*
G02*
X70579000Y-127566000I-250000J0D01*
G01*
X69629000Y-127566000D01*
G75*
G02*
X69379000Y-127316000I0J250000D01*
G01*
X69379000Y-126641000D01*
G75*
G02*
X69629000Y-126391000I250000J0D01*
G01*
G37*
%TD*%
%TO.C,C5*%
G36*
G01*
X70579000Y-114866000D02*
X69629000Y-114866000D01*
G75*
G02*
X69379000Y-114616000I0J250000D01*
G01*
X69379000Y-113941000D01*
G75*
G02*
X69629000Y-113691000I250000J0D01*
G01*
X70579000Y-113691000D01*
G75*
G02*
X70829000Y-113941000I0J-250000D01*
G01*
X70829000Y-114616000D01*
G75*
G02*
X70579000Y-114866000I-250000J0D01*
G01*
G37*
G36*
G01*
X70579000Y-116941000D02*
X69629000Y-116941000D01*
G75*
G02*
X69379000Y-116691000I0J250000D01*
G01*
X69379000Y-116016000D01*
G75*
G02*
X69629000Y-115766000I250000J0D01*
G01*
X70579000Y-115766000D01*
G75*
G02*
X70829000Y-116016000I0J-250000D01*
G01*
X70829000Y-116691000D01*
G75*
G02*
X70579000Y-116941000I-250000J0D01*
G01*
G37*
%TD*%
%TO.C,C4*%
G36*
G01*
X70579000Y-102166000D02*
X69629000Y-102166000D01*
G75*
G02*
X69379000Y-101916000I0J250000D01*
G01*
X69379000Y-101241000D01*
G75*
G02*
X69629000Y-100991000I250000J0D01*
G01*
X70579000Y-100991000D01*
G75*
G02*
X70829000Y-101241000I0J-250000D01*
G01*
X70829000Y-101916000D01*
G75*
G02*
X70579000Y-102166000I-250000J0D01*
G01*
G37*
G36*
G01*
X70579000Y-104241000D02*
X69629000Y-104241000D01*
G75*
G02*
X69379000Y-103991000I0J250000D01*
G01*
X69379000Y-103316000D01*
G75*
G02*
X69629000Y-103066000I250000J0D01*
G01*
X70579000Y-103066000D01*
G75*
G02*
X70829000Y-103316000I0J-250000D01*
G01*
X70829000Y-103991000D01*
G75*
G02*
X70579000Y-104241000I-250000J0D01*
G01*
G37*
%TD*%
%TO.C,C3*%
G36*
G01*
X70579000Y-89466000D02*
X69629000Y-89466000D01*
G75*
G02*
X69379000Y-89216000I0J250000D01*
G01*
X69379000Y-88541000D01*
G75*
G02*
X69629000Y-88291000I250000J0D01*
G01*
X70579000Y-88291000D01*
G75*
G02*
X70829000Y-88541000I0J-250000D01*
G01*
X70829000Y-89216000D01*
G75*
G02*
X70579000Y-89466000I-250000J0D01*
G01*
G37*
G36*
G01*
X70579000Y-91541000D02*
X69629000Y-91541000D01*
G75*
G02*
X69379000Y-91291000I0J250000D01*
G01*
X69379000Y-90616000D01*
G75*
G02*
X69629000Y-90366000I250000J0D01*
G01*
X70579000Y-90366000D01*
G75*
G02*
X70829000Y-90616000I0J-250000D01*
G01*
X70829000Y-91291000D01*
G75*
G02*
X70579000Y-91541000I-250000J0D01*
G01*
G37*
%TD*%
%TO.C,C2*%
G36*
G01*
X75655500Y-86835000D02*
X75655500Y-85885000D01*
G75*
G02*
X75905500Y-85635000I250000J0D01*
G01*
X76580500Y-85635000D01*
G75*
G02*
X76830500Y-85885000I0J-250000D01*
G01*
X76830500Y-86835000D01*
G75*
G02*
X76580500Y-87085000I-250000J0D01*
G01*
X75905500Y-87085000D01*
G75*
G02*
X75655500Y-86835000I0J250000D01*
G01*
G37*
G36*
G01*
X73580500Y-86835000D02*
X73580500Y-85885000D01*
G75*
G02*
X73830500Y-85635000I250000J0D01*
G01*
X74505500Y-85635000D01*
G75*
G02*
X74755500Y-85885000I0J-250000D01*
G01*
X74755500Y-86835000D01*
G75*
G02*
X74505500Y-87085000I-250000J0D01*
G01*
X73830500Y-87085000D01*
G75*
G02*
X73580500Y-86835000I0J250000D01*
G01*
G37*
%TD*%
%TO.C,C1*%
G36*
G01*
X71570000Y-86835000D02*
X71570000Y-85885000D01*
G75*
G02*
X71820000Y-85635000I250000J0D01*
G01*
X72495000Y-85635000D01*
G75*
G02*
X72745000Y-85885000I0J-250000D01*
G01*
X72745000Y-86835000D01*
G75*
G02*
X72495000Y-87085000I-250000J0D01*
G01*
X71820000Y-87085000D01*
G75*
G02*
X71570000Y-86835000I0J250000D01*
G01*
G37*
G36*
G01*
X69495000Y-86835000D02*
X69495000Y-85885000D01*
G75*
G02*
X69745000Y-85635000I250000J0D01*
G01*
X70420000Y-85635000D01*
G75*
G02*
X70670000Y-85885000I0J-250000D01*
G01*
X70670000Y-86835000D01*
G75*
G02*
X70420000Y-87085000I-250000J0D01*
G01*
X69745000Y-87085000D01*
G75*
G02*
X69495000Y-86835000I0J250000D01*
G01*
G37*
%TD*%
M02*
