M48
; DRILL file {KiCad (5.1.8)-1} date 12/04/20 16:11:51
; FORMAT={-:-/ absolute / metric / decimal}
; #@! TF.CreationDate,2020-12-04T16:11:51+03:00
; #@! TF.GenerationSoftware,Kicad,Pcbnew,(5.1.8)-1
; #@! TF.FileFunction,Plated,1,2,PTH
FMAT,2
METRIC
T1C0.200
T2C0.400
T3C1.000
%
G90
G05
T1
X96.723Y-129.354
X96.723Y-130.429
X96.723Y-131.504
X97.773Y-129.354
X97.773Y-130.429
X97.773Y-131.504
X98.823Y-129.354
X98.823Y-130.429
X98.823Y-131.504
X99.873Y-129.354
X99.873Y-130.429
X99.873Y-131.504
X78.502Y-129.556
X78.502Y-130.556
X78.502Y-131.556
X79.502Y-129.556
X79.502Y-130.556
X79.502Y-131.556
X80.502Y-129.556
X80.502Y-130.556
X80.502Y-131.556
X79.518Y-158.649
X79.518Y-159.649
X79.518Y-160.649
X80.518Y-158.649
X80.518Y-159.649
X80.518Y-160.649
X81.518Y-158.649
X81.518Y-159.649
X81.518Y-160.649
T2
X59.69Y-155.575
X59.944Y-165.1
X60.325Y-139.827
X60.833Y-76.454
X60.96Y-127.635
X61.214Y-117.983
X61.468Y-108.966
X61.849Y-100.076
X61.849Y-135.128
X62.23Y-155.448
X63.246Y-90.805
X63.373Y-82.423
X68.326Y-163.957
X68.453Y-142.367
X68.834Y-92.456
X68.834Y-105.156
X68.834Y-117.856
X70.397Y-132.803
X70.866Y-76.581
X71.374Y-95.504
X71.374Y-108.204
X71.374Y-120.904
X71.755Y-128.27
X73.953Y-167.386
X75.692Y-139.446
X78.486Y-152.781
X80.645Y-146.05
X81.026Y-139.319
X82.296Y-76.581
X82.53Y-131.806
X82.931Y-87.503
X83.058Y-128.016
X83.058Y-133.096
X83.058Y-161.544
X83.058Y-162.56
X83.312Y-122.174
X83.947Y-112.268
X85.471Y-108.712
X85.725Y-120.777
X85.725Y-140.335
X85.852Y-150.368
X86.995Y-115.189
X87.122Y-165.354
X89.154Y-158.242
X89.154Y-161.036
X90.297Y-122.936
X90.932Y-147.701
X91.44Y-130.556
X91.948Y-136.652
X92.202Y-153.924
X92.71Y-76.962
X93.091Y-99.441
X93.413Y-125.29
X93.472Y-86.995
X93.726Y-139.954
X94.234Y-131.699
X94.615Y-128.778
X94.615Y-159.639
X95.123Y-132.842
X95.504Y-127.762
X96.139Y-133.477
X96.774Y-127.127
X97.282Y-125.603
X97.663Y-148.336
X97.917Y-105.283
X98.044Y-124.841
X98.806Y-125.603
X99.314Y-127.127
X100.048Y-133.449
X100.584Y-127.762
X101.219Y-92.329
X102.108Y-114.808
X102.489Y-129.794
X102.489Y-131.572
X104.521Y-114.808
X105.156Y-147.828
X105.664Y-80.772
X105.664Y-130.429
X106.172Y-127.762
X106.172Y-159.639
X107.812Y-113.146
X107.95Y-153.924
X107.95Y-165.354
X108.077Y-85.217
X109.474Y-102.108
X109.982Y-120.142
X110.363Y-104.521
X110.363Y-136.652
X110.617Y-92.837
X111.506Y-161.417
X113.538Y-89.535
X114.3Y-149.352
X114.554Y-96.012
X114.554Y-97.409
X114.554Y-98.806
X114.554Y-100.203
X114.554Y-101.6
X114.554Y-102.997
X115.316Y-155.448
X116.078Y-86.614
X116.586Y-151.13
X116.713Y-124.46
X116.966Y-128.27
X117.602Y-98.425
X117.602Y-151.13
X117.856Y-110.871
X118.618Y-151.13
X118.872Y-162.016
X119.634Y-151.13
X119.905Y-134.067
X119.932Y-122.472
X120.105Y-126.238
X120.142Y-129.032
X120.142Y-130.302
X120.142Y-143.383
X120.396Y-127.254
X120.396Y-160.528
X120.65Y-151.13
X121.158Y-134.112
X121.195Y-122.391
X121.666Y-151.13
X121.881Y-128.308
X121.92Y-81.661
X121.92Y-84.455
X121.92Y-119.38
X122.281Y-114.193
X122.682Y-151.13
X122.936Y-91.821
X122.936Y-119.38
X123.571Y-83.312
X123.698Y-151.13
X123.952Y-119.38
X124.489Y-154.337
X124.714Y-151.13
X124.968Y-119.38
X125.222Y-165.354
X125.387Y-143.471
X125.476Y-82.296
X125.73Y-151.187
X125.984Y-119.38
X126.123Y-89.916
X126.365Y-132.08
X126.746Y-101.854
X127.0Y-81.407
X127.0Y-86.868
X127.0Y-119.38
X127.762Y-147.066
X128.016Y-119.38
X128.397Y-166.497
X128.52Y-128.266
X129.032Y-119.38
X129.286Y-110.871
X129.54Y-148.336
X130.81Y-132.842
X131.442Y-128.267
X131.953Y-144.526
X132.207Y-85.344
X132.461Y-154.94
X132.588Y-81.153
X136.144Y-81.534
X138.811Y-165.354
X139.446Y-138.43
X139.954Y-96.774
X140.97Y-145.288
X141.478Y-126.238
X141.605Y-119.888
X143.764Y-125.984
X144.424Y-105.766
X145.034Y-92.71
X145.288Y-122.936
X148.59Y-111.633
X150.749Y-88.519
X150.876Y-81.026
X151.13Y-94.742
T3
X148.082Y-117.094
X148.082Y-119.634
X148.082Y-122.174
X148.082Y-124.714
X148.082Y-127.254
X148.082Y-129.794
X148.082Y-132.334
X148.082Y-134.874
X148.082Y-137.414
X148.082Y-139.954
X148.082Y-142.494
X148.082Y-145.034
X148.082Y-147.574
X148.082Y-150.114
X148.082Y-152.654
X148.082Y-155.194
X148.082Y-157.734
X148.082Y-160.274
X148.082Y-162.814
X148.082Y-165.354
X150.622Y-117.094
X150.622Y-119.634
X150.622Y-122.174
X150.622Y-124.714
X150.622Y-127.254
X150.622Y-129.794
X150.622Y-132.334
X150.622Y-134.874
X150.622Y-137.414
X150.622Y-139.954
X150.622Y-142.494
X150.622Y-145.034
X150.622Y-147.574
X150.622Y-150.114
X150.622Y-152.654
X150.622Y-155.194
X150.622Y-157.734
X150.622Y-160.274
X150.622Y-162.814
X150.622Y-165.354
X101.6Y-74.168
X101.6Y-76.708
X104.14Y-74.168
X104.14Y-76.708
X106.68Y-74.168
X106.68Y-76.708
X109.22Y-74.168
X109.22Y-76.708
X111.76Y-74.168
X111.76Y-76.708
X114.3Y-74.168
X114.3Y-76.708
X116.84Y-74.168
X116.84Y-76.708
X119.38Y-74.168
X119.38Y-76.708
X121.92Y-74.168
X121.92Y-76.708
X124.46Y-74.168
X124.46Y-76.708
X127.0Y-74.168
X127.0Y-76.708
X129.54Y-74.168
X129.54Y-76.708
X132.08Y-74.168
X132.08Y-76.708
X134.62Y-74.168
X134.62Y-76.708
X137.16Y-74.168
X137.16Y-76.708
X139.7Y-74.168
X139.7Y-76.708
X142.24Y-74.168
X142.24Y-76.708
X144.78Y-74.168
X144.78Y-76.708
X147.32Y-74.168
X147.32Y-76.708
X149.86Y-74.168
X149.86Y-76.708
T0
M30
