%TF.GenerationSoftware,KiCad,Pcbnew,(5.1.8)-1*%
%TF.CreationDate,2020-12-04T16:08:35+03:00*%
%TF.ProjectId,SDR,5344522e-6b69-4636-9164-5f7063625858,rev?*%
%TF.SameCoordinates,Original*%
%TF.FileFunction,Legend,Bot*%
%TF.FilePolarity,Positive*%
%FSLAX46Y46*%
G04 Gerber Fmt 4.6, Leading zero omitted, Abs format (unit mm)*
G04 Created by KiCad (PCBNEW (5.1.8)-1) date 2020-12-04 16:08:35*
%MOMM*%
%LPD*%
G01*
G04 APERTURE LIST*
%ADD10C,0.120000*%
%ADD11C,0.150000*%
G04 APERTURE END LIST*
D10*
%TO.C,C27*%
X104952748Y-130916000D02*
X106375252Y-130916000D01*
X104952748Y-132736000D02*
X106375252Y-132736000D01*
%TO.C,R21*%
X119607000Y-166089064D02*
X119607000Y-165634936D01*
X118137000Y-166089064D02*
X118137000Y-165634936D01*
%TO.C,R6*%
X105129064Y-133631000D02*
X104674936Y-133631000D01*
X105129064Y-135101000D02*
X104674936Y-135101000D01*
%TO.C,D8*%
X124008000Y-166622000D02*
X123078000Y-166622000D01*
X120848000Y-166622000D02*
X121778000Y-166622000D01*
X120848000Y-166622000D02*
X120848000Y-164462000D01*
X124008000Y-166622000D02*
X124008000Y-165162000D01*
%TO.C,C86*%
X115168000Y-164642748D02*
X115168000Y-166065252D01*
X116988000Y-164642748D02*
X116988000Y-166065252D01*
%TO.C,C85*%
X127050748Y-155850000D02*
X128473252Y-155850000D01*
X127050748Y-154030000D02*
X128473252Y-154030000D01*
%TO.C,C84*%
X121716748Y-163216000D02*
X123139252Y-163216000D01*
X121716748Y-161396000D02*
X123139252Y-161396000D01*
%TO.C,C111*%
X132283252Y-127360000D02*
X130860748Y-127360000D01*
X132283252Y-129180000D02*
X130860748Y-129180000D01*
%TO.C,C109*%
X122732748Y-130704000D02*
X124155252Y-130704000D01*
X122732748Y-128884000D02*
X124155252Y-128884000D01*
%TO.C,C108*%
X118978000Y-118414748D02*
X118978000Y-119837252D01*
X120798000Y-118414748D02*
X120798000Y-119837252D01*
%TO.C,C106*%
X122732748Y-127656000D02*
X124155252Y-127656000D01*
X122732748Y-125836000D02*
X124155252Y-125836000D01*
%TO.C,C104*%
X121306000Y-138125252D02*
X121306000Y-136702748D01*
X119486000Y-138125252D02*
X119486000Y-136702748D01*
%TO.C,C33*%
X80256748Y-164057000D02*
X80779252Y-164057000D01*
X80256748Y-162587000D02*
X80779252Y-162587000D01*
%TO.C,C32*%
X79298748Y-166772000D02*
X80721252Y-166772000D01*
X79298748Y-164952000D02*
X80721252Y-164952000D01*
%TO.C,C30*%
X99166000Y-135686748D02*
X99166000Y-137109252D01*
X100986000Y-135686748D02*
X100986000Y-137109252D01*
%TO.C,C29*%
X102002000Y-125425252D02*
X102002000Y-124002748D01*
X100182000Y-125425252D02*
X100182000Y-124002748D01*
%TO.C,C28*%
X104952748Y-129942000D02*
X106375252Y-129942000D01*
X104952748Y-128122000D02*
X106375252Y-128122000D01*
%TO.C,C26*%
X91897252Y-130789000D02*
X90474748Y-130789000D01*
X91897252Y-132609000D02*
X90474748Y-132609000D01*
%TO.C,C25*%
X95906000Y-125425252D02*
X95906000Y-124002748D01*
X94086000Y-125425252D02*
X94086000Y-124002748D01*
%TO.C,C24*%
X91432748Y-135101000D02*
X91955252Y-135101000D01*
X91432748Y-133631000D02*
X91955252Y-133631000D01*
%TO.C,C27*%
D11*
X110624857Y-132437142D02*
X110672476Y-132484761D01*
X110815333Y-132532380D01*
X110910571Y-132532380D01*
X111053428Y-132484761D01*
X111148666Y-132389523D01*
X111196285Y-132294285D01*
X111243904Y-132103809D01*
X111243904Y-131960952D01*
X111196285Y-131770476D01*
X111148666Y-131675238D01*
X111053428Y-131580000D01*
X110910571Y-131532380D01*
X110815333Y-131532380D01*
X110672476Y-131580000D01*
X110624857Y-131627619D01*
X110243904Y-131627619D02*
X110196285Y-131580000D01*
X110101047Y-131532380D01*
X109862952Y-131532380D01*
X109767714Y-131580000D01*
X109720095Y-131627619D01*
X109672476Y-131722857D01*
X109672476Y-131818095D01*
X109720095Y-131960952D01*
X110291523Y-132532380D01*
X109672476Y-132532380D01*
X109339142Y-131532380D02*
X108672476Y-131532380D01*
X109101047Y-132532380D01*
%TO.C,R21*%
X118308380Y-161917142D02*
X117832190Y-161583809D01*
X118308380Y-161345714D02*
X117308380Y-161345714D01*
X117308380Y-161726666D01*
X117356000Y-161821904D01*
X117403619Y-161869523D01*
X117498857Y-161917142D01*
X117641714Y-161917142D01*
X117736952Y-161869523D01*
X117784571Y-161821904D01*
X117832190Y-161726666D01*
X117832190Y-161345714D01*
X117403619Y-162298095D02*
X117356000Y-162345714D01*
X117308380Y-162440952D01*
X117308380Y-162679047D01*
X117356000Y-162774285D01*
X117403619Y-162821904D01*
X117498857Y-162869523D01*
X117594095Y-162869523D01*
X117736952Y-162821904D01*
X118308380Y-162250476D01*
X118308380Y-162869523D01*
X118308380Y-163821904D02*
X118308380Y-163250476D01*
X118308380Y-163536190D02*
X117308380Y-163536190D01*
X117451238Y-163440952D01*
X117546476Y-163345714D01*
X117594095Y-163250476D01*
%TO.C,R6*%
X105068666Y-136596380D02*
X105402000Y-136120190D01*
X105640095Y-136596380D02*
X105640095Y-135596380D01*
X105259142Y-135596380D01*
X105163904Y-135644000D01*
X105116285Y-135691619D01*
X105068666Y-135786857D01*
X105068666Y-135929714D01*
X105116285Y-136024952D01*
X105163904Y-136072571D01*
X105259142Y-136120190D01*
X105640095Y-136120190D01*
X104211523Y-135596380D02*
X104402000Y-135596380D01*
X104497238Y-135644000D01*
X104544857Y-135691619D01*
X104640095Y-135834476D01*
X104687714Y-136024952D01*
X104687714Y-136405904D01*
X104640095Y-136501142D01*
X104592476Y-136548761D01*
X104497238Y-136596380D01*
X104306761Y-136596380D01*
X104211523Y-136548761D01*
X104163904Y-136501142D01*
X104116285Y-136405904D01*
X104116285Y-136167809D01*
X104163904Y-136072571D01*
X104211523Y-136024952D01*
X104306761Y-135977333D01*
X104497238Y-135977333D01*
X104592476Y-136024952D01*
X104640095Y-136072571D01*
X104687714Y-136167809D01*
%TO.C,D8*%
X125420380Y-165885904D02*
X124420380Y-165885904D01*
X124420380Y-166124000D01*
X124468000Y-166266857D01*
X124563238Y-166362095D01*
X124658476Y-166409714D01*
X124848952Y-166457333D01*
X124991809Y-166457333D01*
X125182285Y-166409714D01*
X125277523Y-166362095D01*
X125372761Y-166266857D01*
X125420380Y-166124000D01*
X125420380Y-165885904D01*
X124848952Y-167028761D02*
X124801333Y-166933523D01*
X124753714Y-166885904D01*
X124658476Y-166838285D01*
X124610857Y-166838285D01*
X124515619Y-166885904D01*
X124468000Y-166933523D01*
X124420380Y-167028761D01*
X124420380Y-167219238D01*
X124468000Y-167314476D01*
X124515619Y-167362095D01*
X124610857Y-167409714D01*
X124658476Y-167409714D01*
X124753714Y-167362095D01*
X124801333Y-167314476D01*
X124848952Y-167219238D01*
X124848952Y-167028761D01*
X124896571Y-166933523D01*
X124944190Y-166885904D01*
X125039428Y-166838285D01*
X125229904Y-166838285D01*
X125325142Y-166885904D01*
X125372761Y-166933523D01*
X125420380Y-167028761D01*
X125420380Y-167219238D01*
X125372761Y-167314476D01*
X125325142Y-167362095D01*
X125229904Y-167409714D01*
X125039428Y-167409714D01*
X124944190Y-167362095D01*
X124896571Y-167314476D01*
X124848952Y-167219238D01*
%TO.C,C86*%
X114585142Y-164711142D02*
X114632761Y-164663523D01*
X114680380Y-164520666D01*
X114680380Y-164425428D01*
X114632761Y-164282571D01*
X114537523Y-164187333D01*
X114442285Y-164139714D01*
X114251809Y-164092095D01*
X114108952Y-164092095D01*
X113918476Y-164139714D01*
X113823238Y-164187333D01*
X113728000Y-164282571D01*
X113680380Y-164425428D01*
X113680380Y-164520666D01*
X113728000Y-164663523D01*
X113775619Y-164711142D01*
X114108952Y-165282571D02*
X114061333Y-165187333D01*
X114013714Y-165139714D01*
X113918476Y-165092095D01*
X113870857Y-165092095D01*
X113775619Y-165139714D01*
X113728000Y-165187333D01*
X113680380Y-165282571D01*
X113680380Y-165473047D01*
X113728000Y-165568285D01*
X113775619Y-165615904D01*
X113870857Y-165663523D01*
X113918476Y-165663523D01*
X114013714Y-165615904D01*
X114061333Y-165568285D01*
X114108952Y-165473047D01*
X114108952Y-165282571D01*
X114156571Y-165187333D01*
X114204190Y-165139714D01*
X114299428Y-165092095D01*
X114489904Y-165092095D01*
X114585142Y-165139714D01*
X114632761Y-165187333D01*
X114680380Y-165282571D01*
X114680380Y-165473047D01*
X114632761Y-165568285D01*
X114585142Y-165615904D01*
X114489904Y-165663523D01*
X114299428Y-165663523D01*
X114204190Y-165615904D01*
X114156571Y-165568285D01*
X114108952Y-165473047D01*
X113680380Y-166520666D02*
X113680380Y-166330190D01*
X113728000Y-166234952D01*
X113775619Y-166187333D01*
X113918476Y-166092095D01*
X114108952Y-166044476D01*
X114489904Y-166044476D01*
X114585142Y-166092095D01*
X114632761Y-166139714D01*
X114680380Y-166234952D01*
X114680380Y-166425428D01*
X114632761Y-166520666D01*
X114585142Y-166568285D01*
X114489904Y-166615904D01*
X114251809Y-166615904D01*
X114156571Y-166568285D01*
X114108952Y-166520666D01*
X114061333Y-166425428D01*
X114061333Y-166234952D01*
X114108952Y-166139714D01*
X114156571Y-166092095D01*
X114251809Y-166044476D01*
%TO.C,C85*%
X128404857Y-157147142D02*
X128452476Y-157194761D01*
X128595333Y-157242380D01*
X128690571Y-157242380D01*
X128833428Y-157194761D01*
X128928666Y-157099523D01*
X128976285Y-157004285D01*
X129023904Y-156813809D01*
X129023904Y-156670952D01*
X128976285Y-156480476D01*
X128928666Y-156385238D01*
X128833428Y-156290000D01*
X128690571Y-156242380D01*
X128595333Y-156242380D01*
X128452476Y-156290000D01*
X128404857Y-156337619D01*
X127833428Y-156670952D02*
X127928666Y-156623333D01*
X127976285Y-156575714D01*
X128023904Y-156480476D01*
X128023904Y-156432857D01*
X127976285Y-156337619D01*
X127928666Y-156290000D01*
X127833428Y-156242380D01*
X127642952Y-156242380D01*
X127547714Y-156290000D01*
X127500095Y-156337619D01*
X127452476Y-156432857D01*
X127452476Y-156480476D01*
X127500095Y-156575714D01*
X127547714Y-156623333D01*
X127642952Y-156670952D01*
X127833428Y-156670952D01*
X127928666Y-156718571D01*
X127976285Y-156766190D01*
X128023904Y-156861428D01*
X128023904Y-157051904D01*
X127976285Y-157147142D01*
X127928666Y-157194761D01*
X127833428Y-157242380D01*
X127642952Y-157242380D01*
X127547714Y-157194761D01*
X127500095Y-157147142D01*
X127452476Y-157051904D01*
X127452476Y-156861428D01*
X127500095Y-156766190D01*
X127547714Y-156718571D01*
X127642952Y-156670952D01*
X126547714Y-156242380D02*
X127023904Y-156242380D01*
X127071523Y-156718571D01*
X127023904Y-156670952D01*
X126928666Y-156623333D01*
X126690571Y-156623333D01*
X126595333Y-156670952D01*
X126547714Y-156718571D01*
X126500095Y-156813809D01*
X126500095Y-157051904D01*
X126547714Y-157147142D01*
X126595333Y-157194761D01*
X126690571Y-157242380D01*
X126928666Y-157242380D01*
X127023904Y-157194761D01*
X127071523Y-157147142D01*
%TO.C,C84*%
X123070857Y-160631142D02*
X123118476Y-160678761D01*
X123261333Y-160726380D01*
X123356571Y-160726380D01*
X123499428Y-160678761D01*
X123594666Y-160583523D01*
X123642285Y-160488285D01*
X123689904Y-160297809D01*
X123689904Y-160154952D01*
X123642285Y-159964476D01*
X123594666Y-159869238D01*
X123499428Y-159774000D01*
X123356571Y-159726380D01*
X123261333Y-159726380D01*
X123118476Y-159774000D01*
X123070857Y-159821619D01*
X122499428Y-160154952D02*
X122594666Y-160107333D01*
X122642285Y-160059714D01*
X122689904Y-159964476D01*
X122689904Y-159916857D01*
X122642285Y-159821619D01*
X122594666Y-159774000D01*
X122499428Y-159726380D01*
X122308952Y-159726380D01*
X122213714Y-159774000D01*
X122166095Y-159821619D01*
X122118476Y-159916857D01*
X122118476Y-159964476D01*
X122166095Y-160059714D01*
X122213714Y-160107333D01*
X122308952Y-160154952D01*
X122499428Y-160154952D01*
X122594666Y-160202571D01*
X122642285Y-160250190D01*
X122689904Y-160345428D01*
X122689904Y-160535904D01*
X122642285Y-160631142D01*
X122594666Y-160678761D01*
X122499428Y-160726380D01*
X122308952Y-160726380D01*
X122213714Y-160678761D01*
X122166095Y-160631142D01*
X122118476Y-160535904D01*
X122118476Y-160345428D01*
X122166095Y-160250190D01*
X122213714Y-160202571D01*
X122308952Y-160154952D01*
X121261333Y-160059714D02*
X121261333Y-160726380D01*
X121499428Y-159678761D02*
X121737523Y-160393047D01*
X121118476Y-160393047D01*
%TO.C,C111*%
X132691047Y-126777142D02*
X132738666Y-126824761D01*
X132881523Y-126872380D01*
X132976761Y-126872380D01*
X133119619Y-126824761D01*
X133214857Y-126729523D01*
X133262476Y-126634285D01*
X133310095Y-126443809D01*
X133310095Y-126300952D01*
X133262476Y-126110476D01*
X133214857Y-126015238D01*
X133119619Y-125920000D01*
X132976761Y-125872380D01*
X132881523Y-125872380D01*
X132738666Y-125920000D01*
X132691047Y-125967619D01*
X131738666Y-126872380D02*
X132310095Y-126872380D01*
X132024380Y-126872380D02*
X132024380Y-125872380D01*
X132119619Y-126015238D01*
X132214857Y-126110476D01*
X132310095Y-126158095D01*
X130786285Y-126872380D02*
X131357714Y-126872380D01*
X131072000Y-126872380D02*
X131072000Y-125872380D01*
X131167238Y-126015238D01*
X131262476Y-126110476D01*
X131357714Y-126158095D01*
X129833904Y-126872380D02*
X130405333Y-126872380D01*
X130119619Y-126872380D02*
X130119619Y-125872380D01*
X130214857Y-126015238D01*
X130310095Y-126110476D01*
X130405333Y-126158095D01*
%TO.C,C109*%
X124563047Y-132183142D02*
X124610666Y-132230761D01*
X124753523Y-132278380D01*
X124848761Y-132278380D01*
X124991619Y-132230761D01*
X125086857Y-132135523D01*
X125134476Y-132040285D01*
X125182095Y-131849809D01*
X125182095Y-131706952D01*
X125134476Y-131516476D01*
X125086857Y-131421238D01*
X124991619Y-131326000D01*
X124848761Y-131278380D01*
X124753523Y-131278380D01*
X124610666Y-131326000D01*
X124563047Y-131373619D01*
X123610666Y-132278380D02*
X124182095Y-132278380D01*
X123896380Y-132278380D02*
X123896380Y-131278380D01*
X123991619Y-131421238D01*
X124086857Y-131516476D01*
X124182095Y-131564095D01*
X122991619Y-131278380D02*
X122896380Y-131278380D01*
X122801142Y-131326000D01*
X122753523Y-131373619D01*
X122705904Y-131468857D01*
X122658285Y-131659333D01*
X122658285Y-131897428D01*
X122705904Y-132087904D01*
X122753523Y-132183142D01*
X122801142Y-132230761D01*
X122896380Y-132278380D01*
X122991619Y-132278380D01*
X123086857Y-132230761D01*
X123134476Y-132183142D01*
X123182095Y-132087904D01*
X123229714Y-131897428D01*
X123229714Y-131659333D01*
X123182095Y-131468857D01*
X123134476Y-131373619D01*
X123086857Y-131326000D01*
X122991619Y-131278380D01*
X122182095Y-132278380D02*
X121991619Y-132278380D01*
X121896380Y-132230761D01*
X121848761Y-132183142D01*
X121753523Y-132040285D01*
X121705904Y-131849809D01*
X121705904Y-131468857D01*
X121753523Y-131373619D01*
X121801142Y-131326000D01*
X121896380Y-131278380D01*
X122086857Y-131278380D01*
X122182095Y-131326000D01*
X122229714Y-131373619D01*
X122277333Y-131468857D01*
X122277333Y-131706952D01*
X122229714Y-131802190D01*
X122182095Y-131849809D01*
X122086857Y-131897428D01*
X121896380Y-131897428D01*
X121801142Y-131849809D01*
X121753523Y-131802190D01*
X121705904Y-131706952D01*
%TO.C,C108*%
X118395142Y-118006952D02*
X118442761Y-117959333D01*
X118490380Y-117816476D01*
X118490380Y-117721238D01*
X118442761Y-117578380D01*
X118347523Y-117483142D01*
X118252285Y-117435523D01*
X118061809Y-117387904D01*
X117918952Y-117387904D01*
X117728476Y-117435523D01*
X117633238Y-117483142D01*
X117538000Y-117578380D01*
X117490380Y-117721238D01*
X117490380Y-117816476D01*
X117538000Y-117959333D01*
X117585619Y-118006952D01*
X118490380Y-118959333D02*
X118490380Y-118387904D01*
X118490380Y-118673619D02*
X117490380Y-118673619D01*
X117633238Y-118578380D01*
X117728476Y-118483142D01*
X117776095Y-118387904D01*
X117490380Y-119578380D02*
X117490380Y-119673619D01*
X117538000Y-119768857D01*
X117585619Y-119816476D01*
X117680857Y-119864095D01*
X117871333Y-119911714D01*
X118109428Y-119911714D01*
X118299904Y-119864095D01*
X118395142Y-119816476D01*
X118442761Y-119768857D01*
X118490380Y-119673619D01*
X118490380Y-119578380D01*
X118442761Y-119483142D01*
X118395142Y-119435523D01*
X118299904Y-119387904D01*
X118109428Y-119340285D01*
X117871333Y-119340285D01*
X117680857Y-119387904D01*
X117585619Y-119435523D01*
X117538000Y-119483142D01*
X117490380Y-119578380D01*
X117918952Y-120483142D02*
X117871333Y-120387904D01*
X117823714Y-120340285D01*
X117728476Y-120292666D01*
X117680857Y-120292666D01*
X117585619Y-120340285D01*
X117538000Y-120387904D01*
X117490380Y-120483142D01*
X117490380Y-120673619D01*
X117538000Y-120768857D01*
X117585619Y-120816476D01*
X117680857Y-120864095D01*
X117728476Y-120864095D01*
X117823714Y-120816476D01*
X117871333Y-120768857D01*
X117918952Y-120673619D01*
X117918952Y-120483142D01*
X117966571Y-120387904D01*
X118014190Y-120340285D01*
X118109428Y-120292666D01*
X118299904Y-120292666D01*
X118395142Y-120340285D01*
X118442761Y-120387904D01*
X118490380Y-120483142D01*
X118490380Y-120673619D01*
X118442761Y-120768857D01*
X118395142Y-120816476D01*
X118299904Y-120864095D01*
X118109428Y-120864095D01*
X118014190Y-120816476D01*
X117966571Y-120768857D01*
X117918952Y-120673619D01*
%TO.C,C106*%
X124563047Y-125071142D02*
X124610666Y-125118761D01*
X124753523Y-125166380D01*
X124848761Y-125166380D01*
X124991619Y-125118761D01*
X125086857Y-125023523D01*
X125134476Y-124928285D01*
X125182095Y-124737809D01*
X125182095Y-124594952D01*
X125134476Y-124404476D01*
X125086857Y-124309238D01*
X124991619Y-124214000D01*
X124848761Y-124166380D01*
X124753523Y-124166380D01*
X124610666Y-124214000D01*
X124563047Y-124261619D01*
X123610666Y-125166380D02*
X124182095Y-125166380D01*
X123896380Y-125166380D02*
X123896380Y-124166380D01*
X123991619Y-124309238D01*
X124086857Y-124404476D01*
X124182095Y-124452095D01*
X122991619Y-124166380D02*
X122896380Y-124166380D01*
X122801142Y-124214000D01*
X122753523Y-124261619D01*
X122705904Y-124356857D01*
X122658285Y-124547333D01*
X122658285Y-124785428D01*
X122705904Y-124975904D01*
X122753523Y-125071142D01*
X122801142Y-125118761D01*
X122896380Y-125166380D01*
X122991619Y-125166380D01*
X123086857Y-125118761D01*
X123134476Y-125071142D01*
X123182095Y-124975904D01*
X123229714Y-124785428D01*
X123229714Y-124547333D01*
X123182095Y-124356857D01*
X123134476Y-124261619D01*
X123086857Y-124214000D01*
X122991619Y-124166380D01*
X121801142Y-124166380D02*
X121991619Y-124166380D01*
X122086857Y-124214000D01*
X122134476Y-124261619D01*
X122229714Y-124404476D01*
X122277333Y-124594952D01*
X122277333Y-124975904D01*
X122229714Y-125071142D01*
X122182095Y-125118761D01*
X122086857Y-125166380D01*
X121896380Y-125166380D01*
X121801142Y-125118761D01*
X121753523Y-125071142D01*
X121705904Y-124975904D01*
X121705904Y-124737809D01*
X121753523Y-124642571D01*
X121801142Y-124594952D01*
X121896380Y-124547333D01*
X122086857Y-124547333D01*
X122182095Y-124594952D01*
X122229714Y-124642571D01*
X122277333Y-124737809D01*
%TO.C,C104*%
X122603142Y-136294952D02*
X122650761Y-136247333D01*
X122698380Y-136104476D01*
X122698380Y-136009238D01*
X122650761Y-135866380D01*
X122555523Y-135771142D01*
X122460285Y-135723523D01*
X122269809Y-135675904D01*
X122126952Y-135675904D01*
X121936476Y-135723523D01*
X121841238Y-135771142D01*
X121746000Y-135866380D01*
X121698380Y-136009238D01*
X121698380Y-136104476D01*
X121746000Y-136247333D01*
X121793619Y-136294952D01*
X122698380Y-137247333D02*
X122698380Y-136675904D01*
X122698380Y-136961619D02*
X121698380Y-136961619D01*
X121841238Y-136866380D01*
X121936476Y-136771142D01*
X121984095Y-136675904D01*
X121698380Y-137866380D02*
X121698380Y-137961619D01*
X121746000Y-138056857D01*
X121793619Y-138104476D01*
X121888857Y-138152095D01*
X122079333Y-138199714D01*
X122317428Y-138199714D01*
X122507904Y-138152095D01*
X122603142Y-138104476D01*
X122650761Y-138056857D01*
X122698380Y-137961619D01*
X122698380Y-137866380D01*
X122650761Y-137771142D01*
X122603142Y-137723523D01*
X122507904Y-137675904D01*
X122317428Y-137628285D01*
X122079333Y-137628285D01*
X121888857Y-137675904D01*
X121793619Y-137723523D01*
X121746000Y-137771142D01*
X121698380Y-137866380D01*
X122031714Y-139056857D02*
X122698380Y-139056857D01*
X121650761Y-138818761D02*
X122365047Y-138580666D01*
X122365047Y-139199714D01*
%TO.C,C33*%
X77604857Y-163679142D02*
X77652476Y-163726761D01*
X77795333Y-163774380D01*
X77890571Y-163774380D01*
X78033428Y-163726761D01*
X78128666Y-163631523D01*
X78176285Y-163536285D01*
X78223904Y-163345809D01*
X78223904Y-163202952D01*
X78176285Y-163012476D01*
X78128666Y-162917238D01*
X78033428Y-162822000D01*
X77890571Y-162774380D01*
X77795333Y-162774380D01*
X77652476Y-162822000D01*
X77604857Y-162869619D01*
X77271523Y-162774380D02*
X76652476Y-162774380D01*
X76985809Y-163155333D01*
X76842952Y-163155333D01*
X76747714Y-163202952D01*
X76700095Y-163250571D01*
X76652476Y-163345809D01*
X76652476Y-163583904D01*
X76700095Y-163679142D01*
X76747714Y-163726761D01*
X76842952Y-163774380D01*
X77128666Y-163774380D01*
X77223904Y-163726761D01*
X77271523Y-163679142D01*
X76319142Y-162774380D02*
X75700095Y-162774380D01*
X76033428Y-163155333D01*
X75890571Y-163155333D01*
X75795333Y-163202952D01*
X75747714Y-163250571D01*
X75700095Y-163345809D01*
X75700095Y-163583904D01*
X75747714Y-163679142D01*
X75795333Y-163726761D01*
X75890571Y-163774380D01*
X76176285Y-163774380D01*
X76271523Y-163726761D01*
X76319142Y-163679142D01*
%TO.C,C32*%
X76588857Y-166219142D02*
X76636476Y-166266761D01*
X76779333Y-166314380D01*
X76874571Y-166314380D01*
X77017428Y-166266761D01*
X77112666Y-166171523D01*
X77160285Y-166076285D01*
X77207904Y-165885809D01*
X77207904Y-165742952D01*
X77160285Y-165552476D01*
X77112666Y-165457238D01*
X77017428Y-165362000D01*
X76874571Y-165314380D01*
X76779333Y-165314380D01*
X76636476Y-165362000D01*
X76588857Y-165409619D01*
X76255523Y-165314380D02*
X75636476Y-165314380D01*
X75969809Y-165695333D01*
X75826952Y-165695333D01*
X75731714Y-165742952D01*
X75684095Y-165790571D01*
X75636476Y-165885809D01*
X75636476Y-166123904D01*
X75684095Y-166219142D01*
X75731714Y-166266761D01*
X75826952Y-166314380D01*
X76112666Y-166314380D01*
X76207904Y-166266761D01*
X76255523Y-166219142D01*
X75255523Y-165409619D02*
X75207904Y-165362000D01*
X75112666Y-165314380D01*
X74874571Y-165314380D01*
X74779333Y-165362000D01*
X74731714Y-165409619D01*
X74684095Y-165504857D01*
X74684095Y-165600095D01*
X74731714Y-165742952D01*
X75303142Y-166314380D01*
X74684095Y-166314380D01*
%TO.C,C30*%
X98401142Y-135755142D02*
X98448761Y-135707523D01*
X98496380Y-135564666D01*
X98496380Y-135469428D01*
X98448761Y-135326571D01*
X98353523Y-135231333D01*
X98258285Y-135183714D01*
X98067809Y-135136095D01*
X97924952Y-135136095D01*
X97734476Y-135183714D01*
X97639238Y-135231333D01*
X97544000Y-135326571D01*
X97496380Y-135469428D01*
X97496380Y-135564666D01*
X97544000Y-135707523D01*
X97591619Y-135755142D01*
X97496380Y-136088476D02*
X97496380Y-136707523D01*
X97877333Y-136374190D01*
X97877333Y-136517047D01*
X97924952Y-136612285D01*
X97972571Y-136659904D01*
X98067809Y-136707523D01*
X98305904Y-136707523D01*
X98401142Y-136659904D01*
X98448761Y-136612285D01*
X98496380Y-136517047D01*
X98496380Y-136231333D01*
X98448761Y-136136095D01*
X98401142Y-136088476D01*
X97496380Y-137326571D02*
X97496380Y-137421809D01*
X97544000Y-137517047D01*
X97591619Y-137564666D01*
X97686857Y-137612285D01*
X97877333Y-137659904D01*
X98115428Y-137659904D01*
X98305904Y-137612285D01*
X98401142Y-137564666D01*
X98448761Y-137517047D01*
X98496380Y-137421809D01*
X98496380Y-137326571D01*
X98448761Y-137231333D01*
X98401142Y-137183714D01*
X98305904Y-137136095D01*
X98115428Y-137088476D01*
X97877333Y-137088476D01*
X97686857Y-137136095D01*
X97591619Y-137183714D01*
X97544000Y-137231333D01*
X97496380Y-137326571D01*
%TO.C,C29*%
X101449142Y-120007142D02*
X101496761Y-119959523D01*
X101544380Y-119816666D01*
X101544380Y-119721428D01*
X101496761Y-119578571D01*
X101401523Y-119483333D01*
X101306285Y-119435714D01*
X101115809Y-119388095D01*
X100972952Y-119388095D01*
X100782476Y-119435714D01*
X100687238Y-119483333D01*
X100592000Y-119578571D01*
X100544380Y-119721428D01*
X100544380Y-119816666D01*
X100592000Y-119959523D01*
X100639619Y-120007142D01*
X100639619Y-120388095D02*
X100592000Y-120435714D01*
X100544380Y-120530952D01*
X100544380Y-120769047D01*
X100592000Y-120864285D01*
X100639619Y-120911904D01*
X100734857Y-120959523D01*
X100830095Y-120959523D01*
X100972952Y-120911904D01*
X101544380Y-120340476D01*
X101544380Y-120959523D01*
X101544380Y-121435714D02*
X101544380Y-121626190D01*
X101496761Y-121721428D01*
X101449142Y-121769047D01*
X101306285Y-121864285D01*
X101115809Y-121911904D01*
X100734857Y-121911904D01*
X100639619Y-121864285D01*
X100592000Y-121816666D01*
X100544380Y-121721428D01*
X100544380Y-121530952D01*
X100592000Y-121435714D01*
X100639619Y-121388095D01*
X100734857Y-121340476D01*
X100972952Y-121340476D01*
X101068190Y-121388095D01*
X101115809Y-121435714D01*
X101163428Y-121530952D01*
X101163428Y-121721428D01*
X101115809Y-121816666D01*
X101068190Y-121864285D01*
X100972952Y-121911904D01*
%TO.C,C28*%
X110370857Y-129389142D02*
X110418476Y-129436761D01*
X110561333Y-129484380D01*
X110656571Y-129484380D01*
X110799428Y-129436761D01*
X110894666Y-129341523D01*
X110942285Y-129246285D01*
X110989904Y-129055809D01*
X110989904Y-128912952D01*
X110942285Y-128722476D01*
X110894666Y-128627238D01*
X110799428Y-128532000D01*
X110656571Y-128484380D01*
X110561333Y-128484380D01*
X110418476Y-128532000D01*
X110370857Y-128579619D01*
X109989904Y-128579619D02*
X109942285Y-128532000D01*
X109847047Y-128484380D01*
X109608952Y-128484380D01*
X109513714Y-128532000D01*
X109466095Y-128579619D01*
X109418476Y-128674857D01*
X109418476Y-128770095D01*
X109466095Y-128912952D01*
X110037523Y-129484380D01*
X109418476Y-129484380D01*
X108847047Y-128912952D02*
X108942285Y-128865333D01*
X108989904Y-128817714D01*
X109037523Y-128722476D01*
X109037523Y-128674857D01*
X108989904Y-128579619D01*
X108942285Y-128532000D01*
X108847047Y-128484380D01*
X108656571Y-128484380D01*
X108561333Y-128532000D01*
X108513714Y-128579619D01*
X108466095Y-128674857D01*
X108466095Y-128722476D01*
X108513714Y-128817714D01*
X108561333Y-128865333D01*
X108656571Y-128912952D01*
X108847047Y-128912952D01*
X108942285Y-128960571D01*
X108989904Y-129008190D01*
X109037523Y-129103428D01*
X109037523Y-129293904D01*
X108989904Y-129389142D01*
X108942285Y-129436761D01*
X108847047Y-129484380D01*
X108656571Y-129484380D01*
X108561333Y-129436761D01*
X108513714Y-129389142D01*
X108466095Y-129293904D01*
X108466095Y-129103428D01*
X108513714Y-129008190D01*
X108561333Y-128960571D01*
X108656571Y-128912952D01*
%TO.C,C26*%
X91828857Y-129897142D02*
X91876476Y-129944761D01*
X92019333Y-129992380D01*
X92114571Y-129992380D01*
X92257428Y-129944761D01*
X92352666Y-129849523D01*
X92400285Y-129754285D01*
X92447904Y-129563809D01*
X92447904Y-129420952D01*
X92400285Y-129230476D01*
X92352666Y-129135238D01*
X92257428Y-129040000D01*
X92114571Y-128992380D01*
X92019333Y-128992380D01*
X91876476Y-129040000D01*
X91828857Y-129087619D01*
X91447904Y-129087619D02*
X91400285Y-129040000D01*
X91305047Y-128992380D01*
X91066952Y-128992380D01*
X90971714Y-129040000D01*
X90924095Y-129087619D01*
X90876476Y-129182857D01*
X90876476Y-129278095D01*
X90924095Y-129420952D01*
X91495523Y-129992380D01*
X90876476Y-129992380D01*
X90019333Y-128992380D02*
X90209809Y-128992380D01*
X90305047Y-129040000D01*
X90352666Y-129087619D01*
X90447904Y-129230476D01*
X90495523Y-129420952D01*
X90495523Y-129801904D01*
X90447904Y-129897142D01*
X90400285Y-129944761D01*
X90305047Y-129992380D01*
X90114571Y-129992380D01*
X90019333Y-129944761D01*
X89971714Y-129897142D01*
X89924095Y-129801904D01*
X89924095Y-129563809D01*
X89971714Y-129468571D01*
X90019333Y-129420952D01*
X90114571Y-129373333D01*
X90305047Y-129373333D01*
X90400285Y-129420952D01*
X90447904Y-129468571D01*
X90495523Y-129563809D01*
%TO.C,C25*%
X95353142Y-120007142D02*
X95400761Y-119959523D01*
X95448380Y-119816666D01*
X95448380Y-119721428D01*
X95400761Y-119578571D01*
X95305523Y-119483333D01*
X95210285Y-119435714D01*
X95019809Y-119388095D01*
X94876952Y-119388095D01*
X94686476Y-119435714D01*
X94591238Y-119483333D01*
X94496000Y-119578571D01*
X94448380Y-119721428D01*
X94448380Y-119816666D01*
X94496000Y-119959523D01*
X94543619Y-120007142D01*
X94543619Y-120388095D02*
X94496000Y-120435714D01*
X94448380Y-120530952D01*
X94448380Y-120769047D01*
X94496000Y-120864285D01*
X94543619Y-120911904D01*
X94638857Y-120959523D01*
X94734095Y-120959523D01*
X94876952Y-120911904D01*
X95448380Y-120340476D01*
X95448380Y-120959523D01*
X94448380Y-121864285D02*
X94448380Y-121388095D01*
X94924571Y-121340476D01*
X94876952Y-121388095D01*
X94829333Y-121483333D01*
X94829333Y-121721428D01*
X94876952Y-121816666D01*
X94924571Y-121864285D01*
X95019809Y-121911904D01*
X95257904Y-121911904D01*
X95353142Y-121864285D01*
X95400761Y-121816666D01*
X95448380Y-121721428D01*
X95448380Y-121483333D01*
X95400761Y-121388095D01*
X95353142Y-121340476D01*
%TO.C,C24*%
X90812857Y-136501142D02*
X90860476Y-136548761D01*
X91003333Y-136596380D01*
X91098571Y-136596380D01*
X91241428Y-136548761D01*
X91336666Y-136453523D01*
X91384285Y-136358285D01*
X91431904Y-136167809D01*
X91431904Y-136024952D01*
X91384285Y-135834476D01*
X91336666Y-135739238D01*
X91241428Y-135644000D01*
X91098571Y-135596380D01*
X91003333Y-135596380D01*
X90860476Y-135644000D01*
X90812857Y-135691619D01*
X90431904Y-135691619D02*
X90384285Y-135644000D01*
X90289047Y-135596380D01*
X90050952Y-135596380D01*
X89955714Y-135644000D01*
X89908095Y-135691619D01*
X89860476Y-135786857D01*
X89860476Y-135882095D01*
X89908095Y-136024952D01*
X90479523Y-136596380D01*
X89860476Y-136596380D01*
X89003333Y-135929714D02*
X89003333Y-136596380D01*
X89241428Y-135548761D02*
X89479523Y-136263047D01*
X88860476Y-136263047D01*
%TD*%
M02*
